<?xml version="1.0" encoding="utf-8"?><svg xmlns="http://www.w3.org/2000/svg" xmlns:xlink="http://www.w3.org/1999/xlink"><symbol fill="none" viewBox="0 0 50 45" id="icone_aide" xmlns="http://www.w3.org/2000/svg"><path fill-rule="evenodd" clip-rule="evenodd" d="M0 23C0 10.85 9.402 1 21 1s21 9.85 21 22-9.402 22-21 22S0 35.15 0 23zM21 5C11.51 5 3.818 13.059 3.818 23S11.511 41 21 41c9.49 0 17.182-8.059 17.182-18S30.489 5 21 5z" fill="#2C52FF"/><path fill-rule="evenodd" clip-rule="evenodd" d="M28.453 43.953c11.874 0 21.5-9.626 21.5-21.5s-9.626-21.5-21.5-21.5-21.5 9.626-21.5 21.5 9.626 21.5 21.5 21.5z" fill="#FA4566"/><path d="M21.164 13.54c1.127 0 2.08.2 2.86.598.798.399 1.396.927 1.794 1.586.399.659.598 1.37.598 2.132 0 .676-.112 1.257-.338 1.742a3.764 3.764 0 01-.78 1.196c-.294.312-.702.667-1.222 1.066-.641.503-1.118.953-1.43 1.352-.294.381-.442.884-.442 1.508v.676H18.59v-.806c0-.797.104-1.465.312-2.002.226-.555.486-.988.78-1.3.312-.33.702-.676 1.17-1.04.503-.381.867-.71 1.092-.988.226-.295.338-.667.338-1.118 0-.468-.138-.823-.416-1.066-.277-.26-.658-.39-1.144-.39-.936 0-1.837.511-2.704 1.534l-2.444-1.924c1.422-1.837 3.285-2.756 5.59-2.756zm-.728 14.3c.659 0 1.205.225 1.638.676.434.45.65.988.65 1.612 0 .641-.216 1.187-.65 1.638-.433.45-.979.676-1.638.676-.658 0-1.204-.225-1.638-.676-.416-.45-.624-.997-.624-1.638 0-.624.217-1.161.65-1.612.434-.45.971-.676 1.612-.676z" fill="#2C52FF"/></symbol><symbol fill="none" viewBox="0 0 65 49" id="icone_ajout_panier" xmlns="http://www.w3.org/2000/svg"><rect width="65" height="49" rx="5" fill="#FF4769"/><path fill-rule="evenodd" clip-rule="evenodd" d="M34.853 21.19h-2.976V16.62h-4.463v-3.048h4.463V9h2.976v4.571h4.463v3.048h-4.463v4.572zM22.966 37.953c0-1.683 1.316-3.047 2.96-3.047s2.976 1.364 2.976 3.047c0 1.684-1.332 3.048-2.976 3.048s-2.96-1.364-2.96-3.048zm17.838-3.047c-1.644 0-2.961 1.364-2.961 3.047 0 1.684 1.317 3.048 2.96 3.048 1.645 0 2.976-1.364 2.976-3.048 0-1.683-1.331-3.047-2.975-3.047zM26.23 29.769a.37.37 0 00-.044.183c0 .214.163.381.372.381h17.22v3.048H25.926c-1.644 0-2.975-1.364-2.975-3.048 0-.533.134-1.028.364-1.47l2.016-3.733-5.355-11.559H17v-3.047h4.857l1.406 3.047 1.414 3.048 3.34 7.208.193.411h10.436l4.1-7.619 1.643-3.048h.008L47 15.034l-5.743 10.682c-.513.937-1.487 1.57-2.603 1.57H27.57l-1.339 2.483z" fill="#000"/></symbol><symbol fill="none" viewBox="0 0 22 23" id="icone_ajout_panier_noir" xmlns="http://www.w3.org/2000/svg"><path fill-rule="evenodd" clip-rule="evenodd" d="M11.708 8.427H9.953v-2.92H7.321V3.56h2.632V.639h1.755v2.92h2.632v1.948h-2.632v2.92zm-7.01 10.71c0-1.076.776-1.948 1.746-1.948s1.754.872 1.754 1.947c0 1.076-.785 1.947-1.754 1.947-.97 0-1.746-.87-1.746-1.947zm10.52-1.948c-.97 0-1.746.872-1.746 1.947 0 1.076.776 1.947 1.745 1.947.97 0 1.755-.87 1.755-1.947 0-1.075-.785-1.947-1.755-1.947zm-8.594-3.28a.252.252 0 00-.027.116c0 .136.097.243.22.243h10.155v1.948H6.444c-.97 0-1.755-.872-1.755-1.948 0-.34.079-.657.215-.939l1.189-2.385L2.934 3.56H1.18V1.612h2.865l.83 1.948.833 1.947 1.97 4.604.114.263h6.154l2.418-4.867.969-1.947h.004l1.536.934-3.387 6.825c-.303.598-.877 1.002-1.535 1.002H7.413l-.79 1.587z" fill="#000"/></symbol><symbol viewBox="0 0 120 42" id="icone_amex" xmlns="http://www.w3.org/2000/svg"><defs><path id="ada" d="M0 0h120v68.571H0z"/></defs><g transform="translate(0 -17)" fill="none" fill-rule="evenodd"><mask id="adb" fill="#fff"><use xlink:href="#ada"/></mask><g fill="#0070D0" mask="url(#adb)"><path d="M11.063 27.455h4.124l-2.062-5.25zM62.25 22.955c-.375-.187-.938-.187-1.5-.187H57v3h3.75c.563 0 1.125 0 1.5-.188.375-.187.563-.75.563-1.312.187-.75-.188-1.125-.563-1.313z"/><path d="M102.375 17.33v2.25l-1.125-2.25h-8.813v2.25l-1.124-2.25h-12c-2.063 0-3.75.375-5.25 1.125V17.33h-8.438v1.125c-.938-.75-2.063-1.125-3.563-1.125H31.875l-2.063 4.688-2.062-4.688h-9.563v2.25l-1.125-2.25H9l-3.75 8.813-4.313 9.75H10.5l1.125-3h2.625l1.125 3H26.25v-2.25l.938 2.25h5.437l.938-2.25v2.25h26.062v-4.875H60c.375 0 .375 0 .375.562v4.125h13.5V34.58c1.125.563 2.813 1.125 5.063 1.125h5.624l1.126-3h2.624l1.126 3h10.874v-2.812L102 35.705h8.813V17.33h-8.438zM39 33.08h-3.188V22.768l-4.5 10.312H28.5L24 22.768V33.08h-6.375l-1.313-2.812H9.938l-1.124 3H5.25l5.625-13.313h4.688l5.25 12.563V19.955h5.062l4.125 9 3.75-9H39V33.08zm12.75-10.312h-7.313v2.437h7.126v2.625h-7.126v2.625h7.313v2.813h-10.5V19.955h10.5v2.813zm14.063 5.437c.374.75.562 1.313.562 2.438v2.625h-3.188V31.58c0-.75 0-1.875-.562-2.625-.563-.562-1.125-.562-2.25-.562H57v4.875h-3.188V19.955h7.126c1.687 0 2.812 0 3.75.563.937.562 1.5 1.5 1.5 3 0 2.062-1.313 3.187-2.25 3.562.937.188 1.5.75 1.874 1.125zm5.624 4.875H68.25V19.768h3.188V33.08zm36.938 0h-4.5l-6-9.937v9.937H91.5l-1.125-2.812h-6.563l-1.124 3h-3.563c-1.5 0-3.375-.375-4.5-1.5s-1.688-2.625-1.688-5.063c0-1.875.376-3.75 1.688-5.25.938-1.125 2.625-1.5 4.688-1.5h3v2.813h-3c-1.126 0-1.688.187-2.438.75-.563.562-.938 1.687-.938 3 0 1.5.188 2.437.938 3.187.563.563 1.313.75 2.25.75h1.313l4.312-10.312h4.688l5.25 12.562V20.143h4.687l5.438 9.187v-9.187H108V33.08h.375z" fill-rule="nonzero"/><path d="M84.938 27.455h4.312l-2.063-5.25zM53.063 54.455V43.768l-4.876 5.25zM33 45.08v2.438h6.938v2.625H33v2.812h7.688l3.562-3.937-3.375-3.938zM60.188 45.08H56.25v3.375h4.125c1.125 0 1.875-.562 1.875-1.687-.188-1.125-.938-1.688-2.063-1.688z"/><path d="M118.125 48.268V39.83h-7.875c-1.688 0-3 .375-3.938 1.125V39.83h-8.624c-1.313 0-3 .375-3.75 1.125V39.83H78.75v1.125c-1.125-.937-3.188-1.125-4.125-1.125H64.5v1.125c-.938-.937-3.188-1.125-4.313-1.125h-11.25l-2.624 2.813-2.438-2.813H27v18.375h16.5l2.625-2.812 2.438 2.812h10.124v-4.312H60c1.313 0 3 0 4.313-.563v5.063h8.437v-4.875h.375c.563 0 .563 0 .563.562v4.313h25.5c1.687 0 3.374-.375 4.312-1.125v1.125h8.063c1.687 0 3.374-.188 4.5-.938 1.874-1.125 3-3.187 3-5.625 0-1.312-.376-2.625-.938-3.562zm-58.125 3h-3.75v4.5h-6l-3.75-4.313-3.938 4.313H30.188V42.455H42.75l3.75 4.313 3.938-4.313h9.937c2.438 0 5.25.75 5.25 4.313-.188 3.75-2.813 4.5-5.625 4.5zm18.75-.75c.375.562.563 1.312.563 2.437v2.625h-3.188v-1.687c0-.75 0-2.063-.563-2.625-.374-.563-1.124-.563-2.25-.563h-3.374v4.875H66.75V42.268h7.125c1.5 0 2.813 0 3.75.562.938.563 1.688 1.5 1.688 3 0 2.063-1.313 3.188-2.25 3.563.937.375 1.5.75 1.687 1.125zm12.938-5.438h-7.313v2.438H91.5v2.625h-7.125v2.625h7.313v2.812h-10.5V42.268h10.5v2.812zm7.874 10.5h-6v-2.812h6c.563 0 .938 0 1.313-.375.188-.188.375-.563.375-.938s-.188-.75-.375-.937c-.188-.188-.563-.375-1.125-.375-3-.188-6.563 0-6.563-4.125 0-1.875 1.126-3.938 4.5-3.938h6.188v3.188h-5.813c-.562 0-.937 0-1.312.187-.375.188-.375.563-.375.938 0 .562.375.75.75.937.375.188.75.188 1.125.188h1.688c1.687 0 2.812.375 3.562 1.125.563.562.938 1.5.938 2.812 0 2.813-1.688 4.125-4.876 4.125zm16.126-1.312c-.75.75-2.063 1.312-3.938 1.312h-6v-2.812h6c.563 0 .938 0 1.313-.375.187-.188.374-.563.374-.938s-.187-.75-.374-.937c-.188-.188-.563-.375-1.126-.375-3-.188-6.562 0-6.562-4.125 0-1.875 1.125-3.938 4.5-3.938h6.188v3.188h-5.626c-.562 0-.937 0-1.312.187-.375.188-.375.563-.375.938 0 .562.188.75.75.937.375.188.75.188 1.125.188h1.688c1.687 0 2.812.375 3.562 1.125.188 0 .188.187.188.187.562.75.75 1.688.75 2.625 0 1.125-.376 2.063-1.126 2.813z" fill-rule="nonzero"/><path d="M75.375 45.455c-.375-.187-.938-.187-1.5-.187h-3.75v3h3.75c.563 0 1.125 0 1.5-.188.375-.187.563-.75.563-1.312.187-.75-.188-1.125-.563-1.313z"/><g><path d="M62.25 22.955c-.375-.187-.938-.187-1.5-.187H57v3h3.75c.563 0 1.125 0 1.5-.188.375-.187.563-.75.563-1.312.187-.75-.188-1.125-.563-1.313zM84.938 27.455h4.312l-2.063-5.25z"/><g><path d="M53.063 54.455V43.768l-4.876 5.25zM60.188 45.08H56.25v3.375h4.125c1.125 0 1.875-.562 1.875-1.687-.188-1.125-.938-1.688-2.063-1.688zM75.375 45.455c-.375-.187-.938-.187-1.5-.187h-3.75v3h3.75c.563 0 1.125 0 1.5-.188.375-.187.563-.75.563-1.312.187-.75-.188-1.125-.563-1.313z"/></g></g><path d="M58.875 55.205l-2.625-2.812v3.187h-6.188l-3.75-4.312-4.124 4.312H29.812V42.455h12.563l3.938 4.313 1.874-2.25L43.5 39.83H27v18.375h16.5l2.813-2.812 2.437 2.812h10.125z"/><g><path d="M39.375 35.705l-2.438-2.625h-1.124v-1.125L33 29.143l-1.875 3.937H28.5L24 22.768V33.08h-6.375l-1.313-2.812H9.938L8.626 33.08H5.25l5.625-13.125h4.688l5.25 12.563V19.955h2.812L21 17.33h-2.813v2.25l-.937-2.25H9l-3.75 8.813-4.313 9.562h9.751l1.124-2.812h2.626l1.312 2.812h10.5v-2.25l.938 2.25h5.437l.938-2.25v2.25z"/><path d="M30.75 27.08l-3-3L30 28.955z"/></g><g><path d="M116.063 57.268a6.859 6.859 0 003-5.063l-2.626-2.625c.188.563.376 1.125.376 1.875 0 1.125-.376 2.063-1.126 2.813-.75.75-2.062 1.312-3.937 1.312h-6v-2.812h6c.563 0 .938 0 1.313-.375.187-.188.374-.563.374-.938s-.187-.75-.374-.937c-.188-.188-.563-.375-1.126-.375-3-.188-6.562 0-6.562-4.125 0-1.875 1.125-3.563 3.938-3.938l-2.063-2.062c-.375.187-.563.375-.75.375v-1.125h-8.625c-1.313 0-3 .375-3.75 1.125v-1.125H78.75v1.125c-1.125-.938-3.188-1.125-4.125-1.125H64.5v1.125c-.938-.938-3.188-1.125-4.313-1.125h-11.25l-2.624 2.812-2.438-2.812h-2.063l5.626 5.625 2.812-3h9.938c2.437 0 5.25.75 5.25 4.312 0 3.75-2.626 4.5-5.438 4.5h-3.75v2.813l2.813 2.812v-2.812H60c1.313 0 3 0 4.313-.563v5.063h8.437v-4.875h.375c.563 0 .563 0 .563.562v4.313h25.5c1.687 0 3.374-.375 4.312-1.125v1.125h8.063c1.5.187 3.187 0 4.5-.75zm-37.313-6.75c.375.562.563 1.312.563 2.437v2.625h-3.188v-1.687c0-.75 0-2.063-.563-2.625-.374-.563-1.124-.563-2.25-.563h-3.374v4.875H66.75V42.268h7.125c1.5 0 2.813 0 3.75.562.938.563 1.688 1.5 1.688 3 0 2.063-1.313 3.188-2.25 3.563.937.375 1.5.75 1.687 1.125zm12.938-5.438h-7.313v2.438H91.5v2.625h-7.125v2.625h7.313v2.812h-10.5V42.268h10.5v2.812zm7.874 10.5h-6v-2.812h6c.563 0 .938 0 1.313-.375.188-.188.375-.563.375-.938s-.188-.75-.375-.937c-.188-.188-.563-.375-1.125-.375-3-.188-6.563 0-6.563-4.125 0-1.875 1.126-3.938 4.5-3.938h6.188v3.188h-5.813c-.562 0-.937 0-1.312.187-.375.188-.375.563-.375.938 0 .562.375.75.75.937.375.188.75.188 1.125.188h1.688c1.687 0 2.812.375 3.562 1.125.563.562.938 1.5.938 2.812 0 2.813-1.688 4.125-4.876 4.125z" fill-rule="nonzero"/><path d="M108.563 46.393c0 .562.187.75.75.937.374.188.75.188 1.124.188h1.688c1.125 0 1.875.187 2.625.562l-2.813-2.812h-1.687c-.563 0-.938 0-1.313.187a1.432 1.432 0 00-.374.938z"/></g><g><path d="M102 35.143l.375.562h.188zM91.688 24.83l3.187 7.688v-4.5z"/><path d="M59.625 31.018H60c.375 0 .375 0 .375.562v4.125h13.5V34.58c1.125.563 2.813 1.125 5.063 1.125h5.624l1.126-3h2.624l1.126 3h10.874V33.83l-2.624-2.625v2.063h-6.376l-.937-3h-6.563l-1.124 3h-3.563c-1.5 0-3.375-.375-4.5-1.5s-1.688-2.625-1.688-5.063c0-1.875.376-3.75 1.688-5.25.938-1.125 2.625-1.5 4.688-1.5h3v2.813h-3c-1.126 0-1.688.187-2.438.75-.563.562-.938 1.687-.938 3 0 1.5.188 2.437.938 3.187.563.563 1.313.75 2.25.75h1.313l4.312-10.312h1.875L84 17.518h-4.875c-2.063 0-3.75.375-5.25 1.125v-1.125h-8.25v1.125c-.938-.75-2.063-1.125-3.563-1.125H31.875l-2.063 4.687-2.062-4.687H19.5l2.625.75h3.75l3.188 8.812 1.125 1.125 3.375-8.25h5.25v13.313h-3.188V22.955l-3.188 7.5 5.438 5.438h21.563l.187-4.875zm8.625-11.063h3.188v13.313H68.25V19.955zm-16.5 2.813h-7.313v2.437h7.126v2.625h-7.126v2.625h7.313v2.813h-10.5V19.955h10.5v2.813zM57 33.08h-3.188V19.768h7.126c1.687 0 2.812 0 3.75.562.937.563 1.5 1.5 1.5 3 0 2.063-1.313 3.188-2.25 3.563.75.187 1.312.75 1.5 1.125.374.75.562 1.312.562 2.437v2.625h-3.188v-1.687c0-.75 0-1.875-.562-2.625-.188-.375-.75-.375-1.875-.375H57v4.687z" fill-rule="nonzero"/></g></g></g></symbol><symbol fill="none" viewBox="0 0 27 27" id="icone_bouton_radio_checked" xmlns="http://www.w3.org/2000/svg"><path d="M13.5 1.125c-6.834 0-12.375 5.54-12.375 12.375S6.665 25.875 13.5 25.875c6.834 0 12.375-5.54 12.375-12.375S20.335 1.125 13.5 1.125zm0 22.5c-5.592 0-10.125-4.533-10.125-10.125S7.908 3.375 13.5 3.375 23.625 7.908 23.625 13.5 19.092 23.625 13.5 23.625z" fill="#2C52FF"/><path d="M18.08 10.454a1.126 1.126 0 00-1.591 0l-3.978 3.978-1.59-1.591a1.125 1.125 0 00-1.592 1.591l2.386 2.386c.44.44 1.152.44 1.592 0l4.773-4.773c.44-.44.44-1.151 0-1.591z" fill="#2C52FF"/></symbol><symbol fill="none" viewBox="0 0 27 27" id="icone_bouton_radio_unchecked" xmlns="http://www.w3.org/2000/svg"><path d="M13.5 1.125c-6.834 0-12.375 5.54-12.375 12.375S6.665 25.875 13.5 25.875c6.834 0 12.375-5.54 12.375-12.375S20.335 1.125 13.5 1.125zm0 22.5c-5.592 0-10.125-4.533-10.125-10.125S7.908 3.375 13.5 3.375 23.625 7.908 23.625 13.5 19.092 23.625 13.5 23.625z" fill="#D9D9D9"/></symbol><symbol fill="none" viewBox="0 0 14 12" id="icone_catalogue_dernier" xmlns="http://www.w3.org/2000/svg"><path d="M.5.5l5.136 5M.5 11.5l5.136-6M7.5.5l5.136 5M7.5 11.5l5.136-6" stroke="#000" stroke-linecap="round"/></symbol><symbol fill="none" viewBox="0 0 44 16" id="icone_catalogue_etoiles" xmlns="http://www.w3.org/2000/svg"><path d="M5.872 3.112H2v3.664a2.842 2.842 0 011.632-.512c.821 0 1.477.293 1.968.88.49.587.736 1.397.736 2.432 0 .704-.128 1.328-.384 1.872s-.619.97-1.088 1.28c-.47.299-1.019.448-1.648.448-.565 0-1.067-.107-1.504-.32a4.443 4.443 0 01-1.232-.96l.576-.512c.31.352.635.613.976.784.341.16.736.24 1.184.24.672 0 1.205-.25 1.6-.752.395-.512.592-1.21.592-2.096 0-.875-.181-1.52-.544-1.936C4.512 7.208 4.032 7 3.424 7c-.31 0-.581.043-.816.128a3.503 3.503 0 00-.784.384h-.688V2.36h4.88l-.144.752zM12.857.168l.768.176-3.36 14.24-.768-.176 3.36-14.24zm9.07 2.944h-3.872v3.664a2.842 2.842 0 011.632-.512c.822 0 1.477.293 1.968.88.49.587.736 1.397.736 2.432 0 .704-.128 1.328-.384 1.872s-.619.97-1.088 1.28c-.47.299-1.018.448-1.648.448-.565 0-1.067-.107-1.504-.32a4.443 4.443 0 01-1.232-.96l.576-.512c.31.352.635.613.976.784.341.16.736.24 1.184.24.672 0 1.206-.25 1.6-.752.395-.512.592-1.21.592-2.096 0-.875-.181-1.52-.544-1.936-.352-.416-.832-.624-1.44-.624-.31 0-.581.043-.816.128a3.502 3.502 0 00-.784.384h-.688V2.36h4.88l-.144.752z" fill="#000"/><path d="M43.117 6.282a.408.408 0 00-.327-.277l-4.566-.648-2.055-4.131a.405.405 0 00-.727.003l-2.028 4.143-4.567.679a.408.408 0 00-.327.276.401.401 0 00.105.415l3.314 3.211-.767 4.549a.4.4 0 00.163.396.401.401 0 00.426.03l4.077-2.16 4.089 2.136a.408.408 0 00.58-.454l-.79-4.52 3.292-3.23a.397.397 0 00.108-.418z" fill="#FF4769" stroke="#FF4769" stroke-width=".3"/><g style="mix-blend-mode:multiply" fill="#2443CD"><path fill-rule="evenodd" clip-rule="evenodd" d="M40.29 6.005c.153.024.28.13.328.277a.397.397 0 01-.109.417l-3.292 3.23.79 4.521a.408.408 0 01-.58.454l-4.089-2.136-4.077 2.16a.401.401 0 01-.427-.03.4.4 0 01-.162-.396l.767-4.549-3.314-3.211a.401.401 0 01-.105-.415.408.408 0 01.327-.276l4.567-.68L32.94 1.23a.405.405 0 01.728-.003l2.055 4.13 4.566.65zM36.388 9.86a.4.4 0 01.114-.36l2.863-2.804-3.966-.564a.413.413 0 01-.306-.223l-1.785-3.587-1.76 3.596a.402.402 0 01-.304.223l-3.963.588 2.873 2.788a.405.405 0 01.117.358l-.664 3.95 3.539-1.874a.412.412 0 01.378 0l3.551 1.854-.688-3.945z"/><path d="M40.29 6.005l.023-.148h-.002l-.021.148zm.22.694l-.102-.11-.004.003.105.107zm-3.293 3.23l-.105-.107-.057.055.014.078.148-.026zm.79 4.521l-.148.026.002.01.002.008.144-.043zm-.58.454l-.07.133.003.001.067-.134zm-4.089-2.136l.07-.133-.07-.036-.07.037.07.132zm-4.077 2.16l-.07-.132h-.002l.072.132zm-.426-.03l.089-.12-.002-.002-.087.122zm-.163-.396l.148.026v-.002l-.148-.024zm.767-4.549l.147.025.014-.078-.057-.055-.104.108zm-3.314-3.211l.104-.108-.001-.001-.103.109zm.222-.691l-.022-.149h-.001l.023.149zm4.567-.68l.022.149.078-.012.034-.07-.134-.066zM32.94 1.23l.135.066-.135-.066zm.728-.003l.134-.067-.134.067zm2.055 4.13l-.135.067.035.07.078.012.022-.148zm.778 4.143l.104.108-.104-.108zm-.114.361l.147-.026-.147.026zm2.977-3.164l.105.108.217-.213-.301-.043-.021.148zm-3.966-.564l-.023.148h.002l.021-.148zm-.306-.223l-.135.067.135-.067zm-1.785-3.587l.134-.067-.135-.272-.134.273.135.066zm-1.76 3.596l-.135-.066v.002l.134.064zm-.304.223l.022.148h.002l-.024-.148zm-3.963.588l-.022-.148-.3.045.218.211.104-.108zm2.873 2.788l-.105.108.105-.108zm.117.358l.148.025v-.001l-.148-.024zm-.664 3.95l-.148-.024-.05.3.268-.143-.07-.132zm3.539-1.874l-.067-.134-.003.001.07.133zm.378 0l-.07.132h.001l.07-.132zm3.551 1.854l-.069.133.27.14-.053-.3-.148.027zm3.685-7.57a.558.558 0 00-.447-.378l-.046.297a.258.258 0 01.208.174l.285-.093zm-.149.575a.547.547 0 00.15-.575l-.286.093a.247.247 0 01-.067.261l.203.22zm-3.29 3.226l3.293-3.23-.21-.214-3.292 3.23.21.214zm.834 4.389l-.79-4.522-.296.052.79 4.521.295-.051zm.014.119a.463.463 0 00-.019-.137l-.287.087a.171.171 0 01.006.05h.3zm-.556.555c.305 0 .556-.25.556-.555h-.3c0 .14-.116.255-.256.255v.3zm-.253-.06c.08.04.166.06.253.06v-.3a.264.264 0 01-.119-.029l-.134.268zM33.269 12.9l4.089 2.136.138-.266-4.088-2.136-.14.266zm-3.938 2.16l4.077-2.16-.14-.265-4.077 2.16.14.265zm-.259.065c.09 0 .178-.02.262-.066l-.145-.263a.236.236 0 01-.117.03v.3zm-.326-.107c.095.07.21.107.326.107v-.3a.25.25 0 01-.148-.049l-.178.242zm-.221-.543a.55.55 0 00.223.544l.174-.244a.25.25 0 01-.102-.248l-.295-.053zm.766-4.548l-.767 4.549.296.05.766-4.549-.295-.05zM26.02 6.85l3.313 3.212.209-.216-3.314-3.211-.209.215zm-.144-.569a.551.551 0 00.145.57l.206-.217a.251.251 0 01-.066-.26l-.285-.093zm.447-.378a.558.558 0 00-.447.378l.285.093c.03-.092.11-.159.208-.174l-.046-.297zm4.568-.679l-4.567.68.044.296 4.567-.68-.044-.296zm1.915-4.06l-2.028 4.143.27.131 2.027-4.142-.27-.132zm.498-.313c-.21 0-.404.12-.498.313l.27.132a.255.255 0 01.228-.145v-.3zm.498.309a.557.557 0 00-.498-.309v.3c.096 0 .186.055.23.143l.268-.134zm2.055 4.13l-2.055-4.13-.269.133 2.055 4.131.269-.133zm4.453.568l-4.566-.649-.043.297 4.567.649.042-.297zm-3.914 3.535a.55.55 0 00-.157.495l.295-.054a.251.251 0 01.071-.226l-.209-.215zm2.863-2.803l-2.863 2.803.21.215 2.863-2.803-.21-.215zm-3.882-.309l3.966.565.042-.297-3.966-.565-.042.297zm-.42-.304a.563.563 0 00.418.304l.047-.296a.263.263 0 01-.196-.142l-.269.134zM33.174 2.39l1.784 3.587.269-.133-1.785-3.588-.268.134zm-1.492 3.595l1.76-3.596-.269-.132-1.76 3.596.27.132zm-.414.305a.552.552 0 00.415-.306l-.27-.129a.253.253 0 01-.192.139l.047.296zm-3.965.589l3.963-.589-.044-.297-3.963.59.044.296zm2.955 2.532l-2.872-2.788-.209.215 2.872 2.788.209-.215zm.16.489a.555.555 0 00-.16-.49l-.209.216c.06.058.087.14.074.226l.296.048zm-.663 3.952l.664-3.951-.296-.05-.664 3.95.296.05zm3.32-2.033l-3.538 1.875.14.265 3.539-1.874-.14-.266zm.52 0a.56.56 0 00-.516-.001l.134.268c.08-.04.17-.04.24-.002l.142-.264zm3.55 1.854l-3.551-1.854-.139.266 3.551 1.854.139-.266zm-.905-3.786l.688 3.944.295-.051-.688-3.945-.295.052z"/></g></symbol><symbol fill="none" viewBox="0 0 26 26" id="icone_catalogue_grille" xmlns="http://www.w3.org/2000/svg"><rect width="11.364" height="11.364" rx=".5" fill="#000"/><rect x="14.636" width="11.364" height="11.364" rx=".5" fill="#000"/><rect x="14.636" y="14.636" width="11.364" height="11.364" rx=".5" fill="#000"/><rect y="14.636" width="11.364" height="11.364" rx=".5" fill="#000"/></symbol><symbol fill="none" viewBox="0 0 26 26" id="icone_catalogue_grille_bleu" xmlns="http://www.w3.org/2000/svg"><rect width="11.364" height="11.364" rx=".5" fill="#2C52FF"/><rect x="14.636" width="11.364" height="11.364" rx=".5" fill="#2C52FF"/><rect x="14.636" y="14.636" width="11.364" height="11.364" rx=".5" fill="#2C52FF"/><rect y="14.636" width="11.364" height="11.364" rx=".5" fill="#2C52FF"/></symbol><symbol fill="none" viewBox="0 0 30 25" id="icone_catalogue_liste" xmlns="http://www.w3.org/2000/svg"><path d="M11.117 12.352h17.292" stroke="#000" stroke-width="2.5" stroke-linecap="round"/><path fill-rule="evenodd" clip-rule="evenodd" d="M2.47 14.822a2.47 2.47 0 100-4.94 2.47 2.47 0 000 4.94z" fill="#000"/><path d="M11.117 2.47h17.292" stroke="#000" stroke-width="2.5" stroke-linecap="round"/><path fill-rule="evenodd" clip-rule="evenodd" d="M2.47 4.94a2.47 2.47 0 100-4.94 2.47 2.47 0 000 4.94z" fill="#000"/><path d="M11.117 22.233h17.292" stroke="#000" stroke-width="2.5" stroke-linecap="round"/><path fill-rule="evenodd" clip-rule="evenodd" d="M2.47 24.703a2.47 2.47 0 100-4.94 2.47 2.47 0 000 4.94z" fill="#000"/></symbol><symbol fill="none" viewBox="0 0 30 25" id="icone_catalogue_liste_bleu" xmlns="http://www.w3.org/2000/svg"><path d="M11.117 12.352h17.292" stroke="#2C52FF" stroke-width="2.5" stroke-linecap="round"/><path fill-rule="evenodd" clip-rule="evenodd" d="M2.47 14.822a2.47 2.47 0 100-4.94 2.47 2.47 0 000 4.94z" fill="#2C52FF"/><path d="M11.117 2.47h17.292" stroke="#2C52FF" stroke-width="2.5" stroke-linecap="round"/><path fill-rule="evenodd" clip-rule="evenodd" d="M2.47 4.94a2.47 2.47 0 100-4.94 2.47 2.47 0 000 4.94z" fill="#2C52FF"/><path d="M11.117 22.233h17.292" stroke="#2C52FF" stroke-width="2.5" stroke-linecap="round"/><path fill-rule="evenodd" clip-rule="evenodd" d="M2.47 24.703a2.47 2.47 0 100-4.94 2.47 2.47 0 000 4.94z" fill="#2C52FF"/></symbol><symbol fill="none" viewBox="0 0 7 12" id="icone_catalogue_precedent" xmlns="http://www.w3.org/2000/svg"><path d="M6.5.5l-5.136 5M6.5 11.5l-5.136-6" stroke="#000" stroke-linecap="round"/></symbol><symbol fill="none" viewBox="0 0 13 12" id="icone_catalogue_premier" xmlns="http://www.w3.org/2000/svg"><path d="M12.5.5l-5.136 5M12.5 11.5l-5.136-6M6.5.5l-5.136 5M6.5 11.5l-5.136-6" stroke="#000" stroke-linecap="round"/></symbol><symbol fill="none" viewBox="0 0 7 12" id="icone_catalogue_suivant" xmlns="http://www.w3.org/2000/svg"><path d="M.5.5l5.136 5M.5 11.5l5.136-6" stroke="#000" stroke-linecap="round"/></symbol><symbol fill="none" viewBox="0 0 14 16" id="icone_certificat" xmlns="http://www.w3.org/2000/svg"><path fill-rule="evenodd" clip-rule="evenodd" d="M2.45 4.333v2.334H1.4C.627 6.667 0 7.263 0 8v6.667C0 15.403.627 16 1.4 16h11.2c.773 0 1.4-.597 1.4-1.333V8c0-.737-.627-1.333-1.4-1.333h-1.05V4.333C11.55 1.94 9.513 0 7 0S2.45 1.94 2.45 4.333zM4 6V3.667C4 2.193 5.342 1 7 1c1.657 0 3 1.193 3 2.667V6H4zm1 3.714C5 8.767 5.895 8 7 8s2 .767 2 1.714c0 .605-.365 1.136-.915 1.44 0 0 .195 1.012.415 2.203 0 .356-.335.643-.75.643h-1.5c-.415 0-.75-.287-.75-.643l.415-2.203C5.365 10.85 5 10.32 5 9.714z" fill="#989898"/></symbol><symbol fill="none" viewBox="0 0 25 25" id="icone_checkbox_checked" xmlns="http://www.w3.org/2000/svg"><path stroke="#2C52FF" stroke-width="3" d="M1.5 1.5h22v22h-22z"/><path fill-rule="evenodd" clip-rule="evenodd" d="M17.637 8.422a1.443 1.443 0 00-2.04 0L10.5 13.52l-2.039-2.04a1.442 1.442 0 00-2.039 2.04l3.058 3.058a1.443 1.443 0 002.04 0l6.116-6.117a1.441 1.441 0 000-2.039z" fill="#2C52FF"/></symbol><symbol fill="none" viewBox="0 0 25 25" id="icone_checkbox_unchecked" xmlns="http://www.w3.org/2000/svg"><path stroke="#C9C9C9" stroke-width="3" d="M1.5 1.5h22v22h-22z"/></symbol><symbol fill="none" viewBox="0 0 16 19" id="icone_courriel" xmlns="http://www.w3.org/2000/svg"><path d="M8.54.08c1.56 0 2.893.347 4 1.04a6.405 6.405 0 012.52 2.8c.573 1.173.86 2.48.86 3.92 0 1.933-.3 3.407-.9 4.42-.6 1-1.393 1.5-2.38 1.5-.613 0-1.107-.193-1.48-.58-.36-.4-.6-.907-.72-1.52-.267.64-.62 1.147-1.06 1.52-.44.36-.967.54-1.58.54-.92 0-1.667-.38-2.24-1.14-.56-.773-.84-1.847-.84-3.22 0-1.653.347-2.907 1.04-3.76.707-.853 1.62-1.28 2.74-1.28.88 0 1.76.247 2.64.74v5.14c0 1.773.493 2.66 1.48 2.66.653 0 1.18-.387 1.58-1.16.4-.787.6-2.06.6-3.82 0-1.347-.247-2.533-.74-3.56a5.424 5.424 0 00-2.14-2.4c-.933-.587-2.06-.88-3.38-.88-1.36 0-2.56.353-3.6 1.06-1.04.707-1.847 1.68-2.42 2.92-.56 1.227-.84 2.613-.84 4.16 0 1.653.28 3.08.84 4.28.56 1.187 1.353 2.093 2.38 2.72 1.027.64 2.233.96 3.62.96 1.147 0 2.273-.22 3.38-.66l.32.9c-.64.24-1.24.42-1.8.54-.547.12-1.187.18-1.92.18-1.547 0-2.92-.353-4.12-1.06-1.2-.707-2.14-1.733-2.82-3.08-.667-1.347-1-2.94-1-4.78 0-1.707.333-3.253 1-4.64.667-1.387 1.607-2.473 2.82-3.26C5.593.48 6.98.08 8.54.08zM7.9 12.82c.52 0 .973-.187 1.36-.56.387-.387.673-.853.86-1.4v-5.3c-.547-.24-1.073-.36-1.58-.36-.853 0-1.52.36-2 1.08-.467.707-.7 1.733-.7 3.08 0 1.147.18 2.013.54 2.6.36.573.867.86 1.52.86z" fill="#000"/></symbol><symbol fill="none" viewBox="0 0 274 10" id="icone_encadre_bas_mobile" xmlns="http://www.w3.org/2000/svg"><path d="M2 0v8h270V0" stroke="#000" stroke-width="4"/></symbol><symbol fill="none" viewBox="0 0 19 421" id="icone_encadre_droite" xmlns="http://www.w3.org/2000/svg"><path d="M0 418h16V3H0" stroke="#000" stroke-width="5"/></symbol><symbol fill="none" viewBox="0 0 19 421" id="icone_encadre_gauche" xmlns="http://www.w3.org/2000/svg"><path d="M19 3H3v415h16" stroke="#000" stroke-width="5"/></symbol><symbol fill="none" viewBox="0 0 273 10" id="icone_encadre_haut_mobile" xmlns="http://www.w3.org/2000/svg"><path d="M271 10V2H2v8" stroke="#000" stroke-width="4"/></symbol><symbol fill="none" viewBox="0 0 25 27" id="icone_evaluations" xmlns="http://www.w3.org/2000/svg"><path d="M22.881 2.06H9.322c-1.17 0-2.117 1.024-2.119 2.287V5.36C3.133 5.926 0 9.153 0 13.042c0 3.54 2.652 6.656 6.356 7.532v3.91c0 .195.116.37.287.432.172.063.362.001.473-.154l2.904-4.078c2.997-.503 5.37-2.403 6.388-4.896h.807l3.203 4.841c.08.12.208.193.345.193a.402.402 0 00.13-.022.456.456 0 00.293-.436v-4.576h1.695C24.051 15.787 25 14.763 25 13.5V4.347c-.001-1.263-.949-2.286-2.119-2.288zM9.731 19.804a.418.418 0 00-.278.175l-2.25 3.158v-2.94a.45.45 0 00-.348-.45c-3.48-.679-6.008-3.499-6.008-6.706 0-3.785 3.422-6.864 7.628-6.864 4.205 0 7.627 3.08 7.627 6.864 0 3.366-2.68 6.21-6.372 6.763zM24.151 13.5c0 .758-.569 1.373-1.27 1.373h-1.696c-.468 0-.847.41-.847.915v3.149l-2.438-3.685a.837.837 0 00-.685-.38h-.508c.158-.594.24-1.21.241-1.83 0-4.29-3.802-7.78-8.474-7.78-.144 0-.283.014-.424.02v-.935c0-.758.569-1.372 1.271-1.372h13.56c.701 0 1.27.614 1.27 1.372V13.5z" fill="#000"/><path d="M6.356 10.754c0-.758-.57-1.373-1.271-1.373-.702 0-1.271.615-1.271 1.373s.569 1.373 1.27 1.373c.703 0 1.272-.615 1.272-1.373zm-1.695 0c0-.252.19-.457.424-.457.234 0 .423.204.423.457s-.19.458-.423.458c-.234 0-.424-.205-.424-.458zM11.44 9.381c-.701 0-1.27.615-1.27 1.373s.569 1.373 1.27 1.373c.703 0 1.272-.615 1.272-1.373s-.57-1.373-1.271-1.373zm0 1.83c-.233 0-.423-.204-.423-.457 0-.252.19-.457.424-.457.234 0 .423.204.423.457s-.19.458-.423.458zM8.05 16.703c-1.634 0-2.965-1.231-2.965-2.745h-.848c0 2.018 1.71 3.66 3.814 3.66 2.103 0 3.813-1.642 3.813-3.66h-.847c0 1.514-1.331 2.745-2.966 2.745zM17.797 7.55c-.702 0-1.272.615-1.272 1.374 0 .758.57 1.373 1.272 1.373.702 0 1.27-.615 1.27-1.373 0-.759-.568-1.373-1.27-1.373zm0 1.831c-.234 0-.424-.205-.424-.457 0-.253.19-.458.424-.458.234 0 .423.205.423.458 0 .252-.19.457-.423.457zM21.186 7.55c-.702 0-1.27.615-1.27 1.374 0 .758.568 1.373 1.27 1.373.702 0 1.272-.615 1.272-1.373 0-.759-.57-1.373-1.272-1.373zm0 1.831c-.234 0-.423-.205-.423-.457 0-.253.19-.458.423-.458.234 0 .424.205.424.458 0 .252-.19.457-.424.457z" fill="#000"/></symbol><symbol fill="none" viewBox="0 0 22 22" id="icone_fermer" xmlns="http://www.w3.org/2000/svg"><g style="mix-blend-mode:multiply" fill-rule="evenodd" clip-rule="evenodd" fill="#FA4566"><path d="M0 11C0 4.925 4.925 0 11 0s11 4.925 11 11-4.925 11-11 11S0 17.075 0 11zm2 0a9 9 0 1018 0 9 9 0 00-18 0z"/><path d="M12.474 10.96L14.65 15h-2.375l-1.166-2.859L9.999 15H7.695l2.162-3.968-1.963-3.584h2.347l.925 2.446.881-2.446h2.262l-1.835 3.513z"/></g></symbol><symbol fill="none" viewBox="0 0 7 4" id="icone_fleche_bas" xmlns="http://www.w3.org/2000/svg"><path d="M6.576 0L7 .431 3.5 4 0 .431.422 0 3.5 3.135 6.576 0z" fill="#000"/></symbol><symbol fill="none" viewBox="0 0 16 13" id="icone_fleche_droite" xmlns="http://www.w3.org/2000/svg"><path d="M.8 7.305h12.469l-4.291 4.32a.81.81 0 000 1.14.797.797 0 001.131 0l5.657-5.696a.811.811 0 00.1-.122c.013-.02.022-.042.034-.064.013-.025.028-.048.039-.075.011-.027.017-.055.025-.083.007-.023.016-.044.02-.067A.81.81 0 0016 6.5v-.002a.817.817 0 00-.016-.156c-.005-.024-.014-.046-.02-.07-.008-.027-.014-.054-.025-.08-.012-.028-.027-.053-.042-.08a.792.792 0 00-.132-.182L10.11.236a.796.796 0 00-1.132 0 .81.81 0 000 1.139l4.292 4.32H.8c-.442 0-.8.36-.8.805 0 .445.358.805.8.805z" fill="#000"/></symbol><symbol fill="none" viewBox="0 0 16 13" id="icone_fleche_gauche" xmlns="http://www.w3.org/2000/svg"><path d="M15.2 5.695H2.731l4.291-4.32a.81.81 0 000-1.14.797.797 0 00-1.131 0L.234 5.932a.811.811 0 00-.1.122c-.013.02-.022.042-.034.064-.013.025-.028.048-.039.075-.011.027-.017.055-.025.083-.007.023-.016.044-.02.067a.81.81 0 000 .316c.005.024.014.046.02.07.008.027.014.054.025.08.012.028.027.053.042.08a.792.792 0 00.132.182l5.656 5.694a.796.796 0 001.132 0 .81.81 0 000-1.139L2.73 7.305H15.2c.442 0 .8-.36.8-.805a.803.803 0 00-.8-.805z" fill="#fff"/></symbol><symbol fill="none" viewBox="0 0 12 7" id="icone_fleche_haut" xmlns="http://www.w3.org/2000/svg"><path d="M11.5 6.5l-5-5.136M.5 6.5l6-5.136" stroke="#000" stroke-linecap="round"/></symbol><symbol fill="none" viewBox="0 0 10 22" id="icone_fleche_haut_bas" xmlns="http://www.w3.org/2000/svg"><g clip-path="url(#bdclip0)"><path d="M5.2 19.182l4.717-4.102a.223.223 0 000-.348.313.313 0 00-.4 0L5 18.66.484 14.732a.313.313 0 00-.4 0 .233.233 0 00-.084.173c0 .062.027.126.084.174L4.8 19.18c.11.096.29.096.398.001z" fill="#040404"/></g><g clip-path="url(#bdclip1)"><path d="M4.8 2.557L.084 6.659a.223.223 0 000 .348c.111.096.29.096.4 0L5 3.08l4.516 3.927c.111.096.29.096.4 0A.233.233 0 0010 6.834a.226.226 0 00-.084-.173L5.2 2.559a.312.312 0 00-.398-.002z" fill="#040404"/></g><defs><clipPath id="bdclip0"><path fill="#fff" transform="rotate(90 -1.304 11.304)" d="M0 0h8.696v10H0z"/></clipPath><clipPath id="bdclip1"><path fill="#fff" transform="rotate(-90 4.565 4.565)" d="M0 0h8.696v10H0z"/></clipPath></defs></symbol><symbol fill="none" viewBox="0 0 48 48" id="icone_form_erreur" xmlns="http://www.w3.org/2000/svg"><path d="M8.82 45.126h30.36a6.073 6.073 0 005.21-2.913 6.077 6.077 0 00.25-5.964L29.457 6.231A6.087 6.087 0 0024 2.874a6.087 6.087 0 00-5.458 3.357L3.362 36.25a6.075 6.075 0 00.248 5.963 6.075 6.075 0 005.21 2.912zm-2.78-7.522l15.18-30.02A3.062 3.062 0 0124 5.874c1.2 0 2.24.64 2.78 1.71l15.18 30.02c.493.973.446 2.11-.126 3.038a3.095 3.095 0 01-2.654 1.485H8.82a3.095 3.095 0 01-2.654-1.485 3.094 3.094 0 01-.127-3.038z" fill="#FA4566"/><path d="M26.52 17.6l-.65 10.675h-3.75L21.47 17.6h5.05zm-2.526 12.825c.717 0 1.308.25 1.775.75.483.5.725 1.1.725 1.8 0 .683-.242 1.275-.725 1.775-.467.5-1.058.75-1.775.75-.717 0-1.317-.25-1.8-.75-.467-.5-.7-1.092-.7-1.775 0-.7.233-1.3.7-1.8.483-.5 1.083-.75 1.8-.75z" fill="#FA4566"/></symbol><symbol fill="none" viewBox="0 0 42 44" id="icone_form_valide" xmlns="http://www.w3.org/2000/svg"><path fill-rule="evenodd" clip-rule="evenodd" d="M0 22C0 9.85 9.402 0 21 0s21 9.85 21 22-9.402 22-21 22S0 34.15 0 22zM21 4C11.51 4 3.818 12.059 3.818 22S11.511 40 21 40c9.49 0 17.182-8.059 17.182-18S30.489 4 21 4z" fill="#2C52FF"/><path fill-rule="evenodd" clip-rule="evenodd" d="M28.174 16.563a1.778 1.778 0 00-2.595 0L19.09 23.36l-2.595-2.72a1.777 1.777 0 00-2.595 0 1.989 1.989 0 000 2.72l3.892 4.077c.717.75 1.88.75 2.596 0l7.785-8.156a1.987 1.987 0 000-2.718z" fill="#2C52FF"/></symbol><symbol fill="none" viewBox="0 0 24 24" id="icone_lien_externe" xmlns="http://www.w3.org/2000/svg"><path d="M18 13v6a2 2 0 01-2 2H5a2 2 0 01-2-2V8a2 2 0 012-2h6M15 3h6v6M10 14L21 3" stroke="#000" stroke-width="2" stroke-linecap="round" stroke-linejoin="round"/></symbol><symbol fill="none" viewBox="0 0 33 33" id="icone_livraison" xmlns="http://www.w3.org/2000/svg"><g clip-path="url(#bhclip0)" fill="#2C52FF"><path fill-rule="evenodd" clip-rule="evenodd" d="M7.938 5.5a1 1 0 011-1h15.124a1 1 0 011 1v13.063a1 1 0 01-1 1h-22a1 1 0 01-1-1V11a1 1 0 112 0v6.563h20V6.5H8.938a1 1 0 01-1-1zM9.313 27.5a1 1 0 011-1h15.124a1 1 0 110 2H10.313a1 1 0 01-1-1z"/><path fill-rule="evenodd" clip-rule="evenodd" d="M2.063 17.563a1 1 0 011 1v7.94c.063-.002.131-.003.203-.003h2.921a1 1 0 110 2H3.267c-.089 0-.157.003-.238.006l-.195.006a2.767 2.767 0 01-.603-.039 1.43 1.43 0 01-.842-.486c-.26-.316-.325-.684-.325-.982v-8.442a1 1 0 011-1zM23.206 7.286a1 1 0 011.373-.339l7.652 4.62a2.45 2.45 0 011.081 2.05v13.388c0 .268-.046.619-.273.934-.244.34-.58.479-.837.534-.23.049-.458.044-.596.04l-.174-.007a5.124 5.124 0 00-.24-.006h-1.63a1 1 0 110-2h1.63l.12.001v-12.9a.45.45 0 00-.161-.35l-7.605-4.592a1 1 0 01-.34-1.373z"/><path fill-rule="evenodd" clip-rule="evenodd" d="M9.281 25.063a2.094 2.094 0 100 4.187 2.094 2.094 0 000-4.188zm-4.094 2.093a4.094 4.094 0 118.188 0 4.094 4.094 0 01-8.188 0zM26.469 25.063a2.094 2.094 0 100 4.187 2.094 2.094 0 000-4.188zm-4.094 2.093a4.094 4.094 0 118.187 0 4.094 4.094 0 01-8.187 0zM24.063 9.313a1 1 0 011 1v7.25h7.25a1 1 0 110 2h-8.25a1 1 0 01-1-1v-8.25a1 1 0 011-1z"/><path d="M15.414 13.258c0 .616-.19 1.081-.568 1.395-.372.308-.844.488-1.415.54v.866h-.539v-.847a3.653 3.653 0 01-1.059-.203c-.32-.121-.574-.275-.76-.462-.18-.192-.27-.397-.27-.616a.59.59 0 01.145-.404c.102-.109.253-.163.452-.163.186 0 .327.051.424.154a.534.534 0 01.154.394.95.95 0 01-.058.289.815.815 0 00-.038.192c0 .16.099.283.298.366.199.084.436.138.712.164v-2.3l-.356-.145c-.494-.205-.88-.475-1.155-.808a1.786 1.786 0 01-.414-1.175c0-.494.167-.91.5-1.25.334-.347.81-.54 1.425-.578V8.08h.54v.587c.493.045.894.18 1.202.404.315.218.472.481.472.79a.58.58 0 01-.154.413c-.096.11-.247.164-.453.164-.199 0-.343-.052-.433-.154a.645.645 0 01-.134-.424.6.6 0 01.048-.25.513.513 0 00.048-.183.374.374 0 00-.154-.298c-.096-.09-.244-.151-.443-.183v2.175l.395.173c.577.257.985.54 1.222.847.244.302.366.674.366 1.117zm-3.532-3.436c0 .263.086.471.26.625.179.154.43.299.75.433V8.936c-.314.032-.561.125-.741.28a.76.76 0 00-.27.606zm1.55 5.1c.32-.031.57-.121.75-.269a.77.77 0 00.279-.625.93.93 0 00-.28-.684 2.495 2.495 0 00-.75-.49v2.069z"/></g><defs><clipPath id="bhclip0"><path fill="#fff" d="M0 0h33v33H0z"/></clipPath></defs></symbol><symbol fill="none" viewBox="0 0 33 33" id="icone_livraison_blanc" xmlns="http://www.w3.org/2000/svg"><g clip-path="url(#biclip0)"><path d="M8.938 5.5h15.124V18.562h-22V11M25.438 27.5H10.313M2.063 18.563v8.442c0 .64.563.495 1.203.495h2.921M24.063 7.803l7.651 4.62a1.45 1.45 0 01.599 1.19v13.392c0 .646-.482.495-1.121.495h-1.63" stroke="#fff" stroke-width="2" stroke-linecap="round" stroke-linejoin="round"/><path d="M9.281 30.25a3.094 3.094 0 100-6.187 3.094 3.094 0 000 6.187zM26.469 30.25a3.094 3.094 0 100-6.187 3.094 3.094 0 000 6.187zM24.063 10.313v8.25h8.25" stroke="#fff" stroke-width="2" stroke-linecap="round" stroke-linejoin="round"/><path d="M15.414 13.258c0 .616-.19 1.08-.568 1.395-.372.308-.844.488-1.415.54v.866h-.539v-.847a3.651 3.651 0 01-1.059-.203c-.32-.121-.574-.275-.76-.462-.18-.192-.27-.397-.27-.616 0-.16.048-.295.145-.404.102-.109.253-.163.452-.163.186 0 .327.05.424.154a.534.534 0 01.154.394.95.95 0 01-.058.289.814.814 0 00-.039.192c0 .16.1.283.299.366.199.084.436.138.712.164v-2.3l-.356-.145c-.494-.205-.88-.475-1.155-.808a1.786 1.786 0 01-.414-1.175c0-.494.167-.91.5-1.25.334-.347.809-.54 1.425-.578v-.588h.539v.588c.494.045.895.18 1.203.404.314.218.472.481.472.79a.58.58 0 01-.154.413c-.097.11-.247.164-.453.164-.199 0-.343-.052-.433-.154a.645.645 0 01-.135-.424.6.6 0 01.049-.25.513.513 0 00.048-.183.374.374 0 00-.154-.298c-.097-.09-.244-.151-.443-.183v2.175l.395.173c.577.257.985.54 1.222.847.244.302.366.674.366 1.117zM11.88 9.822c0 .263.087.471.26.625.18.154.43.299.751.433V8.936c-.314.032-.561.125-.741.28a.76.76 0 00-.27.606zm1.55 5.1c.32-.031.571-.121.75-.269a.77.77 0 00.28-.625.93.93 0 00-.28-.684 2.495 2.495 0 00-.75-.49v2.069z" fill="#fff"/></g><defs><clipPath id="biclip0"><path fill="#fff" d="M0 0h33v33H0z"/></clipPath></defs></symbol><symbol fill="none" viewBox="0 0 26 26" id="icone_livraison_noir" xmlns="http://www.w3.org/2000/svg"><g clip-path="url(#bjclip0)"><path d="M7.042 4.333h11.916v10.292H1.625V8.667M20.042 21.667H8.125M1.625 14.625v6.652c0 .503.444.39.948.39h2.302" stroke="#000" stroke-width="2" stroke-linecap="round" stroke-linejoin="round"/><path d="M18.958 6.148l6.03 3.64a1.143 1.143 0 01.47.937v10.552c0 .509-.379.39-.882.39h-1.284M7.313 23.833a2.437 2.437 0 100-4.875 2.437 2.437 0 000 4.875z" stroke="#000" stroke-width="2" stroke-linecap="round" stroke-linejoin="round"/><path d="M20.854 23.833a2.437 2.437 0 100-4.875 2.437 2.437 0 000 4.875zM18.958 8.125v6.5h6.5" stroke="#000" stroke-width="2" stroke-linecap="round" stroke-linejoin="round"/><path d="M12.144 10.445c0 .486-.149.852-.447 1.1-.293.243-.665.384-1.115.425v.682h-.425v-.667a2.874 2.874 0 01-.834-.16 1.677 1.677 0 01-.599-.363.703.703 0 01-.212-.486c0-.126.038-.232.113-.318.081-.086.2-.13.357-.13.147 0 .258.041.334.122a.42.42 0 01.12.311c0 .06-.014.137-.045.228a.642.642 0 00-.03.151c0 .127.078.223.235.289.157.065.344.108.561.128V9.945l-.28-.114c-.39-.162-.693-.374-.91-.637a1.407 1.407 0 01-.326-.925c0-.39.131-.718.394-.986.263-.273.637-.424 1.122-.455v-.462h.425v.462c.39.036.705.142.948.319.248.172.372.379.372.622 0 .131-.041.24-.122.326-.076.086-.194.129-.356.129-.157 0-.27-.04-.341-.122a.508.508 0 01-.107-.333c0-.076.013-.142.038-.198a.404.404 0 00.038-.144c0-.09-.04-.169-.121-.235a.656.656 0 00-.349-.144v1.714l.31.137c.456.202.777.424.964.667.192.237.288.53.288.88zM9.361 7.738c0 .208.068.372.205.493.141.122.339.235.591.341V7.041c-.247.025-.442.098-.584.22a.599.599 0 00-.212.477zm1.221 4.02c.253-.026.45-.097.591-.213a.606.606 0 00.22-.493.732.732 0 00-.22-.538 1.966 1.966 0 00-.591-.387v1.63z" fill="#000"/></g><defs><clipPath id="bjclip0"><path fill="#fff" d="M0 0h26v26H0z"/></clipPath></defs></symbol><symbol viewBox="0 0 124 71" id="icone_masterCard" xmlns="http://www.w3.org/2000/svg"><defs><path id="bka" d="M0 0h125v71.429H0z"/></defs><g transform="translate(-1)" fill="none" fill-rule="evenodd"><mask id="bkb" fill="#fff"><use xlink:href="#bka"/></mask><g mask="url(#bkb)"><path fill="#F7A826" d="M87.877 70.661l1.9-.048 1.873-.13 1.838-.226 1.825-.31 1.774-.393 1.75-.477 1.713-.56 1.676-.631 1.638-.715 1.59-.774 1.539-.858 1.501-.918 1.44-.988 1.39-1.049 1.34-1.108 1.28-1.179 1.228-1.227 1.155-1.287 1.092-1.334 1.03-1.382.955-1.44.894-1.479.807-1.524.745-1.573.657-1.608.584-1.645.497-1.679.41-1.704.322-1.751.236-1.763.136-1.799.05-1.822-.05-1.811-.136-1.787-.236-1.763-.323-1.728-.409-1.703-.497-1.668-.584-1.644-.657-1.597-.745-1.56-.807-1.525-.894-1.465-.955-1.442-1.03-1.382-1.092-1.322-1.155-1.287-1.229-1.227-1.278-1.167-1.341-1.108-1.39-1.048-1.44-.99-1.501-.916-1.54-.846-1.589-.775-1.638-.714-1.676-.632-1.713-.56-1.75-.476-1.774-.393-1.825-.31L91.65.207l-1.873-.13-1.9-.048-1.886.048-1.875.13-1.836.227-1.813.31-1.774.393-1.75.476-1.701.56-1.675.632-1.627.714-1.576.775-1.54.846-1.489.917-1.44.989-1.39 1.048-1.328 1.108-1.278 1.167-1.216 1.227-1.155 1.287-1.092 1.322-1.018 1.382-.956 1.442-.88 1.465-.82 1.525-.733 1.56-.658 1.597-.57 1.644-.497 1.668-.41 1.703-.322 1.728-.236 1.763-.136 1.787-.05 1.81.05 1.823.136 1.8.236 1.762.322 1.751.41 1.704.497 1.68.57 1.644.658 1.608.733 1.573.82 1.524.88 1.478.956 1.441 1.018 1.382 1.092 1.334 1.155 1.287 1.216 1.227 1.278 1.18 1.328 1.107 1.39 1.049 1.44.988 1.49.918 1.539.858 1.576.774 1.627.715 1.675.63 1.7.561 1.75.477 1.775.393 1.813.31 1.836.225 1.875.131z"/><path fill="#ED1C2E" d="M38.65 70.661l1.887-.048 1.874-.13 1.838-.226 1.812-.31 1.775-.393 1.75-.477 1.7-.56 1.676-.631 1.625-.715 1.577-.774 1.54-.858 1.49-.918 1.439-.988 1.39-1.049 1.328-1.108 1.279-1.179 1.216-1.227L67 57.783l1.092-1.334 1.018-1.382.956-1.44.881-1.479.82-1.524.732-1.573.658-1.608.57-1.645.497-1.679.41-1.704.323-1.751.235-1.763.137-1.799.05-1.822-.05-1.811-.137-1.787-.235-1.763-.323-1.728-.41-1.703-.497-1.668-.57-1.644-.658-1.597-.733-1.56-.819-1.525-.88-1.465-.957-1.442-1.018-1.382L67 12.883l-1.154-1.287-1.216-1.227-1.28-1.167-1.327-1.108-1.39-1.048-1.44-.99-1.49-.916-1.54-.846-1.576-.775-1.625-.714-1.676-.632-1.7-.56-1.75-.476L46.06.744l-1.812-.31L42.41.207l-1.874-.13L38.65.029l-1.898.048-1.874.13-1.838.227-1.825.31-1.774.393-1.75.476-1.713.56-1.676.632-1.638.714-1.59.775-1.538.846-1.502.917-1.44.989-1.39 1.048-1.34 1.108-1.279 1.167-1.23 1.227-1.154 1.287-1.091 1.322-1.03 1.382-.957 1.442-.893 1.465-.808 1.525-.744 1.56-.657 1.597-.584 1.644-.497 1.668-.41 1.703-.322 1.728-.236 1.763-.136 1.787-.05 1.81.05 1.823.136 1.8.236 1.762.323 1.751.41 1.704.496 1.68.584 1.644.657 1.608.744 1.573.808 1.524.893 1.478.957 1.441 1.03 1.382 1.091 1.334 1.155 1.287 1.23 1.227 1.277 1.18 1.34 1.107 1.39 1.049 1.441.988 1.502.918 1.539.858 1.589.774 1.638.715 1.676.63 1.713.561 1.75.477 1.774.393 1.825.31 1.838.225 1.874.131z"/><path fill="#F7A826" d="M58.957 13.574h19.55v-1.918H60.644zM56.028 17.839h22.478V15.92h-21.3zM53.843 22.092h24.663v-1.918H54.712zM52.341 26.356h26.165v-1.918H52.962zM53.21 46.967H78.57v-1.919h-25.98zM55.084 51.231H78.57v-1.917H54.154zM57.716 55.485h20.853v-1.919H56.462zM61.34 59.749H78.57v-1.93h-18.98zM51.46 30.61h27.046v-1.918H51.844zM67.944 42.714h10.314v-1.918h-9.942zM68.763 38.46h9.495v-1.93h-9.123zM50.777 36.53h2.682v1.93h-2.557z"/><path fill="#FFF" d="M45.776 34.207l-.175-.011-.173-.024-.162-.024-.161-.024-.15-.023-.16-.024-.162-.025-.173-.023-.174-.024-.199-.012-.223-.012-.236-.012h-.26l-.286.012-.323.024-.36.024-.249.036-.235.036-.211.07-.186.072-.174.084-.161.095-.125.12-.112.106-.074.131-.061.131-.026.143v.144l.038.154.05.155.1.155.122.155.25.226.297.179.347.154.373.132.397.118.41.132.409.143.398.155.372.202.347.25.31.298.261.37.2.452.123.537.05.643-.05.75-.087.56-.149.488-.199.453-.248.393-.285.346-.323.297-.348.263-.384.226-.398.178-.409.156-.422.118-.434.096-.423.071-.41.036-.409.024-.385.012h-.534l-.496-.012h-.434l-.41-.012-.372-.012-.335-.024-.298-.023-.286-.036-.26-.024-.236-.048-.236-.035-.211-.06-.21-.047-.2-.072-.198-.071-.212-.072.56-2.632.112.023.136.036.173.048.211.047.224.047.248.049.274.059.297.048.31.047.323.047.336.037.347.036.36.012.36.011h.36l.36-.011.36-.072.285-.096.223-.13.174-.167.124-.167.1-.191.062-.19.05-.179.024-.345-.112-.298-.21-.238-.31-.203-.373-.179-.435-.178-.484-.167-.484-.19-.496-.215-.472-.25-.434-.31-.398-.37-.31-.452-.224-.536-.111-.644.013-.762.061-.465.088-.44.124-.406.148-.38.199-.358.224-.31.26-.298.31-.262.361-.226.397-.19.446-.18.497-.13.559-.108.608-.083.67-.048.733-.012h.458l.422.012.385.012.348.012.31.024.286.024.247.024.224.023.212.024.173.036.162.024.149.023.124.024.112.012.11.024.1.012z"/><path stroke="#FFF" stroke-width=".216" d="M45.776 34.207h0l-.175-.011-.173-.024-.162-.024-.161-.024-.15-.023-.16-.024-.162-.025-.173-.023-.174-.024-.199-.012-.223-.012-.236-.012h-.26l-.286.012-.323.024-.36.024h0l-.249.036-.235.036-.211.07-.186.072-.174.084-.161.095-.125.12-.112.106-.074.131-.061.131-.026.143v.144l.038.154.05.155.1.155.122.155h0l.25.226.297.179.347.154.373.132.397.118.41.132.409.143.398.155.372.202.347.25.31.298.261.37.2.452.123.537.05.643-.05.75h0l-.087.56-.149.488-.199.453-.248.393-.285.346-.323.297-.348.263-.384.226-.398.178-.409.156-.422.118-.434.096-.423.071-.41.036-.409.024-.385.012h0-.534l-.496-.012h-.434l-.41-.012-.372-.012-.335-.024-.298-.023-.286-.036-.26-.024-.236-.048-.236-.035-.211-.06-.21-.047-.2-.072-.198-.071-.212-.072.56-2.632h0l.112.023.136.036.173.048.211.047.224.047.248.049.274.059.297.048.31.047.323.047.336.037.347.036.36.012.36.011h.36l.36-.011h0l.36-.072.285-.096.223-.13.174-.167.124-.167.1-.191.062-.19.05-.179h0l.024-.345-.112-.298-.21-.238-.31-.203-.373-.179-.435-.178-.484-.167-.484-.19-.496-.215-.472-.25-.434-.31-.398-.37-.31-.452-.224-.536-.111-.644.013-.762h0l.061-.465.088-.44.124-.406.148-.38.199-.358.224-.31.26-.298.31-.262.361-.226.397-.19.446-.18.497-.13.559-.108.608-.083.67-.048.733-.012h.458l.422.012.385.012.348.012.31.024.286.024.247.024.224.023.212.024.173.036.162.024.149.023.124.024.112.012.11.024.1.012-.632 2.692"/><path fill="#FFF" d="M48.717 28.573h3.438l-.509 2.882h2.073l-.447 2.693-2.184-.06-1.192 6.648-.012.238.062.202.124.155.161.131.223.083.25.073.271.047.299.023.273-.011.248-.024.224-.035.198-.048.161-.048.112-.036.075-.024.025-.011-.435 2.216-.087.059-.087.048-.087.047-.087.048-.086.036-.1.036-.111.035-.112.036-.124.036-.124.023-.149.024-.149.024-.161.024-.187.024-.199.024-.21.023h-.944l-.497-.035-.433-.048-.398-.072-.335-.083-.285-.107-.236-.12-.212-.142-.16-.155-.124-.167-.088-.203-.062-.202-.037-.226-.013-.25v-.263l.038-.273.037-.298z"/><path stroke="#FFF" stroke-width=".216" d="M48.717 28.573h3.438l-.509 2.882h2.073l-.447 2.693-2.184-.06-1.192 6.648h0l-.012.238.062.202.124.155.161.131.223.083.25.073.271.047.299.023h0l.273-.011.248-.024.224-.035.198-.048.161-.048.112-.036.075-.024.025-.011-.435 2.216h0l-.087.059-.087.048-.087.047-.087.048-.086.036-.1.036-.111.035-.112.036-.124.036-.124.023-.149.024-.149.024-.161.024-.187.024-.199.024-.21.023h-.944 0l-.497-.035-.433-.048-.398-.072-.335-.083-.285-.107-.236-.12-.212-.142-.16-.155-.124-.167-.088-.203-.062-.202-.037-.226-.013-.25v-.263l.038-.273.037-.298 2.371-12.997"/><path fill="#FFF" d="M56.462 38.64l-.038.201-.011.215.024.227.05.226.087.226.1.215.135.226.15.202.173.203.187.178.198.18.224.142.223.131.248.108.248.083.25.048.322.047.31.036.322.036.323.024.323.011h.335l.323-.011.335-.024.336-.048.335-.06.347-.071.335-.107.347-.131.36-.143.348-.19.36-.203-.497 2.93-.198.096-.199.095-.198.071-.187.072-.186.06-.198.059-.2.048-.21.035-.223.036-.248.024-.26.024-.287.024-.322.011h-.335l-.386.012h-.409l-.608-.012-.62-.06-.621-.083-.62-.142-.609-.18-.584-.226-.558-.297-.521-.346-.484-.405-.423-.488-.359-.548-.298-.631-.212-.703-.136-.799-.037-.882.062-.977.05-.38.074-.441.099-.465.137-.5.187-.512.223-.513.285-.523.348-.501.396-.477.485-.452.546-.405.62-.358.72-.297.807-.215.894-.143 1.005-.048.484.012.51.048.508.083.51.12.496.178.484.215.447.285.41.334.372.405.31.477.248.548.174.631.099.715.012.81-.086.905-.187 1.001-.062.726h-9.049l.572-2.347h5.436l.026-.297-.013-.286-.025-.262-.05-.238-.087-.227-.087-.202-.124-.18-.124-.166-.149-.142-.161-.12-.186-.107-.186-.095-.199-.072-.199-.047-.21-.036-.224-.024-.236.012-.223.036-.212.047-.21.072-.211.095-.187.107-.186.132-.16.142-.162.167-.15.179-.136.19-.111.203-.112.215-.087.238-.074.238-.05.25z"/><path stroke="#FFF" stroke-width=".216" d="M56.462 38.64h0l-.038.201-.011.215.024.227.05.226.087.226.1.215.135.226.15.202.173.203.187.178.198.18.224.142.223.131.248.108.248.083.25.048h0l.322.047.31.036.322.036.323.024.323.011h.335l.323-.011.335-.024.336-.048.335-.06.347-.071.335-.107.347-.131.36-.143.348-.19.36-.203-.497 2.93h0l-.198.096-.199.095-.198.071-.187.072-.186.06-.198.059-.2.048-.21.035-.223.036-.248.024-.26.024-.287.024-.322.011h-.335l-.386.012h-.409 0l-.608-.012-.62-.06-.621-.083-.62-.142-.609-.18-.584-.226-.558-.297-.521-.346-.484-.405-.423-.488-.359-.548-.298-.631-.212-.703-.136-.799-.037-.882.062-.977h0l.05-.38.074-.441.099-.465.137-.5.187-.512.223-.513.285-.523.348-.501.396-.477.485-.452.546-.405.62-.358.72-.297.807-.215.894-.143 1.005-.048h0l.484.012.51.048.508.083.51.12.496.178.484.215.447.285.41.334.372.405.31.477.248.548.174.631.099.715.012.81-.086.905-.187 1.001-.062.726h-9.049l.572-2.347h5.436l.026-.297-.013-.286-.025-.262-.05-.238-.087-.227-.087-.202-.124-.18-.124-.166-.149-.142-.161-.12-.186-.107-.186-.095-.199-.072-.199-.047-.21-.036-.224-.024h0l-.236.012-.223.036-.212.047-.21.072-.211.095-.187.107-.186.132-.16.142-.162.167-.15.179-.136.19-.111.203-.112.215-.087.238-.074.238-.05.25-.497 2.466"/><path fill="#FFF" d="M86.065 32.17l-.161-.083-.161-.071-.174-.084-.186-.083-.186-.072-.212-.071-.21-.072-.224-.071-.236-.06-.236-.048-.26-.047-.26-.036-.286-.024-.286-.023H82.069l-.323.023-.336.036-.346.06-.349.095-.346.131-.348.167-.348.214-.335.262-.323.31-.31.381-.298.441-.273.524-.261.596-.235.667-.199.762-.074.429-.05.417-.025.417.013.406.037.404.086.381.112.358.136.358.187.321.223.31.26.274.298.25.336.214.385.18.422.154.472.107.16.036.187.036.223.024.249.024.272.023h.596l.31-.023.323-.037.323-.059.31-.083.311-.096.31-.131.285-.155.261-.19.248-.215-.558 3.181-.074.06-.075.07-.1.084-.11.072-.138.095-.174.084-.198.083-.223.071-.286.084-.323.059-.372.048-.434.048-.484.024-.559.011-.634-.011-.694-.036-.571-.06-.571-.119-.57-.178-.572-.239-.546-.286-.521-.357-.497-.417-.459-.477-.41-.536-.347-.595-.298-.667-.223-.727-.149-.799-.05-.845.025-.93.137-.988.098-.488.112-.477.124-.465.124-.44.137-.417.16-.418.163-.392.173-.37.187-.37.186-.344.211-.334.223-.31.223-.298.25-.286.247-.262.26-.25.286-.238.286-.227.298-.202.31-.19.335-.18.335-.154.347-.143.36-.131.386-.12.384-.095.397-.083.423-.072.421-.06.448-.047.447-.024.471-.012.397.012.385.024.372.035.373.049.347.047.335.072.323.06.298.07.285.072.249.072.235.071.2.072.173.06.149.047.112.047.074.024z"/><path stroke="#FFF" stroke-width=".216" d="M86.065 32.17h0l-.161-.083-.161-.071-.174-.084-.186-.083-.186-.072-.212-.071-.21-.072-.224-.071-.236-.06-.236-.048-.26-.047-.26-.036-.286-.024-.286-.023h-.608 0-.31l-.323.023-.336.036-.346.06-.349.095-.346.131-.348.167-.348.214-.335.262-.323.31-.31.381-.298.441-.273.524-.261.596-.235.667-.199.762h0l-.074.429-.05.417-.025.417.013.406.037.404.086.381.112.358.136.358.187.321.223.31.26.274.298.25.336.214.385.18.422.154.472.107h0l.16.036.187.036.223.024.249.024.272.023h.596l.31-.023.323-.037.323-.059.31-.083.311-.096.31-.131.285-.155.261-.19.248-.215-.558 3.181h0l-.074.06-.075.07-.1.084-.11.072-.138.095-.174.084-.198.083-.223.071-.286.084-.323.059-.372.048-.434.048-.484.024-.559.011-.634-.011-.694-.036h0l-.571-.06-.571-.119-.57-.178-.572-.239-.546-.286-.521-.357-.497-.417-.459-.477-.41-.536-.347-.595-.298-.667-.223-.727-.149-.799-.05-.845.025-.93.137-.988h0l.098-.488.112-.477.124-.465.124-.44.137-.417.16-.418.163-.392.173-.37.187-.37.186-.344.211-.334.223-.31.223-.298.25-.286.247-.262.26-.25.286-.238.286-.227.298-.202.31-.19.335-.18.335-.154.347-.143.36-.131.386-.12.384-.095.397-.083.423-.072.421-.06.448-.047.447-.024.471-.012h0l.397.012.385.024.372.035.373.049.347.047.335.072.323.06.298.07.285.072.249.072.235.071.2.072.173.06.149.047.112.047.074.024-.62 3.3"/><path fill="#FFF" d="M116.624 44.214h-3.438l.248-1.322v-.12l-.199.239-.21.214-.211.192-.223.166-.224.155-.224.131-.223.107-.236.107-.235.084-.237.06-.235.059-.249.036-.248.035-.235.024-.249.013h-.248l-.645-.049-.596-.13-.547-.203-.496-.274-.447-.346-.398-.404-.347-.441-.297-.5-.249-.537-.198-.56-.137-.583-.1-.608-.037-.608.013-.62.062-.607.112-.607.186-.703.224-.667.26-.607.31-.573.323-.536.372-.476.386-.429.409-.393.435-.346.458-.298.473-.261.47-.203.498-.167.495-.107.498-.072.508-.024.36.012.347.036.323.06.298.083.286.096.248.107.249.13.223.132.198.142.186.155.162.155.15.155.123.155.112.155.099.143.074.143.87-4.682h3.375z"/><path stroke="#FFF" stroke-width=".216" d="M116.624 44.214h-3.438l.248-1.322v-.12h0l-.199.239-.21.214-.211.192-.223.166-.224.155-.224.131-.223.107-.236.107-.235.084-.237.06-.235.059-.249.036-.248.035-.235.024-.249.013h-.248 0l-.645-.049-.596-.13-.547-.203-.496-.274-.447-.346-.398-.404-.347-.441-.297-.5-.249-.537-.198-.56-.137-.583-.1-.608-.037-.608.013-.62.062-.607.112-.607h0l.186-.703.224-.667.26-.607.31-.573.323-.536.372-.476.386-.429.409-.393.435-.346.458-.298.473-.261.47-.203.498-.167.495-.107.498-.072.508-.024h0l.36.012.347.036.323.06.298.083.286.096.248.107.249.13.223.132.198.142.186.155.162.155.15.155.123.155.112.155.099.143.074.143h0l.87-4.682h3.375l-2.805 15.582"/><path fill="#FCB331" d="M111.002 41.331l.347-.023.323-.072.298-.083.285-.132.26-.142.25-.179.235-.202.21-.215.187-.238.174-.262.161-.274.137-.286.124-.298.099-.31.087-.321.062-.322.062-.334.037-.345v-.322l-.012-.333-.037-.31-.05-.298-.087-.286-.1-.274-.123-.238-.149-.227-.161-.19-.187-.167-.21-.143-.224-.095-.236-.06-.26-.023-.336.024-.31.047-.286.095-.285.12-.249.154-.247.191-.211.203-.212.226-.186.262-.173.274-.162.286-.136.31-.124.321-.1.321-.1.346-.073.346-.062.524.025.572.086.584.162.56.248.488.323.393.41.262z"/><path fill="#FFF" d="M34.777 41.57l-.496 2.644h-3.127l.087-.488.062-.44.05-.334.048-.18-.173.192-.199.19-.235.179-.26.167-.299.167-.31.142-.323.143-.335.119-.36.108-.36.083-.36.072-.372.047-.36.024-.36.012-.348-.036-.335-.047-.434-.108-.398-.119-.347-.155-.31-.178-.273-.19-.249-.216-.198-.226-.175-.238-.148-.25-.124-.263-.1-.261-.074-.262-.05-.274-.037-.274-.025-.263v-.261l.037-.465.075-.441.124-.417.161-.405.199-.381.224-.346.26-.333.299-.298.31-.275.347-.25.36-.225.372-.191.397-.166.41-.132.422-.107.434-.072h.026l.062-.012.087-.012.136-.011.148-.024.174-.012.186-.024.212-.024.211-.024.21-.023.225-.012.198-.024.198-.012.186-.012.174-.012h.423l.297.012.273.012h.273l.224.012.174.011.124.013h.037l.025-.084.074-.214.062-.25.025-.226-.05-.263-.111-.238-.149-.215-.198-.178-.237-.155-.26-.107-.297-.072-.324-.023-.347-.012-.373-.012h-.384l-.398.012-.41.024-.396.035-.398.036-.385.047-.372.048-.36.06-.322.06-.298.059-.273.071-.223.071-.174.084-.137.071.882-2.87.272-.107.273-.096.298-.084.298-.06.297-.059.324-.047.322-.048.335-.024.348-.023.36-.012.372-.012h1.193l.433.012.435.012.347.023.373.06.384.083.398.107.384.144.373.166.373.203.347.226.31.262.273.286.248.322.186.357.125.381.074.406v.452l-.074.477z"/><path stroke="#FFF" stroke-width=".216" d="M34.777 41.57l-.496 2.644h-3.127 0l.087-.488.062-.44.05-.334.048-.18h0l-.173.192-.199.19-.235.179-.26.167-.299.167-.31.142-.323.143-.335.119-.36.108-.36.083-.36.072-.372.047-.36.024-.36.012-.348-.036-.335-.047h0l-.434-.108-.398-.119-.347-.155-.31-.178-.273-.19-.249-.216-.198-.226-.175-.238-.148-.25-.124-.263-.1-.261-.074-.262-.05-.274-.037-.274-.025-.263v-.261h0l.037-.465.075-.441.124-.417.161-.405.199-.381.224-.346.26-.333.299-.298.31-.275.347-.25.36-.225.372-.191.397-.166.41-.132.422-.107.434-.072h.026l.062-.012.087-.012.136-.011.148-.024.174-.012.186-.024.212-.024.211-.024.21-.023.225-.012.198-.024.198-.012.186-.012.174-.012h.423l.297.012.273.012h.273l.224.012.174.011.124.013h.037l.025-.084.074-.214.062-.25.025-.226h0l-.05-.263-.111-.238-.149-.215-.198-.178-.237-.155-.26-.107-.297-.072-.324-.023h0l-.347-.012-.373-.012h-.384l-.398.012-.41.024-.396.035-.398.036-.385.047-.372.048-.36.06-.322.06-.298.059-.273.071-.223.071-.174.084-.137.071.882-2.87h0l.272-.107.273-.096.298-.084.298-.06.297-.059.324-.047.322-.048.335-.024.348-.023.36-.012.372-.012h1.193l.433.012.435.012h0l.347.023.373.06.384.083.398.107.384.144.373.166.373.203.347.226.31.262.273.286.248.322.186.357.125.381.074.406v.452l-.074.477-1.255 6.29"/><path fill="#ED1C2E" d="M31.786 38.46l-.012-.059-.05-.06-.074-.036-.124-.023-.136-.024-.162-.012h-.372l-.199.012-.211.024-.199.023-.198.024-.187.024-.173.036-.149.036-.136.036-.088.023-.1.036-.135.048-.136.059-.162.071-.162.084-.173.083-.162.096-.173.119-.162.119-.149.143-.136.143-.125.155-.086.167-.075.19-.037.19-.012.406.062.322.124.238.16.178.187.12.212.071.198.036.198.012.373-.012.335-.036.323-.048.285-.071.249-.083.235-.108.211-.107.187-.131.161-.119.15-.143.122-.131.1-.143.087-.143.075-.143.061-.131.038-.131.1-.345.086-.394.074-.381z"/><path fill="#FFF" d="M8.662 44.214H5.286l2.818-15.641h5.871l.558 9.28 4.06-9.28h6.131l-2.88 15.641h-3.376l2.135-11.686h-.137l-5.051 11.686h-3.81l-.026-.488-.086-1.299-.112-1.846-.124-2.12-.124-2.133-.112-1.87-.086-1.358-.026-.572h-.186z"/><path stroke="#FFF" stroke-width=".216" d="M8.662 44.214H5.286l2.818-15.641h5.871l.558 9.28 4.06-9.28h6.131l-2.88 15.641h-3.376l2.135-11.686h-.137l-5.051 11.686h-3.81 0l-.026-.488-.086-1.299-.112-1.846-.124-2.12-.124-2.133-.112-1.87-.086-1.358-.026-.572h0-.186 0l-2.06 11.686"/><path fill="#FFF" d="M96.38 41.57l-.509 2.644h-3.115l.024-.488.013-.43v-.32l.024-.144-.16.179-.187.179-.223.167-.249.166-.26.155-.298.143-.31.143-.31.12-.336.095-.347.095-.348.06-.348.047-.36.024-.347.012-.336-.036-.334-.047-.447-.108-.397-.119-.347-.155-.324-.178-.273-.19-.235-.216-.2-.226-.173-.238-.148-.25-.112-.263-.1-.261-.062-.262-.05-.274-.036-.274-.026-.263v-.261l.026-.465.074-.441.112-.417.16-.405.187-.381.236-.346.26-.333.286-.298.323-.275.335-.25.36-.225.384-.191.385-.166.41-.132.41-.107.422-.072h.024l.063-.012.086-.012.125-.011.16-.024.175-.012.186-.024.198-.024.211-.024.224-.023.21-.012.212-.024.198-.012.174-.012.174-.012h.435l.297.012.285.012h.274l.236.012.198.011.112.013h.05l.024-.084.038-.214.037-.25.025-.226-.05-.263-.099-.238-.162-.215-.186-.178-.223-.155-.26-.107-.274-.072-.298-.023-.347-.012-.372-.012h-.386l-.397.012-.41.024-.396.035-.398.036-.384.047-.373.048-.36.06-.322.06-.298.059-.274.071-.223.071-.174.084-.136.071.869-2.87.273-.107.285-.096.286-.084.298-.06.31-.059.31-.047.323-.048.335-.024.348-.023.36-.012.36-.012h1.166l.422.012.423.012.347.023.372.06.385.083.397.107.385.144.384.166.373.203.348.226.31.262.285.286.249.322.186.357.137.381.086.406v.452l-.062.477z"/><path fill="#FFF" d="M95.871 44.298l.075-.072.509-2.644-.15-.024-.508 2.644.074-.071v.167l.062-.012.013-.06z"/><path fill="#FFF" d="M92.681 44.214l.075.084h3.115v-.167h-3.115l.073.083h-.148l-.012.084h.087z"/><path fill="#FFF" d="M92.88 42.88l-.112-.095-.05.19-.012.322v.429l-.025.488h.148l.026-.488.025-.43-.013-.32v-.096l-.111-.095z"/><path fill="#FFF" d="M88.052 44.405l.346.047.336.036.347-.011.36-.025.36-.047.348-.06.348-.095.347-.095.31-.12.323-.143.298-.142.26-.167.261-.166.224-.168.198-.19.162-.18-.124-.094-.162.179-.174.167-.223.166-.235.167-.26.143-.3.143-.298.142-.31.12-.322.095-.348.095-.347.06-.336.048-.36.024-.347.011-.336-.035-.321-.048zM85.048 40.796l.012.261.025.263.037.285.05.275.062.261.099.274.112.275.16.25.175.25.198.227.249.226.286.19.322.19.36.156.41.119.447.107.025-.143-.448-.107-.384-.12-.336-.154-.322-.167-.261-.19-.224-.203-.198-.227-.174-.226-.136-.25-.112-.25-.1-.25-.061-.262-.05-.274-.037-.262-.025-.263.012-.261z"/><path fill="#FFF" d="M89.504 36.221l-.435.071-.422.108-.41.13-.397.167-.385.191-.372.238-.335.25-.323.287-.298.297-.26.334-.249.357-.186.393-.16.405-.112.429-.075.453-.037.465h.173l.013-.465.074-.43.112-.404.161-.405.186-.37.224-.333.26-.334.274-.297.322-.263.336-.25.347-.214.385-.19.372-.167.41-.132.397-.107.41-.071z"/><path fill="#FFF" d="M92.06 35.971h-.136l-.174.023-.174.012-.198.012-.211.024-.211.012-.224.024-.211.023-.198.025-.186.023-.174.012-.161.024-.125.012-.1.012-.049.012h-.024v.143h.024l.075-.013.074-.011.125-.012.16-.024.175-.012.186-.024.198-.024.211-.023.224-.024.21-.012.212-.024.198-.012.174-.012h.311zM93.736 36.101l.075-.06h-.05l-.112-.011-.198-.012-.236-.024H92.656l-.297-.023h-.298v.166h.595l.285.024h.51l.198.012.112.012h.05l.074-.06-.074.06.062.012.012-.071z"/><path fill="#FFF" d="M93.86 35.34h-.012l-.013.225-.037.239-.037.214-.025.083.149.025.025-.084.037-.215.037-.262.038-.225h-.013zM92.383 34.16v.012l.286.012.26.071.248.107.212.143.173.167.15.203.099.214.05.25h.148l-.05-.274-.099-.262-.173-.226-.199-.19-.236-.168-.273-.107-.286-.072-.31-.035v.012zM87.059 34.732l.124.071.123-.06.162-.083.21-.072.274-.07.298-.06.323-.06.36-.06.36-.047.384-.048.398-.036.397-.035.409-.024h1.155l.347.012v-.143l-.347-.012-.372-.024h-.386l-.397.024-.41.024-.396.036-.398.036-.384.047-.385.048-.36.06-.322.059-.3.06-.272.07-.236.072-.186.084-.15.083.125.071z"/><path fill="#FFF" d="M87.977 31.8l-.05.06-.868 2.872.148.023.87-2.87-.05.059-.05-.143-.037.012-.013.048z"/><path fill="#FFF" d="M93.5 31.253l-.422-.024-.422-.012H91.49l-.36.024-.36.012-.348.024-.335.024-.336.047-.31.048-.31.06-.298.06-.297.082-.286.096-.273.107.05.143.273-.107.285-.095.273-.084.298-.06.31-.06.311-.047.31-.048.335-.023.348-.024.36-.012h1.526l.422.012h.423zM97.758 35.291l.062-.488v-.452l-.087-.418-.137-.392-.198-.37-.25-.333-.297-.298-.31-.262-.36-.227-.372-.214-.397-.167-.385-.143-.41-.107-.384-.084-.385-.06-.347-.023v.143l.347.024.36.06.385.083.384.107.385.143.373.167.372.19.335.227.31.262.273.274.248.31.175.345.136.369.087.394v.452l-.063.465zM96.455 41.582l1.303-6.29-.15-.024-1.302 6.29z"/><path fill="#FCB331" d="M93.376 38.46l-.024-.07-.05-.06-.087-.036-.124-.036-.137-.012-.16-.012h-.188l-.186.012-.198.024-.198.024-.2.023-.185.024-.187.036-.162.024-.16.036-.124.024-.088.012-.098.035-.125.036-.137.047-.16.072-.15.071-.173.084-.162.107-.162.107-.16.132-.137.13-.137.155-.111.167-.087.179-.075.19-.037.203-.012.405.061.322.1.238.15.178.185.12.211.071.211.036.21.012.374-.012.347-.036.323-.06.285-.083.274-.095.236-.108.223-.119.198-.142.174-.132.149-.155.137-.143.111-.154.087-.143.062-.143.05-.144.037-.13.05-.334.062-.345.05-.334z"/><path fill="#FFF" d="M97.31 44.214h3.501l1.254-6.779.05-.261.073-.263.075-.262.1-.261.124-.262.149-.25.161-.24.2-.225.222-.203.248-.19.286-.18.323-.142.36-.12.397-.094.434-.072.484-.024h.31l.558-3.061-.347.023-.335.036-.31.06-.298.083-.273.095-.26.12-.249.13-.235.144-.224.166-.21.167-.2.19-.198.191-.186.203-.186.226-.187.214-.173.239.372-2.157h-3.488z"/><path stroke="#FFF" stroke-width=".216" d="M97.31 44.214h3.501l1.254-6.779h0l.05-.261.073-.263.075-.262.1-.261.124-.262.149-.25.161-.24.2-.225.222-.203.248-.19.286-.18.323-.142.36-.12.397-.094.434-.072.484-.024h.31l.558-3.061h0l-.347.023-.335.036-.31.06-.298.083-.273.095-.26.12-.249.13-.235.144-.224.166-.21.167-.2.19-.198.191-.186.203-.186.226-.187.214-.173.239.372-2.157h-3.488l-2.321 12.76h0"/><path fill="#FFF" d="M64.443 44.214h3.563l1.191-6.779.05-.261.062-.25.062-.25.087-.239.1-.238.123-.226.149-.215.174-.202.199-.18.223-.177.273-.144.298-.13.347-.108.385-.095.423-.06.483-.036h.037l.05.012.062.012h.062l.063.012.049.012.037.012h.012l.013-.048.037-.143.05-.214.062-.262.087-.31.087-.334.112-.333.112-.334.098-.226.125-.227.124-.225.124-.203.112-.179.086-.143.063-.083.024-.036h-.012l-.05-.012-.062-.012-.087-.012h-.087l-.1-.012-.086-.011h-.086l-.386.023-.347.036-.323.06-.297.071-.286.096-.26.118-.237.12-.223.142-.211.155-.199.179-.185.179-.186.202-.187.203-.174.226-.186.238-.186.239.447-2.157h-3.562z"/><path stroke="#FFF" stroke-width=".216" d="M64.443 44.214h3.563l1.191-6.779h0l.05-.261.062-.25.062-.25.087-.239.1-.238.123-.226.149-.215.174-.202.199-.18.223-.177.273-.144.298-.13.347-.108.385-.095.423-.06.483-.036h.037l.05.012.062.012h.062l.063.012.049.012.037.012h.012l.013-.048.037-.143.05-.214.062-.262.087-.31.087-.334.112-.333.112-.334h0l.098-.226.125-.227.124-.225.124-.203.112-.179.086-.143.063-.083.024-.036h0-.012l-.05-.012-.062-.012-.087-.012h-.087l-.1-.012-.086-.011h-.086 0l-.386.023-.347.036-.323.06-.297.071-.286.096-.26.118-.237.12-.223.142-.211.155-.199.179-.185.179-.186.202-.187.203-.174.226-.186.238-.186.239.447-2.157h-3.562l-2.322 12.76h0"/><path fill="#FFF" d="M54.91 36.406h1.813v2.344H54.91z"/></g></g></symbol><symbol fill="none" viewBox="0 0 40 25" id="icone_menu_ferme" xmlns="http://www.w3.org/2000/svg"><path fill-rule="evenodd" clip-rule="evenodd" d="M0 3V0h40v3H0zm0 11h40v-3H0v3zm0 11h40v-3H0v3z" fill="#000"/></symbol><symbol fill="none" viewBox="0 0 38 24" id="icone_menu_ouvert" xmlns="http://www.w3.org/2000/svg"><path fill-rule="evenodd" clip-rule="evenodd" d="M19 13.694L2.475 23.236l-1.5-2.598 15.027-8.676-14.672-8.47L2.83.892l16.172 9.337L35.615.638l1.5 2.598-15.114 8.726 15.47 8.931-1.5 2.598L19 13.694z" fill="#000"/></symbol><symbol fill="none" viewBox="0 0 16 16" id="icone_mon_compte" xmlns="http://www.w3.org/2000/svg"><path fill-rule="evenodd" clip-rule="evenodd" d="M8 0c4.412 0 8 3.589 8 8a7.972 7.972 0 01-2.45 5.748.49.49 0 01-.125.115A7.96 7.96 0 018 16a7.96 7.96 0 01-5.425-2.137.49.49 0 01-.126-.115A7.972 7.972 0 010 8c0-4.411 3.589-8 8-8zm7 8c0-3.86-3.14-7-7-7S1 4.14 1 8a6.96 6.96 0 001.514 4.334c.433-1.399 1.671-2.493 3.352-2.997a3.637 3.637 0 01-1.515-2.95A3.65 3.65 0 018 2.743a3.65 3.65 0 013.65 3.644 3.637 3.637 0 01-1.516 2.95c1.68.504 2.919 1.598 3.352 2.997A6.96 6.96 0 0015 8zM5.35 6.387a2.65 2.65 0 015.3 0 2.65 2.65 0 01-5.3 0zM8 10.031c-2.552 0-4.496 1.357-4.646 3.19A6.963 6.963 0 008 15a6.963 6.963 0 004.646-1.779c-.15-1.833-2.094-3.19-4.646-3.19z" fill="#2C52FF"/></symbol><symbol fill="none" viewBox="0 0 19 19" id="icone_mon_panier" xmlns="http://www.w3.org/2000/svg"><path fill-rule="evenodd" clip-rule="evenodd" d="M5.923 11.034a.195.195 0 00-.023.097c0 .113.087.202.198.202h9.184v1.62H5.761c-.877 0-1.587-.725-1.587-1.62 0-.283.071-.546.194-.78l1.075-1.984-2.856-6.14H1V.809h2.59l.75 1.62.754 1.619 1.782 3.829.103.218h5.566l2.186-4.047.877-1.62h.003L17 3.207 13.937 8.88a1.588 1.588 0 01-1.388.833H6.637l-.714 1.32zm-.162 2.728c-.877 0-1.58.724-1.58 1.619S4.885 17 5.762 17c.876 0 1.587-.724 1.587-1.619s-.71-1.619-1.587-1.619zm7.934 0c-.877 0-1.579.724-1.579 1.619S12.82 17 13.696 17c.876 0 1.586-.724 1.586-1.619s-.71-1.619-1.587-1.619z" fill="#2C52FF"/></symbol><symbol fill="none" viewBox="0 0 29 26" id="icone_pagination_active" xmlns="http://www.w3.org/2000/svg"><path d="M16.5 25c6.627 0 12-5.373 12-12s-5.373-12-12-12-12 5.373-12 12 5.373 12 12 12z" fill="#FF4769"/><path d="M13 25c6.627 0 12-5.373 12-12S19.627 1 13 1 1 6.373 1 13s5.373 12 12 12z" stroke="#253ED0"/></symbol><symbol fill="none" viewBox="0 0 916 10" id="icone_prix_encadre" xmlns="http://www.w3.org/2000/svg"><path d="M914 10V2H2v8" stroke="#000" stroke-width="4"/></symbol><symbol fill="none" viewBox="0 0 919 10" id="icone_prix_encadre_bas" xmlns="http://www.w3.org/2000/svg"><path d="M2 0v8h915V0" stroke="#000" stroke-width="4"/></symbol><symbol fill="none" viewBox="0 0 11 11" id="icone_recherche" xmlns="http://www.w3.org/2000/svg"><path fill-rule="evenodd" clip-rule="evenodd" d="M9.236 10.697a1.033 1.033 0 001.461-1.46L8.874 7.413c.48-.75.768-1.636.768-2.592A4.82 4.82 0 104.82 9.64c.956 0 1.842-.286 2.592-.767l1.823 1.823zM1.377 4.821a3.443 3.443 0 116.887 0 3.443 3.443 0 01-6.887 0z" fill="#000"/></symbol><symbol fill="none" viewBox="0 0 50 45" id="icone_rs_facebook" xmlns="http://www.w3.org/2000/svg"><path d="M24.755 19.118v-2.536c0-1.145.277-1.692 2.054-1.692h2.173v-4.227h-3.664c-4.56 0-6.012 2.025-6.012 5.613v2.842h-3.1v4.322h3.1v12.776h5.449V23.44h3.778l.506-4.321h-4.284z" fill="#2C52FF"/><path fill-rule="evenodd" clip-rule="evenodd" d="M.047 22.5C.047 10.1 10.1.047 22.5.047 34.9.047 44.953 10.1 44.953 22.5c0 12.4-10.053 22.453-22.453 22.453C10.1 44.953.047 34.9.047 22.5zM22.5 43.544a20.906 20.906 0 0014.88-6.164 20.906 20.906 0 006.164-14.88A20.906 20.906 0 0037.38 7.62 20.906 20.906 0 0022.5 1.456 20.906 20.906 0 007.62 7.62 20.906 20.906 0 001.456 22.5 20.906 20.906 0 007.62 37.38a20.906 20.906 0 0014.88 6.164z" fill="#2C52FF"/><path fill-rule="evenodd" clip-rule="evenodd" d="M28.5 44C40.374 44 50 34.374 50 22.5S40.374 1 28.5 1 7 10.626 7 22.5 16.626 44 28.5 44z" fill="#FA4566"/></symbol><symbol fill="none" viewBox="0 0 50 45" id="icone_rs_instagram" xmlns="http://www.w3.org/2000/svg"><path fill-rule="evenodd" clip-rule="evenodd" d="M.047 22.5C.047 10.1 10.1.047 22.5.047 34.9.047 44.953 10.1 44.953 22.5c0 12.4-10.053 22.453-22.453 22.453C10.1 44.953.047 34.9.047 22.5zM22.5 43.544a20.906 20.906 0 0014.88-6.164 20.906 20.906 0 006.164-14.88A20.906 20.906 0 0037.38 7.62 20.906 20.906 0 0022.5 1.456 20.906 20.906 0 007.62 7.62 20.906 20.906 0 001.456 22.5 20.906 20.906 0 007.62 37.38a20.906 20.906 0 0014.88 6.164z" fill="#2C52FF"/><path fill-rule="evenodd" clip-rule="evenodd" d="M14.737 11.884H30.52c1.5 0 2.69 1.185 2.69 2.684v15.784c0 1.5-1.19 2.764-2.69 2.764H14.737c-1.5 0-2.759-1.264-2.759-2.764V14.568c0-1.499 1.26-2.684 2.759-2.684zm12.743 2.349a.92.92 0 00-.94.925v2.288c0 .526.414.92.94.92h2.4c.526 0 .981-.394.981-.92v-2.288c0-.526-.455-.925-.981-.925h-2.4zm3.381 6.576h-1.884a6.2 6.2 0 01.272 1.829c0 3.532-2.955 6.398-6.6 6.398-3.646 0-6.6-2.868-6.6-6.4 0-.633.095-1.263.272-1.827h-1.994v8.984c0 .464.423.88.888.88h14.787c.464 0 .86-.416.86-.88v-8.984zm-8.212-2.527c-2.355 0-4.265 1.85-4.265 4.132 0 2.283 1.91 4.133 4.265 4.133 2.355 0 4.265-1.85 4.265-4.133 0-2.282-1.91-4.132-4.265-4.132z" fill="#2C52FF"/><path fill-rule="evenodd" clip-rule="evenodd" d="M28.5 44C40.374 44 50 34.374 50 22.5S40.374 1 28.5 1 7 10.626 7 22.5 16.626 44 28.5 44z" fill="#FA4566"/></symbol><symbol fill="none" viewBox="0 0 50 45" id="icone_rs_twitter" xmlns="http://www.w3.org/2000/svg"><path d="M38 14.723c-.992.462-2.06.774-3.182.914a5.777 5.777 0 002.436-3.213 10.784 10.784 0 01-3.517 1.41C32.727 12.706 31.287 12 29.693 12c-3.058 0-5.539 2.6-5.539 5.807 0 .454.05.897.144 1.323-4.604-.243-8.686-2.554-11.418-6.067a5.99 5.99 0 00-.75 2.92c0 2.014.978 3.791 2.464 4.832a5.332 5.332 0 01-2.509-.726v.073c0 2.813 1.91 5.159 4.444 5.693a5.327 5.327 0 01-2.502.1c.705 2.306 2.75 3.985 5.174 4.032-1.896 1.557-4.284 2.486-6.88 2.486-.446 0-.887-.028-1.321-.082C13.452 34.04 16.363 35 19.491 35c10.19 0 15.761-8.848 15.761-16.52 0-.252-.005-.503-.015-.753A11.536 11.536 0 0038 14.723z" fill="#2C52FF"/><path fill-rule="evenodd" clip-rule="evenodd" d="M0 22.5C0 10.074 10.074 0 22.5 0S45 10.074 45 22.5 34.926 45 22.5 45 0 34.926 0 22.5zm22.5 21.088a20.95 20.95 0 0014.911-6.177A20.95 20.95 0 0043.588 22.5 20.95 20.95 0 0037.41 7.589 20.95 20.95 0 0022.5 1.412 20.95 20.95 0 007.589 7.59 20.95 20.95 0 001.412 22.5 20.95 20.95 0 007.59 37.411 20.95 20.95 0 0022.5 43.588z" fill="#2C52FF"/><path fill-rule="evenodd" clip-rule="evenodd" d="M28.5 44C40.374 44 50 34.374 50 22.5S40.374 1 28.5 1 7 10.626 7 22.5 16.626 44 28.5 44z" fill="#FA4566"/></symbol><symbol fill="none" viewBox="0 0 39 39" id="icone_supprimer" xmlns="http://www.w3.org/2000/svg"><path d="M19.5 1.625C9.628 1.625 1.625 9.628 1.625 19.5S9.628 37.375 19.5 37.375 37.375 29.372 37.375 19.5 29.372 1.625 19.5 1.625zm0 32.5c-8.077 0-14.625-6.548-14.625-14.625S11.423 4.875 19.5 4.875 34.125 11.423 34.125 19.5 27.577 34.125 19.5 34.125z" fill="#fff"/><path d="M21.895 19.436L25.431 26h-3.86l-1.894-4.645L17.874 26H14.13l3.513-6.448-3.19-5.824h3.814l1.502 3.975 1.433-3.975h3.675l-2.982 5.708z" fill="#fff"/></symbol><symbol fill="none" viewBox="0 0 16 18" id="icone_supprimer_rose" xmlns="http://www.w3.org/2000/svg"><path d="M5.857 7.214v6.429c0 .104-.033.19-.1.257a.348.348 0 01-.257.1h-.714a.348.348 0 01-.257-.1.348.348 0 01-.1-.257V7.214c0-.104.033-.19.1-.256a.348.348 0 01.257-.1H5.5c.104 0 .19.033.257.1s.1.152.1.256zm2.857 0v6.429c0 .104-.033.19-.1.257a.348.348 0 01-.257.1h-.714a.348.348 0 01-.257-.1.348.348 0 01-.1-.257V7.214c0-.104.033-.19.1-.256a.348.348 0 01.257-.1h.714c.104 0 .19.033.257.1s.1.152.1.256zm2.857 0v6.429c0 .104-.033.19-.1.257a.348.348 0 01-.257.1H10.5a.348.348 0 01-.257-.1.348.348 0 01-.1-.257V7.214c0-.104.033-.19.1-.256a.347.347 0 01.257-.1h.714c.104 0 .19.033.257.1s.1.152.1.256zM13 15.294V4.715H3v10.58a1.268 1.268 0 00.24.754c.056.063.095.095.117.095h9.286c.022 0 .061-.032.117-.095a1.268 1.268 0 00.24-.753zM5.5 3.287h5L9.964 1.98a.315.315 0 00-.19-.123H6.238a.315.315 0 00-.19.123L5.5 3.286zm10.357.357v.714c0 .104-.033.19-.1.257a.348.348 0 01-.257.1h-1.072v10.58c0 .618-.174 1.152-.524 1.602-.35.45-.77.675-1.261.675H3.357c-.491 0-.911-.217-1.261-.652-.35-.436-.525-.962-.525-1.58V4.714H.5a.348.348 0 01-.257-.1.348.348 0 01-.1-.257v-.714c0-.104.033-.19.1-.257a.348.348 0 01.257-.1h3.449l.78-1.864c.112-.275.313-.51.604-.703.29-.194.584-.29.881-.29h3.572c.297 0 .591.096.881.29.29.193.491.428.603.703l.781 1.864H15.5c.104 0 .19.033.257.1s.1.153.1.257z" fill="#FA4566"/></symbol><symbol fill="none" viewBox="0 0 21 13" id="icone_telephone" xmlns="http://www.w3.org/2000/svg"><path fill-rule="evenodd" clip-rule="evenodd" d="M20.182 3.25C18.418 1.219 14.82 0 10.514 0 6.279 0 2.609 1.219.845 3.25.14 4.063-.143 5.01.07 5.958c.14.813.706 1.558 1.411 1.896.424.203.918.271 1.341.271.212 0 .494 0 .706-.068-.141.407-.212.813-.282 1.287-.142 1.219.07 2.099.705 2.776.706.812 1.835.88 2.259.88h8.469c.917 0 1.764-.338 2.258-.948.706-.812.847-1.963.776-2.708l-.026-.153c-.063-.37-.132-.777-.256-1.134.212.068.494.068.776.068.424 0 .918-.068 1.341-.27.706-.34 1.27-1.084 1.412-1.897.14-.948-.07-1.963-.777-2.708zm-4.022 8.125c-.353.406-.847.61-1.482.61H6.33c-.16.005-1.07.033-1.603-.542-.353-.406-.494-1.084-.424-1.964.353-2.708 2.259-4.333 2.611-4.604a6.244 6.244 0 013.67-1.219c1.341 0 2.541.406 3.459 1.219 1.34 1.083 2.328 2.911 2.61 4.604.071.542 0 1.354-.493 1.896zm2.823-4.401c.494-.203.776-.677.917-1.219.141-.677-.07-1.286-.564-1.828-1.553-1.828-4.87-2.911-8.822-2.911-3.952 0-7.27 1.083-8.893 2.911-.494.542-.705 1.219-.564 1.828.141.542.494 1.016.917 1.219.706.406 1.623.135 1.976 0 .777-1.625 1.976-2.64 2.259-2.844 1.2-.88 2.752-1.422 4.305-1.422 1.552 0 3.034.474 4.164 1.422.917.745 1.693 1.693 2.187 2.776.283.136 1.341.474 2.118.068zm-8.47-2.234c-1.552 0-2.893 1.083-2.893 2.37 0 1.286 1.27 2.37 2.894 2.37 1.552 0 2.893-1.084 2.893-2.37 0-1.287-1.34-2.37-2.893-2.37zM8.68 7.11c0 .744.847 1.354 1.835 1.354s1.835-.61 1.835-1.355c0-.744-.847-1.354-1.835-1.354-1.059 0-1.835.61-1.835 1.354z" fill="#262324"/></symbol><symbol viewBox="0 0 125 41" id="icone_visa" xmlns="http://www.w3.org/2000/svg"><defs><path id="bza" d="M0 0h125v71.429H0z"/></defs><g transform="translate(0 -16)" fill="none" fill-rule="evenodd"><mask id="bzb" fill="#fff"><use xlink:href="#bza"/></mask><g mask="url(#bzb)"><path d="M50.413 17.004L44.065 56.02h10.157l6.35-39.017H50.413zm-14.895 0l-9.684 26.835-1.146-5.778.001.002-.252-1.296c-1.172-2.526-3.887-7.327-9.013-11.424a40.636 40.636 0 00-4.52-3.127l8.802 33.805H30.29L46.45 17.004H35.518zm39.644 10.831c0-4.41 9.892-3.844 14.239-1.449l1.45-8.38s-4.474-1.7-9.137-1.7c-5.041 0-17.012 2.204-17.012 12.916 0 10.08 14.05 10.206 14.05 15.499 0 5.293-12.601 4.347-16.76 1.008l-1.51 8.759s4.535 2.204 11.466 2.204c6.93 0 17.39-3.59 17.39-13.357 0-10.145-14.176-11.09-14.176-15.5zm41.45-10.831h-8.167c-3.771 0-4.69 2.907-4.69 2.907l-15.148 36.11h10.588l2.118-5.795h12.913l1.191 5.795h9.327l-8.132-39.017zM104.24 42.219l5.337-14.601 3.003 14.6h-8.34z" fill="#005BAC"/><path d="M21.41 20.677s-.42-3.521-4.909-3.521H.193l-.19.661s7.838 1.598 15.358 7.585c7.187 5.722 9.532 12.854 9.532 12.854l-3.483-17.58z" fill="#F6AC1D"/></g></g></symbol><symbol viewBox="0 0 180 45" id="logo_traces" xmlns="http://www.w3.org/2000/svg"><g fill="none" fill-rule="evenodd"><path d="M12.353 45c-2.921 0-5.091-.771-6.511-2.314-1.42-1.543-2.13-4.186-2.13-7.93V17.29H0v-2.036c1.663-.165 3.306-.844 4.929-2.037 1.623-1.193 3.043-2.664 4.26-4.412 1.217-1.749 2.069-3.507 2.555-5.277h1.643v11.726h5.599v2.036h-5.599v18.267c0 2.016.213 3.497.64 4.443.425.947 1.186 1.42 2.281 1.42 1.177 0 2.374-.515 3.59-1.543l1.278 1.913c-.121.123-.578.483-1.369 1.08-.79.596-1.835 1.1-3.134 1.512-1.298.411-2.738.617-4.32.617zm33.153-30c1.662 0 3.022.476 4.082 1.429 1.059.952 1.588 2.259 1.588 3.92 0 1.378-.384 2.553-1.152 3.526-.769.973-1.963 1.459-3.583 1.459-1.33 0-2.41-.344-3.24-1.033-.83-.69-1.246-1.642-1.246-2.857 0-.73.135-1.287.405-1.672s.405-.618.405-.7c0-.242-.208-.364-.623-.364-.665 0-1.34.517-2.025 1.55-.685 1.034-1.257 2.27-1.714 3.708-.456 1.439-.685 2.726-.685 3.86v11.246c0 .892.114 1.54.343 1.945.228.406.644.69 1.246.851.602.163 1.568.244 2.897.244v2.006h-18.38v-2.006c1.204 0 2.076-.071 2.616-.213.54-.142.904-.416 1.09-.82.188-.406.281-1.075.281-2.007V20.836c0-.81-.114-1.348-.342-1.611-.229-.264-.717-.395-1.465-.395h-2.18v-2.006l10.28-1.58h3.303v5.774h.062C39.42 17.006 42.1 15 45.506 15zm40.082 27.996c-1.204.77-2.44 1.295-3.706 1.579-1.266.283-2.647.425-4.142.425-1.494 0-2.73-.243-3.705-.729-.976-.486-1.734-1.093-2.274-1.822-2.408 1.7-5.315 2.551-8.72 2.551-6.145 0-9.217-2.247-9.217-6.74 0-2.673 1.525-4.91 4.577-6.711 3.052-1.802 7.298-3.189 12.737-4.16v-5.04c0-1.823-.28-3.149-.84-3.979-.561-.83-1.589-1.244-3.083-1.244-.914 0-1.661.131-2.243.394-.581.263-.872.658-.872 1.184 0 .243.073.476.218.699.146.223.24.374.28.455.582.77.873 1.559.873 2.369 0 1.093-.447 2.064-1.34 2.915-.892.85-2.065 1.275-3.519 1.275-1.453 0-2.605-.405-3.456-1.215-.852-.81-1.277-1.74-1.277-2.793 0-1.174.477-2.318 1.432-3.431.955-1.114 2.523-2.055 4.703-2.824 2.18-.77 4.972-1.154 8.377-1.154 3.737 0 6.457.85 8.16 2.55 1.702 1.701 2.553 4.252 2.553 7.652v13.3c0 1.336.104 2.227.311 2.672.208.445.56.668 1.059.668.706 0 1.266-.111 1.682-.334.415-.223.643-.354.685-.395l.747 1.883zM63.53 37.705c0 1.698.28 2.897.838 3.597.558.7 1.416 1.05 2.572 1.05 1.117 0 2.333-.508 3.65-1.527V30c-2.473.807-4.268 1.836-5.385 3.088-1.116 1.253-1.675 2.791-1.675 4.617zM103.693 45c-4.63 0-8.218-1.265-10.76-3.796-2.544-2.53-3.815-6.143-3.815-10.84 0-4.939 1.385-8.734 4.155-11.386C96.043 16.326 99.786 15 104.5 15c3.515 0 6.244.688 8.187 2.065 1.944 1.376 2.915 3.158 2.915 5.344 0 1.295-.372 2.348-1.116 3.158-.745.81-1.902 1.214-3.474 1.214-1.364 0-2.45-.313-3.256-.94-.806-.628-1.21-1.55-1.21-2.764 0-.688.166-1.356.497-2.004.248-.648.372-1.154.372-1.518 0-.77-.258-1.387-.775-1.853-.517-.465-1.313-.698-2.388-.698-1.117 0-2.016.324-2.698.972-.683.647-1.2 1.791-1.551 3.43-.351 1.64-.527 3.938-.527 6.894 0 3.36.238 5.981.713 7.864.476 1.883 1.2 3.198 2.17 3.947.973.75 2.306 1.124 4.002 1.124 2.067 0 3.67-.466 4.806-1.397 1.138-.931 2.161-2.368 3.07-4.312l2.234 1.033c-.745 1.66-1.53 3.056-2.357 4.19-.827 1.134-2.089 2.125-3.784 2.976-1.695.85-3.907 1.275-6.637 1.275zM150 30.121h-18.095c.122 4.09.698 6.964 1.73 8.624 1.033 1.66 2.683 2.49 4.95 2.49 3.805 0 6.578-1.903 8.318-5.709l2.186 1.033c-.728 1.62-1.558 3.026-2.49 4.22-.93 1.195-2.276 2.197-4.037 3.006-1.761.81-3.998 1.215-6.71 1.215-4.615 0-8.116-1.255-10.505-3.765-2.388-2.51-3.582-6.235-3.582-11.174 0-4.98 1.224-8.735 3.673-11.265 2.45-2.53 6.022-3.796 10.718-3.796C145.386 15 150 19.919 150 29.757v.364zm-10.588-1.886c0-4.22-.283-7.187-.849-8.9-.566-1.714-1.596-2.57-3.092-2.57-1.333 0-2.333.815-3 2.444-.667 1.63-1 4.639-1 9.026h7.94zM167.24 30c-1.335 0-2.43-.091-3.284-.273a26.1 26.1 0 01-2.596-.699c-.876-.283-1.543-.425-2.001-.425-.584 0-1.105.223-1.564.668h-1.689l-.563-9.838h2.252c.334 2.713 1.303 4.818 2.908 6.316 1.606 1.498 3.66 2.247 6.161 2.247 1.752 0 3.221-.364 4.41-1.093 1.188-.729 1.782-1.863 1.782-3.401 0-1.053-.354-1.903-1.063-2.55-.709-.648-1.876-1.175-3.503-1.58l-4.753-1.153c-2.919-.73-5.056-1.812-6.411-3.25-1.355-1.437-2.033-3.228-2.033-5.374 0-2.874 1.063-5.192 3.19-6.953C160.611.88 163.509 0 167.178 0c1.168 0 2.106.07 2.815.213.708.141 1.522.354 2.439.637.792.284 1.397.425 1.814.425.417 0 .73-.09.938-.273.208-.182.375-.455.5-.82h1.689l.438 8.867h-2.064c-1.376-4.737-4.045-7.106-8.006-7.106-1.626 0-2.94.375-3.94 1.124-1.001.749-1.502 1.69-1.502 2.824 0 1.174.49 2.034 1.47 2.58.98.547 2.325 1.043 4.034 1.489l3.566.91c3.127.81 5.347 1.913 6.66 3.31 1.314 1.397 1.971 3.209 1.971 5.435 0 3.118-1.105 5.628-3.315 7.53-2.21 1.904-5.358 2.855-9.444 2.855z" fill="#000" fill-rule="nonzero"/><path fill="#2C52FF" d="M155 39h24v6h-24z"/></g></symbol></svg>