<?xml version="1.0" encoding="UTF-8"?>
<svg width="275px" height="350px" viewBox="0 0 275 350" version="1.1" xmlns="http://www.w3.org/2000/svg" xmlns:xlink="http://www.w3.org/1999/xlink">
    <!-- Generator: Sketch 60 (88103) - https://sketch.com -->
    <title>illustration_placeholder_couverture</title>
    <desc>Created with Sketch.</desc>
    <g id="Accueil" stroke="none" stroke-width="1" fill="none" fill-rule="evenodd">
        <g id="Autres" transform="translate(-40.000000, -33.000000)">
            <g id="illustration_placeholder_couverture" transform="translate(40.000000, 33.000000)">
                <rect id="Rectangle" fill="#EDEDED" x="0" y="0" width="275" height="350"></rect>
                <g id="iconfinder_book_image_103391" transform="translate(92.000000, 93.000000)" fill="#2C52FF" fill-rule="nonzero">
                    <g id="book_x5F_image">
                        <path d="M89.6126275,6.80909375 L82.7198787,6.80909375 L82.7198787,13.625 L89.6126275,13.625 L89.6126275,109 L6.89964158,109 C6.89964158,109 0.00689274883,109 0.00689274883,102.1875 L0.00689274883,10.2800625 C0.00689274883,10.259625 0.00344637441,10.2391875 0.00344637441,10.21875 C-0.11717673,5.60328125 2.78467053,2.3366875 5.36255859,1.2058125 C7.90598291,-0.02725 10.0565205,0.013625 10.346016,0 L89.6126275,0 L89.6126275,6.80909375 Z M10.3322305,13.625 C10.3391232,13.625 10.346016,13.625 10.346016,13.625 L75.8271299,13.625 L75.8271299,6.80909375 L10.346016,6.80909375 C10.3391232,6.82953125 10.235732,6.80228125 9.8325062,6.8738125 C9.43617315,6.93853125 8.88819961,7.0781875 8.44017094,7.29959375 C7.56823821,7.8820625 7.01337193,8.01490625 6.89964158,10.21875 C6.95133719,11.921875 7.36145575,12.2931562 7.83705542,12.7495937 C8.33333333,13.1787812 9.21905156,13.4717187 9.8325062,13.5636875 C10.1599118,13.6215937 10.290874,13.625 10.3322305,13.625 M82.7198787,102.1875 L82.7198787,20.4375 L13.7923904,20.4375 L13.7923904,102.1875 L82.7198787,102.1875 Z" id="Shape"></path>
                    </g>
                </g>
                <path d="M94.6256644,255.242 C95.9896644,255.242 97.1849977,254.743333 98.2116644,253.746 L98.2116644,253.746 L97.6176644,253.086 C97.1629977,253.482 96.7156644,253.782667 96.2756644,253.988 C95.8356644,254.193333 95.2929977,254.296 94.6476644,254.296 C93.3276644,254.296 92.264331,253.731333 91.4576644,252.602 C90.6509977,251.472667 90.2476644,249.764 90.2476644,247.476 C90.2476644,245.114667 90.6546644,243.384 91.4686644,242.284 C92.2826644,241.184 93.3569977,240.634 94.6916644,240.634 C95.2489977,240.634 95.7366644,240.718333 96.1546644,240.887 C96.5726644,241.055667 97.016331,241.338 97.4856644,241.734 L97.4856644,241.734 L98.0576644,241.074 C97.544331,240.619333 97.027331,240.282 96.5066644,240.062 C95.9859977,239.842 95.3589977,239.732 94.6256644,239.732 C93.5989977,239.732 92.6749977,240.014333 91.8536644,240.579 C91.032331,241.143667 90.3796644,242.005333 89.8956644,243.164 C89.4116644,244.322667 89.1696644,245.76 89.1696644,247.476 C89.1696644,249.162667 89.404331,250.589 89.8736644,251.755 C90.3429977,252.921 90.988331,253.793667 91.8096644,254.373 C92.6309977,254.952333 93.5696644,255.242 94.6256644,255.242 Z M104.188332,255.242 C105.537665,255.242 106.597332,254.717667 107.367332,253.669 C108.137332,252.620333 108.522332,251.135333 108.522332,249.214 C108.522332,247.278 108.144665,245.807667 107.389331,244.803 C106.633998,243.798333 105.574332,243.296 104.210332,243.296 C102.875665,243.296 101.819665,243.816667 101.042332,244.858 C100.264998,245.899333 99.8763315,247.373333 99.8763315,249.28 C99.8763315,251.157333 100.257665,252.620333 101.020331,253.669 C101.782998,254.717667 102.838998,255.242 104.188332,255.242 Z M104.188332,254.362 C103.146998,254.362 102.340332,253.933 101.768332,253.075 C101.196331,252.217 100.910331,250.952 100.910331,249.28 C100.910331,247.564 101.199998,246.280667 101.779331,245.43 C102.358665,244.579333 103.168998,244.154 104.210332,244.154 C105.266332,244.154 106.076665,244.575667 106.641332,245.419 C107.205998,246.262333 107.488332,247.527333 107.488332,249.214 C107.488332,250.93 107.202332,252.217 106.630332,253.075 C106.058332,253.933 105.244332,254.362 104.188332,254.362 Z M115.202999,255.242 C116.625665,255.242 117.754999,254.472 118.590999,252.932 L118.590999,252.932 L118.634999,255 L119.492999,255 L119.492999,243.516 L118.502999,243.516 L118.502999,251.898 C118.092332,252.69 117.633999,253.302333 117.127999,253.735 C116.621999,254.167667 116.031665,254.384 115.356999,254.384 C113.934332,254.384 113.222999,253.533333 113.222999,251.832 L113.222999,251.832 L113.222999,243.516 L112.232999,243.516 L112.232999,251.92 C112.232999,252.961333 112.493332,253.775333 113.013999,254.362 C113.534665,254.948667 114.264332,255.242 115.202999,255.242 Z M127.361666,255 L130.925666,243.516 L129.891666,243.516 L126.745666,254.142 L123.467666,243.516 L122.389666,243.516 L126.129666,255 L127.361666,255 Z M137.320333,255.242 C137.965666,255.242 138.556,255.124667 139.091333,254.89 C139.626666,254.655333 140.143666,254.310667 140.642333,253.856 L140.642333,253.856 L140.136333,253.24 C139.667,253.636 139.223333,253.922 138.805333,254.098 C138.387333,254.274 137.899666,254.362 137.342333,254.362 C136.359666,254.362 135.571333,253.988 134.977333,253.24 C134.383333,252.492 134.057,251.311333 133.998333,249.698 L133.998333,249.698 L141.016333,249.698 C141.045666,249.404667 141.060333,249.104 141.060333,248.796 C141.060333,247.050667 140.723,245.697667 140.048333,244.737 C139.373666,243.776333 138.391,243.296 137.100333,243.296 C135.824333,243.296 134.816,243.827667 134.075333,244.891 C133.334666,245.954333 132.964333,247.439333 132.964333,249.346 C132.964333,251.238 133.353,252.693667 134.130333,253.713 C134.907666,254.732333 135.971,255.242 137.320333,255.242 Z M140.070333,248.906 L133.998333,248.906 C134.057,247.263333 134.365,246.060667 134.922333,245.298 C135.479666,244.535333 136.213,244.154 137.122333,244.154 C138.119666,244.154 138.860333,244.528 139.344333,245.276 C139.828333,246.024 140.070333,247.087333 140.070333,248.466 L140.070333,248.466 L140.070333,248.906 Z M145.761,255 L145.761,247.74 C146.054333,246.537333 146.424667,245.65 146.872,245.078 C147.319333,244.506 147.902333,244.22 148.621,244.22 C148.914333,244.22 149.207667,244.256667 149.501,244.33 L149.501,244.33 L149.699,243.428 C149.347,243.34 149.009667,243.296 148.687,243.296 C147.953667,243.296 147.345,243.519667 146.861,243.967 C146.377,244.414333 145.988333,245.092667 145.695,246.002 L145.695,246.002 L145.629,243.516 L144.771,243.516 L144.771,255 L145.761,255 Z M154.927667,255.242 C155.719667,255.242 156.431,255.007333 157.061667,254.538 L157.061667,254.538 L156.643667,253.856 C156.115667,254.193333 155.573,254.362 155.015667,254.362 C153.959667,254.362 153.431667,253.738667 153.431667,252.492 L153.431667,252.492 L153.431667,244.352 L156.027667,244.352 L156.159667,243.516 L153.431667,243.516 L153.431667,240.612 L152.441667,240.722 L152.441667,243.516 L150.747667,243.516 L150.747667,244.352 L152.441667,244.352 L152.441667,252.536 C152.441667,253.401333 152.661667,254.068667 153.101667,254.538 C153.541667,255.007333 154.150334,255.242 154.927667,255.242 Z M162.378334,255.242 C163.801001,255.242 164.930334,254.472 165.766334,252.932 L165.766334,252.932 L165.810334,255 L166.668334,255 L166.668334,243.516 L165.678334,243.516 L165.678334,251.898 C165.267668,252.69 164.809334,253.302333 164.303334,253.735 C163.797334,254.167667 163.207001,254.384 162.532334,254.384 C161.109668,254.384 160.398334,253.533333 160.398334,251.832 L160.398334,251.832 L160.398334,243.516 L159.408334,243.516 L159.408334,251.92 C159.408334,252.961333 159.668668,253.775333 160.189334,254.362 C160.710001,254.948667 161.439668,255.242 162.378334,255.242 Z M172.337001,255 L172.337001,247.74 C172.630335,246.537333 173.000668,245.65 173.448001,245.078 C173.895335,244.506 174.478335,244.22 175.197001,244.22 C175.490335,244.22 175.783668,244.256667 176.077001,244.33 L176.077001,244.33 L176.275001,243.428 C175.923001,243.34 175.585668,243.296 175.263001,243.296 C174.529668,243.296 173.921001,243.519667 173.437001,243.967 C172.953001,244.414333 172.564335,245.092667 172.271001,246.002 L172.271001,246.002 L172.205001,243.516 L171.347001,243.516 L171.347001,255 L172.337001,255 Z M181.899668,255.242 C182.545002,255.242 183.135335,255.124667 183.670668,254.89 C184.206002,254.655333 184.723002,254.310667 185.221668,253.856 L185.221668,253.856 L184.715668,253.24 C184.246335,253.636 183.802668,253.922 183.384668,254.098 C182.966668,254.274 182.479002,254.362 181.921668,254.362 C180.939002,254.362 180.150668,253.988 179.556668,253.24 C178.962668,252.492 178.636335,251.311333 178.577668,249.698 L178.577668,249.698 L185.595668,249.698 C185.625002,249.404667 185.639668,249.104 185.639668,248.796 C185.639668,247.050667 185.302335,245.697667 184.627668,244.737 C183.953002,243.776333 182.970335,243.296 181.679668,243.296 C180.403668,243.296 179.395335,243.827667 178.654668,244.891 C177.914002,245.954333 177.543668,247.439333 177.543668,249.346 C177.543668,251.238 177.932335,252.693667 178.709668,253.713 C179.487002,254.732333 180.550335,255.242 181.899668,255.242 Z M184.649668,248.906 L178.577668,248.906 C178.636335,247.263333 178.944335,246.060667 179.501668,245.298 C180.059002,244.535333 180.792335,244.154 181.701668,244.154 C182.699002,244.154 183.439668,244.528 183.923668,245.276 C184.407668,246.024 184.649668,247.087333 184.649668,248.466 L184.649668,248.466 L184.649668,248.906 Z M69.3623301,282 L69.3623301,273.882 C69.6849968,273.31 70.0149968,272.877333 70.3523301,272.584 C70.6896635,272.290667 71.0563301,272.144 71.4523301,272.144 C71.8336635,272.144 72.1233301,272.272333 72.3213301,272.529 C72.5193301,272.785667 72.6183301,273.222 72.6183301,273.838 L72.6183301,273.838 L72.6183301,282 L75.3683301,282 L75.3683301,273.464 C75.3683301,272.408 75.1043301,271.572 74.5763301,270.956 C74.0483301,270.34 73.3223301,270.032 72.3983301,270.032 C71.7383301,270.032 71.1479968,270.189667 70.6273301,270.505 C70.1066635,270.820333 69.6336635,271.278667 69.2083301,271.88 L69.2083301,271.88 L69.0103301,270.362 L66.6123301,270.362 L66.6123301,282 L69.3623301,282 Z M82.9289973,282.33 C84.4836639,282.33 85.7046639,281.78 86.5919973,280.68 C87.4793306,279.58 87.9229973,278.076667 87.9229973,276.17 C87.9229973,274.19 87.4829973,272.672 86.6029973,271.616 C85.7229973,270.56 84.4983306,270.032 82.9289973,270.032 C81.3596639,270.032 80.1313306,270.574667 79.2439973,271.66 C78.3566639,272.745333 77.9129973,274.248667 77.9129973,276.17 C77.9129973,278.120667 78.3566639,279.635 79.2439973,280.713 C80.1313306,281.791 81.3596639,282.33 82.9289973,282.33 Z M82.9289973,280.24 C82.2103306,280.24 81.6749973,279.921 81.3229973,279.283 C80.9709973,278.645 80.7949973,277.607333 80.7949973,276.17 C80.7949973,274.747333 80.9709973,273.717 81.3229973,273.079 C81.6749973,272.441 82.2103306,272.122 82.9289973,272.122 C83.6476639,272.122 84.1829973,272.437333 84.5349973,273.068 C84.8869973,273.698667 85.0629973,274.732667 85.0629973,276.17 C85.0629973,277.592667 84.8869973,278.626667 84.5349973,279.272 C84.1829973,279.917333 83.6476639,280.24 82.9289973,280.24 Z M93.3496644,282 L93.3496644,273.882 C93.672331,273.31 94.002331,272.877333 94.3396644,272.584 C94.6769977,272.290667 95.0436644,272.144 95.4396644,272.144 C95.8209977,272.144 96.1106644,272.272333 96.3086644,272.529 C96.5066644,272.785667 96.6056644,273.222 96.6056644,273.838 L96.6056644,273.838 L96.6056644,282 L99.3556644,282 L99.3556644,273.464 C99.3556644,272.408 99.0916644,271.572 98.5636644,270.956 C98.0356644,270.34 97.3096644,270.032 96.3856644,270.032 C95.7256644,270.032 95.135331,270.189667 94.6146644,270.505 C94.0939977,270.820333 93.6209977,271.278667 93.1956644,271.88 L93.1956644,271.88 L92.9976644,270.362 L90.5996644,270.362 L90.5996644,282 L93.3496644,282 Z M108.192332,276.214 L108.192332,274.014 L102.098332,274.014 L102.098332,276.214 L108.192332,276.214 Z M114.498999,282.33 C115.716332,282.33 116.706332,281.750667 117.468999,280.592 L117.468999,280.592 L117.622999,282 L120.064999,282 L120.064999,265.698 L117.314999,265.412 L117.314999,271.264 C116.610999,270.442667 115.745665,270.032 114.718999,270.032 C113.882999,270.032 113.145999,270.288667 112.507999,270.802 C111.869999,271.315333 111.374999,272.037667 111.022999,272.969 C110.670999,273.900333 110.494999,274.974667 110.494999,276.192 C110.494999,278.113333 110.839665,279.616667 111.528999,280.702 C112.218332,281.787333 113.208332,282.33 114.498999,282.33 Z M115.268999,280.262 C114.652999,280.262 114.179999,279.943 113.849999,279.305 C113.519999,278.667 113.354999,277.622 113.354999,276.17 C113.354999,274.762 113.538332,273.731667 113.904999,273.079 C114.271665,272.426333 114.777665,272.1 115.422999,272.1 C115.804332,272.1 116.145332,272.202667 116.445999,272.408 C116.746665,272.613333 117.036332,272.921333 117.314999,273.332 L117.314999,273.332 L117.314999,278.81 C117.021665,279.294 116.713665,279.657 116.390999,279.899 C116.068332,280.141 115.694332,280.262 115.268999,280.262 Z M124.721666,267.854 C125.220332,267.854 125.627332,267.696333 125.942666,267.381 C126.257999,267.065667 126.415666,266.666 126.415666,266.182 C126.415666,265.698 126.257999,265.298333 125.942666,264.983 C125.627332,264.667667 125.220332,264.51 124.721666,264.51 C124.222999,264.51 123.815999,264.667667 123.500666,264.983 C123.185332,265.298333 123.027666,265.698 123.027666,266.182 C123.027666,266.666 123.185332,267.065667 123.500666,267.381 C123.815999,267.696333 124.222999,267.854 124.721666,267.854 Z M126.085666,282 L126.085666,270.362 L123.335666,270.362 L123.335666,282 L126.085666,282 Z M132.392333,282.33 C133.697666,282.33 134.779333,282.003667 135.637333,281.351 C136.495333,280.698333 136.924333,279.8 136.924333,278.656 C136.924333,277.702667 136.653,276.954667 136.110333,276.412 C135.567666,275.869333 134.739,275.414667 133.624333,275.048 C133.008333,274.842667 132.546333,274.655667 132.238333,274.487 C131.930333,274.318333 131.714,274.146 131.589333,273.97 C131.464666,273.794 131.402333,273.566667 131.402333,273.288 C131.402333,272.906667 131.534333,272.606 131.798333,272.386 C132.062333,272.166 132.436333,272.056 132.920333,272.056 C133.771,272.056 134.629,272.364 135.494333,272.98 L135.494333,272.98 L136.572333,271.418 C135.501666,270.494 134.240333,270.032 132.788333,270.032 C131.967,270.032 131.241,270.178667 130.610333,270.472 C129.979666,270.765333 129.495666,271.172333 129.158333,271.693 C128.821,272.213667 128.652333,272.796667 128.652333,273.442 C128.652333,274.263333 128.898,274.952667 129.389333,275.51 C129.880666,276.067333 130.669,276.529333 131.754333,276.896 C132.414333,277.101333 132.905666,277.292 133.228333,277.468 C133.551,277.644 133.774666,277.834667 133.899333,278.04 C134.024,278.245333 134.086333,278.516667 134.086333,278.854 C134.086333,279.308667 133.928666,279.660667 133.613333,279.91 C133.298,280.159333 132.861666,280.284 132.304333,280.284 C131.351,280.284 130.419666,279.917333 129.510333,279.184 L129.510333,279.184 L128.146333,280.702 C128.674333,281.215333 129.297666,281.615 130.016333,281.901 C130.735,282.187 131.527,282.33 132.392333,282.33 Z M139.249,286.774 L141.999,286.466 L141.999,281.076 C142.673667,281.912 143.546333,282.33 144.617,282.33 C145.907667,282.33 146.919667,281.769 147.653,280.647 C148.386333,279.525 148.753,278.025333 148.753,276.148 C148.753,274.197333 148.434,272.690333 147.796,271.627 C147.158,270.563667 146.193667,270.032 144.903,270.032 C143.656333,270.032 142.622333,270.611333 141.801,271.77 L141.801,271.77 L141.669,270.362 L139.249,270.362 L139.249,286.774 Z M143.847,280.218 C143.113667,280.218 142.497667,279.829333 141.999,279.052 L141.999,279.052 L141.999,273.64 C142.571,272.628 143.253,272.122 144.045,272.122 C144.661,272.122 145.123,272.43 145.431,273.046 C145.739,273.662 145.893,274.703333 145.893,276.17 C145.893,277.592667 145.717,278.623 145.365,279.261 C145.013,279.899 144.507,280.218 143.847,280.218 Z M155.873667,282.33 C157.428334,282.33 158.649334,281.78 159.536667,280.68 C160.424,279.58 160.867667,278.076667 160.867667,276.17 C160.867667,274.19 160.427667,272.672 159.547667,271.616 C158.667667,270.56 157.443,270.032 155.873667,270.032 C154.304334,270.032 153.076,270.574667 152.188667,271.66 C151.301334,272.745333 150.857667,274.248667 150.857667,276.17 C150.857667,278.120667 151.301334,279.635 152.188667,280.713 C153.076,281.791 154.304334,282.33 155.873667,282.33 Z M155.873667,280.24 C155.155,280.24 154.619667,279.921 154.267667,279.283 C153.915667,278.645 153.739667,277.607333 153.739667,276.17 C153.739667,274.747333 153.915667,273.717 154.267667,273.079 C154.619667,272.441 155.155,272.122 155.873667,272.122 C156.592334,272.122 157.127667,272.437333 157.479667,273.068 C157.831667,273.698667 158.007667,274.732667 158.007667,276.17 C158.007667,277.592667 157.831667,278.626667 157.479667,279.272 C157.127667,279.917333 156.592334,280.24 155.873667,280.24 Z M166.294334,282 L166.294334,273.882 C166.617001,273.31 166.947001,272.877333 167.284334,272.584 C167.621668,272.290667 167.988334,272.144 168.384334,272.144 C168.765668,272.144 169.055334,272.272333 169.253334,272.529 C169.451334,272.785667 169.550334,273.222 169.550334,273.838 L169.550334,273.838 L169.550334,282 L172.300334,282 L172.300334,273.464 C172.300334,272.408 172.036334,271.572 171.508334,270.956 C170.980334,270.34 170.254334,270.032 169.330334,270.032 C168.670334,270.032 168.080001,270.189667 167.559334,270.505 C167.038668,270.820333 166.565668,271.278667 166.140334,271.88 L166.140334,271.88 L165.942334,270.362 L163.544334,270.362 L163.544334,282 L166.294334,282 Z M176.847001,267.854 C177.345668,267.854 177.752668,267.696333 178.068001,267.381 C178.383335,267.065667 178.541001,266.666 178.541001,266.182 C178.541001,265.698 178.383335,265.298333 178.068001,264.983 C177.752668,264.667667 177.345668,264.51 176.847001,264.51 C176.348335,264.51 175.941335,264.667667 175.626001,264.983 C175.310668,265.298333 175.153001,265.698 175.153001,266.182 C175.153001,266.666 175.310668,267.065667 175.626001,267.381 C175.941335,267.696333 176.348335,267.854 176.847001,267.854 Z M178.211001,282 L178.211001,270.362 L175.461001,270.362 L175.461001,282 L178.211001,282 Z M186.849669,282.33 C187.685669,282.33 188.415335,282.077 189.038669,281.571 C189.662002,281.065 190.142335,280.346333 190.479669,279.415 C190.817002,278.483667 190.985669,277.402 190.985669,276.17 C190.985669,274.19 190.648335,272.672 189.973669,271.616 C189.299002,270.56 188.345669,270.032 187.113669,270.032 C186.527002,270.032 185.984335,270.175 185.485669,270.461 C184.987002,270.747 184.569002,271.139333 184.231669,271.638 L184.231669,271.638 L184.231669,265.412 L181.481669,265.72 L181.481669,282 L183.923669,282 L184.077669,280.856 C184.796335,281.838667 185.720335,282.33 186.849669,282.33 Z M186.101669,280.262 C185.735002,280.262 185.390335,280.148333 185.067669,279.921 C184.745002,279.693667 184.466335,279.382 184.231669,278.986 L184.231669,278.986 L184.231669,273.662 C184.803669,272.635333 185.478335,272.122 186.255669,272.122 C186.857002,272.122 187.319002,272.415333 187.641669,273.002 C187.964335,273.588667 188.125669,274.644667 188.125669,276.17 C188.125669,278.898 187.451002,280.262 186.101669,280.262 Z M196.302336,282.33 C196.977002,282.33 197.556336,282.190667 198.040336,281.912 L198.040336,281.912 L197.490336,280.02 C197.314336,280.078667 197.131002,280.108 196.940336,280.108 C196.544336,280.108 196.346336,279.873333 196.346336,279.404 L196.346336,279.404 L196.346336,265.412 L193.596336,265.698 L193.596336,279.492 C193.596336,280.386667 193.834669,281.083333 194.311336,281.582 C194.788002,282.080667 195.451669,282.33 196.302336,282.33 Z M204.369003,282.33 C205.865003,282.33 207.192336,281.824 208.351003,280.812 L208.351003,280.812 L207.207003,279.25 C206.737669,279.587333 206.297669,279.836667 205.887003,279.998 C205.476336,280.159333 205.036336,280.24 204.567003,280.24 C203.833669,280.24 203.261669,279.998 202.851003,279.514 C202.440336,279.03 202.191003,278.201333 202.103003,277.028 L202.103003,277.028 L208.681003,277.028 C208.725003,276.412 208.747003,276.038 208.747003,275.906 C208.747003,274.014 208.336336,272.562 207.515003,271.55 C206.693669,270.538 205.549669,270.032 204.083003,270.032 C202.572336,270.032 201.395336,270.600333 200.552003,271.737 C199.708669,272.873667 199.287003,274.380667 199.287003,276.258 C199.287003,278.164667 199.727003,279.653333 200.607003,280.724 C201.487003,281.794667 202.741003,282.33 204.369003,282.33 Z M206.041003,275.246 L202.103003,275.246 C202.161669,274.072667 202.356003,273.233 202.686003,272.727 C203.016003,272.221 203.489003,271.968 204.105003,271.968 C204.779669,271.968 205.271003,272.228333 205.579003,272.749 C205.887003,273.269667 206.041003,274.058 206.041003,275.114 L206.041003,275.114 L206.041003,275.246 Z" id="Couverturenon-disponible" fill="#000000" fill-rule="nonzero"></path>
                <path d="M138.403118,76 C147.133674,76 154.554535,77.5033407 160.665924,80.5100671 C166.777313,83.5167936 171.360787,87.4630628 174.416481,92.3489933 C177.472176,97.2349238 179,102.621894 179,108.510067 C179,113.521278 178.189318,117.843382 176.567929,121.47651 C174.94654,125.109638 173.013374,128.085 170.768374,130.402685 C168.523374,132.72037 165.592446,135.319896 161.975501,138.201342 C157.610223,141.58391 154.367494,144.62191 152.247216,147.315436 C150.126938,150.008962 149.066815,153.422798 149.066815,157.557047 L149.066815,160 L116.888641,160 L116.888641,156.42953 C116.888641,150.290797 117.668144,145.154383 119.227171,141.020134 C120.786199,136.885885 122.657005,133.659967 124.839644,131.342282 C127.022283,129.024597 129.73495,126.612988 132.977728,124.107383 C135.971062,121.601777 138.153668,119.534684 139.525612,117.90604 C140.897557,116.277397 141.583519,114.147664 141.583519,111.516779 C141.583519,106.756128 138.964391,104.375839 133.726058,104.375839 C128.363002,104.375839 122.750586,107.570438 116.888641,113.959732 L95,96.8590604 C105.850834,82.9529506 120.318395,76 138.403118,76 Z M133.597015,177 C139.159232,177 143.783564,178.921163 147.470149,182.763547 C151.156735,186.605931 153,191.216722 153,196.596059 C153,201.847317 151.156735,206.394069 147.470149,210.236453 C143.783564,214.078837 139.159232,216 133.597015,216 C128.034798,216 123.378128,214.078837 119.626866,210.236453 C115.875603,206.394069 114,201.847317 114,196.596059 C114,191.216722 115.875603,186.605931 119.626866,182.763547 C123.378128,178.921163 128.034798,177 133.597015,177 Z" id="?" fill="#FF4769" fill-rule="nonzero" style="mix-blend-mode: multiply;"></path>
            </g>
        </g>
    </g>
</svg>