<?xml version="1.0" encoding="UTF-8"?>
<svg width="275px" height="350px" viewBox="0 0 275 350" version="1.1" xmlns="http://www.w3.org/2000/svg" xmlns:xlink="http://www.w3.org/1999/xlink">
    <!-- Generator: Sketch 60 (88103) - https://sketch.com -->
    <title>illustration_achat_confirme</title>
    <desc>Created with Sketch.</desc>
    <g id="Accueil" stroke="none" stroke-width="1" fill="none" fill-rule="evenodd">
        <g id="Autres" transform="translate(-40.000000, -412.000000)">
            <g id="Group-3-Copy" transform="translate(40.000000, 412.000000)">
                <g id="illustration_achat_confirme">
                    <g id="Group-Copy">
                        <rect id="Rectangle" fill="#EDEDED" x="0" y="0" width="275" height="350"></rect>
                        <path d="M42.3609952,275 L42.6689952,268.686 C42.7276619,267.395333 42.7569952,265.98 42.7569952,264.44 C42.7569952,263.530667 42.7496619,262.848667 42.7349952,262.394 L42.7349952,262.394 L45.2649952,273.35 L47.9269952,273.35 L50.3249952,262.416 L50.3029952,263.34 C50.3029952,264.381333 50.3616619,266.134 50.4789952,268.598 L50.4789952,268.598 L50.8089952,275 L53.5369952,275 L52.4809952,259.798 L48.8069952,259.798 L46.6509952,270.49 L44.3409952,259.798 L40.7109952,259.798 L39.6549952,275 L42.3609952,275 Z M60.7676623,275.33 C62.2636623,275.33 63.5909956,274.824 64.7496623,273.812 L64.7496623,273.812 L63.6056623,272.25 C63.136329,272.587333 62.696329,272.836667 62.2856623,272.998 C61.8749956,273.159333 61.4349956,273.24 60.9656623,273.24 C60.232329,273.24 59.660329,272.998 59.2496623,272.514 C58.8389956,272.03 58.5896623,271.201333 58.5016623,270.028 L58.5016623,270.028 L65.0796623,270.028 C65.1236623,269.412 65.1456623,269.038 65.1456623,268.906 C65.1456623,267.014 64.7349956,265.562 63.9136623,264.55 C63.092329,263.538 61.948329,263.032 60.4816623,263.032 C58.9709956,263.032 57.7939956,263.600333 56.9506623,264.737 C56.107329,265.873667 55.6856623,267.380667 55.6856623,269.258 C55.6856623,271.164667 56.1256623,272.653333 57.0056623,273.724 C57.8856623,274.794667 59.1396623,275.33 60.7676623,275.33 Z M62.4396623,268.246 L58.5016623,268.246 C58.560329,267.072667 58.7546623,266.233 59.0846623,265.727 C59.4146623,265.221 59.8876623,264.968 60.5036623,264.968 C61.178329,264.968 61.6696623,265.228333 61.9776623,265.749 C62.2856623,266.269667 62.4396623,267.058 62.4396623,268.114 L62.4396623,268.114 L62.4396623,268.246 Z M70.4403294,275 L70.4403294,268.664 C70.6309961,267.681333 70.9059961,266.948 71.2653294,266.464 C71.6246628,265.98 72.1123294,265.738 72.7283294,265.738 C73.0363294,265.738 73.3443294,265.782 73.6523294,265.87 L73.6523294,265.87 L74.1143294,263.208 C73.7329961,263.105333 73.3883294,263.054 73.0803294,263.054 C72.4496628,263.054 71.8996628,263.263 71.4303294,263.681 C70.9609961,264.099 70.5869961,264.711333 70.3083294,265.518 L70.3083294,265.518 L70.0883294,263.362 L67.6903294,263.362 L67.6903294,275 L70.4403294,275 Z M79.7829966,275.33 C81.0443299,275.33 82.1809966,274.882667 83.1929966,273.988 L83.1929966,273.988 L81.9609966,272.338 C81.5796632,272.602 81.2349966,272.796333 80.9269966,272.921 C80.6189966,273.045667 80.2816632,273.108 79.9149966,273.108 C79.1669966,273.108 78.5986632,272.814667 78.2099966,272.228 C77.8213299,271.641333 77.6269966,270.644 77.6269966,269.236 C77.6269966,267.813333 77.8213299,266.783 78.2099966,266.145 C78.5986632,265.507 79.1669966,265.188 79.9149966,265.188 C80.6336632,265.188 81.3229966,265.452 81.9829966,265.98 L81.9829966,265.98 L83.1929966,264.374 C82.6943299,263.919333 82.1663299,263.582 81.6089966,263.362 C81.0516632,263.142 80.4283299,263.032 79.7389966,263.032 C78.7269966,263.032 77.8433299,263.285 77.0879966,263.791 C76.3326632,264.297 75.7496632,265.023 75.3389966,265.969 C74.9283299,266.915 74.7229966,268.018667 74.7229966,269.28 C74.7229966,271.216 75.1703299,272.708333 76.0649966,273.757 C76.9596632,274.805667 78.1989966,275.33 79.7829966,275.33 Z M86.6176637,260.854 C87.1163304,260.854 87.5233304,260.696333 87.8386637,260.381 C88.153997,260.065667 88.3116637,259.666 88.3116637,259.182 C88.3116637,258.698 88.153997,258.298333 87.8386637,257.983 C87.5233304,257.667667 87.1163304,257.51 86.6176637,257.51 C86.118997,257.51 85.711997,257.667667 85.3966637,257.983 C85.0813304,258.298333 84.9236637,258.698 84.9236637,259.182 C84.9236637,259.666 85.0813304,260.065667 85.3966637,260.381 C85.711997,260.696333 86.118997,260.854 86.6176637,260.854 Z M87.9816637,275 L87.9816637,263.362 L85.2316637,263.362 L85.2316637,275 L87.9816637,275 Z M99.9349979,275.33 C101.152331,275.33 102.142331,274.750667 102.904998,273.592 L102.904998,273.592 L103.058998,275 L105.500998,275 L105.500998,258.698 L102.750998,258.412 L102.750998,264.264 C102.046998,263.442667 101.181665,263.032 100.154998,263.032 C99.3189979,263.032 98.5819979,263.288667 97.9439979,263.802 C97.3059979,264.315333 96.8109979,265.037667 96.4589979,265.969 C96.1069979,266.900333 95.9309979,267.974667 95.9309979,269.192 C95.9309979,271.113333 96.2756646,272.616667 96.9649979,273.702 C97.6543313,274.787333 98.6443313,275.33 99.9349979,275.33 Z M100.704998,273.262 C100.088998,273.262 99.6159979,272.943 99.2859979,272.305 C98.9559979,271.667 98.7909979,270.622 98.7909979,269.17 C98.7909979,267.762 98.9743313,266.731667 99.3409979,266.079 C99.7076646,265.426333 100.213665,265.1 100.858998,265.1 C101.240331,265.1 101.581331,265.202667 101.881998,265.408 C102.182665,265.613333 102.472331,265.921333 102.750998,266.332 L102.750998,266.332 L102.750998,271.81 C102.457665,272.294 102.149665,272.657 101.826998,272.899 C101.504331,273.141 101.130331,273.262 100.704998,273.262 Z M113.237665,275.33 C114.733665,275.33 116.060998,274.824 117.219665,273.812 L117.219665,273.812 L116.075665,272.25 C115.606332,272.587333 115.166332,272.836667 114.755665,272.998 C114.344998,273.159333 113.904998,273.24 113.435665,273.24 C112.702332,273.24 112.130332,272.998 111.719665,272.514 C111.308998,272.03 111.059665,271.201333 110.971665,270.028 L110.971665,270.028 L117.549665,270.028 C117.593665,269.412 117.615665,269.038 117.615665,268.906 C117.615665,267.014 117.204998,265.562 116.383665,264.55 C115.562332,263.538 114.418332,263.032 112.951665,263.032 C111.440998,263.032 110.263998,263.600333 109.420665,264.737 C108.577332,265.873667 108.155665,267.380667 108.155665,269.258 C108.155665,271.164667 108.595665,272.653333 109.475665,273.724 C110.355665,274.794667 111.609665,275.33 113.237665,275.33 Z M114.909665,268.246 L110.971665,268.246 C111.030332,267.072667 111.224665,266.233 111.554665,265.727 C111.884665,265.221 112.357665,264.968 112.973665,264.968 C113.648332,264.968 114.139665,265.228333 114.447665,265.749 C114.755665,266.269667 114.909665,267.058 114.909665,268.114 L114.909665,268.114 L114.909665,268.246 Z M130.668999,275 L134.034999,263.362 L131.284999,263.362 L129.062999,272.8 L126.862999,263.362 L123.980999,263.362 L127.412999,275 L130.668999,275 Z M140.165666,275.33 C141.720333,275.33 142.941333,274.78 143.828666,273.68 C144.716,272.58 145.159666,271.076667 145.159666,269.17 C145.159666,267.19 144.719666,265.672 143.839666,264.616 C142.959666,263.56 141.735,263.032 140.165666,263.032 C138.596333,263.032 137.368,263.574667 136.480666,264.66 C135.593333,265.745333 135.149666,267.248667 135.149666,269.17 C135.149666,271.120667 135.593333,272.635 136.480666,273.713 C137.368,274.791 138.596333,275.33 140.165666,275.33 Z M140.165666,273.24 C139.447,273.24 138.911666,272.921 138.559666,272.283 C138.207666,271.645 138.031666,270.607333 138.031666,269.17 C138.031666,267.747333 138.207666,266.717 138.559666,266.079 C138.911666,265.441 139.447,265.122 140.165666,265.122 C140.884333,265.122 141.419666,265.437333 141.771666,266.068 C142.123666,266.698667 142.299666,267.732667 142.299666,269.17 C142.299666,270.592667 142.123666,271.626667 141.771666,272.272 C141.419666,272.917333 140.884333,273.24 140.165666,273.24 Z M151.356334,275.33 C151.840334,275.33 152.313334,275.256667 152.775334,275.11 C153.237334,274.963333 153.659,274.743333 154.040334,274.45 L154.040334,274.45 L153.072334,272.734 C152.661667,272.983333 152.258334,273.108 151.862334,273.108 C151.495667,273.108 151.228,273.001667 151.059334,272.789 C150.890667,272.576333 150.806334,272.25 150.806334,271.81 L150.806334,271.81 L150.806334,265.342 L152.962334,265.342 L153.248334,263.362 L150.806334,263.362 L150.806334,260.458 L148.056334,260.788 L148.056334,263.362 L146.494334,263.362 L146.494334,265.342 L148.056334,265.342 L148.056334,271.832 C148.056334,272.932 148.338667,273.79 148.903334,274.406 C149.468,275.022 150.285667,275.33 151.356334,275.33 Z M158.477001,275 L158.477001,268.664 C158.667667,267.681333 158.942667,266.948 159.302001,266.464 C159.661334,265.98 160.149001,265.738 160.765001,265.738 C161.073001,265.738 161.381001,265.782 161.689001,265.87 L161.689001,265.87 L162.151001,263.208 C161.769667,263.105333 161.425001,263.054 161.117001,263.054 C160.486334,263.054 159.936334,263.263 159.467001,263.681 C158.997667,264.099 158.623667,264.711333 158.345001,265.518 L158.345001,265.518 L158.125001,263.362 L155.727001,263.362 L155.727001,275 L158.477001,275 Z M167.841668,275.33 C169.337668,275.33 170.665001,274.824 171.823668,273.812 L171.823668,273.812 L170.679668,272.25 C170.210334,272.587333 169.770334,272.836667 169.359668,272.998 C168.949001,273.159333 168.509001,273.24 168.039668,273.24 C167.306334,273.24 166.734334,272.998 166.323668,272.514 C165.913001,272.03 165.663668,271.201333 165.575668,270.028 L165.575668,270.028 L172.153668,270.028 C172.197668,269.412 172.219668,269.038 172.219668,268.906 C172.219668,267.014 171.809001,265.562 170.987668,264.55 C170.166334,263.538 169.022334,263.032 167.555668,263.032 C166.045001,263.032 164.868001,263.600333 164.024668,264.737 C163.181334,265.873667 162.759668,267.380667 162.759668,269.258 C162.759668,271.164667 163.199668,272.653333 164.079668,273.724 C164.959668,274.794667 166.213668,275.33 167.841668,275.33 Z M169.513668,268.246 L165.575668,268.246 C165.634334,267.072667 165.828668,266.233 166.158668,265.727 C166.488668,265.221 166.961668,264.968 167.577668,264.968 C168.252334,264.968 168.743668,265.228333 169.051668,265.749 C169.359668,266.269667 169.513668,267.058 169.513668,268.114 L169.513668,268.114 L169.513668,268.246 Z M182.611002,275.33 C183.975002,275.33 185.016335,274.765333 185.735002,273.636 C185.925669,274.164 186.215335,274.552667 186.604002,274.802 C186.992669,275.051333 187.502335,275.212667 188.133002,275.286 L188.133002,275.286 L188.705002,273.46 C188.441002,273.342667 188.250335,273.185 188.133002,272.987 C188.015669,272.789 187.957002,272.484667 187.957002,272.074 L187.957002,272.074 L187.957002,266.97 C187.957002,264.344667 186.578335,263.032 183.821002,263.032 C182.559669,263.032 181.261669,263.310667 179.927002,263.868 L179.927002,263.868 L180.565002,265.694 C181.679669,265.298 182.618335,265.1 183.381002,265.1 C184.041002,265.1 184.517669,265.254 184.811002,265.562 C185.104335,265.87 185.251002,266.390667 185.251002,267.124 L185.251002,267.124 L185.251002,267.85 L184.085002,267.85 C182.501002,267.85 181.291002,268.183667 180.455002,268.851 C179.619002,269.518333 179.201002,270.482667 179.201002,271.744 C179.201002,272.814667 179.509002,273.68 180.125002,274.34 C180.741002,275 181.569669,275.33 182.611002,275.33 Z M183.359002,273.328 C182.919002,273.328 182.574335,273.177667 182.325002,272.877 C182.075669,272.576333 181.951002,272.132667 181.951002,271.546 C181.951002,270.167333 182.757669,269.478 184.371002,269.478 L184.371002,269.478 L185.251002,269.478 L185.251002,271.898 C184.796335,272.851333 184.165669,273.328 183.359002,273.328 Z M195.693669,275.33 C196.955003,275.33 198.091669,274.882667 199.103669,273.988 L199.103669,273.988 L197.871669,272.338 C197.490336,272.602 197.145669,272.796333 196.837669,272.921 C196.529669,273.045667 196.192336,273.108 195.825669,273.108 C195.077669,273.108 194.509336,272.814667 194.120669,272.228 C193.732003,271.641333 193.537669,270.644 193.537669,269.236 C193.537669,267.813333 193.732003,266.783 194.120669,266.145 C194.509336,265.507 195.077669,265.188 195.825669,265.188 C196.544336,265.188 197.233669,265.452 197.893669,265.98 L197.893669,265.98 L199.103669,264.374 C198.605003,263.919333 198.077003,263.582 197.519669,263.362 C196.962336,263.142 196.339003,263.032 195.649669,263.032 C194.637669,263.032 193.754003,263.285 192.998669,263.791 C192.243336,264.297 191.660336,265.023 191.249669,265.969 C190.839003,266.915 190.633669,268.018667 190.633669,269.28 C190.633669,271.216 191.081003,272.708333 191.975669,273.757 C192.870336,274.805667 194.109669,275.33 195.693669,275.33 Z M203.892336,275 L203.892336,266.882 C204.552336,265.723333 205.249003,265.144 205.982336,265.144 C206.36367,265.144 206.653336,265.272333 206.851336,265.529 C207.049336,265.785667 207.148336,266.222 207.148336,266.838 L207.148336,266.838 L207.148336,275 L209.898336,275 L209.898336,266.464 C209.898336,265.408 209.63067,264.572 209.095336,263.956 C208.560003,263.34 207.83767,263.032 206.928336,263.032 C206.283003,263.032 205.718336,263.175 205.234336,263.461 C204.750336,263.747 204.303003,264.176 203.892336,264.748 L203.892336,264.748 L203.892336,258.434 L201.142336,258.72 L201.142336,275 L203.892336,275 Z M215.677003,275.33 C217.041003,275.33 218.082337,274.765333 218.801003,273.636 C218.99167,274.164 219.281337,274.552667 219.670003,274.802 C220.05867,275.051333 220.568337,275.212667 221.199003,275.286 L221.199003,275.286 L221.771003,273.46 C221.507003,273.342667 221.316337,273.185 221.199003,272.987 C221.08167,272.789 221.023003,272.484667 221.023003,272.074 L221.023003,272.074 L221.023003,266.97 C221.023003,264.344667 219.644337,263.032 216.887003,263.032 C215.62567,263.032 214.32767,263.310667 212.993003,263.868 L212.993003,263.868 L213.631003,265.694 C214.74567,265.298 215.684337,265.1 216.447003,265.1 C217.107003,265.1 217.58367,265.254 217.877003,265.562 C218.170337,265.87 218.317003,266.390667 218.317003,267.124 L218.317003,267.124 L218.317003,267.85 L217.151003,267.85 C215.567003,267.85 214.357003,268.183667 213.521003,268.851 C212.685003,269.518333 212.267003,270.482667 212.267003,271.744 C212.267003,272.814667 212.575003,273.68 213.191003,274.34 C213.807003,275 214.63567,275.33 215.677003,275.33 Z M216.425003,273.328 C215.985003,273.328 215.640337,273.177667 215.391003,272.877 C215.14167,272.576333 215.017003,272.132667 215.017003,271.546 C215.017003,270.167333 215.82367,269.478 217.437003,269.478 L217.437003,269.478 L218.317003,269.478 L218.317003,271.898 C217.862337,272.851333 217.23167,273.328 216.425003,273.328 Z M227.835671,275.33 C228.319671,275.33 228.792671,275.256667 229.254671,275.11 C229.716671,274.963333 230.138337,274.743333 230.519671,274.45 L230.519671,274.45 L229.551671,272.734 C229.141004,272.983333 228.737671,273.108 228.341671,273.108 C227.975004,273.108 227.707337,273.001667 227.538671,272.789 C227.370004,272.576333 227.285671,272.25 227.285671,271.81 L227.285671,271.81 L227.285671,265.342 L229.441671,265.342 L229.727671,263.362 L227.285671,263.362 L227.285671,260.458 L224.535671,260.788 L224.535671,263.362 L222.973671,263.362 L222.973671,265.342 L224.535671,265.342 L224.535671,271.832 C224.535671,272.932 224.818004,273.79 225.382671,274.406 C225.947337,275.022 226.765004,275.33 227.835671,275.33 Z M234.516338,269.654 L234.868338,259.798 L231.920338,259.798 L232.294338,269.654 L234.516338,269.654 Z M233.394338,275.33 C233.893004,275.33 234.307338,275.157667 234.637338,274.813 C234.967338,274.468333 235.132338,274.061333 235.132338,273.592 C235.132338,273.108 234.967338,272.697333 234.637338,272.36 C234.307338,272.022667 233.893004,271.854 233.394338,271.854 C232.910338,271.854 232.503338,272.022667 232.173338,272.36 C231.843338,272.697333 231.678338,273.108 231.678338,273.592 C231.678338,274.061333 231.843338,274.468333 232.173338,274.813 C232.503338,275.157667 232.910338,275.33 233.394338,275.33 Z" id="Mercidevotreachat!" fill="#000000" fill-rule="nonzero"></path>
                    </g>
                    <g id="iconfinder_thefreeforty_bag_1243671" transform="translate(56.000000, 43.000000)" fill="#2C52FF" fill-rule="nonzero">
                        <path d="M153.26628,48.5217391 C152.747462,47.4782609 151.191007,46.9565217 150.153371,46.9565217 L110.723185,46.9565217 L110.723185,32.3478261 C110.723185,22.4347826 107.091458,13.5652174 99.8280022,7.82608696 C93.6021834,2.60869565 85.81991,0 77,0 C60.3978166,0 43.2768149,10.9565217 43.2768149,31.826087 L43.2768149,46.9565217 L3.84662918,46.9565217 C2.80899271,46.9565217 1.25253801,47.4782609 0.733719781,48.5217391 C0.214901548,49.5652174 -0.303916684,50.6086957 0.214901548,52.173913 L24.5993585,129.391304 C25.1181767,130.956522 26.6746314,132 28.2310861,132 L125.768914,132 C127.325369,132 128.881823,130.956522 129.400642,129.391304 L153.785098,52.173913 C154.303917,50.6086957 153.785098,49.5652174 153.26628,48.5217391 Z M43.137931,55 L43.137931,72.25 C43.137931,74.3409091 44.6896552,76.4318182 47.2758621,76.4318182 C49.862069,76.4318182 51.4137931,74.8636364 51.4137931,72.25 L51.4137931,55 L103.137931,55 L103.137931,72.25 C103.137931,74.3409091 104.689655,76.4318182 107.275862,76.4318182 C109.862069,76.4318182 111.413793,74.8636364 111.413793,72.25 L111.413793,55 L144,55 L122.275862,124 L30.7241379,124 L9,55 L43.137931,55 Z M77,7 C83.76,7 90.52,9.10526316 95.2,13.3157895 C100.4,17.5263158 103,24.3684211 103,32.2631579 L103,47 L51,47 L51,31.2105263 C51,14.3684211 64.52,7 77,7 Z" id="Shape"></path>
                    </g>
                    <g id="iconfinder_circle-check_226590" style="mix-blend-mode: multiply;" transform="translate(142.000000, 137.000000)" fill="#FF4769" fill-rule="nonzero">
                        <path d="M44,0 C19.7,0 0,19.699 0,44 C0,68.301 19.7,88 44,88 C68.3,88 88,68.301 88,44 C88,19.699 68.3,0 44,0 Z M44,80 C24.118,80 8,63.882 8,44 C8,24.118 24.118,8 44,8 C63.882,8 80,24.118 80,44 C80,63.882 63.882,80 44,80 Z" id="Shape"></path>
                        <path d="M60.284,33.17 C58.722,31.609 56.189,31.609 54.627,33.17 L40.485,47.313 L34.828,41.656 C33.266,40.094 30.734,40.094 29.171,41.656 C27.609,43.218 27.609,45.751 29.171,47.314 L37.655,55.797 C39.217,57.359 41.751,57.359 43.313,55.797 L60.283,38.827 C61.846,37.265 61.848,34.733 60.284,33.17 Z" id="Path"></path>
                    </g>
                </g>
            </g>
        </g>
    </g>
</svg>