<?xml version="1.0" encoding="UTF-8"?>
<svg width="273px" height="331px" viewBox="0 0 273 331" version="1.1" xmlns="http://www.w3.org/2000/svg" xmlns:xlink="http://www.w3.org/1999/xlink">
    <!-- Generator: Sketch 58 (84663) - https://sketch.com -->
    <title>iconfinder_round-bubble-heart_430081</title>
    <desc>Created with Sketch.</desc>
    <g id="Accueil" stroke="none" stroke-width="1" fill="none" fill-rule="evenodd">
        <g id="Traces---Accueil-(Bureau)" transform="translate(-38.000000, -386.000000)" fill="#FF4769" fill-rule="nonzero" stroke="#FF4769">
            <g id="coup_de_coeur" transform="translate(3.000000, 278.000000)">
                <g transform="translate(0.000000, 31.000000)" id="iconfinder_round-bubble-heart_430081">
                    <g transform="translate(165.500000, 244.500000) rotate(11.000000) translate(-165.500000, -244.500000) translate(30.000000, 77.000000)">
                        <path d="M127.336407,335 L127.336407,270.680547 C56.5472569,266.435587 0,207.084334 0,135.480361 C0,60.7749273 60.7830065,0 135.498371,0 C210.213735,0 271,60.7749273 271,135.480361 C271,173.691517 254.728205,210.329139 226.358458,235.991111 L127.336407,335 Z M135.498371,13.0313433 C67.9707477,13.0313433 13.0330756,67.9617131 13.0330756,135.480361 C13.0330756,202.145455 67.2702199,257.059536 133.931144,257.887026 L140.369483,257.961956 L140.369483,303.539079 L217.378669,226.546645 C243.259099,203.126064 257.966924,170.016678 257.966924,135.477103 C257.966924,67.9617131 203.029252,13.0313433 135.498371,13.0313433 Z" id="Shape" style="mix-blend-mode: multiply;"></path>
                        <path d="M131.996794,197 L131.996794,197 C130.278583,197 128.634102,196.321499 127.428789,195.119132 L84.9960311,152.714398 C74.6931766,142.571598 69,130.374359 69,118.404339 C69,98.7372781 82.8130056,85 102.58846,85 C117.552282,85 124.934819,91.1601578 132,99.0055227 C139.061975,91.1633136 146.441307,85 161.408335,85 C181.186994,85 195,98.7372781 195,118.404339 C195,130.371203 189.310029,142.568442 178.978324,152.749112 L136.564799,195.119132 C135.359487,196.321499 133.7118,197 131.996794,197 Z M102.585254,97.6232742 C89.7788124,97.6232742 81.8192642,105.585404 81.8192642,118.404339 C81.8192642,127.003945 86.178904,136.029586 94.0935735,143.824458 L131.993589,181.69428 L169.867959,143.856016 C177.814685,136.029586 182.171119,127.000789 182.171119,118.404339 C182.171119,105.585404 174.214776,97.6232742 161.401923,97.6232742 C149.980308,97.6232742 146.107922,102.104536 138.38559,111.035503 L136.859716,112.793294 C135.641581,114.194477 133.862464,114.999211 131.990383,114.999211 L131.990383,114.999211 C130.118303,114.999211 128.335979,114.191321 127.117845,112.793294 L125.611204,111.054438 C117.892078,102.110848 114.01328,97.6232742 102.585254,97.6232742 Z" id="Shape" style="mix-blend-mode: multiply;"></path>
                    </g>
                </g>
            </g>
        </g>
    </g>
</svg>