<?xml version="1.0" encoding="UTF-8"?>
<svg width="275px" height="350px" viewBox="0 0 275 350" version="1.1" xmlns="http://www.w3.org/2000/svg" xmlns:xlink="http://www.w3.org/1999/xlink">
    <!-- Generator: Sketch 60 (88103) - https://sketch.com -->
    <title>illustration_panier_vide</title>
    <desc>Created with Sketch.</desc>
    <g id="Accueil" stroke="none" stroke-width="1" fill="none" fill-rule="evenodd">
        <g id="Autres" transform="translate(-742.000000, -412.000000)">
            <g id="illustration_panier_vide" transform="translate(742.000000, 412.000000)">
                <g id="iconfinder_ic_add_shopping_cart_48px_352007">
                    <g id="illustration_achat_confirme-copy">
                        <g id="Group-Copy">
                            <rect id="Rectangle" fill="#EDEDED" x="0" y="0" width="275" height="350"></rect>
                            <path d="M83.9116637,275 L83.9116637,269.676 L85.1876637,269.676 C86.9476637,269.676 88.329997,269.254333 89.3346637,268.411 C90.3393304,267.567667 90.8416637,266.31 90.8416637,264.638 C90.8416637,263.039333 90.3393304,261.833 89.3346637,261.019 C88.329997,260.205 86.8816637,259.798 84.9896637,259.798 L84.9896637,259.798 L81.0516637,259.798 L81.0516637,275 L83.9116637,275 Z M85.0116637,267.542 L83.9116637,267.542 L83.9116637,261.888 L85.0116637,261.888 C85.9943304,261.888 86.7203304,262.108 87.1896637,262.548 C87.658997,262.988 87.8936637,263.684667 87.8936637,264.638 C87.8936637,265.708667 87.658997,266.460333 87.1896637,266.893 C86.7203304,267.325667 85.9943304,267.542 85.0116637,267.542 L85.0116637,267.542 Z M94.6183308,275.33 C95.9823308,275.33 97.0236641,274.765333 97.7423308,273.636 C97.9329975,274.164 98.2226641,274.552667 98.6113308,274.802 C98.9999975,275.051333 99.5096641,275.212667 100.140331,275.286 L100.140331,275.286 L100.712331,273.46 C100.448331,273.342667 100.257664,273.185 100.140331,272.987 C100.022997,272.789 99.9643308,272.484667 99.9643308,272.074 L99.9643308,272.074 L99.9643308,266.97 C99.9643308,264.344667 98.5856641,263.032 95.8283308,263.032 C94.5669975,263.032 93.2689975,263.310667 91.9343308,263.868 L91.9343308,263.868 L92.5723308,265.694 C93.6869975,265.298 94.6256641,265.1 95.3883308,265.1 C96.0483308,265.1 96.5249975,265.254 96.8183308,265.562 C97.1116641,265.87 97.2583308,266.390667 97.2583308,267.124 L97.2583308,267.124 L97.2583308,267.85 L96.0923308,267.85 C94.5083308,267.85 93.2983308,268.183667 92.4623308,268.851 C91.6263308,269.518333 91.2083308,270.482667 91.2083308,271.744 C91.2083308,272.814667 91.5163308,273.68 92.1323308,274.34 C92.7483308,275 93.5769975,275.33 94.6183308,275.33 Z M95.3663308,273.328 C94.9263308,273.328 94.5816641,273.177667 94.3323308,272.877 C94.0829975,272.576333 93.9583308,272.132667 93.9583308,271.546 C93.9583308,270.167333 94.7649975,269.478 96.3783308,269.478 L96.3783308,269.478 L97.2583308,269.478 L97.2583308,271.898 C96.8036641,272.851333 96.1729975,273.328 95.3663308,273.328 Z M106.006998,275 L106.006998,266.882 C106.329665,266.31 106.659665,265.877333 106.996998,265.584 C107.334331,265.290667 107.700998,265.144 108.096998,265.144 C108.478331,265.144 108.767998,265.272333 108.965998,265.529 C109.163998,265.785667 109.262998,266.222 109.262998,266.838 L109.262998,266.838 L109.262998,275 L112.012998,275 L112.012998,266.464 C112.012998,265.408 111.748998,264.572 111.220998,263.956 C110.692998,263.34 109.966998,263.032 109.042998,263.032 C108.382998,263.032 107.792665,263.189667 107.271998,263.505 C106.751331,263.820333 106.278331,264.278667 105.852998,264.88 L105.852998,264.88 L105.654998,263.362 L103.256998,263.362 L103.256998,275 L106.006998,275 Z M116.559665,260.854 C117.058332,260.854 117.465332,260.696333 117.780665,260.381 C118.095998,260.065667 118.253665,259.666 118.253665,259.182 C118.253665,258.698 118.095998,258.298333 117.780665,257.983 C117.465332,257.667667 117.058332,257.51 116.559665,257.51 C116.060998,257.51 115.653998,257.667667 115.338665,257.983 C115.023332,258.298333 114.865665,258.698 114.865665,259.182 C114.865665,259.666 115.023332,260.065667 115.338665,260.381 C115.653998,260.696333 116.060998,260.854 116.559665,260.854 Z M117.923665,275 L117.923665,263.362 L115.173665,263.362 L115.173665,275 L117.923665,275 Z M125.660332,275.33 C127.156332,275.33 128.483666,274.824 129.642332,273.812 L129.642332,273.812 L128.498332,272.25 C128.028999,272.587333 127.588999,272.836667 127.178332,272.998 C126.767666,273.159333 126.327666,273.24 125.858332,273.24 C125.124999,273.24 124.552999,272.998 124.142332,272.514 C123.731666,272.03 123.482332,271.201333 123.394332,270.028 L123.394332,270.028 L129.972332,270.028 C130.016332,269.412 130.038332,269.038 130.038332,268.906 C130.038332,267.014 129.627666,265.562 128.806332,264.55 C127.984999,263.538 126.840999,263.032 125.374332,263.032 C123.863666,263.032 122.686666,263.600333 121.843332,264.737 C120.999999,265.873667 120.578332,267.380667 120.578332,269.258 C120.578332,271.164667 121.018332,272.653333 121.898332,273.724 C122.778332,274.794667 124.032332,275.33 125.660332,275.33 Z M127.332332,268.246 L123.394332,268.246 C123.452999,267.072667 123.647332,266.233 123.977332,265.727 C124.307332,265.221 124.780332,264.968 125.396332,264.968 C126.070999,264.968 126.562332,265.228333 126.870332,265.749 C127.178332,266.269667 127.332332,267.058 127.332332,268.114 L127.332332,268.114 L127.332332,268.246 Z M135.332999,275 L135.332999,268.664 C135.523666,267.681333 135.798666,266.948 136.157999,266.464 C136.517333,265.98 137.004999,265.738 137.620999,265.738 C137.928999,265.738 138.236999,265.782 138.544999,265.87 L138.544999,265.87 L139.006999,263.208 C138.625666,263.105333 138.280999,263.054 137.972999,263.054 C137.342333,263.054 136.792333,263.263 136.322999,263.681 C135.853666,264.099 135.479666,264.711333 135.200999,265.518 L135.200999,265.518 L134.980999,263.362 L132.582999,263.362 L132.582999,275 L135.332999,275 Z M151.356334,275 L154.722334,263.362 L151.972334,263.362 L149.750334,272.8 L147.550334,263.362 L144.668334,263.362 L148.100334,275 L151.356334,275 Z M157.971001,260.854 C158.469667,260.854 158.876667,260.696333 159.192001,260.381 C159.507334,260.065667 159.665001,259.666 159.665001,259.182 C159.665001,258.698 159.507334,258.298333 159.192001,257.983 C158.876667,257.667667 158.469667,257.51 157.971001,257.51 C157.472334,257.51 157.065334,257.667667 156.750001,257.983 C156.434667,258.298333 156.277001,258.698 156.277001,259.182 C156.277001,259.666 156.434667,260.065667 156.750001,260.381 C157.065334,260.696333 157.472334,260.854 157.971001,260.854 Z M159.335001,275 L159.335001,263.362 L156.585001,263.362 L156.585001,275 L159.335001,275 Z M166.059668,275.33 C167.277001,275.33 168.267001,274.750667 169.029668,273.592 L169.029668,273.592 L169.183668,275 L171.625668,275 L171.625668,258.698 L168.875668,258.412 L168.875668,264.264 C168.171668,263.442667 167.306334,263.032 166.279668,263.032 C165.443668,263.032 164.706668,263.288667 164.068668,263.802 C163.430668,264.315333 162.935668,265.037667 162.583668,265.969 C162.231668,266.900333 162.055668,267.974667 162.055668,269.192 C162.055668,271.113333 162.400334,272.616667 163.089668,273.702 C163.779001,274.787333 164.769001,275.33 166.059668,275.33 Z M166.829668,273.262 C166.213668,273.262 165.740668,272.943 165.410668,272.305 C165.080668,271.667 164.915668,270.622 164.915668,269.17 C164.915668,267.762 165.099001,266.731667 165.465668,266.079 C165.832334,265.426333 166.338334,265.1 166.983668,265.1 C167.365001,265.1 167.706001,265.202667 168.006668,265.408 C168.307334,265.613333 168.597001,265.921333 168.875668,266.332 L168.875668,266.332 L168.875668,271.81 C168.582334,272.294 168.274334,272.657 167.951668,272.899 C167.629001,273.141 167.255001,273.262 166.829668,273.262 Z M179.362335,275.33 C180.858335,275.33 182.185668,274.824 183.344335,273.812 L183.344335,273.812 L182.200335,272.25 C181.731002,272.587333 181.291002,272.836667 180.880335,272.998 C180.469668,273.159333 180.029668,273.24 179.560335,273.24 C178.827002,273.24 178.255002,272.998 177.844335,272.514 C177.433668,272.03 177.184335,271.201333 177.096335,270.028 L177.096335,270.028 L183.674335,270.028 C183.718335,269.412 183.740335,269.038 183.740335,268.906 C183.740335,267.014 183.329668,265.562 182.508335,264.55 C181.687002,263.538 180.543002,263.032 179.076335,263.032 C177.565668,263.032 176.388668,263.600333 175.545335,264.737 C174.702002,265.873667 174.280335,267.380667 174.280335,269.258 C174.280335,271.164667 174.720335,272.653333 175.600335,273.724 C176.480335,274.794667 177.734335,275.33 179.362335,275.33 Z M181.034335,268.246 L177.096335,268.246 C177.155002,267.072667 177.349335,266.233 177.679335,265.727 C178.009335,265.221 178.482335,264.968 179.098335,264.968 C179.773002,264.968 180.264335,265.228333 180.572335,265.749 C180.880335,266.269667 181.034335,267.058 181.034335,268.114 L181.034335,268.114 L181.034335,268.246 Z M193.691669,269.654 L194.043669,259.798 L191.095669,259.798 L191.469669,269.654 L193.691669,269.654 Z M192.569669,275.33 C193.068336,275.33 193.482669,275.157667 193.812669,274.813 C194.142669,274.468333 194.307669,274.061333 194.307669,273.592 C194.307669,273.108 194.142669,272.697333 193.812669,272.36 C193.482669,272.022667 193.068336,271.854 192.569669,271.854 C192.085669,271.854 191.678669,272.022667 191.348669,272.36 C191.018669,272.697333 190.853669,273.108 190.853669,273.592 C190.853669,274.061333 191.018669,274.468333 191.348669,274.813 C191.678669,275.157667 192.085669,275.33 192.569669,275.33 Z" id="Paniervide!" fill="#000000" fill-rule="nonzero"></path>
                        </g>
                    </g>
                    <path d="M49,61 L220,61 L220,232 L49,232 L49,61 Z M179.45875,103.75 L159.79375,139.375 L179.45875,103.75 Z" id="Shape"></path>
                    <path d="M100.846516,184.8 C92.9556162,184.8 86.635755,191.3335 86.635755,199.4 C86.635755,207.4665 92.9556162,214 100.846516,214 C108.737416,214 115.128688,207.4665 115.128688,199.4 C115.128688,191.3335 108.737416,184.8 100.846516,184.8 Z M172.257377,184.8 C164.366477,184.8 158.046615,191.3335 158.046615,199.4 C158.046615,207.4665 164.366477,214 172.257377,214 C180.148277,214 186.539549,207.4665 186.539549,199.4 C186.539549,191.3335 180.148277,184.8 172.257377,184.8 Z M102.096206,161.075 C102.096206,160.7465 102.167617,160.4545 102.310439,160.199 L108.737416,148.3 L161.938507,148.3 C167.294322,148.3 171.971733,145.2705 174.435408,140.781 L202,89.608 L189.503099,82.6 L189.467394,82.6 L181.576494,97.2 L161.902802,133.7 L111.808083,133.7 L110.879742,131.729 L94.848004,97.2 L88.0639722,82.6 L81.3156459,68 L58,68 L58,82.6 L72.2821721,82.6 L97.9900818,137.9705 L88.3139102,155.8555 C87.2070419,157.9725 86.5643442,160.345 86.5643442,162.9 C86.5643442,170.9665 92.9556162,177.5 100.846516,177.5 L186.539549,177.5 L186.539549,162.9 L103.881478,162.9 C102.881726,162.9 102.096206,162.097 102.096206,161.075 Z" id="Shape" fill="#2C52FF" fill-rule="nonzero"></path>
                </g>
                <path d="M136.5,153.26 C140.63,153.26 144.2,152.5425 147.21,151.1075 C150.22,149.6725 152.6875,147.4325 154.6125,144.3875 C156.5375,141.3425 157.9725,137.4225 158.9175,132.6275 C159.8625,127.8325 160.335,122.075 160.335,115.355 C160.335,108.635 159.8625,102.8775 158.9175,98.0825 C157.9725,93.2875 156.5375,89.3675 154.6125,86.3225 C152.6875,83.2775 150.22,81.0375 147.21,79.6025 C144.2,78.1675 140.63,77.45 136.5,77.45 C132.37,77.45 128.8,78.1675 125.79,79.6025 C122.78,81.0375 120.295,83.2775 118.335,86.3225 C116.375,89.3675 114.94,93.2875 114.03,98.0825 C113.12,102.8775 112.665,108.635 112.665,115.355 C112.665,122.075 113.12,127.8325 114.03,132.6275 C114.94,137.4225 116.375,141.3425 118.335,144.3875 C120.295,147.4325 122.78,149.6725 125.79,151.1075 C128.8,152.5425 132.37,153.26 136.5,153.26 Z M136.5,143.705 C132.09,143.705 128.9925,142.2175 127.2075,139.2425 C125.4225,136.2675 124.53,131.7 124.53,125.54 L124.53,125.54 L124.53,105.17 C124.53,99.01 125.4225,94.4425 127.2075,91.4675 C128.9925,88.4925 132.09,87.005 136.5,87.005 C140.91,87.005 144.0075,88.4925 145.7925,91.4675 C147.5775,94.4425 148.47,99.01 148.47,105.17 L148.47,105.17 L148.47,125.54 C148.47,131.7 147.5775,136.2675 145.7925,139.2425 C144.0075,142.2175 140.91,143.705 136.5,143.705 Z" id="0" fill="#FF4769" fill-rule="nonzero" style="mix-blend-mode: multiply;"></path>
            </g>
        </g>
    </g>
</svg>