<?xml version="1.0" encoding="UTF-8"?>
<svg width="275px" height="350px" viewBox="0 0 275 350" version="1.1" xmlns="http://www.w3.org/2000/svg" xmlns:xlink="http://www.w3.org/1999/xlink">
    <!-- Generator: Sketch 60 (88103) - https://sketch.com -->
    <title>illustration_erreur404</title>
    <desc>Created with Sketch.</desc>
    <g id="Accueil" stroke="none" stroke-width="1" fill="none" fill-rule="evenodd">
        <g id="Autres" transform="translate(-352.000000, -33.000000)">
            <g id="Group-3" transform="translate(352.000000, 33.000000)">
                <g id="illustration_erreur404">
                    <rect id="Rectangle" fill="#EDEDED" x="0" y="0" width="275" height="350"></rect>
                    <path d="M99.6856644,255 L99.6856644,254.12 L93.8336644,254.12 L93.8336644,247.586 L98.6956644,247.586 L98.6956644,246.706 L93.8336644,246.706 L93.8336644,240.854 L99.4436644,240.854 L99.5756644,239.952 L92.7996644,239.952 L92.7996644,255 L99.6856644,255 Z M103.836332,255 L103.836332,247.74 C104.129665,246.537333 104.499998,245.65 104.947332,245.078 C105.394665,244.506 105.977665,244.22 106.696331,244.22 C106.989665,244.22 107.282998,244.256667 107.576331,244.33 L107.576331,244.33 L107.774332,243.428 C107.422331,243.34 107.084998,243.296 106.762332,243.296 C106.028998,243.296 105.420332,243.519667 104.936331,243.967 C104.452331,244.414333 104.063665,245.092667 103.770331,246.002 L103.770331,246.002 L103.704331,243.516 L102.846332,243.516 L102.846332,255 L103.836332,255 Z M111.550999,255 L111.550999,247.74 C111.844332,246.537333 112.214665,245.65 112.661999,245.078 C113.109332,244.506 113.692332,244.22 114.410999,244.22 C114.704332,244.22 114.997665,244.256667 115.290999,244.33 L115.290999,244.33 L115.488999,243.428 C115.136999,243.34 114.799665,243.296 114.476999,243.296 C113.743665,243.296 113.134999,243.519667 112.650999,243.967 C112.166999,244.414333 111.778332,245.092667 111.484999,246.002 L111.484999,246.002 L111.418999,243.516 L110.560999,243.516 L110.560999,255 L111.550999,255 Z M121.113666,255.242 C121.758999,255.242 122.349332,255.124667 122.884666,254.89 C123.419999,254.655333 123.936999,254.310667 124.435666,253.856 L124.435666,253.856 L123.929666,253.24 C123.460332,253.636 123.016666,253.922 122.598666,254.098 C122.180666,254.274 121.692999,254.362 121.135666,254.362 C120.152999,254.362 119.364666,253.988 118.770666,253.24 C118.176666,252.492 117.850332,251.311333 117.791666,249.698 L117.791666,249.698 L124.809666,249.698 C124.838999,249.404667 124.853666,249.104 124.853666,248.796 C124.853666,247.050667 124.516332,245.697667 123.841666,244.737 C123.166999,243.776333 122.184332,243.296 120.893666,243.296 C119.617666,243.296 118.609332,243.827667 117.868666,244.891 C117.127999,245.954333 116.757666,247.439333 116.757666,249.346 C116.757666,251.238 117.146332,252.693667 117.923666,253.713 C118.700999,254.732333 119.764332,255.242 121.113666,255.242 Z M123.863666,248.906 L117.791666,248.906 C117.850332,247.263333 118.158332,246.060667 118.715666,245.298 C119.272999,244.535333 120.006332,244.154 120.915666,244.154 C121.912999,244.154 122.653666,244.528 123.137666,245.276 C123.621666,246.024 123.863666,247.087333 123.863666,248.466 L123.863666,248.466 L123.863666,248.906 Z M131.424333,255.242 C132.847,255.242 133.976333,254.472 134.812333,252.932 L134.812333,252.932 L134.856333,255 L135.714333,255 L135.714333,243.516 L134.724333,243.516 L134.724333,251.898 C134.313666,252.69 133.855333,253.302333 133.349333,253.735 C132.843333,254.167667 132.253,254.384 131.578333,254.384 C130.155666,254.384 129.444333,253.533333 129.444333,251.832 L129.444333,251.832 L129.444333,243.516 L128.454333,243.516 L128.454333,251.92 C128.454333,252.961333 128.714666,253.775333 129.235333,254.362 C129.756,254.948667 130.485666,255.242 131.424333,255.242 Z M141.383,255 L141.383,247.74 C141.676333,246.537333 142.046667,245.65 142.494,245.078 C142.941333,244.506 143.524333,244.22 144.243,244.22 C144.536333,244.22 144.829667,244.256667 145.123,244.33 L145.123,244.33 L145.321,243.428 C144.969,243.34 144.631667,243.296 144.309,243.296 C143.575667,243.296 142.967,243.519667 142.483,243.967 C141.999,244.414333 141.610333,245.092667 141.317,246.002 L141.317,246.002 L141.251,243.516 L140.393,243.516 L140.393,255 L141.383,255 Z M159.584334,255 L159.584334,251.062 L161.388334,251.062 L161.388334,250.226 L159.584334,250.226 L159.584334,245.804 L158.748334,245.804 L158.638334,250.226 L153.864334,250.226 L157.692334,240.48 L156.856334,240.15 L152.830334,250.292 L152.830334,251.062 L158.638334,251.062 L158.638334,255 L159.584334,255 Z M168.003001,255.242 C169.323001,255.242 170.327668,254.618667 171.017001,253.372 C171.706335,252.125333 172.051001,250.240667 172.051001,247.718 C172.051001,242.672667 170.701668,240.15 168.003001,240.15 C166.668335,240.15 165.656335,240.773333 164.967001,242.02 C164.277668,243.266667 163.933001,245.151333 163.933001,247.674 C163.933001,250.196667 164.277668,252.088667 164.967001,253.35 C165.656335,254.611333 166.668335,255.242 168.003001,255.242 Z M168.003001,254.384 C167.005668,254.384 166.246668,253.845 165.726001,252.767 C165.205335,251.689 164.945001,249.991333 164.945001,247.674 C164.945001,245.371333 165.201668,243.684667 165.715001,242.614 C166.228335,241.543333 166.991001,241.008 168.003001,241.008 C169.015001,241.008 169.774001,241.547 170.280001,242.625 C170.786001,243.703 171.039001,245.400667 171.039001,247.718 C171.039001,250.020667 170.782335,251.707333 170.269001,252.778 C169.755668,253.848667 169.000335,254.384 168.003001,254.384 Z M181.547668,255 L181.547668,251.062 L183.351668,251.062 L183.351668,250.226 L181.547668,250.226 L181.547668,245.804 L180.711669,245.804 L180.601668,250.226 L175.827668,250.226 L179.655668,240.48 L178.819668,240.15 L174.793668,250.292 L174.793668,251.062 L180.601668,251.062 L180.601668,255 L181.547668,255 Z M44.8836623,282 L44.8836623,276.676 L46.1596623,276.676 C47.9196623,276.676 49.3019956,276.254333 50.3066623,275.411 C51.311329,274.567667 51.8136623,273.31 51.8136623,271.638 C51.8136623,270.039333 51.311329,268.833 50.3066623,268.019 C49.3019956,267.205 47.8536623,266.798 45.9616623,266.798 L45.9616623,266.798 L42.0236623,266.798 L42.0236623,282 L44.8836623,282 Z M45.9836623,274.542 L44.8836623,274.542 L44.8836623,268.888 L45.9836623,268.888 C46.966329,268.888 47.692329,269.108 48.1616623,269.548 C48.6309956,269.988 48.8656623,270.684667 48.8656623,271.638 C48.8656623,272.708667 48.6309956,273.460333 48.1616623,273.893 C47.692329,274.325667 46.966329,274.542 45.9836623,274.542 L45.9836623,274.542 Z M55.5903294,282.33 C56.9543294,282.33 57.9956628,281.765333 58.7143294,280.636 C58.9049961,281.164 59.1946628,281.552667 59.5833294,281.802 C59.9719961,282.051333 60.4816628,282.212667 61.1123294,282.286 L61.1123294,282.286 L61.6843294,280.46 C61.4203294,280.342667 61.2296628,280.185 61.1123294,279.987 C60.9949961,279.789 60.9363294,279.484667 60.9363294,279.074 L60.9363294,279.074 L60.9363294,273.97 C60.9363294,271.344667 59.5576628,270.032 56.8003294,270.032 C55.5389961,270.032 54.2409961,270.310667 52.9063294,270.868 L52.9063294,270.868 L53.5443294,272.694 C54.6589961,272.298 55.5976628,272.1 56.3603294,272.1 C57.0203294,272.1 57.4969961,272.254 57.7903294,272.562 C58.0836628,272.87 58.2303294,273.390667 58.2303294,274.124 L58.2303294,274.124 L58.2303294,274.85 L57.0643294,274.85 C55.4803294,274.85 54.2703294,275.183667 53.4343294,275.851 C52.5983294,276.518333 52.1803294,277.482667 52.1803294,278.744 C52.1803294,279.814667 52.4883294,280.68 53.1043294,281.34 C53.7203294,282 54.5489961,282.33 55.5903294,282.33 Z M56.3383294,280.328 C55.8983294,280.328 55.5536628,280.177667 55.3043294,279.877 C55.0549961,279.576333 54.9303294,279.132667 54.9303294,278.546 C54.9303294,277.167333 55.7369961,276.478 57.3503294,276.478 L57.3503294,276.478 L58.2303294,276.478 L58.2303294,278.898 C57.7756628,279.851333 57.1449961,280.328 56.3383294,280.328 Z M67.6609966,286.774 C69.3769966,286.774 70.6896632,286.444 71.5989966,285.784 C72.5083299,285.124 72.9629966,284.229333 72.9629966,283.1 C72.9629966,282.146667 72.6036632,281.362 71.8849966,280.746 C71.1663299,280.13 70.1909966,279.822 68.9589966,279.822 L68.9589966,279.822 L67.4849966,279.822 C67.0156632,279.822 66.6893299,279.745 66.5059966,279.591 C66.3226632,279.437 66.2309966,279.228 66.2309966,278.964 C66.2309966,278.788 66.2713299,278.623 66.3519966,278.469 C66.4326632,278.315 66.5389966,278.186667 66.6709966,278.084 C67.0083299,278.201333 67.4189966,278.26 67.9029966,278.26 C69.2229966,278.26 70.2716632,277.900667 71.0489966,277.182 C71.8263299,276.463333 72.2149966,275.517333 72.2149966,274.344 C72.2149966,273.64 72.0536632,273.042333 71.7309966,272.551 C71.4083299,272.059667 70.9169966,271.667333 70.2569966,271.374 C71.5916632,271.374 72.5963299,271.234667 73.2709966,270.956 L73.2709966,270.956 L72.5669966,268.8 C71.8043299,269.225333 71.0819966,269.540667 70.3999966,269.746 C69.7179966,269.951333 68.8269966,270.054 67.7269966,270.054 C66.3923299,270.054 65.3179966,270.431667 64.5039966,271.187 C63.6899966,271.942333 63.2829966,272.950667 63.2829966,274.212 C63.2829966,274.974667 63.4333299,275.62 63.7339966,276.148 C64.0346632,276.676 64.5076632,277.130667 65.1529966,277.512 C64.7569966,277.776 64.4489966,278.091333 64.2289966,278.458 C64.0089966,278.824667 63.8989966,279.213333 63.8989966,279.624 C63.8989966,280.284 64.1629966,280.819333 64.6909966,281.23 C65.2189966,281.640667 66.0403299,281.846 67.1549966,281.846 L67.1549966,281.846 L68.3869966,281.846 C69.6043299,281.846 70.2129966,282.322667 70.2129966,283.276 C70.2129966,283.789333 70.0223299,284.181667 69.6409966,284.453 C69.2596632,284.724333 68.6069966,284.86 67.6829966,284.86 C66.7296632,284.86 66.0843299,284.728 65.7469966,284.464 C65.4096632,284.2 65.2409966,283.76 65.2409966,283.144 L65.2409966,283.144 L62.7769966,283.144 C62.7769966,284.346667 63.1399966,285.252333 63.8659966,285.861 C64.5919966,286.469667 65.8569966,286.774 67.6609966,286.774 Z M67.7709966,276.478 C67.2136632,276.478 66.7809966,276.276333 66.4729966,275.873 C66.1649966,275.469667 66.0109966,274.901333 66.0109966,274.168 C66.0109966,273.42 66.1613299,272.855333 66.4619966,272.474 C66.7626632,272.092667 67.1989966,271.902 67.7709966,271.902 C68.9589966,271.902 69.5529966,272.65 69.5529966,274.146 C69.5529966,274.952667 69.4063299,275.543 69.1129966,275.917 C68.8196632,276.291 68.3723299,276.478 67.7709966,276.478 Z M79.1156637,282.33 C80.6116637,282.33 81.938997,281.824 83.0976637,280.812 L83.0976637,280.812 L81.9536637,279.25 C81.4843304,279.587333 81.0443304,279.836667 80.6336637,279.998 C80.222997,280.159333 79.782997,280.24 79.3136637,280.24 C78.5803304,280.24 78.0083304,279.998 77.5976637,279.514 C77.186997,279.03 76.9376637,278.201333 76.8496637,277.028 L76.8496637,277.028 L83.4276637,277.028 C83.4716637,276.412 83.4936637,276.038 83.4936637,275.906 C83.4936637,274.014 83.082997,272.562 82.2616637,271.55 C81.4403304,270.538 80.2963304,270.032 78.8296637,270.032 C77.318997,270.032 76.141997,270.600333 75.2986637,271.737 C74.4553304,272.873667 74.0336637,274.380667 74.0336637,276.258 C74.0336637,278.164667 74.4736637,279.653333 75.3536637,280.724 C76.2336637,281.794667 77.4876637,282.33 79.1156637,282.33 Z M80.7876637,275.246 L76.8496637,275.246 C76.9083304,274.072667 77.1026637,273.233 77.4326637,272.727 C77.7626637,272.221 78.2356637,271.968 78.8516637,271.968 C79.5263304,271.968 80.0176637,272.228333 80.3256637,272.749 C80.6336637,273.269667 80.7876637,274.058 80.7876637,275.114 L80.7876637,275.114 L80.7876637,275.246 Z M94.0169979,282 L94.0169979,273.882 C94.3396646,273.31 94.6696646,272.877333 95.0069979,272.584 C95.3443313,272.290667 95.7109979,272.144 96.1069979,272.144 C96.4883313,272.144 96.7779979,272.272333 96.9759979,272.529 C97.1739979,272.785667 97.2729979,273.222 97.2729979,273.838 L97.2729979,273.838 L97.2729979,282 L100.022998,282 L100.022998,273.464 C100.022998,272.408 99.7589979,271.572 99.2309979,270.956 C98.7029979,270.34 97.9769979,270.032 97.0529979,270.032 C96.3929979,270.032 95.8026646,270.189667 95.2819979,270.505 C94.7613313,270.820333 94.2883313,271.278667 93.8629979,271.88 L93.8629979,271.88 L93.6649979,270.362 L91.2669979,270.362 L91.2669979,282 L94.0169979,282 Z M107.583665,282.33 C109.138332,282.33 110.359332,281.78 111.246665,280.68 C112.133998,279.58 112.577665,278.076667 112.577665,276.17 C112.577665,274.19 112.137665,272.672 111.257665,271.616 C110.377665,270.56 109.152998,270.032 107.583665,270.032 C106.014332,270.032 104.785998,270.574667 103.898665,271.66 C103.011332,272.745333 102.567665,274.248667 102.567665,276.17 C102.567665,278.120667 103.011332,279.635 103.898665,280.713 C104.785998,281.791 106.014332,282.33 107.583665,282.33 Z M107.583665,280.24 C106.864998,280.24 106.329665,279.921 105.977665,279.283 C105.625665,278.645 105.449665,277.607333 105.449665,276.17 C105.449665,274.747333 105.625665,273.717 105.977665,273.079 C106.329665,272.441 106.864998,272.122 107.583665,272.122 C108.302332,272.122 108.837665,272.437333 109.189665,273.068 C109.541665,273.698667 109.717665,274.732667 109.717665,276.17 C109.717665,277.592667 109.541665,278.626667 109.189665,279.272 C108.837665,279.917333 108.302332,280.24 107.583665,280.24 Z M118.004332,282 L118.004332,273.882 C118.326999,273.31 118.656999,272.877333 118.994332,272.584 C119.331666,272.290667 119.698332,272.144 120.094332,272.144 C120.475666,272.144 120.765332,272.272333 120.963332,272.529 C121.161332,272.785667 121.260332,273.222 121.260332,273.838 L121.260332,273.838 L121.260332,282 L124.010332,282 L124.010332,273.464 C124.010332,272.408 123.746332,271.572 123.218332,270.956 C122.690332,270.34 121.964332,270.032 121.040332,270.032 C120.380332,270.032 119.789999,270.189667 119.269332,270.505 C118.748666,270.820333 118.275666,271.278667 117.850332,271.88 L117.850332,271.88 L117.652332,270.362 L115.254332,270.362 L115.254332,282 L118.004332,282 Z M132.846999,276.214 L132.846999,274.014 L126.752999,274.014 L126.752999,276.214 L132.846999,276.214 Z M139.153666,282.33 C140.371,282.33 141.361,281.750667 142.123666,280.592 L142.123666,280.592 L142.277666,282 L144.719666,282 L144.719666,265.698 L141.969666,265.412 L141.969666,271.264 C141.265666,270.442667 140.400333,270.032 139.373666,270.032 C138.537666,270.032 137.800666,270.288667 137.162666,270.802 C136.524666,271.315333 136.029666,272.037667 135.677666,272.969 C135.325666,273.900333 135.149666,274.974667 135.149666,276.192 C135.149666,278.113333 135.494333,279.616667 136.183666,280.702 C136.873,281.787333 137.863,282.33 139.153666,282.33 Z M139.923666,280.262 C139.307666,280.262 138.834666,279.943 138.504666,279.305 C138.174666,278.667 138.009666,277.622 138.009666,276.17 C138.009666,274.762 138.193,273.731667 138.559666,273.079 C138.926333,272.426333 139.432333,272.1 140.077666,272.1 C140.459,272.1 140.8,272.202667 141.100666,272.408 C141.401333,272.613333 141.691,272.921333 141.969666,273.332 L141.969666,273.332 L141.969666,278.81 C141.676333,279.294 141.368333,279.657 141.045666,279.899 C140.723,280.141 140.349,280.262 139.923666,280.262 Z M149.376334,267.854 C149.875,267.854 150.282,267.696333 150.597334,267.381 C150.912667,267.065667 151.070334,266.666 151.070334,266.182 C151.070334,265.698 150.912667,265.298333 150.597334,264.983 C150.282,264.667667 149.875,264.51 149.376334,264.51 C148.877667,264.51 148.470667,264.667667 148.155334,264.983 C147.84,265.298333 147.682334,265.698 147.682334,266.182 C147.682334,266.666 147.84,267.065667 148.155334,267.381 C148.470667,267.696333 148.877667,267.854 149.376334,267.854 Z M150.740334,282 L150.740334,270.362 L147.990334,270.362 L147.990334,282 L150.740334,282 Z M157.047001,282.33 C158.352334,282.33 159.434001,282.003667 160.292001,281.351 C161.150001,280.698333 161.579001,279.8 161.579001,278.656 C161.579001,277.702667 161.307667,276.954667 160.765001,276.412 C160.222334,275.869333 159.393667,275.414667 158.279001,275.048 C157.663001,274.842667 157.201001,274.655667 156.893001,274.487 C156.585001,274.318333 156.368667,274.146 156.244001,273.97 C156.119334,273.794 156.057001,273.566667 156.057001,273.288 C156.057001,272.906667 156.189001,272.606 156.453001,272.386 C156.717001,272.166 157.091001,272.056 157.575001,272.056 C158.425667,272.056 159.283667,272.364 160.149001,272.98 L160.149001,272.98 L161.227001,271.418 C160.156334,270.494 158.895001,270.032 157.443001,270.032 C156.621667,270.032 155.895667,270.178667 155.265001,270.472 C154.634334,270.765333 154.150334,271.172333 153.813001,271.693 C153.475667,272.213667 153.307001,272.796667 153.307001,273.442 C153.307001,274.263333 153.552667,274.952667 154.044001,275.51 C154.535334,276.067333 155.323667,276.529333 156.409001,276.896 C157.069001,277.101333 157.560334,277.292 157.883001,277.468 C158.205667,277.644 158.429334,277.834667 158.554001,278.04 C158.678667,278.245333 158.741001,278.516667 158.741001,278.854 C158.741001,279.308667 158.583334,279.660667 158.268001,279.91 C157.952667,280.159333 157.516334,280.284 156.959001,280.284 C156.005667,280.284 155.074334,279.917333 154.165001,279.184 L154.165001,279.184 L152.801001,280.702 C153.329001,281.215333 153.952334,281.615 154.671001,281.901 C155.389667,282.187 156.181667,282.33 157.047001,282.33 Z M163.903668,286.774 L166.653668,286.466 L166.653668,281.076 C167.328334,281.912 168.201001,282.33 169.271668,282.33 C170.562334,282.33 171.574334,281.769 172.307668,280.647 C173.041001,279.525 173.407668,278.025333 173.407668,276.148 C173.407668,274.197333 173.088668,272.690333 172.450668,271.627 C171.812668,270.563667 170.848334,270.032 169.557668,270.032 C168.311001,270.032 167.277001,270.611333 166.455668,271.77 L166.455668,271.77 L166.323668,270.362 L163.903668,270.362 L163.903668,286.774 Z M168.501668,280.218 C167.768334,280.218 167.152334,279.829333 166.653668,279.052 L166.653668,279.052 L166.653668,273.64 C167.225668,272.628 167.907668,272.122 168.699668,272.122 C169.315668,272.122 169.777668,272.43 170.085668,273.046 C170.393668,273.662 170.547668,274.703333 170.547668,276.17 C170.547668,277.592667 170.371668,278.623 170.019668,279.261 C169.667668,279.899 169.161668,280.218 168.501668,280.218 Z M180.528335,282.33 C182.083002,282.33 183.304002,281.78 184.191335,280.68 C185.078668,279.58 185.522335,278.076667 185.522335,276.17 C185.522335,274.19 185.082335,272.672 184.202335,271.616 C183.322335,270.56 182.097668,270.032 180.528335,270.032 C178.959002,270.032 177.730668,270.574667 176.843335,271.66 C175.956002,272.745333 175.512335,274.248667 175.512335,276.17 C175.512335,278.120667 175.956002,279.635 176.843335,280.713 C177.730668,281.791 178.959002,282.33 180.528335,282.33 Z M180.528335,280.24 C179.809668,280.24 179.274335,279.921 178.922335,279.283 C178.570335,278.645 178.394335,277.607333 178.394335,276.17 C178.394335,274.747333 178.570335,273.717 178.922335,273.079 C179.274335,272.441 179.809668,272.122 180.528335,272.122 C181.247002,272.122 181.782335,272.437333 182.134335,273.068 C182.486335,273.698667 182.662335,274.732667 182.662335,276.17 C182.662335,277.592667 182.486335,278.626667 182.134335,279.272 C181.782335,279.917333 181.247002,280.24 180.528335,280.24 Z M190.949002,282 L190.949002,273.882 C191.271669,273.31 191.601669,272.877333 191.939002,272.584 C192.276335,272.290667 192.643002,272.144 193.039002,272.144 C193.420335,272.144 193.710002,272.272333 193.908002,272.529 C194.106002,272.785667 194.205002,273.222 194.205002,273.838 L194.205002,273.838 L194.205002,282 L196.955002,282 L196.955002,273.464 C196.955002,272.408 196.691002,271.572 196.163002,270.956 C195.635002,270.34 194.909002,270.032 193.985002,270.032 C193.325002,270.032 192.734669,270.189667 192.214002,270.505 C191.693335,270.820333 191.220335,271.278667 190.795002,271.88 L190.795002,271.88 L190.597002,270.362 L188.199002,270.362 L188.199002,282 L190.949002,282 Z M201.501669,267.854 C202.000336,267.854 202.407336,267.696333 202.722669,267.381 C203.038003,267.065667 203.195669,266.666 203.195669,266.182 C203.195669,265.698 203.038003,265.298333 202.722669,264.983 C202.407336,264.667667 202.000336,264.51 201.501669,264.51 C201.003003,264.51 200.596003,264.667667 200.280669,264.983 C199.965336,265.298333 199.807669,265.698 199.807669,266.182 C199.807669,266.666 199.965336,267.065667 200.280669,267.381 C200.596003,267.696333 201.003003,267.854 201.501669,267.854 Z M202.865669,282 L202.865669,270.362 L200.115669,270.362 L200.115669,282 L202.865669,282 Z M211.504336,282.33 C212.340336,282.33 213.070003,282.077 213.693336,281.571 C214.31667,281.065 214.797003,280.346333 215.134336,279.415 C215.47167,278.483667 215.640336,277.402 215.640336,276.17 C215.640336,274.19 215.303003,272.672 214.628336,271.616 C213.95367,270.56 213.000336,270.032 211.768336,270.032 C211.18167,270.032 210.639003,270.175 210.140336,270.461 C209.64167,270.747 209.22367,271.139333 208.886336,271.638 L208.886336,271.638 L208.886336,265.412 L206.136336,265.72 L206.136336,282 L208.578336,282 L208.732336,280.856 C209.451003,281.838667 210.375003,282.33 211.504336,282.33 Z M210.756336,280.262 C210.38967,280.262 210.045003,280.148333 209.722336,279.921 C209.39967,279.693667 209.121003,279.382 208.886336,278.986 L208.886336,278.986 L208.886336,273.662 C209.458336,272.635333 210.133003,272.122 210.910336,272.122 C211.51167,272.122 211.97367,272.415333 212.296336,273.002 C212.619003,273.588667 212.780336,274.644667 212.780336,276.17 C212.780336,278.898 212.10567,280.262 210.756336,280.262 Z M220.957003,282.33 C221.63167,282.33 222.211003,282.190667 222.695003,281.912 L222.695003,281.912 L222.145003,280.02 C221.969003,280.078667 221.78567,280.108 221.595003,280.108 C221.199003,280.108 221.001003,279.873333 221.001003,279.404 L221.001003,279.404 L221.001003,265.412 L218.251003,265.698 L218.251003,279.492 C218.251003,280.386667 218.489337,281.083333 218.966003,281.582 C219.44267,282.080667 220.106337,282.33 220.957003,282.33 Z M229.023671,282.33 C230.519671,282.33 231.847004,281.824 233.005671,280.812 L233.005671,280.812 L231.861671,279.25 C231.392337,279.587333 230.952337,279.836667 230.541671,279.998 C230.131004,280.159333 229.691004,280.24 229.221671,280.24 C228.488337,280.24 227.916337,279.998 227.505671,279.514 C227.095004,279.03 226.845671,278.201333 226.757671,277.028 L226.757671,277.028 L233.335671,277.028 C233.379671,276.412 233.401671,276.038 233.401671,275.906 C233.401671,274.014 232.991004,272.562 232.169671,271.55 C231.348337,270.538 230.204337,270.032 228.737671,270.032 C227.227004,270.032 226.050004,270.600333 225.206671,271.737 C224.363337,272.873667 223.941671,274.380667 223.941671,276.258 C223.941671,278.164667 224.381671,279.653333 225.261671,280.724 C226.141671,281.794667 227.395671,282.33 229.023671,282.33 Z M230.695671,275.246 L226.757671,275.246 C226.816337,274.072667 227.010671,273.233 227.340671,272.727 C227.670671,272.221 228.143671,271.968 228.759671,271.968 C229.434337,271.968 229.925671,272.228333 230.233671,272.749 C230.541671,273.269667 230.695671,274.058 230.695671,275.114 L230.695671,275.114 L230.695671,275.246 Z" id="Erreur404Pagenon-disponible" fill="#000000" fill-rule="nonzero"></path>
                    <g id="Group-2" transform="translate(39.000000, 96.000000)" fill-rule="nonzero">
                        <g id="iconfinder_icon-20-sad-face-eyebrows_314316" transform="translate(45.000000, 0.000000)" fill="#2C52FF">
                            <path d="M53,106 C82.2710931,106 106,82.2710931 106,53 C106,23.7289068 82.2710931,0 53,0 C23.7289068,0 0,23.7289068 0,53 C0,82.2710931 23.7289068,106 53,106 Z M52.9208104,67.84 C67.6816212,67.84 76.32,76.32 76.32,76.32 L76.32,80.56 C76.32,80.56 67.6816212,72.08 52.9208104,72.08 C38.16,72.08 29.68,80.56 29.68,80.56 L29.68,76.32 C29.68,76.32 38.16,67.84 52.9208104,67.84 Z M33.92,38.16 C36.2616876,38.16 38.16,40.0583124 38.16,42.4 C38.16,44.7416876 36.2616876,46.64 33.92,46.64 C31.5783124,46.64 29.68,44.7416876 29.68,42.4 C29.68,40.0583124 31.5783124,38.16 33.92,38.16 Z M72.08,38.16 C74.4216876,38.16 76.32,40.0583124 76.32,42.4 C76.32,44.7416876 74.4216876,46.64 72.08,46.64 C69.7383124,46.64 67.84,44.7416876 67.84,42.4 C67.84,40.0583124 69.7383124,38.16 72.08,38.16 Z M70.4752503,25.3004845 L84.5357276,34.7843961 L82.1647497,38.2995155 L68.1042724,28.8156039 L70.4752503,25.3004845 Z M35.5247497,25.3004845 L37.8957276,28.8156039 L23.8352504,38.2995155 L21.4642724,34.7843961 L35.5247497,25.3004845 Z" id="sad-face-eyebrows"></path>
                        </g>
                        <path d="M59.7793103,61.982684 L59.7793103,76.5454545 L51.4731325,76.5454545 L51.4731325,95 L32.9730091,95 L32.8471579,76.5454545 L0,76.5454545 L0,63.6147186 L21.6464029,8 L38.0070563,13.9004329 L19.632784,61.982684 L33.0988603,61.982684 L35.2383303,41.7705628 L51.4731325,41.7705628 L51.4731325,61.982684 L59.7793103,61.982684 Z M197,61.982684 L197,76.5454545 L188.693822,76.5454545 L188.693822,95 L170.193699,95 L170.067848,76.5454545 L137.22069,76.5454545 L137.22069,63.6147186 L158.867093,8 L175.227746,13.9004329 L156.853474,61.982684 L170.31955,61.982684 L172.45902,41.7705628 L188.693822,41.7705628 L188.693822,61.982684 L197,61.982684 Z" id="404" fill="#ED4161" style="mix-blend-mode: multiply;"></path>
                    </g>
                </g>
            </g>
        </g>
    </g>
</svg>