<?xml version="1.0" encoding="UTF-8"?>
<svg width="369px" height="389px" viewBox="0 0 369 389" version="1.1" xmlns="http://www.w3.org/2000/svg" xmlns:xlink="http://www.w3.org/1999/xlink">
    <!-- Generator: Sketch 58 (84663) - https://sketch.com -->
    <title>iconfinder_newspaper-bulletin-magazine-journal-press_4313133</title>
    <desc>Created with Sketch.</desc>
    <g id="Accueil" stroke="none" stroke-width="1" fill="none" fill-rule="evenodd">
        <g id="Traces---Accueil-(Bureau)" transform="translate(-39.000000, -1417.000000)" fill="#FF4769" fill-rule="nonzero">
            <g id="actualites" transform="translate(38.000000, 1344.000000)">
                <g id="actualites_litteraires">
                    <g id="iconfinder_newspaper-bulletin-magazine-journal-press_4313133" style="mix-blend-mode: multiply;" transform="translate(188.861643, 265.044825) rotate(-15.000000) translate(-188.861643, -265.044825) translate(39.861643, 94.544825)">
                        <path d="M275.162282,110.040522 L275.162282,55.201812 L253.162282,55.201812 L253.162282,0.363102302 L0.16228169,0.363102302 L0.16228169,312.943747 C0.16228169,328.06278 12.4987817,340.363102 27.6622817,340.363102 L269.662282,340.363102 C284.825782,340.363102 297.162282,328.06278 297.162282,312.943747 L297.162282,110.040522 L275.162282,110.040522 Z M27.6622817,329.39536 C18.5652817,329.39536 11.1622817,322.01407 11.1622817,312.943747 L11.1622817,11.3308442 L242.162282,11.3308442 L242.162282,312.943747 C242.162282,319.113102 244.213782,324.810844 247.673282,329.39536 L27.6622817,329.39536 Z M286.162282,312.943747 C286.162282,322.01407 278.759282,329.39536 269.662282,329.39536 C260.565282,329.39536 253.162282,322.01407 253.162282,312.943747 L253.162282,66.1695539 L264.162282,66.1695539 L264.162282,142.540279 L275.162282,142.540279 L275.162282,121.008264 L286.162282,121.008264 L286.162282,312.943747 Z" id="Shape"></path>
                        <path d="M191.770724,253.456494 L172.881924,248.11178 L172.881924,246.629913 C179.859524,241.418401 184.081924,233.220954 184.081924,224.546201 L184.081924,214.400681 C184.081924,199.715208 172.982724,187.166509 158.809124,185.828943 C150.963524,185.063034 143.073124,187.660465 137.249124,192.905277 C131.425124,198.155639 128.081924,205.642678 128.081924,213.44607 L128.081924,224.546201 C128.081924,233.220954 132.304324,241.418401 139.281924,246.629913 L139.281924,248.11178 L120.387524,253.456494 C108.431524,256.847584 100.081924,267.820064 100.081924,280.14676 L100.081924,296.697055 L212.081924,296.697055 L212.081924,280.14676 C212.081924,267.820064 203.732324,256.847584 191.770724,253.456494 Z M200.881924,285.596924 L111.281924,285.596924 L111.281924,280.14676 C111.281924,272.754072 116.293924,266.166144 123.467524,264.13482 L150.481924,256.481279 L150.481924,240.47489 L147.698724,238.870921 C142.429124,235.829485 139.281924,230.473672 139.281924,224.546201 L139.281924,213.44607 C139.281924,208.761815 141.286724,204.271811 144.781124,201.119374 C148.325924,197.922536 152.889924,196.440669 157.745124,196.868024 C166.234724,197.672783 172.881924,205.376275 172.881924,214.400681 L172.881924,224.546201 C172.881924,230.473672 169.734724,235.829485 164.465124,238.870921 L161.681924,240.47489 L161.681924,256.481279 L188.690724,264.13482 C195.869924,266.166144 200.881924,272.754072 200.881924,280.14676 L200.881924,285.596924 Z" id="Shape"></path>
                        <path d="M76.874216,319.274753 L231.874216,319.274753 L231.874216,164.274753 L76.874216,164.274753 L76.874216,319.274753 Z M87.9456445,175.346181 L220.802787,175.346181 L220.802787,308.203324 L87.9456445,308.203324 L87.9456445,175.346181 Z" id="Shape"></path>
                        <path d="M91.0745558,154.710118 C126.916639,154.710118 156.074556,125.552202 156.074556,89.7101183 C156.074556,53.868035 126.916639,24.7101183 91.0745558,24.7101183 C55.2324725,24.7101183 26.0745558,53.868035 26.0745558,89.7101183 C26.0745558,125.552202 55.2324725,154.710118 91.0745558,154.710118 Z M91.0745558,143.876785 C68.9853892,143.876785 49.9728892,130.562618 41.5499725,111.555535 C48.0770558,111.999702 54.1816392,114.637618 58.8508058,119.306785 L59.9720558,120.428035 C64.6087225,125.070118 70.7783058,127.626785 77.3433058,127.626785 C90.8903892,127.626785 101.907889,116.609285 101.907889,103.062202 L101.907889,97.8351183 C101.907889,87.3809516 93.4037225,78.876785 82.9495558,78.876785 C78.4699725,78.876785 74.8245558,75.2313683 74.8245558,70.751785 L74.8245558,62.626785 C74.8245558,54.8538683 72.3166392,47.1947016 67.8478892,40.851785 C73.4487225,38.1759516 79.5533058,36.4047016 86.0099725,35.8034516 C85.8583058,37.0276183 85.6578892,38.2572016 85.6578892,39.486785 C85.6578892,48.9659516 89.8991392,57.800535 97.3037225,63.7209516 L106.533722,71.0984516 C110.477056,74.2509516 112.741222,78.9634516 112.741222,84.0063683 C112.741222,99.0972016 125.020806,111.376785 140.111639,111.376785 C140.306639,111.376785 140.512472,111.338868 140.707472,111.333452 C132.338722,130.465118 113.250389,143.876785 91.0745558,143.876785 Z M145.241222,89.7101183 C145.241222,93.290535 144.872889,96.7897016 144.206639,100.180535 C142.830806,100.397202 141.460389,100.543452 140.111639,100.543452 C130.989972,100.543452 123.574556,93.128035 123.574556,84.0063683 C123.574556,75.6538683 119.837056,67.8647016 113.304556,62.6376183 L104.074556,55.2547016 C99.2537225,51.4034516 96.4912225,45.6509516 96.4912225,39.486785 C96.4912225,38.284285 96.6103892,37.0763683 96.8487225,35.863035 C124.007889,38.755535 145.241222,61.7926183 145.241222,89.7101183 Z M58.6178892,46.4472016 C62.0791392,51.089285 63.9912225,56.8309516 63.9912225,62.626785 L63.9912225,70.751785 C63.9912225,81.2059516 72.4953892,89.7101183 82.9495558,89.7101183 C87.4291392,89.7101183 91.0745558,93.355535 91.0745558,97.8351183 L91.0745558,103.062202 C91.0745558,110.629285 84.9103892,116.793452 77.3433058,116.793452 C73.6708058,116.793452 70.2258058,115.363452 67.6312225,112.774285 L66.5099725,111.653035 C59.3491392,104.492202 49.8266392,100.543452 39.6974725,100.543452 C39.1395558,100.543452 38.5599725,100.467618 37.9749725,100.380952 C37.2816392,96.9251183 36.9078892,93.3609516 36.9078892,89.7101183 C36.9078892,72.0247016 45.4662225,56.3434516 58.6178892,46.4472016 Z" id="Shape"></path>
                        <rect id="Rectangle" x="189.597064" y="42.4007197" width="43" height="14"></rect>
                        <rect id="Rectangle" x="165.814596" y="63.3229185" width="69" height="14"></rect>
                        <rect id="Rectangle" x="167.098389" y="110.912103" width="43" height="14"></rect>
                        <rect id="Rectangle" x="223.374724" y="111.217378" width="10" height="14"></rect>
                        <rect id="Rectangle" x="21.898594" y="278.025895" width="43" height="14"></rect>
                        <rect id="Rectangle" x="21.9865267" y="258.379209" width="43" height="14"></rect>
                        <rect id="Rectangle" x="21.7413109" y="301.795103" width="43" height="14"></rect>
                    </g>
                </g>
            </g>
        </g>
    </g>
</svg>