<?xml version="1.0" encoding="UTF-8"?>
<svg width="702px" height="530px" viewBox="0 0 702 530" version="1.1" xmlns="http://www.w3.org/2000/svg" xmlns:xlink="http://www.w3.org/1999/xlink">
    <!-- Generator: Sketch 58 (84663) - https://sketch.com -->
    <title>carte_svg</title>
    <desc>Created with Sketch.</desc>
    <g id="Page-1" stroke="none" stroke-width="1" fill="none" fill-rule="evenodd">
        <g id="carte_svg" transform="translate(1.000000, 3.000000)">
            <g id="lignes_bleues">
                <g id="Group">
                    <path d="M295.883894,12.0696234 C276.432984,82.2786998 293.446897,141.902698 346.925632,190.941619 C400.404367,239.98054 403.41889,309.442652 355.969202,399.327956 C331.217115,440.029951 322.041911,477.707935 328.443592,512.361908" id="Path" stroke="#2C52FF" stroke-width="11" stroke-linecap="round"></path>
                    <path d="M24.2672772,49.4893232 C224.525549,42.6420149 333.208484,45.8723696 350.316082,59.1803872 C375.977478,79.1424137 473.866475,91.419896 660.99224,49.4893232" id="Path-2" stroke="#2C52FF" stroke-width="12"></path>
                    <path d="M59,522.240327 C225.685827,481.464807 438.342541,451.718032 696.970143,433" id="Path-3" stroke="#2C52FF" stroke-width="8" stroke-linecap="round"></path>
                    <path d="M24,309.642907 L678.189512,198" id="Path-4" stroke="#2C52FF" stroke-width="5" stroke-linecap="round"></path>
                    <path d="M16,320.642907 L670.189512,209" id="Path-4-Copy" stroke="#2C52FF" stroke-width="5" stroke-linecap="round"></path>
                    <path d="M379,237.42751 L597.826289,1.42108547e-14" id="Path-5" stroke="#2C52FF" stroke-width="5" stroke-linecap="round"></path>
                    <path d="M-2.84217094e-14,374.531506 C50.3190515,338.222035 95.6813387,335.394882 136.086862,366.050046 C176.492384,396.705211 205.954547,421.509211 224.47335,440.462049 C251.455724,457.413618 267.332051,469.898631 272.102328,477.917086" id="Path-6" stroke="#2C52FF" stroke-width="3"></path>
                    <path d="M282.083007,12.0696234 C256.886802,86.1707648 275.781293,143.087628 338.76648,182.820213" id="Path-7" stroke="#2C52FF" stroke-width="4"></path>
                    <path d="M45.8235664,508.361908 C221.360633,469.825656 317.674937,454.888534 334.76648,463.550541 C360.403795,476.543552 385.689128,484.719197 390.824626,508.361908" id="Path-8" stroke="#2C52FF" stroke-width="4"></path>
                    <path d="M330.819774,461.166014 C304.988896,367.483943 324.525849,302.035756 389.430632,264.821454" id="Path-9" stroke="#2C52FF" stroke-width="3"></path>
                    <path d="M261.327638,467.807172 C350.49095,398.342711 383.27336,312.073654 359.674869,209" id="Path-10" stroke="#2C52FF" stroke-width="3"></path>
                    <path d="M381.79603,346.787051 C370.000634,405.767472 385.287309,441.782276 427.656055,454.831462" id="Path-11" stroke="#2C52FF" stroke-width="3"></path>
                    <path d="M392.824626,519.361908 C384.43791,495.084843 400.271359,478.019545 440.324972,468.166014 C480.378586,458.312482 556.34512,451.634476 668.224575,448.131996" id="Path-12" stroke="#2C52FF" stroke-width="3"></path>
                    <path d="M377.942982,346.787051 C413.128465,370.99492 436.951469,383.098854 449.411996,383.098854 C461.872522,383.098854 529.013651,380.660382 650.835383,375.783437" id="Path-13" stroke="#2C52FF" stroke-width="3"></path>
                    <path d="M431.892619,267.955008 L430.940619,264.889008 L427.230619,264.889008 L426.292619,267.955008 L425.466619,267.955008 L428.560619,258.183008 L429.624619,258.183008 L432.718619,267.955008 L431.892619,267.955008 Z M429.582619,260.465008 L429.134619,258.897008 L429.036619,258.897008 L428.574619,260.465008 L427.426619,264.231008 L430.758619,264.231008 L429.582619,260.465008 Z M439.223952,266.821008 L439.111952,266.821008 C438.981285,267.231677 438.754954,267.55134 438.432952,267.780008 C438.11095,268.008676 437.693288,268.123008 437.179952,268.123008 C436.517282,268.123008 436.006287,267.910677 435.646952,267.486008 C435.287617,267.061339 435.107952,266.424346 435.107952,265.575008 L435.107952,260.787008 L435.877952,260.787008 L435.877952,265.533008 C435.877952,266.139678 436.008617,266.608673 436.269952,266.940008 C436.531287,267.271343 436.927949,267.437008 437.459952,267.437008 C437.70262,267.437008 437.931284,267.399675 438.145952,267.325008 C438.36062,267.250341 438.547284,267.140676 438.705952,266.996008 C438.864619,266.851341 438.990618,266.674009 439.083952,266.464008 C439.177286,266.254007 439.223952,266.018343 439.223952,265.757008 L439.223952,260.787008 L439.993952,260.787008 L439.993952,267.955008 L439.223952,267.955008 L439.223952,266.821008 Z M444.329285,267.955008 C444.03995,267.955008 443.829953,267.892009 443.699285,267.766008 C443.568618,267.640008 443.503285,267.432343 443.503285,267.143008 L443.503285,261.459008 L442.397285,261.459008 L442.397285,260.787008 L443.139285,260.787008 C443.316619,260.787008 443.433285,260.742675 443.489285,260.654008 C443.545286,260.565341 443.573285,260.432342 443.573285,260.255008 L443.573285,258.785008 L444.273285,258.785008 L444.273285,260.787008 L445.701285,260.787008 L445.701285,261.459008 L444.273285,261.459008 L444.273285,267.283008 L445.631285,267.283008 L445.631285,267.955008 L444.329285,267.955008 Z M450.638619,268.123008 C450.218616,268.123008 449.83362,268.050676 449.483619,267.906008 C449.133617,267.761341 448.83262,267.537343 448.580619,267.234008 C448.328617,266.930673 448.134953,266.543344 447.999619,266.072008 C447.864285,265.600672 447.796619,265.033678 447.796619,264.371008 C447.796619,263.708338 447.864285,263.141344 447.999619,262.670008 C448.134953,262.198672 448.328617,261.811343 448.580619,261.508008 C448.83262,261.204673 449.133617,260.980676 449.483619,260.836008 C449.83362,260.691341 450.218616,260.619008 450.638619,260.619008 C451.058621,260.619008 451.443617,260.691341 451.793619,260.836008 C452.14362,260.980676 452.444617,261.204673 452.696619,261.508008 C452.94862,261.811343 453.142285,262.198672 453.277619,262.670008 C453.412953,263.141344 453.480619,263.708338 453.480619,264.371008 C453.480619,265.033678 453.412953,265.600672 453.277619,266.072008 C453.142285,266.543344 452.94862,266.930673 452.696619,267.234008 C452.444617,267.537343 452.14362,267.761341 451.793619,267.906008 C451.443617,268.050676 451.058621,268.123008 450.638619,268.123008 Z M450.638619,267.437008 C451.282622,267.437008 451.779617,267.229344 452.129619,266.814008 C452.47962,266.398673 452.654619,265.794345 452.654619,265.001008 L452.654619,263.741008 C452.654619,262.947671 452.47962,262.343344 452.129619,261.928008 C451.779617,261.512673 451.282622,261.305008 450.638619,261.305008 C449.994615,261.305008 449.49762,261.512673 449.147619,261.928008 C448.797617,262.343344 448.622619,262.947671 448.622619,263.741008 L448.622619,265.001008 C448.622619,265.794345 448.797617,266.398673 449.147619,266.814008 C449.49762,267.229344 449.994615,267.437008 450.638619,267.437008 Z M456.219952,267.955008 L456.219952,260.787008 L456.989952,260.787008 L456.989952,262.089008 L457.101952,262.089008 C457.232619,261.687673 457.45195,261.370343 457.759952,261.137008 C458.067953,260.903674 458.45995,260.787008 458.935952,260.787008 L459.383952,260.787008 L459.383952,261.543008 L458.739952,261.543008 C458.226616,261.543008 457.80662,261.683007 457.479952,261.963008 C457.153284,262.24301 456.989952,262.630339 456.989952,263.125008 L456.989952,267.955008 L456.219952,267.955008 Z M463.985285,268.123008 C463.565283,268.123008 463.180287,268.050676 462.830285,267.906008 C462.480283,267.761341 462.179287,267.537343 461.927285,267.234008 C461.675284,266.930673 461.481619,266.543344 461.346285,266.072008 C461.210951,265.600672 461.143285,265.033678 461.143285,264.371008 C461.143285,263.708338 461.210951,263.141344 461.346285,262.670008 C461.481619,262.198672 461.675284,261.811343 461.927285,261.508008 C462.179287,261.204673 462.480283,260.980676 462.830285,260.836008 C463.180287,260.691341 463.565283,260.619008 463.985285,260.619008 C464.405287,260.619008 464.790283,260.691341 465.140285,260.836008 C465.490287,260.980676 465.791284,261.204673 466.043285,261.508008 C466.295287,261.811343 466.488951,262.198672 466.624285,262.670008 C466.759619,263.141344 466.827285,263.708338 466.827285,264.371008 C466.827285,265.033678 466.759619,265.600672 466.624285,266.072008 C466.488951,266.543344 466.295287,266.930673 466.043285,267.234008 C465.791284,267.537343 465.490287,267.761341 465.140285,267.906008 C464.790283,268.050676 464.405287,268.123008 463.985285,268.123008 Z M463.985285,267.437008 C464.629288,267.437008 465.126283,267.229344 465.476285,266.814008 C465.826287,266.398673 466.001285,265.794345 466.001285,265.001008 L466.001285,263.741008 C466.001285,262.947671 465.826287,262.343344 465.476285,261.928008 C465.126283,261.512673 464.629288,261.305008 463.985285,261.305008 C463.341282,261.305008 462.844287,261.512673 462.494285,261.928008 C462.144283,262.343344 461.969285,262.947671 461.969285,263.741008 L461.969285,265.001008 C461.969285,265.794345 462.144283,266.398673 462.494285,266.814008 C462.844287,267.229344 463.341282,267.437008 463.985285,267.437008 Z M473.640619,266.821008 L473.528619,266.821008 C473.397951,267.231677 473.17162,267.55134 472.849619,267.780008 C472.527617,268.008676 472.109954,268.123008 471.596619,268.123008 C470.933949,268.123008 470.422954,267.910677 470.063619,267.486008 C469.704283,267.061339 469.524619,266.424346 469.524619,265.575008 L469.524619,260.787008 L470.294619,260.787008 L470.294619,265.533008 C470.294619,266.139678 470.425284,266.608673 470.686619,266.940008 C470.947953,267.271343 471.344616,267.437008 471.876619,267.437008 C472.119286,267.437008 472.347951,267.399675 472.562619,267.325008 C472.777286,267.250341 472.963951,267.140676 473.122619,266.996008 C473.281286,266.851341 473.407285,266.674009 473.500619,266.464008 C473.593952,266.254007 473.640619,266.018343 473.640619,265.757008 L473.640619,260.787008 L474.410619,260.787008 L474.410619,267.955008 L473.640619,267.955008 L473.640619,266.821008 Z M478.745952,267.955008 C478.456617,267.955008 478.246619,267.892009 478.115952,267.766008 C477.985285,267.640008 477.919952,267.432343 477.919952,267.143008 L477.919952,261.459008 L476.813952,261.459008 L476.813952,260.787008 L477.555952,260.787008 C477.733286,260.787008 477.849952,260.742675 477.905952,260.654008 C477.961952,260.565341 477.989952,260.432342 477.989952,260.255008 L477.989952,258.785008 L478.689952,258.785008 L478.689952,260.787008 L480.117952,260.787008 L480.117952,261.459008 L478.689952,261.459008 L478.689952,267.283008 L480.047952,267.283008 L480.047952,267.955008 L478.745952,267.955008 Z M485.055285,268.123008 C484.635283,268.123008 484.250287,268.050676 483.900285,267.906008 C483.550283,267.761341 483.249287,267.537343 482.997285,267.234008 C482.745284,266.930673 482.551619,266.543344 482.416285,266.072008 C482.280951,265.600672 482.213285,265.033678 482.213285,264.371008 C482.213285,263.708338 482.280951,263.141344 482.416285,262.670008 C482.551619,262.198672 482.745284,261.811343 482.997285,261.508008 C483.249287,261.204673 483.550283,260.980676 483.900285,260.836008 C484.250287,260.691341 484.635283,260.619008 485.055285,260.619008 C485.904623,260.619008 486.569616,260.913005 487.050285,261.501008 C487.530954,262.089011 487.771285,263.022335 487.771285,264.301008 L487.771285,264.511008 L483.039285,264.511008 L483.039285,265.001008 C483.039285,265.794345 483.214283,266.398673 483.564285,266.814008 C483.914287,267.229344 484.411282,267.437008 485.055285,267.437008 C485.587288,267.437008 486.014284,267.318009 486.336285,267.080008 C486.658287,266.842007 486.912618,266.485011 487.099285,266.009008 L487.631285,266.373008 C487.425951,266.923678 487.115621,267.353007 486.700285,267.661008 C486.28495,267.96901 485.736622,268.123008 485.055285,268.123008 Z M485.055285,261.277008 C484.411282,261.277008 483.914287,261.489339 483.564285,261.914008 C483.214283,262.338677 483.039285,262.947671 483.039285,263.741008 L483.039285,263.923008 L486.945285,263.923008 L486.945285,263.741008 C486.945285,262.947671 486.788953,262.338677 486.476285,261.914008 C486.163617,261.489339 485.689955,261.277008 485.055285,261.277008 Z M495.503952,267.955008 L499.017952,258.869008 L494.873952,258.869008 L494.873952,260.899008 L494.145952,260.899008 L494.145952,258.183008 L499.829952,258.183008 L499.829952,258.883008 L496.371952,267.955008 L495.503952,267.955008 Z M506.615285,267.955008 L506.615285,265.911008 L502.261285,265.911008 L502.261285,265.197008 L506.181285,258.183008 L507.385285,258.183008 L507.385285,265.239008 L508.729285,265.239008 L508.729285,265.911008 L507.385285,265.911008 L507.385285,267.955008 L506.615285,267.955008 Z M503.017285,265.239008 L506.615285,265.239008 L506.615285,258.841008 L506.503285,258.841008 L503.017285,265.239008 Z M514.016619,268.123008 C513.521949,268.123008 513.087954,268.034342 512.714619,267.857008 C512.341283,267.679674 512.030953,267.392677 511.783619,266.996008 C511.536284,266.599339 511.349619,266.079011 511.223619,265.435008 C511.097618,264.791005 511.034619,264.002346 511.034619,263.069008 C511.034619,262.13567 511.097618,261.349345 511.223619,260.710008 C511.349619,260.070672 511.536284,259.550343 511.783619,259.149008 C512.030953,258.747673 512.341283,258.458342 512.714619,258.281008 C513.087954,258.103674 513.521949,258.015008 514.016619,258.015008 C514.511288,258.015008 514.945283,258.103674 515.318619,258.281008 C515.691954,258.458342 516.002284,258.747673 516.249619,259.149008 C516.496953,259.550343 516.683618,260.070672 516.809619,260.710008 C516.935619,261.349345 516.998619,262.13567 516.998619,263.069008 C516.998619,264.002346 516.935619,264.791005 516.809619,265.435008 C516.683618,266.079011 516.496953,266.599339 516.249619,266.996008 C516.002284,267.392677 515.691954,267.679674 515.318619,267.857008 C514.945283,268.034342 514.511288,268.123008 514.016619,268.123008 Z M514.016619,267.423008 C514.753956,267.423008 515.295284,267.145344 515.640619,266.590008 C515.985954,266.034672 516.158619,265.21568 516.158619,264.133008 L516.158619,262.005008 C516.158619,260.922336 515.985954,260.103344 515.640619,259.548008 C515.295284,258.992672 514.753956,258.715008 514.016619,258.715008 C513.279282,258.715008 512.737954,258.992672 512.392619,259.548008 C512.047284,260.103344 511.874619,260.922336 511.874619,262.005008 L511.874619,264.133008 C511.874619,265.21568 512.047284,266.034672 512.392619,266.590008 C512.737954,267.145344 513.279282,267.423008 514.016619,267.423008 Z" id="Autoroute740" fill="#2C52FF" fill-rule="nonzero" transform="translate(471.232619, 263.069008) rotate(-10.000000) translate(-471.232619, -263.069008) "></path>
                    <path d="M448.240091,153.41448 L447.428091,153.41448 L447.428091,143.64248 L450.984091,143.64248 C452.514765,143.64248 453.280091,144.547804 453.280091,146.35848 C453.280091,148.019821 452.636098,148.920479 451.348091,149.06048 L453.504091,153.41448 L452.608091,153.41448 L450.550091,149.07448 L448.240091,149.07448 L448.240091,153.41448 Z M450.956091,148.38848 C451.926763,148.38848 452.412091,147.865818 452.412091,146.82048 L452.412091,145.92448 C452.412091,144.879141 451.926763,144.35648 450.956091,144.35648 L448.240091,144.35648 L448.240091,148.38848 L450.956091,148.38848 Z M460.401424,152.28048 L460.289424,152.28048 C460.158757,152.691148 459.932426,153.010812 459.610424,153.23948 C459.288423,153.468148 458.87076,153.58248 458.357424,153.58248 C457.694755,153.58248 457.18376,153.370149 456.824424,152.94548 C456.465089,152.520811 456.285424,151.883817 456.285424,151.03448 L456.285424,146.24648 L457.055424,146.24648 L457.055424,150.99248 C457.055424,151.599149 457.18609,152.068145 457.447424,152.39948 C457.708759,152.730815 458.105422,152.89648 458.637424,152.89648 C458.880092,152.89648 459.108757,152.859147 459.323424,152.78448 C459.538092,152.709813 459.724757,152.600147 459.883424,152.45548 C460.042092,152.310812 460.168091,152.133481 460.261424,151.92348 C460.354758,151.713479 460.401424,151.477814 460.401424,151.21648 L460.401424,146.24648 L461.171424,146.24648 L461.171424,153.41448 L460.401424,153.41448 L460.401424,152.28048 Z M466.696758,153.58248 C466.276756,153.58248 465.89176,153.510147 465.541758,153.36548 C465.191756,153.220812 464.890759,152.996815 464.638758,152.69348 C464.386757,152.390145 464.193092,152.002815 464.057758,151.53148 C463.922424,151.060144 463.854758,150.49315 463.854758,149.83048 C463.854758,149.16781 463.922424,148.600815 464.057758,148.12948 C464.193092,147.658144 464.386757,147.270815 464.638758,146.96748 C464.890759,146.664145 465.191756,146.440147 465.541758,146.29548 C465.89176,146.150812 466.276756,146.07848 466.696758,146.07848 C467.546095,146.07848 468.211089,146.372477 468.691758,146.96048 C469.172427,147.548483 469.412758,148.481807 469.412758,149.76048 L469.412758,149.97048 L464.680758,149.97048 L464.680758,150.46048 C464.680758,151.253817 464.855756,151.858144 465.205758,152.27348 C465.55576,152.688815 466.052755,152.89648 466.696758,152.89648 C467.22876,152.89648 467.655756,152.777481 467.977758,152.53948 C468.299759,152.301479 468.55409,151.944482 468.740758,151.46848 L469.272758,151.83248 C469.067423,152.383149 468.757093,152.812478 468.341758,153.12048 C467.926422,153.428481 467.378095,153.58248 466.696758,153.58248 Z M466.696758,146.73648 C466.052755,146.73648 465.55576,146.948811 465.205758,147.37348 C464.855756,147.798149 464.680758,148.407142 464.680758,149.20048 L464.680758,149.38248 L468.586758,149.38248 L468.586758,149.20048 C468.586758,148.407142 468.430426,147.798149 468.117758,147.37348 C467.80509,146.948811 467.331428,146.73648 466.696758,146.73648 Z M476.123424,153.41448 L476.123424,143.64248 L479.679424,143.64248 C481.210099,143.64248 481.975424,144.552471 481.975424,146.37248 C481.975424,148.192489 481.210099,149.10248 479.679424,149.10248 L476.935424,149.10248 L476.935424,153.41448 L476.123424,153.41448 Z M476.935424,148.38848 L479.651424,148.38848 C480.155427,148.38848 480.526423,148.250814 480.764424,147.97548 C481.002426,147.700145 481.121424,147.315149 481.121424,146.82048 L481.121424,145.92448 C481.121424,145.429811 481.002426,145.044814 480.764424,144.76948 C480.526423,144.494145 480.155427,144.35648 479.651424,144.35648 L476.935424,144.35648 L476.935424,148.38848 Z M488.858758,153.41448 C488.345422,153.41448 488.088758,153.162482 488.088758,152.65848 L488.088758,152.26648 L487.976758,152.26648 C487.855424,152.686482 487.631426,153.010812 487.304758,153.23948 C486.97809,153.468148 486.567427,153.58248 486.072758,153.58248 C485.400754,153.58248 484.887426,153.412148 484.532758,153.07148 C484.178089,152.730811 484.000758,152.21515 484.000758,151.52448 C484.000758,150.843143 484.210756,150.320482 484.630758,149.95648 C485.05076,149.592478 485.68542,149.41048 486.534758,149.41048 L488.088758,149.41048 L488.088758,148.45848 C488.088758,147.85181 487.958092,147.417814 487.696758,147.15648 C487.435423,146.895145 487.029427,146.76448 486.478758,146.76448 C486.058756,146.76448 485.708759,146.860145 485.428758,147.05148 C485.148756,147.242814 484.920092,147.534478 484.742758,147.92648 L484.238758,147.49248 C484.425425,147.072478 484.707756,146.731814 485.085758,146.47048 C485.46376,146.209145 485.937422,146.07848 486.506758,146.07848 C487.281428,146.07848 487.867089,146.269811 488.263758,146.65248 C488.660426,147.035148 488.858758,147.609143 488.858758,148.37448 L488.858758,152.74248 L489.712758,152.74248 L489.712758,153.41448 L488.858758,153.41448 Z M486.240758,152.91048 C486.502092,152.91048 486.744757,152.870813 486.968758,152.79148 C487.192759,152.712146 487.388757,152.597814 487.556758,152.44848 C487.724759,152.299146 487.855424,152.124147 487.948758,151.92348 C488.042092,151.722812 488.088758,151.501148 488.088758,151.25848 L488.088758,149.99848 L486.520758,149.99848 C485.960755,149.99848 485.533759,150.108145 485.239758,150.32748 C484.945756,150.546814 484.798758,150.852478 484.798758,151.24448 L484.798758,151.69248 C484.798758,152.093815 484.931756,152.397145 485.197758,152.60248 C485.463759,152.807814 485.811422,152.91048 486.240758,152.91048 Z M492.144091,153.41448 L492.144091,146.24648 L492.914091,146.24648 L492.914091,147.54848 L493.026091,147.54848 C493.156758,147.147144 493.37609,146.829814 493.684091,146.59648 C493.992093,146.363145 494.384089,146.24648 494.860091,146.24648 L495.308091,146.24648 L495.308091,147.00248 L494.664091,147.00248 C494.150755,147.00248 493.730759,147.142478 493.404091,147.42248 C493.077423,147.702481 492.914091,148.089811 492.914091,148.58448 L492.914091,153.41448 L492.144091,153.41448 Z M501.841424,153.41448 C501.328089,153.41448 501.071424,153.162482 501.071424,152.65848 L501.071424,152.26648 L500.959424,152.26648 C500.838091,152.686482 500.614093,153.010812 500.287424,153.23948 C499.960756,153.468148 499.550094,153.58248 499.055424,153.58248 C498.383421,153.58248 497.870093,153.412148 497.515424,153.07148 C497.160756,152.730811 496.983424,152.21515 496.983424,151.52448 C496.983424,150.843143 497.193422,150.320482 497.613424,149.95648 C498.033427,149.592478 498.668087,149.41048 499.517424,149.41048 L501.071424,149.41048 L501.071424,148.45848 C501.071424,147.85181 500.940759,147.417814 500.679424,147.15648 C500.41809,146.895145 500.012094,146.76448 499.461424,146.76448 C499.041422,146.76448 498.691426,146.860145 498.411424,147.05148 C498.131423,147.242814 497.902759,147.534478 497.725424,147.92648 L497.221424,147.49248 C497.408092,147.072478 497.690423,146.731814 498.068424,146.47048 C498.446426,146.209145 498.920088,146.07848 499.489424,146.07848 C500.264095,146.07848 500.849756,146.269811 501.246424,146.65248 C501.643093,147.035148 501.841424,147.609143 501.841424,148.37448 L501.841424,152.74248 L502.695424,152.74248 L502.695424,153.41448 L501.841424,153.41448 Z M499.223424,152.91048 C499.484759,152.91048 499.727423,152.870813 499.951424,152.79148 C500.175426,152.712146 500.371424,152.597814 500.539424,152.44848 C500.707425,152.299146 500.838091,152.124147 500.931424,151.92348 C501.024758,151.722812 501.071424,151.501148 501.071424,151.25848 L501.071424,149.99848 L499.503424,149.99848 C498.943422,149.99848 498.516426,150.108145 498.222424,150.32748 C497.928423,150.546814 497.781424,150.852478 497.781424,151.24448 L497.781424,151.69248 C497.781424,152.093815 497.914423,152.397145 498.180424,152.60248 C498.446426,152.807814 498.794089,152.91048 499.223424,152.91048 Z M509.298758,152.28048 L509.172758,152.28048 C509.042091,152.719149 508.813426,153.045812 508.486758,153.26048 C508.16009,153.475147 507.75876,153.58248 507.282758,153.58248 C506.414753,153.58248 505.75676,153.262816 505.308758,152.62348 C504.860756,151.984143 504.636758,151.053152 504.636758,149.83048 C504.636758,148.607807 504.860756,147.676816 505.308758,147.03748 C505.75676,146.398143 506.414753,146.07848 507.282758,146.07848 C507.75876,146.07848 508.16009,146.185812 508.486758,146.40048 C508.813426,146.615147 509.042091,146.941811 509.172758,147.38048 L509.298758,147.38048 L509.298758,143.05448 L510.068758,143.05448 L510.068758,153.41448 L509.298758,153.41448 L509.298758,152.28048 Z M507.478758,152.89648 C507.730759,152.89648 507.966423,152.859147 508.185758,152.78448 C508.405092,152.709813 508.598757,152.60248 508.766758,152.46248 C508.934759,152.322479 509.065424,152.154481 509.158758,151.95848 C509.252092,151.762479 509.298758,151.543148 509.298758,151.30048 L509.298758,148.36048 C509.298758,148.117812 509.252092,147.898481 509.158758,147.70248 C509.065424,147.506479 508.934759,147.33848 508.766758,147.19848 C508.598757,147.058479 508.405092,146.951147 508.185758,146.87648 C507.966423,146.801813 507.730759,146.76448 507.478758,146.76448 C506.825421,146.76448 506.326093,146.979144 505.980758,147.40848 C505.635423,147.837815 505.462758,148.435143 505.462758,149.20048 L505.462758,150.46048 C505.462758,151.225817 505.635423,151.823144 505.980758,152.25248 C506.326093,152.681815 506.825421,152.89648 507.478758,152.89648 Z M513.704091,144.27248 C513.517424,144.27248 513.384425,144.23048 513.305091,144.14648 C513.225757,144.062479 513.186091,143.95048 513.186091,143.81048 L513.186091,143.61448 C513.186091,143.474479 513.225757,143.36248 513.305091,143.27848 C513.384425,143.194479 513.517424,143.15248 513.704091,143.15248 C513.890759,143.15248 514.023757,143.194479 514.103091,143.27848 C514.182425,143.36248 514.222091,143.474479 514.222091,143.61448 L514.222091,143.81048 C514.222091,143.95048 514.182425,144.062479 514.103091,144.14648 C514.023757,144.23048 513.890759,144.27248 513.704091,144.27248 Z M513.312091,146.24648 L514.082091,146.24648 L514.082091,153.41448 L513.312091,153.41448 L513.312091,146.24648 Z M519.187424,153.58248 C518.627422,153.58248 518.14676,153.472814 517.745424,153.25348 C517.344089,153.034145 516.994093,152.700482 516.695424,152.25248 L517.241424,151.80448 C517.502759,152.196482 517.787423,152.478812 518.095424,152.65148 C518.403426,152.824147 518.767422,152.91048 519.187424,152.91048 C519.663427,152.91048 520.041423,152.793814 520.321424,152.56048 C520.601426,152.327145 520.741424,151.986482 520.741424,151.53848 C520.741424,151.146478 520.648092,150.840814 520.461424,150.62148 C520.274757,150.402145 519.93876,150.25048 519.453424,150.16648 L518.893424,150.06848 C518.240088,149.956479 517.747759,149.748815 517.416424,149.44548 C517.08509,149.142145 516.919424,148.682483 516.919424,148.06648 C516.919424,147.385143 517.124756,146.883481 517.535424,146.56148 C517.946093,146.239478 518.478088,146.07848 519.131424,146.07848 C519.626094,146.07848 520.055423,146.164812 520.419424,146.33748 C520.783426,146.510147 521.100756,146.783145 521.371424,147.15648 L520.867424,147.61848 C520.438089,147.03981 519.864095,146.75048 519.145424,146.75048 C518.669422,146.75048 518.305426,146.857812 518.053424,147.07248 C517.801423,147.287147 517.675424,147.609144 517.675424,148.03848 C517.675424,148.458482 517.77809,148.766479 517.983424,148.96248 C518.188759,149.158481 518.529422,149.298479 519.005424,149.38248 L519.551424,149.48048 C520.232761,149.601814 520.727423,149.816478 521.035424,150.12448 C521.343426,150.432481 521.497424,150.880477 521.497424,151.46848 C521.497424,152.140483 521.29676,152.660811 520.895424,153.02948 C520.494089,153.398148 519.924762,153.58248 519.187424,153.58248 Z" id="RueParadis" fill="#2C52FF" fill-rule="nonzero" transform="translate(484.462758, 148.318480) rotate(-47.000000) translate(-484.462758, -148.318480) "></path>
                    <path d="M78.748,76 L77.796,72.934 L74.086,72.934 L73.148,76 L72.322,76 L75.416,66.228 L76.48,66.228 L79.574,76 L78.748,76 Z M76.438,68.51 L75.99,66.942 L75.892,66.942 L75.43,68.51 L74.282,72.276 L77.614,72.276 L76.438,68.51 Z M86.0793333,74.866 L85.9673333,74.866 C85.836666,75.2766687 85.6103349,75.5963322 85.2883333,75.825 C84.9663317,76.0536678 84.5486692,76.168 84.0353333,76.168 C83.3726634,76.168 82.8616685,75.9556688 82.5023333,75.531 C82.1429982,75.1063312 81.9633333,74.4693376 81.9633333,73.62 L81.9633333,68.832 L82.7333333,68.832 L82.7333333,73.578 C82.7333333,74.1846697 82.8639987,74.653665 83.1253333,74.985 C83.386668,75.316335 83.7833307,75.482 84.3153333,75.482 C84.5580012,75.482 84.7866656,75.444667 85.0013333,75.37 C85.2160011,75.295333 85.4026659,75.1856674 85.5613333,75.041 C85.7200008,74.8963326 85.8459995,74.7190011 85.9393333,74.509 C86.0326671,74.2989989 86.0793333,74.0633346 86.0793333,73.802 L86.0793333,68.832 L86.8493333,68.832 L86.8493333,76 L86.0793333,76 L86.0793333,74.866 Z M91.1846667,76 C90.8953319,76 90.685334,75.9370006 90.5546667,75.811 C90.4239993,75.6849994 90.3586667,75.4773348 90.3586667,75.188 L90.3586667,69.504 L89.2526667,69.504 L89.2526667,68.832 L89.9946667,68.832 C90.1720009,68.832 90.2886664,68.7876671 90.3446667,68.699 C90.4006669,68.6103329 90.4286667,68.4773342 90.4286667,68.3 L90.4286667,66.83 L91.1286667,66.83 L91.1286667,68.832 L92.5566667,68.832 L92.5566667,69.504 L91.1286667,69.504 L91.1286667,75.328 L92.4866667,75.328 L92.4866667,76 L91.1846667,76 Z M97.494,76.168 C97.0739979,76.168 96.6890018,76.0956674 96.339,75.951 C95.9889983,75.8063326 95.6880013,75.5823348 95.436,75.279 C95.1839987,74.9756651 94.990334,74.5883357 94.855,74.117 C94.719666,73.6456643 94.652,73.07867 94.652,72.416 C94.652,71.75333 94.719666,71.1863357 94.855,70.715 C94.990334,70.2436643 95.1839987,69.8563348 95.436,69.553 C95.6880013,69.2496651 95.9889983,69.0256674 96.339,68.881 C96.6890018,68.7363326 97.0739979,68.664 97.494,68.664 C97.9140021,68.664 98.2989983,68.7363326 98.649,68.881 C98.9990018,69.0256674 99.2999987,69.2496651 99.552,69.553 C99.8040013,69.8563348 99.997666,70.2436643 100.133,70.715 C100.268334,71.1863357 100.336,71.75333 100.336,72.416 C100.336,73.07867 100.268334,73.6456643 100.133,74.117 C99.997666,74.5883357 99.8040013,74.9756651 99.552,75.279 C99.2999987,75.5823348 98.9990018,75.8063326 98.649,75.951 C98.2989983,76.0956674 97.9140021,76.168 97.494,76.168 Z M97.494,75.482 C98.1380032,75.482 98.6349983,75.2743354 98.985,74.859 C99.3350018,74.4436646 99.51,73.8393373 99.51,73.046 L99.51,71.786 C99.51,70.9926627 99.3350018,70.3883354 98.985,69.973 C98.6349983,69.5576646 98.1380032,69.35 97.494,69.35 C96.8499968,69.35 96.3530018,69.5576646 96.003,69.973 C95.6529983,70.3883354 95.478,70.9926627 95.478,71.786 L95.478,73.046 C95.478,73.8393373 95.6529983,74.4436646 96.003,74.859 C96.3530018,75.2743354 96.8499968,75.482 97.494,75.482 Z M103.075333,76 L103.075333,68.832 L103.845333,68.832 L103.845333,70.134 L103.957333,70.134 C104.088001,69.7326647 104.307332,69.4153345 104.615333,69.182 C104.923335,68.9486655 105.315331,68.832 105.791333,68.832 L106.239333,68.832 L106.239333,69.588 L105.595333,69.588 C105.081997,69.588 104.662002,69.7279986 104.335333,70.008 C104.008665,70.2880014 103.845333,70.6753309 103.845333,71.17 L103.845333,76 L103.075333,76 Z M110.840667,76.168 C110.420665,76.168 110.035668,76.0956674 109.685667,75.951 C109.335665,75.8063326 109.034668,75.5823348 108.782667,75.279 C108.530665,74.9756651 108.337001,74.5883357 108.201667,74.117 C108.066333,73.6456643 107.998667,73.07867 107.998667,72.416 C107.998667,71.75333 108.066333,71.1863357 108.201667,70.715 C108.337001,70.2436643 108.530665,69.8563348 108.782667,69.553 C109.034668,69.2496651 109.335665,69.0256674 109.685667,68.881 C110.035668,68.7363326 110.420665,68.664 110.840667,68.664 C111.260669,68.664 111.645665,68.7363326 111.995667,68.881 C112.345668,69.0256674 112.646665,69.2496651 112.898667,69.553 C113.150668,69.8563348 113.344333,70.2436643 113.479667,70.715 C113.615001,71.1863357 113.682667,71.75333 113.682667,72.416 C113.682667,73.07867 113.615001,73.6456643 113.479667,74.117 C113.344333,74.5883357 113.150668,74.9756651 112.898667,75.279 C112.646665,75.5823348 112.345668,75.8063326 111.995667,75.951 C111.645665,76.0956674 111.260669,76.168 110.840667,76.168 Z M110.840667,75.482 C111.48467,75.482 111.981665,75.2743354 112.331667,74.859 C112.681668,74.4436646 112.856667,73.8393373 112.856667,73.046 L112.856667,71.786 C112.856667,70.9926627 112.681668,70.3883354 112.331667,69.973 C111.981665,69.5576646 111.48467,69.35 110.840667,69.35 C110.196663,69.35 109.699668,69.5576646 109.349667,69.973 C108.999665,70.3883354 108.824667,70.9926627 108.824667,71.786 L108.824667,73.046 C108.824667,73.8393373 108.999665,74.4436646 109.349667,74.859 C109.699668,75.2743354 110.196663,75.482 110.840667,75.482 Z M120.496,74.866 L120.384,74.866 C120.253333,75.2766687 120.027002,75.5963322 119.705,75.825 C119.382998,76.0536678 118.965336,76.168 118.452,76.168 C117.78933,76.168 117.278335,75.9556688 116.919,75.531 C116.559665,75.1063312 116.38,74.4693376 116.38,73.62 L116.38,68.832 L117.15,68.832 L117.15,73.578 C117.15,74.1846697 117.280665,74.653665 117.542,74.985 C117.803335,75.316335 118.199997,75.482 118.732,75.482 C118.974668,75.482 119.203332,75.444667 119.418,75.37 C119.632668,75.295333 119.819333,75.1856674 119.978,75.041 C120.136667,74.8963326 120.262666,74.7190011 120.356,74.509 C120.449334,74.2989989 120.496,74.0633346 120.496,73.802 L120.496,68.832 L121.266,68.832 L121.266,76 L120.496,76 L120.496,74.866 Z M125.601333,76 C125.311999,76 125.102001,75.9370006 124.971333,75.811 C124.840666,75.6849994 124.775333,75.4773348 124.775333,75.188 L124.775333,69.504 L123.669333,69.504 L123.669333,68.832 L124.411333,68.832 C124.588668,68.832 124.705333,68.7876671 124.761333,68.699 C124.817334,68.6103329 124.845333,68.4773342 124.845333,68.3 L124.845333,66.83 L125.545333,66.83 L125.545333,68.832 L126.973333,68.832 L126.973333,69.504 L125.545333,69.504 L125.545333,75.328 L126.903333,75.328 L126.903333,76 L125.601333,76 Z M131.910667,76.168 C131.490665,76.168 131.105668,76.0956674 130.755667,75.951 C130.405665,75.8063326 130.104668,75.5823348 129.852667,75.279 C129.600665,74.9756651 129.407001,74.5883357 129.271667,74.117 C129.136333,73.6456643 129.068667,73.07867 129.068667,72.416 C129.068667,71.75333 129.136333,71.1863357 129.271667,70.715 C129.407001,70.2436643 129.600665,69.8563348 129.852667,69.553 C130.104668,69.2496651 130.405665,69.0256674 130.755667,68.881 C131.105668,68.7363326 131.490665,68.664 131.910667,68.664 C132.760004,68.664 133.424998,68.9579971 133.905667,69.546 C134.386336,70.1340029 134.626667,71.0673269 134.626667,72.346 L134.626667,72.556 L129.894667,72.556 L129.894667,73.046 C129.894667,73.8393373 130.069665,74.4436646 130.419667,74.859 C130.769668,75.2743354 131.266663,75.482 131.910667,75.482 C132.442669,75.482 132.869665,75.3630012 133.191667,75.125 C133.513668,74.8869988 133.767999,74.5300024 133.954667,74.054 L134.486667,74.418 C134.281332,74.9686694 133.971002,75.3979985 133.555667,75.706 C133.140331,76.0140015 132.592003,76.168 131.910667,76.168 Z M131.910667,69.322 C131.266663,69.322 130.769668,69.5343312 130.419667,69.959 C130.069665,70.3836688 129.894667,70.9926627 129.894667,71.786 L129.894667,71.968 L133.800667,71.968 L133.800667,71.786 C133.800667,70.9926627 133.644335,70.3836688 133.331667,69.959 C133.018998,69.5343312 132.545337,69.322 131.910667,69.322 Z M141.239333,76 L141.239333,75.314 L143.815333,75.314 L143.815333,66.97 L141.169333,68.678 L140.819333,68.118 L143.717333,66.228 L144.599333,66.228 L144.599333,75.314 L146.993333,75.314 L146.993333,76 L141.239333,76 Z M151.972667,70.526 C152.579336,70.526 153.050665,70.3673349 153.386667,70.05 C153.722668,69.7326651 153.890667,69.3080027 153.890667,68.776 L153.890667,68.468 C153.890667,67.8986638 153.732002,67.4716681 153.414667,67.187 C153.097332,66.9023319 152.672669,66.76 152.140667,66.76 C151.253996,66.76 150.605335,67.189329 150.194667,68.048 L149.606667,67.628 C150.101336,66.5826614 150.959994,66.06 152.182667,66.06 C152.565335,66.06 152.912998,66.1089995 153.225667,66.207 C153.538335,66.3050005 153.806666,66.4566656 154.030667,66.662 C154.254668,66.8673344 154.427333,67.1216651 154.548667,67.425 C154.670001,67.7283348 154.730667,68.0899979 154.730667,68.51 C154.730667,68.8460017 154.686334,69.1469987 154.597667,69.413 C154.509,69.6790013 154.385334,69.9053324 154.226667,70.092 C154.067999,70.2786676 153.881334,70.4326661 153.666667,70.554 C153.451999,70.6753339 153.218668,70.7593331 152.966667,70.806 L152.966667,70.918 C153.246668,70.9460001 153.503332,71.0159994 153.736667,71.128 C153.970001,71.2400006 154.175332,71.3963323 154.352667,71.597 C154.530001,71.7976677 154.667666,72.0449985 154.765667,72.339 C154.863667,72.6330015 154.912667,72.975998 154.912667,73.368 C154.912667,74.2640045 154.663002,74.9546642 154.163667,75.44 C153.664331,75.9253358 152.962005,76.168 152.056667,76.168 C150.843327,76.168 149.910003,75.6453386 149.256667,74.6 L149.858667,74.152 C150.400003,75.0293377 151.127995,75.468 152.042667,75.468 C152.68667,75.468 153.185998,75.2976684 153.540667,74.957 C153.895335,74.6163316 154.072667,74.1286698 154.072667,73.494 L154.072667,73.186 C154.072667,72.5513302 153.895335,72.0636684 153.540667,71.723 C153.185998,71.3823316 152.68667,71.212 152.042667,71.212 L150.936667,71.212 L150.936667,70.526 L151.972667,70.526 Z M160.872,76.168 C159.901328,76.168 159.159336,75.9253358 158.646,75.44 C158.132664,74.9546642 157.876,74.2733377 157.876,73.396 C157.876,72.6493296 158.060331,72.0706687 158.429,71.66 C158.797669,71.2493313 159.257331,71.006667 159.808,70.932 L159.808,70.806 C159.331998,70.7126662 158.937668,70.4723353 158.625,70.085 C158.312332,69.6976647 158.156,69.1680034 158.156,68.496 C158.156,67.6746626 158.393998,67.0633353 158.87,66.662 C159.346002,66.2606647 160.013329,66.06 160.872,66.06 C161.730671,66.06 162.397998,66.2606647 162.874,66.662 C163.350002,67.0633353 163.588,67.6746626 163.588,68.496 C163.588,69.1680034 163.431668,69.6976647 163.119,70.085 C162.806332,70.4723353 162.412002,70.7126662 161.936,70.806 L161.936,70.932 C162.486669,71.006667 162.946331,71.2493313 163.315,71.66 C163.683669,72.0706687 163.868,72.6493296 163.868,73.396 C163.868,74.2733377 163.611336,74.9546642 163.098,75.44 C162.584664,75.9253358 161.842672,76.168 160.872,76.168 Z M160.872,75.454 C161.544003,75.454 162.068998,75.2860017 162.447,74.95 C162.825002,74.6139983 163.014,74.1426697 163.014,73.536 L163.014,73.116 C163.014,72.5093303 162.825002,72.0380017 162.447,71.702 C162.068998,71.3659983 161.544003,71.198 160.872,71.198 C160.199997,71.198 159.675002,71.3659983 159.297,71.702 C158.918998,72.0380017 158.73,72.5093303 158.73,73.116 L158.73,73.536 C158.73,74.1426697 158.918998,74.6139983 159.297,74.95 C159.675002,75.2860017 160.199997,75.454 160.872,75.454 Z M160.872,70.526 C161.47867,70.526 161.942998,70.3790015 162.265,70.085 C162.587002,69.7909985 162.748,69.3686694 162.748,68.818 L162.748,68.468 C162.748,67.9173306 162.587002,67.4950015 162.265,67.201 C161.942998,66.9069985 161.47867,66.76 160.872,66.76 C160.26533,66.76 159.801002,66.9069985 159.479,67.201 C159.156998,67.4950015 158.996,67.9173306 158.996,68.468 L158.996,68.818 C158.996,69.3686694 159.156998,69.7909985 159.479,70.085 C159.801002,70.3790015 160.26533,70.526 160.872,70.526 Z" id="Autoroute138" fill="#2C52FF" fill-rule="nonzero" transform="translate(118.095000, 71.114000) rotate(-1.000000) translate(-118.095000, -71.114000) "></path>
                    <path d="M109.044,420 L108.232,420 L108.232,410.228 L111.788,410.228 C113.318674,410.228 114.084,411.133324 114.084,412.944 C114.084,414.605342 113.440006,415.505999 112.152,415.646 L114.308,420 L113.412,420 L111.354,415.66 L109.044,415.66 L109.044,420 Z M111.76,414.974 C112.730672,414.974 113.216,414.451339 113.216,413.406 L113.216,412.51 C113.216,411.464661 112.730672,410.942 111.76,410.942 L109.044,410.942 L109.044,414.974 L111.76,414.974 Z M121.205333,418.866 L121.093333,418.866 C120.962666,419.276669 120.736335,419.596332 120.414333,419.825 C120.092332,420.053668 119.674669,420.168 119.161333,420.168 C118.498663,420.168 117.987668,419.955669 117.628333,419.531 C117.268998,419.106331 117.089333,418.469338 117.089333,417.62 L117.089333,412.832 L117.859333,412.832 L117.859333,417.578 C117.859333,418.18467 117.989999,418.653665 118.251333,418.985 C118.512668,419.316335 118.909331,419.482 119.441333,419.482 C119.684001,419.482 119.912666,419.444667 120.127333,419.37 C120.342001,419.295333 120.528666,419.185667 120.687333,419.041 C120.846001,418.896333 120.972,418.719001 121.065333,418.509 C121.158667,418.298999 121.205333,418.063335 121.205333,417.802 L121.205333,412.832 L121.975333,412.832 L121.975333,420 L121.205333,420 L121.205333,418.866 Z M127.500667,420.168 C127.080665,420.168 126.695668,420.095667 126.345667,419.951 C125.995665,419.806333 125.694668,419.582335 125.442667,419.279 C125.190665,418.975665 124.997001,418.588336 124.861667,418.117 C124.726333,417.645664 124.658667,417.07867 124.658667,416.416 C124.658667,415.75333 124.726333,415.186336 124.861667,414.715 C124.997001,414.243664 125.190665,413.856335 125.442667,413.553 C125.694668,413.249665 125.995665,413.025667 126.345667,412.881 C126.695668,412.736333 127.080665,412.664 127.500667,412.664 C128.350004,412.664 129.014998,412.957997 129.495667,413.546 C129.976336,414.134003 130.216667,415.067327 130.216667,416.346 L130.216667,416.556 L125.484667,416.556 L125.484667,417.046 C125.484667,417.839337 125.659665,418.443665 126.009667,418.859 C126.359668,419.274335 126.856663,419.482 127.500667,419.482 C128.032669,419.482 128.459665,419.363001 128.781667,419.125 C129.103668,418.886999 129.357999,418.530002 129.544667,418.054 L130.076667,418.418 C129.871332,418.968669 129.561002,419.397998 129.145667,419.706 C128.730331,420.014002 128.182003,420.168 127.500667,420.168 Z M127.500667,413.322 C126.856663,413.322 126.359668,413.534331 126.009667,413.959 C125.659665,414.383669 125.484667,414.992663 125.484667,415.786 L125.484667,415.968 L129.390667,415.968 L129.390667,415.786 C129.390667,414.992663 129.234335,414.383669 128.921667,413.959 C128.608998,413.534331 128.135337,413.322 127.500667,413.322 Z M141.029333,418.866 L140.903333,418.866 C140.772666,419.304669 140.544002,419.631332 140.217333,419.846 C139.890665,420.060668 139.489336,420.168 139.013333,420.168 C138.145329,420.168 137.487336,419.848337 137.039333,419.209 C136.591331,418.569663 136.367333,417.638673 136.367333,416.416 C136.367333,415.193327 136.591331,414.262337 137.039333,413.623 C137.487336,412.983663 138.145329,412.664 139.013333,412.664 C139.489336,412.664 139.890665,412.771332 140.217333,412.986 C140.544002,413.200668 140.772666,413.527331 140.903333,413.966 L141.029333,413.966 L141.029333,409.64 L141.799333,409.64 L141.799333,420 L141.029333,420 L141.029333,418.866 Z M139.209333,419.482 C139.461335,419.482 139.696999,419.444667 139.916333,419.37 C140.135668,419.295333 140.329332,419.188001 140.497333,419.048 C140.665334,418.907999 140.796,418.740001 140.889333,418.544 C140.982667,418.347999 141.029333,418.128668 141.029333,417.886 L141.029333,414.946 C141.029333,414.703332 140.982667,414.484001 140.889333,414.288 C140.796,414.091999 140.665334,413.924001 140.497333,413.784 C140.329332,413.643999 140.135668,413.536667 139.916333,413.462 C139.696999,413.387333 139.461335,413.35 139.209333,413.35 C138.555997,413.35 138.056668,413.564665 137.711333,413.994 C137.365998,414.423335 137.193333,415.020663 137.193333,415.786 L137.193333,417.046 C137.193333,417.811337 137.365998,418.408665 137.711333,418.838 C138.056668,419.267335 138.555997,419.482 139.209333,419.482 Z M149.116667,418.866 L149.004667,418.866 C148.873999,419.276669 148.647668,419.596332 148.325667,419.825 C148.003665,420.053668 147.586003,420.168 147.072667,420.168 C146.409997,420.168 145.899002,419.955669 145.539667,419.531 C145.180332,419.106331 145.000667,418.469338 145.000667,417.62 L145.000667,412.832 L145.770667,412.832 L145.770667,417.578 C145.770667,418.18467 145.901332,418.653665 146.162667,418.985 C146.424001,419.316335 146.820664,419.482 147.352667,419.482 C147.595335,419.482 147.823999,419.444667 148.038667,419.37 C148.253334,419.295333 148.439999,419.185667 148.598667,419.041 C148.757334,418.896333 148.883333,418.719001 148.976667,418.509 C149.07,418.298999 149.116667,418.063335 149.116667,417.802 L149.116667,412.832 L149.886667,412.832 L149.886667,420 L149.116667,420 L149.116667,418.866 Z M157.059333,420 L157.059333,410.228 L160.615333,410.228 C162.146008,410.228 162.911333,411.137991 162.911333,412.958 C162.911333,414.778009 162.146008,415.688 160.615333,415.688 L157.871333,415.688 L157.871333,420 L157.059333,420 Z M157.871333,414.974 L160.587333,414.974 C161.091336,414.974 161.462332,414.836335 161.700333,414.561 C161.938335,414.285665 162.057333,413.900669 162.057333,413.406 L162.057333,412.51 C162.057333,412.015331 161.938335,411.630335 161.700333,411.355 C161.462332,411.079665 161.091336,410.942 160.587333,410.942 L157.871333,410.942 L157.871333,414.974 Z M169.794667,420 C169.281331,420 169.024667,419.748003 169.024667,419.244 L169.024667,418.852 L168.912667,418.852 C168.791333,419.272002 168.567335,419.596332 168.240667,419.825 C167.913998,420.053668 167.503336,420.168 167.008667,420.168 C166.336663,420.168 165.823335,419.997668 165.468667,419.657 C165.113998,419.316332 164.936667,418.80067 164.936667,418.11 C164.936667,417.428663 165.146665,416.906002 165.566667,416.542 C165.986669,416.177998 166.621329,415.996 167.470667,415.996 L169.024667,415.996 L169.024667,415.044 C169.024667,414.43733 168.894001,414.003335 168.632667,413.742 C168.371332,413.480665 167.965336,413.35 167.414667,413.35 C166.994665,413.35 166.644668,413.445666 166.364667,413.637 C166.084665,413.828334 165.856001,414.119998 165.678667,414.512 L165.174667,414.078 C165.361334,413.657998 165.643665,413.317335 166.021667,413.056 C166.399669,412.794665 166.87333,412.664 167.442667,412.664 C168.217337,412.664 168.802998,412.855331 169.199667,413.238 C169.596335,413.620669 169.794667,414.194663 169.794667,414.96 L169.794667,419.328 L170.648667,419.328 L170.648667,420 L169.794667,420 Z M167.176667,419.496 C167.438001,419.496 167.680666,419.456334 167.904667,419.377 C168.128668,419.297666 168.324666,419.183334 168.492667,419.034 C168.660668,418.884666 168.791333,418.709668 168.884667,418.509 C168.978,418.308332 169.024667,418.086668 169.024667,417.844 L169.024667,416.584 L167.456667,416.584 C166.896664,416.584 166.469668,416.693666 166.175667,416.913 C165.881665,417.132334 165.734667,417.437998 165.734667,417.83 L165.734667,418.278 C165.734667,418.679335 165.867665,418.982666 166.133667,419.188 C166.399668,419.393334 166.747331,419.496 167.176667,419.496 Z M173.08,420 L173.08,412.832 L173.85,412.832 L173.85,414.134 L173.962,414.134 C174.092667,413.732665 174.311998,413.415334 174.62,413.182 C174.928002,412.948666 175.319998,412.832 175.796,412.832 L176.244,412.832 L176.244,413.588 L175.6,413.588 C175.086664,413.588 174.666668,413.727999 174.34,414.008 C174.013332,414.288001 173.85,414.675331 173.85,415.17 L173.85,420 L173.08,420 Z M180.789333,420.168 C179.911996,420.168 179.228336,419.874003 178.738333,419.286 C178.248331,418.697997 178.003333,417.74134 178.003333,416.416 C178.003333,415.09066 178.248331,414.134003 178.738333,413.546 C179.228336,412.957997 179.911996,412.664 180.789333,412.664 C181.405336,412.664 181.906998,412.803999 182.294333,413.084 C182.681669,413.364001 182.968666,413.737331 183.155333,414.204 L182.511333,414.526 C182.361999,414.133998 182.152001,413.840001 181.881333,413.644 C181.610665,413.447999 181.246669,413.35 180.789333,413.35 C180.135997,413.35 179.646002,413.557665 179.319333,413.973 C178.992665,414.388335 178.829333,414.992663 178.829333,415.786 L178.829333,417.046 C178.829333,417.839337 178.992665,418.443665 179.319333,418.859 C179.646002,419.274335 180.135997,419.482 180.789333,419.482 C181.265336,419.482 181.652665,419.379334 181.951333,419.174 C182.250001,418.968666 182.487999,418.660669 182.665333,418.25 L183.239333,418.642 C183.024666,419.108669 182.716669,419.479665 182.315333,419.755 C181.913998,420.030335 181.405336,420.168 180.789333,420.168 Z M110.99,428.942 L110.99,438 L110.178,438 L110.178,428.942 L107.266,428.942 L107.266,428.228 L113.902,428.228 L113.902,428.942 L110.99,428.942 Z M117.705333,438.168 C117.285331,438.168 116.900335,438.095667 116.550333,437.951 C116.200332,437.806333 115.899335,437.582335 115.647333,437.279 C115.395332,436.975665 115.201667,436.588336 115.066333,436.117 C114.930999,435.645664 114.863333,435.07867 114.863333,434.416 C114.863333,433.75333 114.930999,433.186336 115.066333,432.715 C115.201667,432.243664 115.395332,431.856335 115.647333,431.553 C115.899335,431.249665 116.200332,431.025667 116.550333,430.881 C116.900335,430.736333 117.285331,430.664 117.705333,430.664 C118.554671,430.664 119.219664,430.957997 119.700333,431.546 C120.181002,432.134003 120.421333,433.067327 120.421333,434.346 L120.421333,434.556 L115.689333,434.556 L115.689333,435.046 C115.689333,435.839337 115.864332,436.443665 116.214333,436.859 C116.564335,437.274335 117.06133,437.482 117.705333,437.482 C118.237336,437.482 118.664332,437.363001 118.986333,437.125 C119.308335,436.886999 119.562666,436.530002 119.749333,436.054 L120.281333,436.418 C120.075999,436.968669 119.765669,437.397998 119.350333,437.706 C118.934998,438.014002 118.38667,438.168 117.705333,438.168 Z M117.705333,431.322 C117.06133,431.322 116.564335,431.534331 116.214333,431.959 C115.864332,432.383669 115.689333,432.992663 115.689333,433.786 L115.689333,433.968 L119.595333,433.968 L119.595333,433.786 C119.595333,432.992663 119.439002,432.383669 119.126333,431.959 C118.813665,431.534331 118.340003,431.322 117.705333,431.322 Z M125.428667,438.168 C124.551329,438.168 123.867669,437.874003 123.377667,437.286 C122.887664,436.697997 122.642667,435.74134 122.642667,434.416 C122.642667,433.09066 122.887664,432.134003 123.377667,431.546 C123.867669,430.957997 124.551329,430.664 125.428667,430.664 C126.04467,430.664 126.546331,430.803999 126.933667,431.084 C127.321002,431.364001 127.607999,431.737331 127.794667,432.204 L127.150667,432.526 C127.001333,432.133998 126.791335,431.840001 126.520667,431.644 C126.249999,431.447999 125.886002,431.35 125.428667,431.35 C124.77533,431.35 124.285335,431.557665 123.958667,431.973 C123.631998,432.388335 123.468667,432.992663 123.468667,433.786 L123.468667,435.046 C123.468667,435.839337 123.631998,436.443665 123.958667,436.859 C124.285335,437.274335 124.77533,437.482 125.428667,437.482 C125.904669,437.482 126.291999,437.379334 126.590667,437.174 C126.889335,436.968666 127.127332,436.660669 127.304667,436.25 L127.878667,436.642 C127.663999,437.108669 127.356002,437.479665 126.954667,437.755 C126.553331,438.030335 126.04467,438.168 125.428667,438.168 Z M130.366,427.64 L131.136,427.64 L131.136,431.966 L131.248,431.966 C131.378667,431.555331 131.604998,431.235668 131.927,431.007 C132.249002,430.778332 132.666664,430.664 133.18,430.664 C133.833337,430.664 134.341998,430.876331 134.706,431.301 C135.070002,431.725669 135.252,432.362662 135.252,433.212 L135.252,438 L134.482,438 L134.482,433.254 C134.482,432.64733 134.351335,432.178335 134.09,431.847 C133.828665,431.515665 133.432003,431.35 132.9,431.35 C132.657332,431.35 132.428668,431.387333 132.214,431.462 C131.999332,431.536667 131.812667,431.646333 131.654,431.791 C131.495333,431.935667 131.369334,432.112999 131.276,432.323 C131.182666,432.533001 131.136,432.768665 131.136,433.03 L131.136,438 L130.366,438 L130.366,427.64 Z M138.411333,438 L138.411333,430.832 L139.181333,430.832 L139.181333,431.966 L139.293333,431.966 C139.424001,431.555331 139.650332,431.235668 139.972333,431.007 C140.294335,430.778332 140.711997,430.664 141.225333,430.664 C141.87867,430.664 142.387332,430.876331 142.751333,431.301 C143.115335,431.725669 143.297333,432.362662 143.297333,433.212 L143.297333,438 L142.527333,438 L142.527333,433.254 C142.527333,432.64733 142.396668,432.178335 142.135333,431.847 C141.873999,431.515665 141.477336,431.35 140.945333,431.35 C140.702665,431.35 140.474001,431.387333 140.259333,431.462 C140.044666,431.536667 139.858001,431.646333 139.699333,431.791 C139.540666,431.935667 139.414667,432.112999 139.321333,432.323 C139.228,432.533001 139.181333,432.768665 139.181333,433.03 L139.181333,438 L138.411333,438 Z M148.780667,438.168 C148.360665,438.168 147.975668,438.095667 147.625667,437.951 C147.275665,437.806333 146.974668,437.582335 146.722667,437.279 C146.470665,436.975665 146.277001,436.588336 146.141667,436.117 C146.006333,435.645664 145.938667,435.07867 145.938667,434.416 C145.938667,433.75333 146.006333,433.186336 146.141667,432.715 C146.277001,432.243664 146.470665,431.856335 146.722667,431.553 C146.974668,431.249665 147.275665,431.025667 147.625667,430.881 C147.975668,430.736333 148.360665,430.664 148.780667,430.664 C149.200669,430.664 149.585665,430.736333 149.935667,430.881 C150.285668,431.025667 150.586665,431.249665 150.838667,431.553 C151.090668,431.856335 151.284333,432.243664 151.419667,432.715 C151.555001,433.186336 151.622667,433.75333 151.622667,434.416 C151.622667,435.07867 151.555001,435.645664 151.419667,436.117 C151.284333,436.588336 151.090668,436.975665 150.838667,437.279 C150.586665,437.582335 150.285668,437.806333 149.935667,437.951 C149.585665,438.095667 149.200669,438.168 148.780667,438.168 Z M148.780667,437.482 C149.42467,437.482 149.921665,437.274335 150.271667,436.859 C150.621668,436.443665 150.796667,435.839337 150.796667,435.046 L150.796667,433.786 C150.796667,432.992663 150.621668,432.388335 150.271667,431.973 C149.921665,431.557665 149.42467,431.35 148.780667,431.35 C148.136663,431.35 147.639668,431.557665 147.289667,431.973 C146.939665,432.388335 146.764667,432.992663 146.764667,433.786 L146.764667,435.046 C146.764667,435.839337 146.939665,436.443665 147.289667,436.859 C147.639668,437.274335 148.136663,437.482 148.780667,437.482 Z M155.174,438 C154.884665,438 154.677001,437.937001 154.551,437.811 C154.424999,437.684999 154.362,437.477335 154.362,437.188 L154.362,427.64 L155.132,427.64 L155.132,437.328 L156.098,437.328 L156.098,438 L155.174,438 Z M160.965333,438.168 C160.545331,438.168 160.160335,438.095667 159.810333,437.951 C159.460332,437.806333 159.159335,437.582335 158.907333,437.279 C158.655332,436.975665 158.461667,436.588336 158.326333,436.117 C158.190999,435.645664 158.123333,435.07867 158.123333,434.416 C158.123333,433.75333 158.190999,433.186336 158.326333,432.715 C158.461667,432.243664 158.655332,431.856335 158.907333,431.553 C159.159335,431.249665 159.460332,431.025667 159.810333,430.881 C160.160335,430.736333 160.545331,430.664 160.965333,430.664 C161.385335,430.664 161.770332,430.736333 162.120333,430.881 C162.470335,431.025667 162.771332,431.249665 163.023333,431.553 C163.275335,431.856335 163.468999,432.243664 163.604333,432.715 C163.739667,433.186336 163.807333,433.75333 163.807333,434.416 C163.807333,435.07867 163.739667,435.645664 163.604333,436.117 C163.468999,436.588336 163.275335,436.975665 163.023333,437.279 C162.771332,437.582335 162.470335,437.806333 162.120333,437.951 C161.770332,438.095667 161.385335,438.168 160.965333,438.168 Z M160.965333,437.482 C161.609337,437.482 162.106332,437.274335 162.456333,436.859 C162.806335,436.443665 162.981333,435.839337 162.981333,435.046 L162.981333,433.786 C162.981333,432.992663 162.806335,432.388335 162.456333,431.973 C162.106332,431.557665 161.609337,431.35 160.965333,431.35 C160.32133,431.35 159.824335,431.557665 159.474333,431.973 C159.124332,432.388335 158.949333,432.992663 158.949333,433.786 L158.949333,435.046 C158.949333,435.839337 159.124332,436.443665 159.474333,436.859 C159.824335,437.274335 160.32133,437.482 160.965333,437.482 Z M171.866667,438.84 C171.866667,439.596004 171.612336,440.139665 171.103667,440.471 C170.594997,440.802335 169.808672,440.968 168.744667,440.968 C167.736662,440.968 167.018002,440.811668 166.588667,440.499 C166.159331,440.186332 165.944667,439.736003 165.944667,439.148 C165.944667,438.727998 166.047332,438.401335 166.252667,438.168 C166.458001,437.934665 166.728665,437.780667 167.064667,437.706 L167.064667,437.552 C166.653998,437.374666 166.448667,437.052669 166.448667,436.586 C166.448667,436.287332 166.541999,436.030668 166.728667,435.816 C166.915334,435.601332 167.181332,435.475334 167.526667,435.438 L167.526667,435.312 C167.162665,435.134666 166.878001,434.864002 166.672667,434.5 C166.467332,434.135998 166.364667,433.674003 166.364667,433.114 C166.364667,432.301996 166.576998,431.690669 167.001667,431.28 C167.426335,430.869331 168.002663,430.664 168.730667,430.664 C169.206669,430.664 169.635998,430.766666 170.018667,430.972 L170.018667,430.552 C170.018667,430.337332 170.063,430.185667 170.151667,430.097 C170.240334,430.008333 170.391999,429.964 170.606667,429.964 L171.712667,429.964 L171.712667,430.636 L170.410667,430.636 L170.410667,431.252 C170.625334,431.457334 170.793333,431.713998 170.914667,432.022 C171.036001,432.330002 171.096667,432.693998 171.096667,433.114 C171.096667,433.926004 170.884335,434.534998 170.459667,434.941 C170.034998,435.347002 169.45867,435.55 168.730667,435.55 C168.497332,435.55 168.264001,435.526667 168.030667,435.48 C167.731999,435.554667 167.503334,435.671333 167.344667,435.83 C167.185999,435.988667 167.106667,436.175332 167.106667,436.39 C167.106667,436.604668 167.178999,436.767999 167.323667,436.88 C167.468334,436.992001 167.708665,437.048 168.044667,437.048 L169.682667,437.048 C170.466671,437.048 171.026665,437.199665 171.362667,437.503 C171.698668,437.806335 171.866667,438.251997 171.866667,438.84 Z M171.138667,438.882 C171.138667,438.517998 171.031334,438.240334 170.816667,438.049 C170.601999,437.857666 170.214669,437.762 169.654667,437.762 L167.540667,437.762 C166.952664,438.004668 166.658667,438.41533 166.658667,438.994 C166.658667,439.414002 166.796332,439.740665 167.071667,439.974 C167.347001,440.207335 167.764664,440.324 168.324667,440.324 L169.150667,440.324 C169.79467,440.324 170.286998,440.209668 170.627667,439.981 C170.968335,439.752332 171.138667,439.386003 171.138667,438.882 Z M168.730667,434.92 C169.234669,434.92 169.624332,434.787001 169.899667,434.521 C170.175001,434.254999 170.312667,433.879336 170.312667,433.394 L170.312667,432.82 C170.312667,432.334664 170.175001,431.959001 169.899667,431.693 C169.624332,431.426999 169.234669,431.294 168.730667,431.294 C168.226664,431.294 167.837001,431.426999 167.561667,431.693 C167.286332,431.959001 167.148667,432.334664 167.148667,432.82 L167.148667,433.394 C167.148667,433.879336 167.286332,434.254999 167.561667,434.521 C167.837001,434.787001 168.226664,434.92 168.730667,434.92 Z M174.536,428.858 C174.349332,428.858 174.216334,428.816 174.137,428.732 C174.057666,428.648 174.018,428.536001 174.018,428.396 L174.018,428.2 C174.018,428.059999 174.057666,427.948 174.137,427.864 C174.216334,427.78 174.349332,427.738 174.536,427.738 C174.722668,427.738 174.855666,427.78 174.935,427.864 C175.014334,427.948 175.054,428.059999 175.054,428.2 L175.054,428.396 C175.054,428.536001 175.014334,428.648 174.935,428.732 C174.855666,428.816 174.722668,428.858 174.536,428.858 Z M174.144,430.832 L174.914,430.832 L174.914,438 L174.144,438 L174.144,430.832 Z M182.329333,436.866 L182.203333,436.866 C182.072666,437.304669 181.846335,437.631332 181.524333,437.846 C181.202332,438.060668 180.803336,438.168 180.327333,438.168 C179.449996,438.168 178.787336,437.848337 178.339333,437.209 C177.891331,436.569663 177.667333,435.638673 177.667333,434.416 C177.667333,433.193327 177.891331,432.262337 178.339333,431.623 C178.787336,430.983663 179.449996,430.664 180.327333,430.664 C180.803336,430.664 181.202332,430.773666 181.524333,430.993 C181.846335,431.212334 182.072666,431.541331 182.203333,431.98 L182.329333,431.98 L182.329333,430.832 L183.099333,430.832 L183.099333,440.8 L182.329333,440.8 L182.329333,436.866 Z M180.509333,437.482 C180.761335,437.482 180.996999,437.444667 181.216333,437.37 C181.435668,437.295333 181.629332,437.188001 181.797333,437.048 C181.965334,436.907999 182.096,436.740001 182.189333,436.544 C182.282667,436.347999 182.329333,436.128668 182.329333,435.886 L182.329333,432.946 C182.329333,432.703332 182.282667,432.484001 182.189333,432.288 C182.096,432.091999 181.965334,431.924001 181.797333,431.784 C181.629332,431.643999 181.435668,431.536667 181.216333,431.462 C180.996999,431.387333 180.761335,431.35 180.509333,431.35 C179.855997,431.35 179.356668,431.564665 179.011333,431.994 C178.665998,432.423335 178.493333,433.020663 178.493333,433.786 L178.493333,435.046 C178.493333,435.811337 178.665998,436.408665 179.011333,436.838 C179.356668,437.267335 179.855997,437.482 180.509333,437.482 Z M190.430667,436.866 L190.318667,436.866 C190.187999,437.276669 189.961668,437.596332 189.639667,437.825 C189.317665,438.053668 188.900003,438.168 188.386667,438.168 C187.723997,438.168 187.213002,437.955669 186.853667,437.531 C186.494332,437.106331 186.314667,436.469338 186.314667,435.62 L186.314667,430.832 L187.084667,430.832 L187.084667,435.578 C187.084667,436.18467 187.215332,436.653665 187.476667,436.985 C187.738001,437.316335 188.134664,437.482 188.666667,437.482 C188.909335,437.482 189.137999,437.444667 189.352667,437.37 C189.567334,437.295333 189.753999,437.185667 189.912667,437.041 C190.071334,436.896333 190.197333,436.719001 190.290667,436.509 C190.384,436.298999 190.430667,436.063335 190.430667,435.802 L190.430667,430.832 L191.200667,430.832 L191.200667,438 L190.430667,438 L190.430667,436.866 Z M196.726,438.168 C196.305998,438.168 195.921002,438.095667 195.571,437.951 C195.220998,437.806333 194.920001,437.582335 194.668,437.279 C194.415999,436.975665 194.222334,436.588336 194.087,436.117 C193.951666,435.645664 193.884,435.07867 193.884,434.416 C193.884,433.75333 193.951666,433.186336 194.087,432.715 C194.222334,432.243664 194.415999,431.856335 194.668,431.553 C194.920001,431.249665 195.220998,431.025667 195.571,430.881 C195.921002,430.736333 196.305998,430.664 196.726,430.664 C197.575338,430.664 198.240331,430.957997 198.721,431.546 C199.201669,432.134003 199.442,433.067327 199.442,434.346 L199.442,434.556 L194.71,434.556 L194.71,435.046 C194.71,435.839337 194.884998,436.443665 195.235,436.859 C195.585002,437.274335 196.081997,437.482 196.726,437.482 C197.258003,437.482 197.684998,437.363001 198.007,437.125 C198.329002,436.886999 198.583332,436.530002 198.77,436.054 L199.302,436.418 C199.096666,436.968669 198.786335,437.397998 198.371,437.706 C197.955665,438.014002 197.407337,438.168 196.726,438.168 Z M196.726,431.322 C196.081997,431.322 195.585002,431.534331 195.235,431.959 C194.884998,432.383669 194.71,432.992663 194.71,433.786 L194.71,433.968 L198.616,433.968 L198.616,433.786 C198.616,432.992663 198.459668,432.383669 198.147,431.959 C197.834332,431.534331 197.36067,431.322 196.726,431.322 Z" id="RueduParcTechnologique" fill="#2C52FF" fill-rule="nonzero" transform="translate(153.354000, 425.304000) rotate(41.000000) translate(-153.354000, -425.304000) "></path>
                    <path d="M530.904254,425.110341 L529.952254,422.044341 L526.242254,422.044341 L525.304254,425.110341 L524.478254,425.110341 L527.572254,415.338341 L528.636254,415.338341 L531.730254,425.110341 L530.904254,425.110341 Z M528.594254,417.620341 L528.146254,416.052341 L528.048254,416.052341 L527.586254,417.620341 L526.438254,421.386341 L529.770254,421.386341 L528.594254,417.620341 Z M538.235587,423.976341 L538.123587,423.976341 C537.99292,424.38701 537.766589,424.706674 537.444587,424.935341 C537.122586,425.164009 536.704923,425.278341 536.191587,425.278341 C535.528917,425.278341 535.017923,425.06601 534.658587,424.641341 C534.299252,424.216673 534.119587,423.579679 534.119587,422.730341 L534.119587,417.942341 L534.889587,417.942341 L534.889587,422.688341 C534.889587,423.295011 535.020253,423.764006 535.281587,424.095341 C535.542922,424.426676 535.939585,424.592341 536.471587,424.592341 C536.714255,424.592341 536.94292,424.555008 537.157587,424.480341 C537.372255,424.405674 537.55892,424.296009 537.717587,424.151341 C537.876255,424.006674 538.002254,423.829342 538.095587,423.619341 C538.188921,423.40934 538.235587,423.173676 538.235587,422.912341 L538.235587,417.942341 L539.005587,417.942341 L539.005587,425.110341 L538.235587,425.110341 L538.235587,423.976341 Z M543.340921,425.110341 C543.051586,425.110341 542.841588,425.047342 542.710921,424.921341 C542.580253,424.795341 542.514921,424.587676 542.514921,424.298341 L542.514921,418.614341 L541.408921,418.614341 L541.408921,417.942341 L542.150921,417.942341 C542.328255,417.942341 542.44492,417.898009 542.500921,417.809341 C542.556921,417.720674 542.584921,417.587676 542.584921,417.410341 L542.584921,415.940341 L543.284921,415.940341 L543.284921,417.942341 L544.712921,417.942341 L544.712921,418.614341 L543.284921,418.614341 L543.284921,424.438341 L544.642921,424.438341 L544.642921,425.110341 L543.340921,425.110341 Z M549.650254,425.278341 C549.230252,425.278341 548.845256,425.206009 548.495254,425.061341 C548.145252,424.916674 547.844255,424.692676 547.592254,424.389341 C547.340253,424.086007 547.146588,423.698677 547.011254,423.227341 C546.87592,422.756006 546.808254,422.189011 546.808254,421.526341 C546.808254,420.863671 546.87592,420.296677 547.011254,419.825341 C547.146588,419.354006 547.340253,418.966676 547.592254,418.663341 C547.844255,418.360007 548.145252,418.136009 548.495254,417.991341 C548.845256,417.846674 549.230252,417.774341 549.650254,417.774341 C550.070256,417.774341 550.455252,417.846674 550.805254,417.991341 C551.155256,418.136009 551.456253,418.360007 551.708254,418.663341 C551.960255,418.966676 552.15392,419.354006 552.289254,419.825341 C552.424588,420.296677 552.492254,420.863671 552.492254,421.526341 C552.492254,422.189011 552.424588,422.756006 552.289254,423.227341 C552.15392,423.698677 551.960255,424.086007 551.708254,424.389341 C551.456253,424.692676 551.155256,424.916674 550.805254,425.061341 C550.455252,425.206009 550.070256,425.278341 549.650254,425.278341 Z M549.650254,424.592341 C550.294257,424.592341 550.791252,424.384677 551.141254,423.969341 C551.491256,423.554006 551.666254,422.949679 551.666254,422.156341 L551.666254,420.896341 C551.666254,420.103004 551.491256,419.498677 551.141254,419.083341 C550.791252,418.668006 550.294257,418.460341 549.650254,418.460341 C549.006251,418.460341 548.509256,418.668006 548.159254,419.083341 C547.809252,419.498677 547.634254,420.103004 547.634254,420.896341 L547.634254,422.156341 C547.634254,422.949679 547.809252,423.554006 548.159254,423.969341 C548.509256,424.384677 549.006251,424.592341 549.650254,424.592341 Z M555.231587,425.110341 L555.231587,417.942341 L556.001587,417.942341 L556.001587,419.244341 L556.113587,419.244341 C556.244255,418.843006 556.463586,418.525676 556.771587,418.292341 C557.079589,418.059007 557.471585,417.942341 557.947587,417.942341 L558.395587,417.942341 L558.395587,418.698341 L557.751587,418.698341 C557.238251,418.698341 556.818256,418.83834 556.491587,419.118341 C556.164919,419.398343 556.001587,419.785672 556.001587,420.280341 L556.001587,425.110341 L555.231587,425.110341 Z M562.996921,425.278341 C562.576919,425.278341 562.191922,425.206009 561.841921,425.061341 C561.491919,424.916674 561.190922,424.692676 560.938921,424.389341 C560.686919,424.086007 560.493255,423.698677 560.357921,423.227341 C560.222587,422.756006 560.154921,422.189011 560.154921,421.526341 C560.154921,420.863671 560.222587,420.296677 560.357921,419.825341 C560.493255,419.354006 560.686919,418.966676 560.938921,418.663341 C561.190922,418.360007 561.491919,418.136009 561.841921,417.991341 C562.191922,417.846674 562.576919,417.774341 562.996921,417.774341 C563.416923,417.774341 563.801919,417.846674 564.151921,417.991341 C564.501922,418.136009 564.802919,418.360007 565.054921,418.663341 C565.306922,418.966676 565.500587,419.354006 565.635921,419.825341 C565.771255,420.296677 565.838921,420.863671 565.838921,421.526341 C565.838921,422.189011 565.771255,422.756006 565.635921,423.227341 C565.500587,423.698677 565.306922,424.086007 565.054921,424.389341 C564.802919,424.692676 564.501922,424.916674 564.151921,425.061341 C563.801919,425.206009 563.416923,425.278341 562.996921,425.278341 Z M562.996921,424.592341 C563.640924,424.592341 564.137919,424.384677 564.487921,423.969341 C564.837922,423.554006 565.012921,422.949679 565.012921,422.156341 L565.012921,420.896341 C565.012921,420.103004 564.837922,419.498677 564.487921,419.083341 C564.137919,418.668006 563.640924,418.460341 562.996921,418.460341 C562.352917,418.460341 561.855922,418.668006 561.505921,419.083341 C561.155919,419.498677 560.980921,420.103004 560.980921,420.896341 L560.980921,422.156341 C560.980921,422.949679 561.155919,423.554006 561.505921,423.969341 C561.855922,424.384677 562.352917,424.592341 562.996921,424.592341 Z M572.652254,423.976341 L572.540254,423.976341 C572.409587,424.38701 572.183256,424.706674 571.861254,424.935341 C571.539252,425.164009 571.12159,425.278341 570.608254,425.278341 C569.945584,425.278341 569.434589,425.06601 569.075254,424.641341 C568.715919,424.216673 568.536254,423.579679 568.536254,422.730341 L568.536254,417.942341 L569.306254,417.942341 L569.306254,422.688341 C569.306254,423.295011 569.436919,423.764006 569.698254,424.095341 C569.959589,424.426676 570.356251,424.592341 570.888254,424.592341 C571.130922,424.592341 571.359586,424.555008 571.574254,424.480341 C571.788922,424.405674 571.975587,424.296009 572.134254,424.151341 C572.292922,424.006674 572.41892,423.829342 572.512254,423.619341 C572.605588,423.40934 572.652254,423.173676 572.652254,422.912341 L572.652254,417.942341 L573.422254,417.942341 L573.422254,425.110341 L572.652254,425.110341 L572.652254,423.976341 Z M577.757587,425.110341 C577.468253,425.110341 577.258255,425.047342 577.127587,424.921341 C576.99692,424.795341 576.931587,424.587676 576.931587,424.298341 L576.931587,418.614341 L575.825587,418.614341 L575.825587,417.942341 L576.567587,417.942341 C576.744922,417.942341 576.861587,417.898009 576.917587,417.809341 C576.973588,417.720674 577.001587,417.587676 577.001587,417.410341 L577.001587,415.940341 L577.701587,415.940341 L577.701587,417.942341 L579.129587,417.942341 L579.129587,418.614341 L577.701587,418.614341 L577.701587,424.438341 L579.059587,424.438341 L579.059587,425.110341 L577.757587,425.110341 Z M584.066921,425.278341 C583.646919,425.278341 583.261922,425.206009 582.911921,425.061341 C582.561919,424.916674 582.260922,424.692676 582.008921,424.389341 C581.756919,424.086007 581.563255,423.698677 581.427921,423.227341 C581.292587,422.756006 581.224921,422.189011 581.224921,421.526341 C581.224921,420.863671 581.292587,420.296677 581.427921,419.825341 C581.563255,419.354006 581.756919,418.966676 582.008921,418.663341 C582.260922,418.360007 582.561919,418.136009 582.911921,417.991341 C583.261922,417.846674 583.646919,417.774341 584.066921,417.774341 C584.916258,417.774341 585.581252,418.068339 586.061921,418.656341 C586.54259,419.244344 586.782921,420.177668 586.782921,421.456341 L586.782921,421.666341 L582.050921,421.666341 L582.050921,422.156341 C582.050921,422.949679 582.225919,423.554006 582.575921,423.969341 C582.925922,424.384677 583.422917,424.592341 584.066921,424.592341 C584.598923,424.592341 585.025919,424.473343 585.347921,424.235341 C585.669922,423.99734 585.924253,423.640344 586.110921,423.164341 L586.642921,423.528341 C586.437586,424.079011 586.127256,424.50834 585.711921,424.816341 C585.296585,425.124343 584.748257,425.278341 584.066921,425.278341 Z M584.066921,418.432341 C583.422917,418.432341 582.925922,418.644673 582.575921,419.069341 C582.225919,419.49401 582.050921,420.103004 582.050921,420.896341 L582.050921,421.078341 L585.956921,421.078341 L585.956921,420.896341 C585.956921,420.103004 585.800589,419.49401 585.487921,419.069341 C585.175252,418.644673 584.701591,418.432341 584.066921,418.432341 Z M597.133587,425.110341 L597.133587,423.066341 L592.779587,423.066341 L592.779587,422.352341 L596.699587,415.338341 L597.903587,415.338341 L597.903587,422.394341 L599.247587,422.394341 L599.247587,423.066341 L597.903587,423.066341 L597.903587,425.110341 L597.133587,425.110341 Z M593.535587,422.394341 L597.133587,422.394341 L597.133587,415.996341 L597.021587,415.996341 L593.535587,422.394341 Z M605.626921,425.110341 L605.626921,423.066341 L601.272921,423.066341 L601.272921,422.352341 L605.192921,415.338341 L606.396921,415.338341 L606.396921,422.394341 L607.740921,422.394341 L607.740921,423.066341 L606.396921,423.066341 L606.396921,425.110341 L605.626921,425.110341 Z M602.028921,422.394341 L605.626921,422.394341 L605.626921,415.996341 L605.514921,415.996341 L602.028921,422.394341 Z M613.028254,425.278341 C612.533585,425.278341 612.099589,425.189676 611.726254,425.012341 C611.352919,424.835007 611.042589,424.54801 610.795254,424.151341 C610.547919,423.754673 610.361255,423.234345 610.235254,422.590341 C610.109253,421.946338 610.046254,421.157679 610.046254,420.224341 C610.046254,419.291003 610.109253,418.504678 610.235254,417.865341 C610.361255,417.226005 610.547919,416.705677 610.795254,416.304341 C611.042589,415.903006 611.352919,415.613676 611.726254,415.436341 C612.099589,415.259007 612.533585,415.170341 613.028254,415.170341 C613.522923,415.170341 613.956919,415.259007 614.330254,415.436341 C614.703589,415.613676 615.013919,415.903006 615.261254,416.304341 C615.508589,416.705677 615.695253,417.226005 615.821254,417.865341 C615.947255,418.504678 616.010254,419.291003 616.010254,420.224341 C616.010254,421.157679 615.947255,421.946338 615.821254,422.590341 C615.695253,423.234345 615.508589,423.754673 615.261254,424.151341 C615.013919,424.54801 614.703589,424.835007 614.330254,425.012341 C613.956919,425.189676 613.522923,425.278341 613.028254,425.278341 Z M613.028254,424.578341 C613.765591,424.578341 614.306919,424.300678 614.652254,423.745341 C614.997589,423.190005 615.170254,422.371014 615.170254,421.288341 L615.170254,419.160341 C615.170254,418.077669 614.997589,417.258678 614.652254,416.703341 C614.306919,416.148005 613.765591,415.870341 613.028254,415.870341 C612.290917,415.870341 611.749589,416.148005 611.404254,416.703341 C611.058919,417.258678 610.886254,418.077669 610.886254,419.160341 L610.886254,421.288341 C610.886254,422.371014 611.058919,423.190005 611.404254,423.745341 C611.749589,424.300678 612.290917,424.578341 613.028254,424.578341 Z" id="Autoroute440" fill="#2C52FF" fill-rule="nonzero" transform="translate(570.244254, 420.224341) rotate(-5.000000) translate(-570.244254, -420.224341) "></path>
                    <path d="M24.2672772,101.638433 L41.8102051,101.638433 C57.4431996,106.534962 68.3586663,113.477171 74.5566052,122.46506 C80.7545441,131.45295 125.865542,178.036518 209.889599,262.215766 L240.761378,237.42751 L256.536797,242.097265 L288.102328,209 L305.025231,226.662854 L327.659744,209 L246.303224,122.46506 L223.146486,140.519287 L223.146486,134.449488 L200.778435,118.713755 L209.889599,101.638433 L182.848345,46 L153.5,23 L145.997654,12.0696234" id="Path-14" stroke="#2C52FF" stroke-width="3" stroke-linecap="round" stroke-linejoin="round"></path>
                    <polyline id="Path-15" stroke="#2C52FF" stroke-width="3" points="34 102.005672 139.790786 97.4449182 160.899309 118.713755"></polyline>
                    <polyline id="Path-16" stroke="#2C52FF" stroke-width="3" points="19.465481 221.317189 40.1188336 228.65681 112.238622 213.687914 137.051164 188.962162"></polyline>
                    <polyline id="Path-17" stroke="#2C52FF" stroke-width="3" stroke-linecap="round" stroke-linejoin="round" points="301.769277 51.0712952 346.957381 97.4449182 361.307583 85.2403368 327.659744 54.7884285 433.54931 150.015184"></polyline>
                    <polyline id="Path-18" stroke="#2C52FF" stroke-width="3" stroke-linecap="round" stroke-linejoin="round" points="382.55658 103.967217 413.761416 71.4474122 475.165337 77.5546603 468.752839 42.9633871 495.706992 2.26503695e-14"></polyline>
                    <polyline id="Path-19" stroke="#2C52FF" stroke-width="3" points="561.67716 71.4474122 561.67716 103.967217 650.835383 202.911106"></polyline>
                    <path d="M507.696091,100.54324 L599.5,211.5" id="Path-20" stroke="#2C52FF" stroke-width="3"></path>
                    <path d="M388.89059,264.821454 C418.577641,271.677454 428.473325,284.423278 418.577641,303.058925 C408.681958,321.694572 395.252251,350.615415 378.288523,389.821454" id="Path-21" stroke="#2C52FF" stroke-width="3"></path>
                    <path d="M422.288523,284.569966 L618.652779,257.955008 C648.668384,255.37061 663.676187,264.242263 663.676187,284.569966" id="Path-22" stroke="#2C52FF" stroke-width="3" stroke-linecap="round" stroke-linejoin="round"></path>
                    <polyline id="Path-23" stroke="#2C52FF" stroke-width="3" stroke-linecap="round" stroke-linejoin="round" points="523.636321 271.043854 528.700045 314.409336 536.311844 379.596401"></polyline>
                </g>
            </g>
            <g id="iconfinder_map-pin_2561463" stroke-linecap="round" stroke-linejoin="round" transform="translate(399.000000, 158.000000)" stroke="#FF4769" stroke-width="7">
                <path d="M69,34.772727 C69,61.8181817 34.5,85 34.5,85 C34.5,85 0,61.8181817 0,34.772727 C0,15.5682801 15.4461763,0 34.5,0 C53.5538237,0 69,15.5682801 69,34.772727 L69,34.772727 Z" id="Path" style="mix-blend-mode: multiply;"></path>
                <circle id="Oval" style="mix-blend-mode: multiply;" cx="33.5" cy="35.5" r="11.5"></circle>
            </g>
            <g id="iconfinder_map-pin_2561463-copy" stroke-linecap="round" stroke-linejoin="round" transform="translate(177.000000, 346.000000)" stroke="#FF4769" stroke-width="7">
                <path d="M69,34.772727 C69,61.8181817 34.5,85 34.5,85 C34.5,85 0,61.8181817 0,34.772727 C0,15.5682801 15.4461763,0 34.5,0 C53.5538237,0 69,15.5682801 69,34.772727 L69,34.772727 Z" id="Path" style="mix-blend-mode: multiply;"></path>
                <circle id="Oval" style="mix-blend-mode: multiply;" cx="33.5" cy="35.5" r="11.5"></circle>
            </g>
            <g id="iconfinder_map-pin_2561463-copy-2" stroke-linecap="round" stroke-linejoin="round" transform="translate(150.000000, 85.000000)" stroke="#FF4769" stroke-width="7">
                <path d="M69,34.772727 C69,61.8181817 34.5,85 34.5,85 C34.5,85 0,61.8181817 0,34.772727 C0,15.5682801 15.4461763,0 34.5,0 C53.5538237,0 69,15.5682801 69,34.772727 L69,34.772727 Z" id="Path" style="mix-blend-mode: multiply;"></path>
                <circle id="Oval" style="mix-blend-mode: multiply;" cx="33.5" cy="35.5" r="11.5"></circle>
            </g>
            <g id="iconfinder_map-pin_2561463-copy-3" stroke-linecap="round" stroke-linejoin="round" transform="translate(468.000000, 361.000000)" stroke="#FF4769" stroke-width="7">
                <path d="M69,34.772727 C69,61.8181817 34.5,85 34.5,85 C34.5,85 0,61.8181817 0,34.772727 C0,15.5682801 15.4461763,0 34.5,0 C53.5538237,0 69,15.5682801 69,34.772727 L69,34.772727 Z" id="Path" style="mix-blend-mode: multiply;"></path>
                <circle id="Oval" style="mix-blend-mode: multiply;" cx="33.5" cy="35.5" r="11.5"></circle>
            </g>
        </g>
    </g>
</svg>