<?xml version="1.0" encoding="UTF-8"?>
<svg width="124px" height="71px" viewBox="0 0 124 71" version="1.1" xmlns="http://www.w3.org/2000/svg" xmlns:xlink="http://www.w3.org/1999/xlink">
    <!-- Generator: Sketch 53.2 (72643) - https://sketchapp.com -->
    <title>icone_masterCard</title>
    <desc>Created with Sketch.</desc>
    <defs>
        <rect id="path-1" x="0" y="0" width="125" height="71.4285714"></rect>
    </defs>
    <g id="Page-1" stroke="none" stroke-width="1" fill="none" fill-rule="evenodd">
        <g id="Mobile" transform="translate(-26.000000, -52.000000)">
            <g id="icone_masterCard" transform="translate(25.000000, 52.000000)">
                <mask id="mask-2" fill="white">
                    <use xlink:href="#path-1"></use>
                </mask>
                <g id="Mask" fill-rule="nonzero"></g>
                <g mask="url(#mask-2)">
                    <g transform="translate(1.785714, 0.000000)">
                        <g id="Group" stroke-width="1" fill="none">
                            <polygon id="Path" fill="#F7A826" points="86.0915263 70.6613785 87.9912736 70.6132648 89.8646732 70.4824556 91.7024259 70.2565467 93.5270047 69.9468147 95.3016004 69.5536354 97.0517857 69.0770089 98.7647743 68.5169352 100.440566 67.8858186 102.078774 67.1712548 103.667773 66.3969247 105.206789 65.5387715 106.708608 64.621228 108.148433 63.6330174 109.538275 62.5842888 110.878908 61.4761698 112.157547 60.2973839 113.38659 59.0701083 114.540852 57.7834423 115.63312 56.4490386 116.663005 55.0672728 117.618497 53.6261168 118.51277 52.1481236 119.319474 50.6235203 120.064185 49.0508033 120.721715 47.4431287 121.305239 45.7982411 121.802358 44.1191477 122.211523 42.4152456 122.534282 40.6639816 122.769862 38.9010651 122.906637 37.1024392 122.955846 35.2797564 122.906637 33.4687261 122.769862 31.6821286 122.534282 29.9188362 122.211523 28.1912532 121.802358 26.4881029 121.305239 24.8199102 120.721715 23.1757744 120.064185 21.5793764 119.319474 20.0190637 118.51277 18.4940845 117.618497 17.0288716 116.663005 15.5873396 115.63312 14.205198 114.540852 12.8828227 113.38659 11.5961567 112.157547 10.3692571 110.878908 9.20174772 109.538275 8.09400464 108.148433 7.04602782 106.708608 6.05668958 105.206789 5.13952192 103.667773 4.29377305 102.078774 3.51944297 100.440566 2.80450326 98.7647743 2.17338666 97.0517857 1.61331296 95.3016004 1.13668648 93.5270047 0.74350723 91.7024259 0.433775199 89.8646732 0.20749039 87.9912736 0.076681231 86.0915263 0.0289434058 84.2049528 0.076681231 82.3307783 0.20749039 80.4938005 0.433775199 78.6812332 0.74350723 76.9070249 1.13668648 75.1564522 1.61331296 73.45625 2.17338666 71.7808457 2.80450326 70.1542621 3.51944297 68.5780492 4.29377305 67.039033 5.13952192 65.5496125 6.05668958 64.1097877 7.04602782 62.7195586 8.09400464 61.3917116 9.20174772 60.1134602 10.3692571 58.896816 11.5961567 57.7425539 12.8828227 56.6502864 14.205198 55.6324124 15.5873396 54.6761456 17.0288716 53.7954346 18.4940845 52.9763309 20.0190637 52.2432446 21.5793764 51.5857143 23.1757744 51.0149764 24.8199102 50.5182446 26.4881029 50.1086927 28.1912532 49.7859333 29.9188362 49.5503538 31.6821286 49.4139656 33.4687261 49.3643699 35.2797564 49.4139656 37.1024392 49.5503538 38.9010651 49.7859333 40.6639816 50.1086927 42.4152456 50.5182446 44.1191477 51.0149764 45.7982411 51.5857143 47.4431287 52.2432446 49.0508033 52.9763309 50.6235203 53.7954346 52.1481236 54.6761456 53.6261168 55.6324124 55.0672728 56.6502864 56.4490386 57.7425539 57.7834423 58.896816 59.0701083 60.1134602 60.2973839 61.3917116 61.4761698 62.7195586 62.5842888 64.1097877 63.6330174 65.5496125 64.621228 67.039033 65.5387715 68.5780492 66.3969247 70.1542621 67.1712548 71.7808457 67.8858186 73.45625 68.5169352 75.1564522 69.0770089 76.9070249 69.5536354 78.6812332 69.9468147 80.4938005 70.2565467 82.3307783 70.4824556 84.2049528 70.6132648"></polygon>
                            <polygon id="Path" fill="#ED1C2E" points="36.8643194 70.6613785 38.7512803 70.6132648 40.6254549 70.4824556 42.4628201 70.2565467 44.275 69.9468147 46.0499832 69.5536354 47.7993935 69.0770089 49.5003706 68.5169352 51.1761624 67.8858186 52.8015836 67.1712548 54.378184 66.3969247 55.9175876 65.5387715 57.4073956 64.621228 58.8472204 63.6330174 60.237062 62.5842888 61.564909 61.4761698 62.8439353 60.2973839 64.0605795 59.0701083 65.2144542 57.7834423 66.3067217 56.4490386 67.3245957 55.0672728 68.2804751 53.6261168 69.1615735 52.1481236 69.9806772 50.6235203 70.7129885 49.0508033 71.3712938 47.4431287 71.9416442 45.7982411 72.4379885 44.1191477 72.8483154 42.4152456 73.1710748 40.6639816 73.4062668 38.9010651 73.5434299 37.1024392 73.5926381 35.2797564 73.5434299 33.4687261 73.4062668 31.6821286 73.1710748 29.9188362 72.8483154 28.1912532 72.4379885 26.4881029 71.9416442 24.8199102 71.3712938 23.1757744 70.7129885 21.5793764 69.9806772 20.0190637 69.1615735 18.4940845 68.2804751 17.0288716 67.3245957 15.5873396 66.3067217 14.205198 65.2144542 12.8828227 64.0605795 11.5961567 62.8439353 10.3692571 61.564909 9.20174772 60.237062 8.09400464 58.8472204 7.04602782 57.4073956 6.05668958 55.9175876 5.13952192 54.378184 4.29377305 52.8015836 3.51944297 51.1761624 2.80450326 49.5003706 2.17338666 47.7993935 1.61331296 46.0499832 1.13668648 44.275 0.74350723 42.4628201 0.433775199 40.6254549 0.20749039 38.7512803 0.076681231 36.8643194 0.0289434058 34.966122 0.076681231 33.0919474 0.20749039 31.2545822 0.433775199 29.4296159 0.74350723 27.6550202 1.13668648 25.9048349 1.61331296 24.1918464 2.17338666 22.5160546 2.80450326 20.8782345 3.51944297 19.2892352 4.29377305 17.7498315 5.13952192 16.2483996 6.05668958 14.8077999 7.04602782 13.4179582 8.09400464 12.0777123 9.20174772 10.7994609 10.3692571 9.57003032 11.5961567 8.41538073 12.8828227 7.32388814 14.205198 6.2940027 15.5873396 5.33773585 17.0288716 4.44385108 18.4940845 3.63637129 20.0190637 2.89243598 21.5793764 2.23490566 23.1757744 1.65099394 24.8199102 1.1546496 26.4881029 0.745097709 28.1912532 0.422725741 29.9188362 0.186371294 31.6821286 0.0503706199 33.4687261 0 35.2797564 0.0503706199 37.1024392 0.186371294 38.9010651 0.422725741 40.6639816 0.745097709 42.4152456 1.1546496 44.1191477 1.65099394 45.7982411 2.23490566 47.4431287 2.89243598 49.0508033 3.63637129 50.6235203 4.44385108 52.1481236 5.33773585 53.6261168 6.2940027 55.0672728 7.32388814 56.4490386 8.41538073 57.7834423 9.57003032 59.0701083 10.7994609 60.2973839 12.0777123 61.4761698 13.4179582 62.5842888 14.8077999 63.6330174 16.2483996 64.621228 17.7498315 65.5387715 19.2892352 66.3969247 20.8782345 67.1712548 22.5160546 67.8858186 24.1918464 68.5169352 25.9048349 69.0770089 27.6550202 69.5536354 29.4296159 69.9468147 31.2545822 70.2565467 33.0919474 70.4824556 34.966122 70.6132648"></polygon>
                            <polygon id="Path" fill="#F7A826" points="57.1710411 13.5740814 76.7206536 13.5740814 76.7206536 11.655923 58.8592318 11.655923"></polygon>
                            <polygon id="Path" fill="#F7A826" points="54.2421833 17.8389111 76.7206536 17.8389111 76.7206536 15.9207526 55.4208558 15.9207526"></polygon>
                            <polygon id="Path" fill="#F7A826" points="52.0572608 22.0917123 76.7206536 22.0917123 76.7206536 20.1735539 52.9263477 20.1735539"></polygon>
                            <polygon id="Path" fill="#F7A826" points="50.5554414 26.3561661 76.7206536 26.3561661 76.7206536 24.4383835 51.1761624 24.4383835"></polygon>
                            <polygon id="Path" fill="#F7A826" points="51.4245283 46.9665022 76.7830357 46.9665022 76.7830357 45.0483438 50.8038073 45.0483438"></polygon>
                            <polygon id="Path" fill="#F7A826" points="53.2987028 51.230956 76.7830357 51.230956 76.7830357 49.3135493 52.3680088 49.3135493"></polygon>
                            <polygon id="Path" fill="#F7A826" points="55.9299865 55.484509 76.7830357 55.484509 76.7830357 53.5663505 54.6761456 53.5663505"></polygon>
                            <polygon id="Path" fill="#F7A826" points="59.5551213 59.7489627 76.7830357 59.7489627 76.7830357 57.8191517 57.8041611 57.8191517"></polygon>
                            <polygon id="Path" fill="#F7A826" points="49.674343 30.6100949 76.7206536 30.6100949 76.7206536 28.6915606 50.0587096 28.6915606"></polygon>
                            <polygon id="Path" fill="#F7A826" points="66.1579346 42.713701 76.4726752 42.713701 76.4726752 40.7955426 66.5299023 40.7955426"></polygon>
                            <polygon id="Path" fill="#F7A826" points="66.9770384 38.4605239 76.4726752 38.4605239 76.4726752 36.530337 67.349781 36.530337"></polygon>
                            <polygon id="Path" fill="#F7A826" points="48.9916274 36.530337 51.6728942 36.530337 51.6728942 38.4605239 49.116004 38.4605239"></polygon>
                            <polygon id="Path" fill="#FFFFFF" points="43.9898248 34.2073468 43.8150775 34.1956943 43.6418801 34.1716374 43.4803066 34.1475805 43.3191206 34.1242755 43.1699461 34.1005945 43.0091476 34.0765376 42.8471867 34.0524808 42.6739892 34.0287998 42.5000168 34.004743 42.3016341 33.9927145 42.0784535 33.9814379 41.8424865 33.9690336 41.5817217 33.9690336 41.296159 33.9814379 40.9733996 34.004743 40.6138309 34.0287998 40.36469 34.0645092 40.129498 34.1005945 39.9183288 34.1716374 39.7319575 34.2434321 39.5583726 34.3265034 39.3971867 34.4219791 39.2724225 34.5411357 39.1604447 34.6482639 39.0864387 34.779073 39.0248315 34.9102581 38.9996462 35.0534716 38.9996462 35.196685 39.036843 35.3511752 39.0864387 35.5056653 39.1867925 35.6609072 39.3096193 35.8157732 39.5583726 36.0416821 39.8563342 36.2209809 40.203504 36.375471 40.5758592 36.5066561 40.9733996 36.6254368 41.382564 36.7569977 41.7921159 36.8998353 42.1900438 37.0550772 42.5623989 37.2569293 42.9095687 37.5072709 43.2195418 37.8053504 43.4803066 38.1744728 43.6794643 38.6270425 43.8034535 39.1638111 43.8530492 39.8065802 43.8034535 40.5568534 43.7162736 41.1169271 43.5674865 41.6052061 43.3683288 42.0581517 43.1207379 42.450955 42.8351752 42.7967723 42.5124158 43.0941 42.164471 43.356846 41.7801044 43.5831308 41.382564 43.7613019 40.9733996 43.9165438 40.5510613 44.0353246 40.1170991 44.1308002 39.6947608 44.202219 39.2852089 44.2383043 38.875657 44.2619853 38.4905155 44.2740137 37.9565869 44.2740137 37.4606301 44.2619853 37.0262803 44.2619853 36.6167284 44.2499568 36.2443733 44.2383043 35.9096024 44.2142474 35.6116408 44.1905665 35.3253032 44.1548571 35.0649259 44.1308002 34.8289589 44.0834383 34.5937668 44.0477289 34.3818228 43.9879626 34.1714286 43.9406007 33.9722709 43.8691819 33.7742756 43.7977631 33.562719 43.7255925 34.1214454 41.093622 34.2338106 41.1169271 34.3701988 41.1526365 34.5433962 41.2007502 34.7545654 41.2481122 34.9781334 41.2954741 35.2264993 41.3435878 35.5000505 41.4026023 35.7976247 41.450716 36.1079852 41.498078 36.4307446 41.5454399 36.765903 41.5819011 37.1134602 41.6176105 37.473029 41.6296389 37.8329852 41.6412914 38.1929414 41.6412914 38.5528976 41.6296389 38.9132412 41.5578442 39.198029 41.4623686 39.421597 41.3311835 39.5951819 41.164665 39.7191712 40.9981464 39.8191375 40.8068192 39.8811321 40.6166197 39.9311152 40.4380727 39.9551381 40.0926313 39.8435478 39.7949277 39.6331536 39.5566144 39.3227931 39.3540106 38.950438 39.1750877 38.5157008 38.9965407 38.0313679 38.8296463 37.547035 38.6394468 37.0510782 38.4248145 36.5795317 38.1744728 36.1447945 37.8643649 35.7476415 37.4952425 35.4368935 37.0426729 35.2137129 36.5066561 35.1021226 35.8631351 35.114909 35.1008335 35.1765162 34.6362354 35.2640836 34.1956943 35.3884602 33.7904866 35.5364724 33.4093357 35.7348551 33.0518659 35.9588106 32.7421339 36.2195755 32.4444303 36.5295485 32.1824361 36.8902796 31.9561512 37.2870451 31.7655758 37.7334063 31.5862771 38.2301381 31.4554679 38.7888646 31.3483397 39.3971867 31.2648925 40.0671159 31.2171547 40.8002022 31.2051262 41.2585748 31.2051262 41.6805256 31.2171547 42.0656671 31.2291831 42.4136119 31.2412115 42.7235849 31.2648925 43.0091476 31.2889494 43.2567385 31.3126303 43.4803066 31.3363113 43.6918632 31.3603681 43.8654481 31.3957017 44.0270216 31.4197585 44.1758086 31.4434395 44.2997978 31.4674963 44.4121631 31.4791489 44.5229784 31.5032057 44.6225573 31.5152342"></polygon>
                            <polyline id="Path" stroke="#FFFFFF" stroke-width="0.216" points="43.9898248 34.2073468 43.9898248 34.2073468 43.8150775 34.1956943 43.6418801 34.1716374 43.4803066 34.1475805 43.3191206 34.1242755 43.1699461 34.1005945 43.0091476 34.0765376 42.8471867 34.0524808 42.6739892 34.0287998 42.5000168 34.004743 42.3016341 33.9927145 42.0784535 33.9814379 41.8424865 33.9690336 41.5817217 33.9690336 41.296159 33.9814379 40.9733996 34.004743 40.6138309 34.0287998 40.6138309 34.0287998 40.36469 34.0645092 40.129498 34.1005945 39.9183288 34.1716374 39.7319575 34.2434321 39.5583726 34.3265034 39.3971867 34.4219791 39.2724225 34.5411357 39.1604447 34.6482639 39.0864387 34.779073 39.0248315 34.9102581 38.9996462 35.0534716 38.9996462 35.196685 39.036843 35.3511752 39.0864387 35.5056653 39.1867925 35.6609072 39.3096193 35.8157732 39.3096193 35.8157732 39.5583726 36.0416821 39.8563342 36.2209809 40.203504 36.375471 40.5758592 36.5066561 40.9733996 36.6254368 41.382564 36.7569977 41.7921159 36.8998353 42.1900438 37.0550772 42.5623989 37.2569293 42.9095687 37.5072709 43.2195418 37.8053504 43.4803066 38.1744728 43.6794643 38.6270425 43.8034535 39.1638111 43.8530492 39.8065802 43.8034535 40.5568534 43.8034535 40.5568534 43.7162736 41.1169271 43.5674865 41.6052061 43.3683288 42.0581517 43.1207379 42.450955 42.8351752 42.7967723 42.5124158 43.0941 42.164471 43.356846 41.7801044 43.5831308 41.382564 43.7613019 40.9733996 43.9165438 40.5510613 44.0353246 40.1170991 44.1308002 39.6947608 44.202219 39.2852089 44.2383043 38.875657 44.2619853 38.4905155 44.2740137 38.4905155 44.2740137 37.9565869 44.2740137 37.4606301 44.2619853 37.0262803 44.2619853 36.6167284 44.2499568 36.2443733 44.2383043 35.9096024 44.2142474 35.6116408 44.1905665 35.3253032 44.1548571 35.0649259 44.1308002 34.8289589 44.0834383 34.5937668 44.0477289 34.3818228 43.9879626 34.1714286 43.9406007 33.9722709 43.8691819 33.7742756 43.7977631 33.562719 43.7255925 34.1214454 41.093622 34.1214454 41.093622 34.2338106 41.1169271 34.3701988 41.1526365 34.5433962 41.2007502 34.7545654 41.2481122 34.9781334 41.2954741 35.2264993 41.3435878 35.5000505 41.4026023 35.7976247 41.450716 36.1079852 41.498078 36.4307446 41.5454399 36.765903 41.5819011 37.1134602 41.6176105 37.473029 41.6296389 37.8329852 41.6412914 38.1929414 41.6412914 38.5528976 41.6296389 38.5528976 41.6296389 38.9132412 41.5578442 39.198029 41.4623686 39.421597 41.3311835 39.5951819 41.164665 39.7191712 40.9981464 39.8191375 40.8068192 39.8811321 40.6166197 39.9311152 40.4380727 39.9311152 40.4380727 39.9551381 40.0926313 39.8435478 39.7949277 39.6331536 39.5566144 39.3227931 39.3540106 38.950438 39.1750877 38.5157008 38.9965407 38.0313679 38.8296463 37.547035 38.6394468 37.0510782 38.4248145 36.5795317 38.1744728 36.1447945 37.8643649 35.7476415 37.4952425 35.4368935 37.0426729 35.2137129 36.5066561 35.1021226 35.8631351 35.114909 35.1008335 35.114909 35.1008335 35.1765162 34.6362354 35.2640836 34.1956943 35.3884602 33.7904866 35.5364724 33.4093357 35.7348551 33.0518659 35.9588106 32.7421339 36.2195755 32.4444303 36.5295485 32.1824361 36.8902796 31.9561512 37.2870451 31.7655758 37.7334063 31.5862771 38.2301381 31.4554679 38.7888646 31.3483397 39.3971867 31.2648925 40.0671159 31.2171547 40.8002022 31.2051262 40.8002022 31.2051262 41.2585748 31.2051262 41.6805256 31.2171547 42.0656671 31.2291831 42.4136119 31.2412115 42.7235849 31.2648925 43.0091476 31.2889494 43.2567385 31.3126303 43.4803066 31.3363113 43.6918632 31.3603681 43.8654481 31.3957017 44.0270216 31.4197585 44.1758086 31.4434395 44.2997978 31.4674963 44.4121631 31.4791489 44.5229784 31.5032057 44.6225573 31.5152342 43.9898248 34.2073468"></polyline>
                            <polygon id="Path" fill="#FFFFFF" points="46.931469 28.5727799 50.3694575 28.5727799 49.8603268 31.4554679 51.933659 31.4554679 51.4861354 34.1475805 49.3019879 34.0885661 48.110529 40.7357763 48.0981301 40.9737137 48.1601247 41.1763175 48.2845013 41.3311835 48.4452999 41.4623686 48.6684805 41.5454399 48.9180088 41.6176105 49.1896226 41.6649724 49.4879717 41.6882775 49.7611354 41.6766249 50.0091139 41.652944 50.2334569 41.6176105 50.4310647 41.5698726 50.5926381 41.5221348 50.7046159 41.4864254 50.7790094 41.4623686 50.8038073 41.450716 50.3694575 43.6665781 50.2826651 43.7255925 50.1954852 43.7737063 50.1086927 43.8210682 50.0215128 43.8691819 49.9351078 43.9048913 49.835529 43.9406007 49.7239387 43.9763101 49.6119609 44.0120195 49.4879717 44.0477289 49.3643699 44.071034 49.2155829 44.0950908 49.0664084 44.1191477 48.9048349 44.1428286 48.7184636 44.1665096 48.5196934 44.1905665 48.3089117 44.2142474 47.3654313 44.2142474 46.8686995 44.178538 46.4351247 44.1308002 46.0371968 44.0593814 45.7020384 43.9763101 45.4168632 43.8691819 45.1808962 43.7496494 44.9697271 43.6068118 44.8085411 43.4519458 44.6849394 43.2854272 44.597372 43.0824475 44.5353774 42.8798437 44.4981806 42.6539347 44.4857817 42.403969 44.4857817 42.141223 44.5229784 41.8679521 44.5601752 41.5698726"></polygon>
                            <polyline id="Path" stroke="#FFFFFF" stroke-width="0.216" points="46.931469 28.5727799 50.3694575 28.5727799 49.8603268 31.4554679 51.933659 31.4554679 51.4861354 34.1475805 49.3019879 34.0885661 48.110529 40.7357763 48.110529 40.7357763 48.0981301 40.9737137 48.1601247 41.1763175 48.2845013 41.3311835 48.4452999 41.4623686 48.6684805 41.5454399 48.9180088 41.6176105 49.1896226 41.6649724 49.4879717 41.6882775 49.4879717 41.6882775 49.7611354 41.6766249 50.0091139 41.652944 50.2334569 41.6176105 50.4310647 41.5698726 50.5926381 41.5221348 50.7046159 41.4864254 50.7790094 41.4623686 50.8038073 41.450716 50.3694575 43.6665781 50.3694575 43.6665781 50.2826651 43.7255925 50.1954852 43.7737063 50.1086927 43.8210682 50.0215128 43.8691819 49.9351078 43.9048913 49.835529 43.9406007 49.7239387 43.9763101 49.6119609 44.0120195 49.4879717 44.0477289 49.3643699 44.071034 49.2155829 44.0950908 49.0664084 44.1191477 48.9048349 44.1428286 48.7184636 44.1665096 48.5196934 44.1905665 48.3089117 44.2142474 47.3654313 44.2142474 47.3654313 44.2142474 46.8686995 44.178538 46.4351247 44.1308002 46.0371968 44.0593814 45.7020384 43.9763101 45.4168632 43.8691819 45.1808962 43.7496494 44.9697271 43.6068118 44.8085411 43.4519458 44.6849394 43.2854272 44.597372 43.0824475 44.5353774 42.8798437 44.4981806 42.6539347 44.4857817 42.403969 44.4857817 42.141223 44.5229784 41.8679521 44.5601752 41.5698726 46.931469 28.5727799"></polyline>
                            <polygon id="Path" fill="#FFFFFF" points="54.6761456 38.6394468 54.6385613 38.8412988 54.6273248 39.0559311 54.6517352 39.2825918 54.7013309 39.5085007 54.7881233 39.7351614 54.8877022 39.9497937 55.0237028 40.1757026 55.1724899 40.3783064 55.3464623 40.5809103 55.533221 40.7594573 55.7316038 40.9383801 55.9551718 41.0812177 56.1783524 41.2124028 56.4267183 41.319531 56.6746968 41.4026023 56.9234501 41.450716 57.2458221 41.498078 57.5561826 41.5337874 57.8785546 41.5698726 58.201314 41.5935536 58.5240735 41.6052061 58.8592318 41.6052061 59.1819912 41.5935536 59.5175371 41.5698726 59.8530829 41.5221348 60.1878538 41.4623686 60.5350236 41.3909498 60.8705694 41.2838216 61.2173518 41.1526365 61.577308 41.0097989 61.9248652 40.8192235 62.2852089 40.6166197 61.7884771 43.5470456 61.5900943 43.6425212 61.3917116 43.737621 61.1929414 43.8094156 61.0065701 43.8808344 60.8205863 43.9406007 60.621816 43.9996152 60.4230458 44.0477289 60.2118767 44.0834383 59.9890836 44.1191477 59.7411051 44.1428286 59.4803403 44.1665096 59.1943902 44.1905665 58.8724057 44.202219 58.5368598 44.202219 58.1517183 44.2142474 57.7425539 44.2142474 57.1342318 44.202219 56.5135108 44.1428286 55.8927898 44.0593814 55.2724562 43.9165438 54.6645216 43.737621 54.0802224 43.5113362 53.5222709 43.2140084 53.0011287 42.8681911 52.5167958 42.4633593 52.0944575 41.9750803 51.7352763 41.4266592 51.4369272 40.7955426 51.2253706 40.0926313 51.0893699 39.2942443 51.0521732 38.4124102 51.1145553 37.4354763 51.1637635 37.0550772 51.2385445 36.6137843 51.3369609 36.1491862 51.4745115 35.6485029 51.6608827 35.1369188 51.8840633 34.624207 52.1688511 34.1005945 52.5167958 33.5999112 52.9135613 33.1232847 53.3978942 32.6707151 53.9442217 32.2655074 54.5649427 31.9084134 55.2840802 31.6107098 56.09156 31.3957017 56.9850573 31.2528641 57.9901449 31.2051262 58.4740903 31.2171547 58.983996 31.2648925 59.4919643 31.3483397 60.0018699 31.4674963 60.4978268 31.6460433 60.9821597 31.8606756 61.4289084 32.1463508 61.8384602 32.4801397 62.2108154 32.8853473 62.5207884 33.3615979 62.7691543 33.9096432 62.9431267 34.5411357 63.0423181 35.2556995 63.054717 36.065739 62.9679245 36.9712541 62.7815532 37.9722449 62.7195586 38.6984612 53.6706705 38.6984612 54.2421833 36.3514142 59.6783356 36.3514142 59.7039084 36.0540864 59.691122 35.7680354 59.6663241 35.5056653 59.6167284 35.2681038 59.5291611 35.0414431 59.4427561 34.8388393 59.3187668 34.6599164 59.1943902 34.4933979 59.0456031 34.3505603 58.8840296 34.2310278 58.6980458 34.1242755 58.512062 34.0287998 58.3136792 33.9570051 58.1145216 33.9096432 57.9037399 33.8739338 57.6801718 33.8498769 57.4445923 33.8619054 57.2214117 33.8976148 57.0094677 33.9453526 56.7990735 34.0167714 56.5879043 34.1118711 56.401533 34.2193752 56.2155492 34.3505603 56.0543632 34.4933979 55.8927898 34.6599164 55.7440027 34.8388393 55.6072271 35.0290388 55.4960243 35.2323944 55.3840465 35.4466508 55.297254 35.684964 55.2228605 35.9229014 55.1724899 36.1728672"></polygon>
                            <polyline id="Path" stroke="#FFFFFF" stroke-width="0.216" points="54.6761456 38.6394468 54.6761456 38.6394468 54.6385613 38.8412988 54.6273248 39.0559311 54.6517352 39.2825918 54.7013309 39.5085007 54.7881233 39.7351614 54.8877022 39.9497937 55.0237028 40.1757026 55.1724899 40.3783064 55.3464623 40.5809103 55.533221 40.7594573 55.7316038 40.9383801 55.9551718 41.0812177 56.1783524 41.2124028 56.4267183 41.319531 56.6746968 41.4026023 56.9234501 41.450716 56.9234501 41.450716 57.2458221 41.498078 57.5561826 41.5337874 57.8785546 41.5698726 58.201314 41.5935536 58.5240735 41.6052061 58.8592318 41.6052061 59.1819912 41.5935536 59.5175371 41.5698726 59.8530829 41.5221348 60.1878538 41.4623686 60.5350236 41.3909498 60.8705694 41.2838216 61.2173518 41.1526365 61.577308 41.0097989 61.9248652 40.8192235 62.2852089 40.6166197 61.7884771 43.5470456 61.7884771 43.5470456 61.5900943 43.6425212 61.3917116 43.737621 61.1929414 43.8094156 61.0065701 43.8808344 60.8205863 43.9406007 60.621816 43.9996152 60.4230458 44.0477289 60.2118767 44.0834383 59.9890836 44.1191477 59.7411051 44.1428286 59.4803403 44.1665096 59.1943902 44.1905665 58.8724057 44.202219 58.5368598 44.202219 58.1517183 44.2142474 57.7425539 44.2142474 57.7425539 44.2142474 57.1342318 44.202219 56.5135108 44.1428286 55.8927898 44.0593814 55.2724562 43.9165438 54.6645216 43.737621 54.0802224 43.5113362 53.5222709 43.2140084 53.0011287 42.8681911 52.5167958 42.4633593 52.0944575 41.9750803 51.7352763 41.4266592 51.4369272 40.7955426 51.2253706 40.0926313 51.0893699 39.2942443 51.0521732 38.4124102 51.1145553 37.4354763 51.1145553 37.4354763 51.1637635 37.0550772 51.2385445 36.6137843 51.3369609 36.1491862 51.4745115 35.6485029 51.6608827 35.1369188 51.8840633 34.624207 52.1688511 34.1005945 52.5167958 33.5999112 52.9135613 33.1232847 53.3978942 32.6707151 53.9442217 32.2655074 54.5649427 31.9084134 55.2840802 31.6107098 56.09156 31.3957017 56.9850573 31.2528641 57.9901449 31.2051262 57.9901449 31.2051262 58.4740903 31.2171547 58.983996 31.2648925 59.4919643 31.3483397 60.0018699 31.4674963 60.4978268 31.6460433 60.9821597 31.8606756 61.4289084 32.1463508 61.8384602 32.4801397 62.2108154 32.8853473 62.5207884 33.3615979 62.7691543 33.9096432 62.9431267 34.5411357 63.0423181 35.2556995 63.054717 36.065739 62.9679245 36.9712541 62.7815532 37.9722449 62.7195586 38.6984612 53.6706705 38.6984612 54.2421833 36.3514142 59.6783356 36.3514142 59.6783356 36.3514142 59.7039084 36.0540864 59.691122 35.7680354 59.6663241 35.5056653 59.6167284 35.2681038 59.5291611 35.0414431 59.4427561 34.8388393 59.3187668 34.6599164 59.1943902 34.4933979 59.0456031 34.3505603 58.8840296 34.2310278 58.6980458 34.1242755 58.512062 34.0287998 58.3136792 33.9570051 58.1145216 33.9096432 57.9037399 33.8739338 57.6801718 33.8498769 57.6801718 33.8498769 57.4445923 33.8619054 57.2214117 33.8976148 57.0094677 33.9453526 56.7990735 34.0167714 56.5879043 34.1118711 56.401533 34.2193752 56.2155492 34.3505603 56.0543632 34.4933979 55.8927898 34.6599164 55.7440027 34.8388393 55.6072271 35.0290388 55.4960243 35.2323944 55.3840465 35.4466508 55.297254 35.684964 55.2228605 35.9229014 55.1724899 36.1728672 54.6761456 38.6394468"></polyline>
                            <polygon id="Path" fill="#FFFFFF" points="84.2793464 32.1704076 84.1181604 32.0869604 83.9569744 32.0155416 83.7833895 31.9320944 83.5970182 31.8486472 83.4110344 31.7772284 83.1994778 31.7058096 82.9886961 31.6343908 82.765128 31.5625961 82.5295485 31.5032057 82.2935815 31.4554679 82.0332042 31.4077301 81.7724394 31.3723966 81.4868767 31.3483397 81.2009265 31.3246588 80.9033524 31.3246588 80.5933794 31.3246588 80.2830189 31.3246588 79.959872 31.3483397 79.6247136 31.3840491 79.2779313 31.4434395 78.9295991 31.5389151 78.5828167 31.6701002 78.234872 31.8369946 77.8869272 32.051251 77.5525438 32.3132452 77.2293969 32.6229772 76.9190364 33.0041281 76.6210748 33.4450451 76.3482985 33.9690336 76.0871462 34.5648167 75.8519542 35.2323944 75.6535714 35.9943202 75.5787904 36.4228329 75.5288073 36.8400691 75.5040094 37.2569293 75.5167958 37.6625129 75.5539926 38.0669688 75.640785 38.4484955 75.7523753 38.8055894 75.8887635 39.1638111 76.0751348 39.4851956 76.2983154 39.7949277 76.5590802 40.0685744 76.8566543 40.3185402 77.1925876 40.5327966 77.5769542 40.7120953 77.9992925 40.8669614 78.4712264 40.9737137 78.6320249 41.0097989 78.8180088 41.0455083 79.0411894 41.0695652 79.2899427 41.093622 79.562719 41.1169271 79.8482817 41.1169271 80.1590296 41.1169271 80.4690027 41.093622 80.7917621 41.0571609 81.1145216 40.9981464 81.4244946 40.9146992 81.7352426 40.8192235 82.0452156 40.6880385 82.3307783 40.5327966 82.5915431 40.3425971 82.8395216 40.1283407 82.2815701 43.3091082 82.2067891 43.3684986 82.1323956 43.4395415 82.0332042 43.5233646 81.9216139 43.5947834 81.7844508 43.690259 81.6104784 43.7737063 81.4124832 43.8567776 81.1889151 43.9281964 80.9033524 44.0120195 80.580593 44.071034 80.2086253 44.1191477 79.7738881 44.1665096 79.2899427 44.1905665 78.7316038 44.202219 78.0977089 44.1905665 77.4029818 44.1548571 76.8322439 44.0950908 76.2611186 43.9763101 75.6903807 43.7977631 75.1192554 43.5594499 74.5733154 43.2733988 74.0521732 42.9155531 73.5554414 42.4990687 73.0962938 42.0224423 72.6867419 41.4864254 72.3391846 40.8906423 72.041223 40.2238163 71.8180425 39.4968482 71.6692554 38.6984612 71.6192722 37.8527124 71.6440701 36.9235163 71.7808457 35.9353057 71.8792621 35.4466508 71.9912399 34.9700243 72.1156166 34.5054263 72.2396058 34.0645092 72.3763814 33.647649 72.5371799 33.2304129 72.6991408 32.8376095 72.8723383 32.4681112 73.0594845 32.0986129 73.2454683 31.7535474 73.45625 31.4197585 73.6790431 31.1100265 73.9026112 30.8123229 74.151752 30.5262718 74.399343 30.2642776 74.6597204 30.0143118 74.945283 29.7759986 75.2312332 29.5493379 75.5288073 29.3471099 75.8395553 29.1565345 76.1747136 28.9772358 76.5094845 28.8227456 76.8566543 28.6799081 77.216998 28.548723 77.6021395 28.4295664 77.9865061 28.3340907 78.383659 28.2510194 78.8059973 28.1792247 79.2275606 28.1198344 79.6750842 28.0720965 80.1218329 28.0484156 80.5933794 28.0363871 80.9905323 28.0484156 81.3752864 28.0720965 81.747254 28.10743 82.1199966 28.1555438 82.4675539 28.2032816 82.8027123 28.2747004 83.1254717 28.3340907 83.4230458 28.4055095 83.7086085 28.4773042 83.9569744 28.548723 84.1925539 28.6201418 84.3917116 28.6915606 84.564909 28.7513269 84.7140836 28.7986888 84.8260613 28.8464266 84.9000674 28.8704835"></polygon>
                            <polyline id="Path" stroke="#FFFFFF" stroke-width="0.216" points="84.2793464 32.1704076 84.2793464 32.1704076 84.1181604 32.0869604 83.9569744 32.0155416 83.7833895 31.9320944 83.5970182 31.8486472 83.4110344 31.7772284 83.1994778 31.7058096 82.9886961 31.6343908 82.765128 31.5625961 82.5295485 31.5032057 82.2935815 31.4554679 82.0332042 31.4077301 81.7724394 31.3723966 81.4868767 31.3483397 81.2009265 31.3246588 80.9033524 31.3246588 80.5933794 31.3246588 80.5933794 31.3246588 80.2830189 31.3246588 79.959872 31.3483397 79.6247136 31.3840491 79.2779313 31.4434395 78.9295991 31.5389151 78.5828167 31.6701002 78.234872 31.8369946 77.8869272 32.051251 77.5525438 32.3132452 77.2293969 32.6229772 76.9190364 33.0041281 76.6210748 33.4450451 76.3482985 33.9690336 76.0871462 34.5648167 75.8519542 35.2323944 75.6535714 35.9943202 75.6535714 35.9943202 75.5787904 36.4228329 75.5288073 36.8400691 75.5040094 37.2569293 75.5167958 37.6625129 75.5539926 38.0669688 75.640785 38.4484955 75.7523753 38.8055894 75.8887635 39.1638111 76.0751348 39.4851956 76.2983154 39.7949277 76.5590802 40.0685744 76.8566543 40.3185402 77.1925876 40.5327966 77.5769542 40.7120953 77.9992925 40.8669614 78.4712264 40.9737137 78.4712264 40.9737137 78.6320249 41.0097989 78.8180088 41.0455083 79.0411894 41.0695652 79.2899427 41.093622 79.562719 41.1169271 79.8482817 41.1169271 80.1590296 41.1169271 80.4690027 41.093622 80.7917621 41.0571609 81.1145216 40.9981464 81.4244946 40.9146992 81.7352426 40.8192235 82.0452156 40.6880385 82.3307783 40.5327966 82.5915431 40.3425971 82.8395216 40.1283407 82.2815701 43.3091082 82.2815701 43.3091082 82.2067891 43.3684986 82.1323956 43.4395415 82.0332042 43.5233646 81.9216139 43.5947834 81.7844508 43.690259 81.6104784 43.7737063 81.4124832 43.8567776 81.1889151 43.9281964 80.9033524 44.0120195 80.580593 44.071034 80.2086253 44.1191477 79.7738881 44.1665096 79.2899427 44.1905665 78.7316038 44.202219 78.0977089 44.1905665 77.4029818 44.1548571 77.4029818 44.1548571 76.8322439 44.0950908 76.2611186 43.9763101 75.6903807 43.7977631 75.1192554 43.5594499 74.5733154 43.2733988 74.0521732 42.9155531 73.5554414 42.4990687 73.0962938 42.0224423 72.6867419 41.4864254 72.3391846 40.8906423 72.041223 40.2238163 71.8180425 39.4968482 71.6692554 38.6984612 71.6192722 37.8527124 71.6440701 36.9235163 71.7808457 35.9353057 71.7808457 35.9353057 71.8792621 35.4466508 71.9912399 34.9700243 72.1156166 34.5054263 72.2396058 34.0645092 72.3763814 33.647649 72.5371799 33.2304129 72.6991408 32.8376095 72.8723383 32.4681112 73.0594845 32.0986129 73.2454683 31.7535474 73.45625 31.4197585 73.6790431 31.1100265 73.9026112 30.8123229 74.151752 30.5262718 74.399343 30.2642776 74.6597204 30.0143118 74.945283 29.7759986 75.2312332 29.5493379 75.5288073 29.3471099 75.8395553 29.1565345 76.1747136 28.9772358 76.5094845 28.8227456 76.8566543 28.6799081 77.216998 28.548723 77.6021395 28.4295664 77.9865061 28.3340907 78.383659 28.2510194 78.8059973 28.1792247 79.2275606 28.1198344 79.6750842 28.0720965 80.1218329 28.0484156 80.5933794 28.0363871 80.5933794 28.0363871 80.9905323 28.0484156 81.3752864 28.0720965 81.747254 28.10743 82.1199966 28.1555438 82.4675539 28.2032816 82.8027123 28.2747004 83.1254717 28.3340907 83.4230458 28.4055095 83.7086085 28.4773042 83.9569744 28.548723 84.1925539 28.6201418 84.3917116 28.6915606 84.564909 28.7513269 84.7140836 28.7986888 84.8260613 28.8464266 84.9000674 28.8704835 84.2793464 32.1704076"></polyline>
                            <polygon id="Path" fill="#FFFFFF" points="114.838427 44.2142474 111.400051 44.2142474 111.648416 42.892248 111.648416 42.7727155 111.449646 43.0110287 111.238865 43.2252851 111.028083 43.4166123 110.804902 43.5831308 110.581334 43.737621 110.357766 43.8691819 110.134586 43.9763101 109.898231 44.0834383 109.663039 44.1665096 109.426685 44.2262759 109.191105 44.2860421 108.942739 44.3217515 108.694373 44.3574609 108.458794 44.3811419 108.210428 44.3935462 107.962062 44.3935462 107.316931 44.3454325 106.721007 44.2142474 106.17468 44.0120195 105.678723 43.737621 105.231199 43.3921795 104.833659 42.9877236 104.486489 42.5468066 104.188915 42.0464991 103.940549 41.5097305 103.742166 40.9507845 103.605391 40.3666539 103.505812 39.7592183 103.468615 39.1514068 103.481402 38.5315668 103.543396 37.9241312 103.655761 37.3166955 103.841358 36.6137843 104.065313 35.9465824 104.325691 35.3395226 104.635664 34.7674205 104.958423 34.2310278 105.330391 33.7547772 105.71592 33.3262644 106.125084 32.9327093 106.559821 32.5872678 107.018582 32.2891884 107.490903 32.02757 107.962062 31.8249662 108.458794 31.6580718 108.954751 31.5513195 109.45187 31.4791489 109.960613 31.4554679 110.320569 31.4674963 110.667739 31.5032057 110.990499 31.5625961 111.28846 31.6460433 111.57441 31.741519 111.822389 31.8486472 112.071142 31.9798322 112.294323 32.1106414 112.492706 32.253479 112.678689 32.408345 112.839875 32.563211 112.989437 32.7184529 113.113039 32.8733189 113.225017 33.027809 113.324208 33.1710225 113.398602 33.314236 113.398602 33.314236 114.267689 28.6321702 117.643683 28.6321702"></polygon>
                            <polyline id="Path" stroke="#FFFFFF" stroke-width="0.216" points="114.838427 44.2142474 111.400051 44.2142474 111.648416 42.892248 111.648416 42.7727155 111.648416 42.7727155 111.449646 43.0110287 111.238865 43.2252851 111.028083 43.4166123 110.804902 43.5831308 110.581334 43.737621 110.357766 43.8691819 110.134586 43.9763101 109.898231 44.0834383 109.663039 44.1665096 109.426685 44.2262759 109.191105 44.2860421 108.942739 44.3217515 108.694373 44.3574609 108.458794 44.3811419 108.210428 44.3935462 107.962062 44.3935462 107.962062 44.3935462 107.316931 44.3454325 106.721007 44.2142474 106.17468 44.0120195 105.678723 43.737621 105.231199 43.3921795 104.833659 42.9877236 104.486489 42.5468066 104.188915 42.0464991 103.940549 41.5097305 103.742166 40.9507845 103.605391 40.3666539 103.505812 39.7592183 103.468615 39.1514068 103.481402 38.5315668 103.543396 37.9241312 103.655761 37.3166955 103.655761 37.3166955 103.841358 36.6137843 104.065313 35.9465824 104.325691 35.3395226 104.635664 34.7674205 104.958423 34.2310278 105.330391 33.7547772 105.71592 33.3262644 106.125084 32.9327093 106.559821 32.5872678 107.018582 32.2891884 107.490903 32.02757 107.962062 31.8249662 108.458794 31.6580718 108.954751 31.5513195 109.45187 31.4791489 109.960613 31.4554679 109.960613 31.4554679 110.320569 31.4674963 110.667739 31.5032057 110.990499 31.5625961 111.28846 31.6460433 111.57441 31.741519 111.822389 31.8486472 112.071142 31.9798322 112.294323 32.1106414 112.492706 32.253479 112.678689 32.408345 112.839875 32.563211 112.989437 32.7184529 113.113039 32.8733189 113.225017 33.027809 113.324208 33.1710225 113.398602 33.314236 113.398602 33.314236 114.267689 28.6321702 117.643683 28.6321702 114.838427 44.2142474"></polyline>
                            <polygon id="Path" fill="#FCB331" points="109.21629 41.3311835 109.56346 41.3078784 109.88622 41.2364596 110.184181 41.1526365 110.469356 41.0214515 110.730121 40.8786139 110.978487 40.7000669 111.214067 40.497839 111.425236 40.2828308 111.61122 40.0448934 111.78558 39.7825234 111.946378 39.5085007 112.083154 39.2228255 112.207143 38.9251219 112.306334 38.6153899 112.393127 38.2936295 112.455509 37.9722449 112.517503 37.6380801 112.5547 37.2926387 112.5547 36.9712541 112.541914 36.6378411 112.505492 36.3281091 112.455509 36.0300296 112.368716 35.7443544 112.269137 35.4703318 112.145148 35.2323944 111.996361 35.0053578 111.834788 34.8147824 111.648416 34.6482639 111.437635 34.5054263 111.214067 34.4099506 110.978487 34.3505603 110.71811 34.3265034 110.382564 34.3505603 110.072591 34.3982981 109.786641 34.4933979 109.501078 34.6125545 109.252712 34.7674205 109.005121 34.9583718 108.793952 35.1605997 108.582783 35.3868846 108.396412 35.6485029 108.222827 35.9229014 108.061641 36.2085766 107.924865 36.5183086 107.800876 36.8400691 107.701685 37.1614536 107.602106 37.5072709 107.5281 37.8527124 107.466105 38.3770767 107.490903 38.9488029 107.577695 39.5325576 107.738881 40.0926313 107.98686 40.5809103 108.310007 40.9737137 108.719559 41.2364596"></polygon>
                            <polygon id="Path" fill="#FFFFFF" points="32.9915937 41.5698726 32.4956368 44.2142474 29.3680088 44.2142474 29.4548012 43.7255925 29.5171833 43.2854272 29.5663915 42.9520142 29.6155997 42.7727155 29.4424023 42.9636668 29.2436321 43.1538663 29.0080526 43.3327892 28.7476752 43.4996836 28.4493261 43.6665781 28.1389656 43.8094156 27.8162062 43.9522532 27.4810478 44.071034 27.1210916 44.178538 26.7611354 44.2619853 26.4015667 44.3337799 26.0292116 44.3811419 25.6688679 44.4048229 25.3092992 44.4168513 24.9613544 44.3811419 24.6265836 44.3337799 24.1918464 44.2262759 23.7946934 44.1074951 23.4475236 43.9522532 23.1375505 43.7737063 22.8639993 43.5831308 22.6156334 43.3684986 22.4172507 43.1422138 22.2425034 42.9039005 22.0941038 42.6539347 21.970502 42.3911888 21.8709232 42.1295704 21.7961422 41.8679521 21.7465465 41.5935536 21.7093497 41.319531 21.6845519 41.0571609 21.6845519 40.7955426 21.7213612 40.3309445 21.7961422 39.8896515 21.9205189 39.4727913 22.0817049 39.0679595 22.2800876 38.6868087 22.5040431 38.3413673 22.7644205 38.0079543 23.063157 37.7098748 23.3727426 37.4354763 23.7199124 37.1855105 24.0802561 36.9596016 24.4526112 36.7686503 24.8497642 36.6025076 25.259316 36.4709467 25.6816543 36.3638185 26.1156166 36.2923997 26.1408019 36.2923997 26.2027965 36.2799954 26.2899764 36.2683428 26.4259771 36.2566903 26.5747642 36.2326334 26.7487365 36.2209809 26.9347204 36.196924 27.146277 36.1728672 27.3574461 36.1491862 27.5682278 36.1255052 27.7917958 36.1138527 27.9901786 36.0897958 28.1885613 36.0781433 28.3741577 36.065739 28.5485175 36.0540864 28.6852931 36.0540864 28.9708558 36.0540864 29.2684299 36.065739 29.5415937 36.0781433 29.8147574 36.0781433 30.0383255 36.0897958 30.2119104 36.1014484 30.3358996 36.1138527 30.3730964 36.1138527 30.3982817 36.0300296 30.4726752 35.8157732 30.5346698 35.5654315 30.5594677 35.3395226 30.509872 35.0767766 30.3982817 34.8388393 30.2494946 34.624207 30.0511119 34.44566 29.8147574 34.290794 29.5539926 34.1836658 29.2568059 34.1118711 28.9328841 34.0885661 28.5864892 34.0765376 28.2137466 34.0645092 27.8289926 34.0645092 27.4310647 34.0765376 27.0215128 34.1005945 26.6251348 34.1355521 26.2275943 34.1716374 25.8424528 34.2193752 25.4704852 34.267113 25.110529 34.3265034 24.788157 34.3862697 24.4901954 34.44566 24.2170317 34.5174547 23.9938511 34.5884976 23.8198787 34.6719448 23.6831031 34.7433636 24.5649764 31.8723281 24.8369778 31.7655758 25.110529 31.6701002 25.4081031 31.5862771 25.7060647 31.5268867 26.0036388 31.4674963 26.3271732 31.4197585 26.6495451 31.3723966 26.984316 31.3483397 27.3326482 31.3246588 27.691442 31.3126303 28.0645721 31.3006019 28.4493261 31.3006019 28.847254 31.3006019 29.2568059 31.3006019 29.6903807 31.3126303 30.1251179 31.3246588 30.4726752 31.3483397 30.8450303 31.4077301 31.2293969 31.4911773 31.6269373 31.5983055 32.0116914 31.741519 32.3840465 31.9084134 32.7567891 32.1106414 33.1039589 32.3369262 33.4139319 32.5992963 33.6874832 32.8853473 33.9350741 33.2067319 34.1214454 33.5642018 34.2458221 33.9453526 34.3206031 34.3505603 34.3206031 34.8031299 34.2458221 35.2797564"></polygon>
                            <polyline id="Path" stroke="#FFFFFF" stroke-width="0.216" points="32.9915937 41.5698726 32.4956368 44.2142474 29.3680088 44.2142474 29.3680088 44.2142474 29.4548012 43.7255925 29.5171833 43.2854272 29.5663915 42.9520142 29.6155997 42.7727155 29.6155997 42.7727155 29.4424023 42.9636668 29.2436321 43.1538663 29.0080526 43.3327892 28.7476752 43.4996836 28.4493261 43.6665781 28.1389656 43.8094156 27.8162062 43.9522532 27.4810478 44.071034 27.1210916 44.178538 26.7611354 44.2619853 26.4015667 44.3337799 26.0292116 44.3811419 25.6688679 44.4048229 25.3092992 44.4168513 24.9613544 44.3811419 24.6265836 44.3337799 24.6265836 44.3337799 24.1918464 44.2262759 23.7946934 44.1074951 23.4475236 43.9522532 23.1375505 43.7737063 22.8639993 43.5831308 22.6156334 43.3684986 22.4172507 43.1422138 22.2425034 42.9039005 22.0941038 42.6539347 21.970502 42.3911888 21.8709232 42.1295704 21.7961422 41.8679521 21.7465465 41.5935536 21.7093497 41.319531 21.6845519 41.0571609 21.6845519 40.7955426 21.6845519 40.7955426 21.7213612 40.3309445 21.7961422 39.8896515 21.9205189 39.4727913 22.0817049 39.0679595 22.2800876 38.6868087 22.5040431 38.3413673 22.7644205 38.0079543 23.063157 37.7098748 23.3727426 37.4354763 23.7199124 37.1855105 24.0802561 36.9596016 24.4526112 36.7686503 24.8497642 36.6025076 25.259316 36.4709467 25.6816543 36.3638185 26.1156166 36.2923997 26.1156166 36.2923997 26.1408019 36.2923997 26.2027965 36.2799954 26.2899764 36.2683428 26.4259771 36.2566903 26.5747642 36.2326334 26.7487365 36.2209809 26.9347204 36.196924 27.146277 36.1728672 27.3574461 36.1491862 27.5682278 36.1255052 27.7917958 36.1138527 27.9901786 36.0897958 28.1885613 36.0781433 28.3741577 36.065739 28.5485175 36.0540864 28.6852931 36.0540864 28.6852931 36.0540864 28.9708558 36.0540864 29.2684299 36.065739 29.5415937 36.0781433 29.8147574 36.0781433 30.0383255 36.0897958 30.2119104 36.1014484 30.3358996 36.1138527 30.3730964 36.1138527 30.3730964 36.1138527 30.3982817 36.0300296 30.4726752 35.8157732 30.5346698 35.5654315 30.5594677 35.3395226 30.5594677 35.3395226 30.509872 35.0767766 30.3982817 34.8388393 30.2494946 34.624207 30.0511119 34.44566 29.8147574 34.290794 29.5539926 34.1836658 29.2568059 34.1118711 28.9328841 34.0885661 28.9328841 34.0885661 28.5864892 34.0765376 28.2137466 34.0645092 27.8289926 34.0645092 27.4310647 34.0765376 27.0215128 34.1005945 26.6251348 34.1355521 26.2275943 34.1716374 25.8424528 34.2193752 25.4704852 34.267113 25.110529 34.3265034 24.788157 34.3862697 24.4901954 34.44566 24.2170317 34.5174547 23.9938511 34.5884976 23.8198787 34.6719448 23.6831031 34.7433636 24.5649764 31.8723281 24.5649764 31.8723281 24.8369778 31.7655758 25.110529 31.6701002 25.4081031 31.5862771 25.7060647 31.5268867 26.0036388 31.4674963 26.3271732 31.4197585 26.6495451 31.3723966 26.984316 31.3483397 27.3326482 31.3246588 27.691442 31.3126303 28.0645721 31.3006019 28.4493261 31.3006019 28.847254 31.3006019 29.2568059 31.3006019 29.6903807 31.3126303 30.1251179 31.3246588 30.1251179 31.3246588 30.4726752 31.3483397 30.8450303 31.4077301 31.2293969 31.4911773 31.6269373 31.5983055 32.0116914 31.741519 32.3840465 31.9084134 32.7567891 32.1106414 33.1039589 32.3369262 33.4139319 32.5992963 33.6874832 32.8853473 33.9350741 33.2067319 34.1214454 33.5642018 34.2458221 33.9453526 34.3206031 34.3505603 34.3206031 34.8031299 34.2458221 35.2797564 32.9915937 41.5698726"></polyline>
                            <polygon id="Path" fill="#ED1C2E" points="30.0007412 38.4605239 29.9879549 38.4011335 29.9387466 38.3413673 29.8643531 38.305282 29.7403639 38.281601 29.6039757 38.2579201 29.4424023 38.2455157 29.2568059 38.2455157 29.0704346 38.2455157 28.871277 38.2579201 28.6601078 38.281601 28.4617251 38.305282 28.2629549 38.3293388 28.0765836 38.3530198 27.9033861 38.389481 27.7545991 38.4248145 27.6178235 38.4605239 27.5306435 38.4842049 27.4310647 38.5199143 27.295064 38.5676521 27.1590633 38.6270425 26.9971024 38.6984612 26.835529 38.7822844 26.6623315 38.8653557 26.5003706 38.9608313 26.3271732 39.0796121 26.1652123 39.1987687 26.0164252 39.3419822 25.8800371 39.4851956 25.7556604 39.6400617 25.6688679 39.8065802 25.5940869 39.9971556 25.5568902 40.187731 25.5448787 40.5925628 25.6072608 40.9146992 25.7316375 41.1526365 25.8920485 41.3311835 26.0780323 41.450716 26.2899764 41.5221348 26.4883592 41.5578442 26.6867419 41.5698726 27.059097 41.5578442 27.3938679 41.5221348 27.7174023 41.4740211 28.00219 41.4026023 28.2509434 41.319531 28.4861354 41.2124028 28.6973046 41.1052746 28.8840633 40.9737137 29.0452493 40.8553088 29.1944239 40.7120953 29.3176381 40.5809103 29.4176044 40.4380727 29.5040094 40.2952351 29.5787904 40.1520216 29.640785 40.0208366 29.6779818 39.8896515 29.7775606 39.544586 29.8643531 39.1514068 29.9387466 38.76988"></polygon>
                            <polygon id="Path" fill="#FFFFFF" points="6.87675202 44.2142474 3.50075809 44.2142474 6.31841307 28.5727799 12.18969 28.5727799 12.7476415 37.8527124 16.8067385 28.5727799 22.9383929 28.5727799 20.0587433 44.2142474 16.6823619 44.2142474 18.8173012 32.5278775 18.6805256 32.5278775 13.6291274 44.2142474 9.81839623 44.2142474 9.79359838 43.7255925 9.70680593 42.427274 9.5956031 40.5809103 9.47083895 38.4605239 9.3472372 36.3281091 9.23525943 34.4576885 9.14885445 33.0996037 9.12366914 32.5278775 9.08569744 32.5278775 9.01169137 32.5278775 8.93768531 32.5278775 8.93768531 32.5278775"></polygon>
                            <polyline id="Path" stroke="#FFFFFF" stroke-width="0.216" points="6.87675202 44.2142474 3.50075809 44.2142474 6.31841307 28.5727799 12.18969 28.5727799 12.7476415 37.8527124 16.8067385 28.5727799 22.9383929 28.5727799 20.0587433 44.2142474 16.6823619 44.2142474 18.8173012 32.5278775 18.6805256 32.5278775 13.6291274 44.2142474 9.81839623 44.2142474 9.81839623 44.2142474 9.79359838 43.7255925 9.70680593 42.427274 9.5956031 40.5809103 9.47083895 38.4605239 9.3472372 36.3281091 9.23525943 34.4576885 9.14885445 33.0996037 9.12366914 32.5278775 9.12366914 32.5278775 9.08569744 32.5278775 9.01169137 32.5278775 8.93768531 32.5278775 8.93768531 32.5278775 6.87675202 44.2142474"></polyline>
                            <polygon id="Path" fill="#FFFFFF" points="94.5944744 41.5698726 94.0857311 44.2142474 90.9701146 44.2142474 90.9945249 43.7255925 91.0076988 43.2967039 91.0076988 42.9753193 91.0317217 42.8324817 90.8705357 43.0110287 90.6845519 43.1895757 90.4613713 43.356846 90.2126179 43.5233646 89.9522406 43.6778547 89.6538915 43.8210682 89.3439185 43.9639058 89.0339454 44.0834383 88.6983996 44.178538 88.3512298 44.2740137 88.0028976 44.3337799 87.6557278 44.3811419 87.2957716 44.4048229 86.9482143 44.4168513 86.6126685 44.3811419 86.2778976 44.3337799 85.8311489 44.2262759 85.433996 44.1074951 85.0868261 43.9522532 84.7636792 43.7737063 84.4905155 43.5831308 84.254936 43.3684986 84.0557783 43.1422138 83.8825809 42.9039005 83.7337938 42.6539347 83.621816 42.3911888 83.5226247 42.1295704 83.4602426 41.8679521 83.4110344 41.5935536 83.3738376 41.319531 83.3486523 41.0571609 83.3486523 40.7955426 83.3738376 40.3309445 83.4482311 39.8896515 83.5598214 39.4727913 83.7210074 39.0679595 83.9069912 38.6868087 84.1433457 38.3413673 84.403723 38.0079543 84.6892857 37.7098748 85.0124326 37.4354763 85.3472035 37.1855105 85.7067722 36.9596016 86.0915263 36.7686503 86.4766678 36.6025076 86.8862197 36.4709467 87.2957716 36.3638185 87.7181098 36.2923997 87.7425202 36.2923997 87.8049023 36.2799954 87.8913073 36.2683428 88.0160714 36.2566903 88.1768699 36.2326334 88.3512298 36.2209809 88.5372136 36.196924 88.7352089 36.1728672 88.946378 36.1491862 89.1699461 36.1255052 89.3811152 36.1138527 89.5922844 36.0897958 89.7906671 36.0781433 89.9646395 36.065739 90.1382244 36.0540864 90.275 36.0540864 90.5729616 36.0540864 90.8705357 36.065739 91.1553235 36.0781433 91.4288747 36.0781433 91.6652291 36.0897958 91.8636119 36.1014484 91.9752022 36.1138527 92.0251853 36.1138527 92.0495957 36.0300296 92.0867925 35.8157732 92.1239892 35.5654315 92.1491745 35.3395226 92.0991914 35.0767766 92.0003875 34.8388393 91.8384265 34.624207 91.6524427 34.44566 91.4288747 34.290794 91.1684973 34.1836658 90.8953336 34.1118711 90.597372 34.0885661 90.2498147 34.0765376 89.877847 34.0645092 89.4927055 34.0645092 89.0951651 34.0765376 88.6860007 34.1005945 88.2888477 34.1355521 87.8913073 34.1716374 87.5069407 34.2193752 87.1341981 34.267113 86.7746294 34.3265034 86.4518699 34.3862697 86.1542958 34.44566 85.8807446 34.5174547 85.657564 34.5884976 85.4835916 34.6719448 85.3472035 34.7433636 86.2162904 31.8723281 86.4890667 31.7655758 86.7746294 31.6701002 87.0598046 31.5862771 87.3581536 31.5268867 87.6681267 31.4674963 87.9784872 31.4197585 88.3008592 31.3723966 88.636405 31.3483397 88.9839623 31.3246588 89.3439185 31.3126303 89.7038747 31.3006019 90.0882412 31.3006019 90.4733827 31.3006019 90.8705357 31.3006019 91.2924865 31.3126303 91.7148248 31.3246588 92.0619946 31.3483397 92.4347372 31.4077301 92.8194912 31.4911773 93.2166442 31.5983055 93.6013982 31.741519 93.9857648 31.9084134 94.3581199 32.1106414 94.7060647 32.3369262 95.0160377 32.5992963 95.3016004 32.8853473 95.5499663 33.2067319 95.7359501 33.5642018 95.8731132 33.9453526 95.9595182 34.3505603 95.9595182 34.8031299 95.8971361 35.2797564"></polygon>
                            <polygon id="Path" fill="#FFFFFF" points="94.0857311 44.2976947 94.1601247 44.2262759 94.6688679 41.5819011 94.5200809 41.5578442 94.0109501 44.202219 94.0857311 44.1308002 94.0857311 44.2976947 94.1473383 44.2860421 94.1601247 44.2262759"></polygon>
                            <polygon id="Path" fill="#FFFFFF" points="90.8953336 44.2142474 90.9701146 44.2976947 94.0857311 44.2976947 94.0857311 44.1308002 90.9701146 44.1308002 91.0437332 44.2142474 90.8953336 44.2142474 90.8829346 44.2976947 90.9701146 44.2976947"></polygon>
                            <polygon id="Path" fill="#FFFFFF" points="91.0941038 42.8798437 90.982126 42.7851198 90.9321429 42.9753193 90.9201314 43.2967039 90.9201314 43.7255925 90.8953336 44.2142474 91.0437332 44.2142474 91.0689185 43.7255925 91.0941038 43.2967039 91.0813174 42.9753193 91.0813174 42.8798437 90.9701146 42.7851198"></polygon>
                            <polygon id="Path" fill="#FFFFFF" points="86.2658861 44.4048229 86.2658861 44.4048229 86.6126685 44.4521848 86.9482143 44.4882701 87.2957716 44.4766175 87.6557278 44.4521848 88.0160714 44.4048229 88.3628538 44.3454325 88.711186 44.2499568 89.0583558 44.1548571 89.3691038 44.0353246 89.6910883 43.892487 89.9890499 43.7496494 90.2498147 43.5831308 90.5105795 43.4166123 90.7341476 43.249342 90.9321429 43.0583907 91.0941038 42.8798437 90.9701146 42.7851198 90.8085411 42.9636668 90.6345687 43.1305612 90.4113881 43.2967039 90.1758086 43.4639742 89.9154313 43.6068118 89.6163073 43.7496494 89.3187332 43.892487 89.0087601 44.0120195 88.6860007 44.1074951 88.3380559 44.202219 87.9912736 44.2619853 87.6557278 44.3097231 87.2957716 44.3337799 86.9482143 44.3454325 86.6126685 44.3097231 86.2910714 44.2619853 86.2910714 44.2619853"></polygon>
                            <polygon id="Path" fill="#FFFFFF" points="83.2618598 40.7955426 83.2618598 40.7955426 83.2742588 41.0571609 83.2990566 41.319531 83.3358659 41.6052061 83.3858491 41.8796047 83.4482311 42.141223 83.547035 42.4152456 83.6594003 42.6896441 83.8201988 42.9396099 83.9941712 43.1895757 84.1925539 43.4166123 84.4409198 43.6425212 84.7268699 43.8334725 85.0496294 44.023672 85.4088106 44.178538 85.8191375 44.2976947 86.2658861 44.4048229 86.2910714 44.2619853 85.8435478 44.1548571 85.4587938 44.0353246 85.1236354 43.8808344 84.800876 43.71394 84.5401112 43.5233646 84.3165431 43.3207607 84.1181604 43.0941 83.944188 42.8681911 83.8081873 42.6178495 83.696597 42.3678837 83.5970182 42.1179179 83.5350236 41.8555478 83.4854279 41.5819011 83.4482311 41.319531 83.4230458 41.0571609 83.4354447 40.7955426 83.4354447 40.7955426"></polygon>
                            <polygon id="Path" fill="#FFFFFF" points="87.7181098 36.2209809 87.7181098 36.2209809 87.2837601 36.2923997 86.8614218 36.3995279 86.4518699 36.530337 86.054717 36.6972315 85.669188 36.8881828 85.2972204 37.1257442 84.962062 37.3768377 84.6393026 37.6625129 84.3417284 37.9598406 84.0809636 38.2936295 83.8325977 38.6507234 83.6466139 39.0439027 83.4854279 39.4494862 83.3738376 39.877999 83.2990566 40.3309445 83.2618598 40.7955426 83.4354447 40.7955426 83.4482311 40.3309445 83.5226247 39.9013041 83.6346024 39.4968482 83.7954009 39.0920164 83.9817722 38.7225181 84.2049528 38.389481 84.4653302 38.0553162 84.7388814 37.7579885 85.0616408 37.4952425 85.3967992 37.2452767 85.743969 37.0310204 86.1291105 36.8400691 86.5010782 36.6735505 86.9106301 36.5423655 87.3081705 36.4352373 87.7181098 36.3638185 87.7181098 36.3638185"></polygon>
                            <polygon id="Path" fill="#FFFFFF" points="90.275 35.9710151 90.275 35.9710151 90.1382244 35.9710151 89.9646395 35.9943202 89.7906671 36.0063486 89.5922844 36.018377 89.3811152 36.0416821 89.1699461 36.0540864 88.946378 36.0781433 88.7352089 36.1014484 88.5372136 36.1255052 88.3512298 36.1491862 88.1768699 36.1612146 88.0160714 36.1852715 87.8913073 36.196924 87.7917284 36.2085766 87.7425202 36.2209809 87.7181098 36.2209809 87.7181098 36.3638185 87.7425202 36.3638185 87.8169137 36.3514142 87.8913073 36.3397616 88.0160714 36.3281091 88.1768699 36.3040522 88.3512298 36.2923997 88.5372136 36.2683428 88.7352089 36.244286 88.946378 36.2209809 89.1699461 36.196924 89.3811152 36.1852715 89.5922844 36.1612146 89.7906671 36.1491862 89.9646395 36.1371578 90.1382244 36.1371578 90.275 36.1371578 90.275 36.1371578"></polygon>
                            <polygon id="Path" fill="#FFFFFF" points="91.9500168 36.1014484 92.0251853 36.0416821 91.9752022 36.0416821 91.8636119 36.0300296 91.6652291 36.018377 91.4288747 35.9943202 91.1553235 35.9943202 90.8705357 35.9943202 90.5729616 35.9710151 90.275 35.9710151 90.275 36.1371578 90.5729616 36.1371578 90.8705357 36.1371578 91.1553235 36.1612146 91.4288747 36.1612146 91.6652291 36.1612146 91.8636119 36.1728672 91.9752022 36.1852715 92.0251853 36.1852715 92.0991914 36.1255052 92.0251853 36.1852715 92.0867925 36.196924 92.0991914 36.1255052"></polygon>
                            <polygon id="Path" fill="#FFFFFF" points="92.0743935 35.3395226 92.0619946 35.3395226 92.0495957 35.5654315 92.0123989 35.8037448 91.9752022 36.018377 91.9500168 36.1014484 92.0991914 36.1255052 92.1239892 36.0416821 92.161186 35.8274257 92.1983827 35.5654315 92.235967 35.3395226 92.2235681 35.3395226"></polygon>
                            <polygon id="Path" fill="#FFFFFF" points="90.597372 34.159609 90.597372 34.1716374 90.8829346 34.1836658 91.1436995 34.2554605 91.3916779 34.3622128 91.602847 34.5054263 91.7764319 34.6719448 91.9256065 34.8745487 92.0251853 35.089181 92.0743935 35.3395226 92.2235681 35.3395226 92.1735849 35.0651241 92.0743935 34.8031299 91.9008086 34.5768451 91.7024259 34.3862697 91.4664589 34.2193752 91.1932951 34.1118711 90.9077325 34.0404524 90.597372 34.004743 90.597372 34.0167714"></polygon>
                            <polygon id="Path" fill="#FFFFFF" points="85.27281 34.7317111 85.3967992 34.8031299 85.5204009 34.7433636 85.6823619 34.6599164 85.8931435 34.5884976 86.1663073 34.5174547 86.4638814 34.4576885 86.7870283 34.3982981 87.1469845 34.3385318 87.5069407 34.290794 87.8913073 34.2434321 88.2888477 34.2073468 88.6860007 34.1716374 89.0951651 34.1475805 89.4927055 34.1475805 89.877847 34.1475805 90.2498147 34.1475805 90.597372 34.159609 90.597372 34.0167714 90.2498147 34.004743 89.877847 33.9814379 89.4927055 33.9814379 89.0951651 34.004743 88.6860007 34.0287998 88.2888477 34.0645092 87.8913073 34.1005945 87.5069407 34.1475805 87.1217992 34.1956943 86.761843 34.2554605 86.4398585 34.3148509 86.141122 34.3742412 85.8683457 34.44566 85.6323787 34.5174547 85.4460074 34.600526 85.2972204 34.6839733 85.421597 34.7553921"></polygon>
                            <polygon id="Path" fill="#FFFFFF" points="86.1911051 31.8009093 86.141122 31.8606756 85.27281 34.7317111 85.421597 34.7553921 86.2910714 31.8843566 86.2407008 31.9437469 86.1911051 31.8009093 86.1542958 31.8129378 86.141122 31.8606756"></polygon>
                            <polygon id="Path" fill="#FFFFFF" points="91.7148248 31.2528641 91.7148248 31.2528641 91.2924865 31.2291831 90.8705357 31.2171547 90.4733827 31.2171547 90.0882412 31.2171547 89.7038747 31.2171547 89.3439185 31.2412115 88.9839623 31.2528641 88.636405 31.2769209 88.3008592 31.3006019 87.9657008 31.3483397 87.6557278 31.3957017 87.3453673 31.4554679 87.0474057 31.5152342 86.7498315 31.5983055 86.4638814 31.6937811 86.1911051 31.8009093 86.2407008 31.9437469 86.514252 31.8369946 86.7990398 31.741519 87.0722035 31.6580718 87.3701651 31.5983055 87.6809131 31.5389151 87.9912736 31.4911773 88.3008592 31.4434395 88.636405 31.4197585 88.9839623 31.3957017 89.3439185 31.3840491 89.7038747 31.3840491 90.0882412 31.3840491 90.4733827 31.3840491 90.8705357 31.3840491 91.2924865 31.3957017 91.7148248 31.3957017 91.7148248 31.3957017"></polygon>
                            <polygon id="Path" fill="#FFFFFF" points="95.9719171 35.2914089 95.9719171 35.2914089 96.0339117 34.8031299 96.0339117 34.3505603 95.9475067 33.9333242 95.8107311 33.5405208 95.6123484 33.1710225 95.3632075 32.8376095 95.0656334 32.5399059 94.7552729 32.2775358 94.3953167 32.051251 94.0233491 31.8369946 93.6258086 31.6701002 93.241442 31.5268867 92.8318902 31.4197585 92.4471361 31.3363113 92.0619946 31.2769209 91.7148248 31.2528641 91.7148248 31.3957017 92.0619946 31.4197585 92.4219508 31.4791489 92.8070923 31.5625961 93.1914589 31.6701002 93.5762129 31.8129378 93.9489555 31.9798322 94.3209232 32.1704076 94.6560815 32.3966924 94.966442 32.6586866 95.2396058 32.9327093 95.4875842 33.2424413 95.6619441 33.5878827 95.7979447 33.9570051 95.8851247 34.3505603 95.8851247 34.8031299 95.8227426 35.2681038 95.8227426 35.2681038"></polygon>
                            <polygon id="Path" fill="#FFFFFF" points="94.6688679 41.5819011 94.6688679 41.5819011 95.9719171 35.2914089 95.8227426 35.2681038 94.5200809 41.5578442 94.5200809 41.5578442"></polygon>
                            <polygon id="Path" fill="#FCB331" points="91.5900606 38.4605239 91.5660377 38.389481 91.5160546 38.3293388 91.4288747 38.2936295 91.3052729 38.2579201 91.1684973 38.2455157 91.0076988 38.2342391 90.8205526 38.2342391 90.6345687 38.2455157 90.436186 38.2695726 90.2378032 38.2936295 90.0386456 38.3173104 89.8530492 38.3413673 89.6666779 38.3770767 89.504717 38.4011335 89.3439185 38.4368429 89.2199292 38.4605239 89.1327493 38.4725523 89.0339454 38.5078858 88.9095687 38.5439711 88.7724057 38.5913331 88.6116071 38.6627518 88.4628201 38.7341706 88.2888477 38.8179938 88.1276617 38.9251219 87.9657008 39.0322501 87.8049023 39.1638111 87.6681267 39.2942443 87.5313511 39.4494862 87.4201482 39.6156289 87.3333558 39.7949277 87.2585748 39.9855031 87.221378 40.187731 87.2093666 40.5925628 87.2705863 40.9146992 87.3701651 41.1526365 87.5193396 41.3311835 87.7053235 41.450716 87.9164926 41.5221348 88.1276617 41.5578442 88.3380559 41.5698726 88.711186 41.5578442 89.0583558 41.5221348 89.3811152 41.4623686 89.6666779 41.3792972 89.9402291 41.2838216 90.1758086 41.1763175 90.3989892 41.0571609 90.597372 40.9146992 90.7709569 40.7831382 90.9201314 40.6282722 91.056907 40.4854346 91.1684973 40.3309445 91.2552898 40.187731 91.3172844 40.0448934 91.3668801 39.9013041 91.4040768 39.7708708 91.45406 39.4370819 91.5160546 39.0920164 91.5660377 38.7582275"></polygon>
                            <polygon id="Path" fill="#FFFFFF" points="95.5251685 44.2142474 99.0255391 44.2142474 99.0255391 44.2142474 100.279768 37.4354763 100.328588 37.1738579 100.402594 36.9114879 100.477763 36.6494936 100.576954 36.3878753 100.701331 36.1255052 100.850118 35.8755395 101.011304 35.6368503 101.210462 35.4109414 101.433642 35.2079617 101.681233 35.0177622 101.966796 34.8388393 102.289943 34.6960017 102.649899 34.5768451 103.047052 34.4817453 103.481402 34.4099506 103.965347 34.3862697 104.139319 34.3862697 104.238123 34.3862697 104.27532 34.3862697 104.27532 34.3862697 104.833659 31.3246588 104.486489 31.3483397 104.151718 31.3840491 103.841358 31.4434395 103.543396 31.5268867 103.270232 31.6223624 103.009855 31.741519 102.761489 31.8723281 102.526297 32.0155416 102.302729 32.1824361 102.09156 32.3489546 101.892402 32.5399059 101.69402 32.7304813 101.508036 32.9327093 101.322052 33.15937 101.135681 33.3732505 100.962096 33.6119396 101.334063 31.4554679 97.8464791 31.4554679"></polygon>
                            <polyline id="Path" stroke="#FFFFFF" stroke-width="0.216" points="95.5251685 44.2142474 99.0255391 44.2142474 99.0255391 44.2142474 100.279768 37.4354763 100.279768 37.4354763 100.328588 37.1738579 100.402594 36.9114879 100.477763 36.6494936 100.576954 36.3878753 100.701331 36.1255052 100.850118 35.8755395 101.011304 35.6368503 101.210462 35.4109414 101.433642 35.2079617 101.681233 35.0177622 101.966796 34.8388393 102.289943 34.6960017 102.649899 34.5768451 103.047052 34.4817453 103.481402 34.4099506 103.965347 34.3862697 103.965347 34.3862697 104.139319 34.3862697 104.238123 34.3862697 104.27532 34.3862697 104.27532 34.3862697 104.833659 31.3246588 104.833659 31.3246588 104.486489 31.3483397 104.151718 31.3840491 103.841358 31.4434395 103.543396 31.5268867 103.270232 31.6223624 103.009855 31.741519 102.761489 31.8723281 102.526297 32.0155416 102.302729 32.1824361 102.09156 32.3489546 101.892402 32.5399059 101.69402 32.7304813 101.508036 32.9327093 101.322052 33.15937 101.135681 33.3732505 100.962096 33.6119396 101.334063 31.4554679 97.8464791 31.4554679 95.5251685 44.2142474 95.5251685 44.2142474"></polyline>
                            <polygon id="Path" fill="#FFFFFF" points="62.657564 44.2142474 66.1579346 44.2142474 66.2203167 44.2142474 67.4113881 37.4354763 67.4605964 37.1738579 67.5229784 36.9235163 67.5853605 36.6735505 67.672153 36.4352373 67.7713443 36.196924 67.8949461 35.9710151 68.0441206 35.756007 68.218093 35.553779 68.4172507 35.3744802 68.6404313 35.196685 68.9132075 35.0534716 69.2111691 34.9222865 69.5587264 34.8147824 69.9434805 34.7196827 70.3658187 34.6599164 70.8493767 34.624207 70.8865735 34.624207 70.9369441 34.6362354 70.9981637 34.6482639 71.0605458 34.6482639 71.1229279 34.6599164 71.1721361 34.6719448 71.2097204 34.6839733 71.2217318 34.6839733 71.2345182 34.6362354 71.271715 34.4933979 71.3213106 34.2791415 71.3833053 34.0167714 71.4700977 33.7070394 71.5572776 33.3732505 71.6692554 33.0398375 71.7808457 32.7064245 71.8792621 32.4801397 72.0040263 32.253479 72.1280155 32.02757 72.2520047 31.8249662 72.3639825 31.6460433 72.4507749 31.5032057 72.513157 31.4197585 72.5371799 31.3840491 72.5251685 31.3840491 72.4751853 31.3723966 72.4135782 31.3603681 72.3267857 31.3483397 72.2396058 31.3483397 72.140027 31.3363113 72.053622 31.3246588 71.9668295 31.3246588 71.581688 31.3483397 71.2345182 31.3840491 70.9117588 31.4434395 70.6137972 31.5152342 70.3282345 31.6107098 70.0678571 31.7294905 69.8315027 31.8486472 69.6079346 31.9914848 69.397153 32.1463508 69.1983827 32.3248978 69.0127864 32.5038206 68.8268026 32.7064245 68.6404313 32.9090283 68.4664589 33.1353131 68.2804751 33.3732505 68.0941038 33.6119396 68.5408524 31.4554679 64.9788747 31.4554679"></polygon>
                            <polyline id="Path" stroke="#FFFFFF" stroke-width="0.216" points="62.657564 44.2142474 66.1579346 44.2142474 66.2203167 44.2142474 67.4113881 37.4354763 67.4113881 37.4354763 67.4605964 37.1738579 67.5229784 36.9235163 67.5853605 36.6735505 67.672153 36.4352373 67.7713443 36.196924 67.8949461 35.9710151 68.0441206 35.756007 68.218093 35.553779 68.4172507 35.3744802 68.6404313 35.196685 68.9132075 35.0534716 69.2111691 34.9222865 69.5587264 34.8147824 69.9434805 34.7196827 70.3658187 34.6599164 70.8493767 34.624207 70.8493767 34.624207 70.8865735 34.624207 70.9369441 34.6362354 70.9981637 34.6482639 71.0605458 34.6482639 71.1229279 34.6599164 71.1721361 34.6719448 71.2097204 34.6839733 71.2217318 34.6839733 71.2217318 34.6839733 71.2345182 34.6362354 71.271715 34.4933979 71.3213106 34.2791415 71.3833053 34.0167714 71.4700977 33.7070394 71.5572776 33.3732505 71.6692554 33.0398375 71.7808457 32.7064245 71.7808457 32.7064245 71.8792621 32.4801397 72.0040263 32.253479 72.1280155 32.02757 72.2520047 31.8249662 72.3639825 31.6460433 72.4507749 31.5032057 72.513157 31.4197585 72.5371799 31.3840491 72.5371799 31.3840491 72.5251685 31.3840491 72.4751853 31.3723966 72.4135782 31.3603681 72.3267857 31.3483397 72.2396058 31.3483397 72.140027 31.3363113 72.053622 31.3246588 71.9668295 31.3246588 71.9668295 31.3246588 71.581688 31.3483397 71.2345182 31.3840491 70.9117588 31.4434395 70.6137972 31.5152342 70.3282345 31.6107098 70.0678571 31.7294905 69.8315027 31.8486472 69.6079346 31.9914848 69.397153 32.1463508 69.1983827 32.3248978 69.0127864 32.5038206 68.8268026 32.7064245 68.6404313 32.9090283 68.4664589 33.1353131 68.2804751 33.3732505 68.0941038 33.6119396 68.5408524 31.4554679 64.9788747 31.4554679 62.657564 44.2142474 62.657564 44.2142474"></polyline>
                        </g>
                        <rect id="Rectangle" fill="#FFFFFF" x="53.125" y="36.40625" width="1.81197479" height="2.34375"></rect>
                    </g>
                </g>
            </g>
        </g>
    </g>
</svg>