<svg width="11" height="11" viewBox="0 0 11 11" fill="none" xmlns="http://www.w3.org/2000/svg">
<path fill-rule="evenodd" clip-rule="evenodd" d="M9.23625 10.6974C9.63979 11.1009 10.2938 11.1009 10.6974 10.6974C11.1009 10.2938 11.1009 9.64013 10.6974 9.23661L8.87413 7.41338C9.35465 6.66347 9.64151 5.77709 9.64151 4.82073C9.64151 2.15815 7.48334 0 4.82075 0C2.15852 0 0 2.15819 0 4.82073C0 7.48327 2.15852 9.64149 4.82075 9.64149C5.77743 9.64149 6.66347 9.35499 7.41304 8.87413L9.23625 10.6974ZM1.37736 4.82071C1.37736 2.91878 2.91915 1.37734 4.82076 1.37734C6.72266 1.37734 8.26412 2.91878 8.26412 4.82071C8.26412 6.72264 6.72266 8.2641 4.82076 8.2641C2.91917 8.2641 1.37736 6.72264 1.37736 4.82071Z" fill="black"/>
</svg>
