<svg width="22" height="23" viewBox="0 0 22 23" fill="none" xmlns="http://www.w3.org/2000/svg">
<path fill-rule="evenodd" clip-rule="evenodd" d="M11.708 8.42728H9.95323V5.50664H7.3211V3.55955H9.95323V0.638916H11.708V3.55955H14.3401V5.50664H11.708V8.42728ZM4.69777 19.1363C4.69777 18.0605 5.47425 17.1892 6.44375 17.1892C7.41325 17.1892 8.1985 18.0605 8.1985 19.1363C8.1985 20.2121 7.41325 21.0834 6.44375 21.0834C5.47425 21.0834 4.69777 20.2121 4.69777 19.1363ZM15.2175 17.1892C14.248 17.1892 13.4715 18.0605 13.4715 19.1363C13.4715 20.2121 14.248 21.0834 15.2175 21.0834C16.187 21.0834 16.9723 20.2121 16.9723 19.1363C16.9723 18.0605 16.187 17.1892 15.2175 17.1892ZM6.6236 13.9083C6.60605 13.9424 6.59728 13.9813 6.59728 14.0252C6.59728 14.1615 6.69379 14.2685 6.81662 14.2685H16.9723V16.2156H6.44374C5.47423 16.2156 4.68898 15.3443 4.68898 14.2685C4.68898 13.9278 4.76795 13.6114 4.90394 13.3291L6.09279 10.9439L2.93423 3.55955H1.17947V1.61246H4.04411L4.87323 3.55955L5.70674 5.50664L7.67645 10.1115L7.79051 10.3744H13.9453L16.3625 5.50664L17.332 3.55955H17.3364L18.8718 4.49415L15.4851 11.3187C15.1824 11.9174 14.6077 12.3215 13.9497 12.3215H7.41324L6.6236 13.9083Z" fill="black"/>
</svg>
