<svg width="10" height="22" viewBox="0 0 10 22" fill="none" xmlns="http://www.w3.org/2000/svg">
<g clip-path="url(#clip0)">
<path d="M5.19935 19.1824L9.9167 15.0804C10.0278 14.9838 10.0278 14.8289 9.9167 14.7323C9.80563 14.6357 9.6275 14.6357 9.51642 14.7323L5.00026 18.6594L0.484102 14.7323C0.373032 14.6357 0.194901 14.6357 0.0838299 14.7323C0.0293426 14.7797 3.80547e-06 14.8434 3.80235e-06 14.9054C3.79924e-06 14.9674 0.0272474 15.0311 0.0838299 15.0785L4.80117 19.1806C4.91015 19.2772 5.09038 19.2772 5.19935 19.1824Z" fill="#040404"/>
</g>
<g clip-path="url(#clip1)">
<path d="M4.80065 2.55674L0.0833028 6.65878C-0.0277676 6.75537 -0.0277676 6.91026 0.0833028 7.00685C0.194373 7.10343 0.372505 7.10343 0.483575 7.00685L4.99974 3.07975L9.5159 7.00685C9.62697 7.10343 9.8051 7.10343 9.91617 7.00685C9.97066 6.95947 10 6.89569 10 6.83373C10 6.77177 9.97275 6.70799 9.91617 6.66061L5.19882 2.55857C5.08985 2.46198 4.90962 2.46198 4.80065 2.55674Z" fill="#040404"/>
</g>
<defs>
<clipPath id="clip0">
<rect width="8.69565" height="10" fill="white" transform="translate(10 12.6087) rotate(90)"/>
</clipPath>
<clipPath id="clip1">
<rect width="8.69565" height="10" fill="white" transform="translate(0 9.13043) rotate(-90)"/>
</clipPath>
</defs>
</svg>
