<svg width="39" height="39" viewBox="0 0 39 39" fill="none" xmlns="http://www.w3.org/2000/svg">
<path d="M19.4998 1.625C9.62788 1.625 1.62476 9.62772 1.62476 19.5C1.62476 29.3723 9.62788 37.375 19.4998 37.375C29.3716 37.375 37.3748 29.3723 37.3748 19.5C37.3748 9.62772 29.3716 1.625 19.4998 1.625ZM19.4998 34.125C11.4227 34.125 4.87476 27.5771 4.87476 19.5C4.87476 11.4229 11.4227 4.875 19.4998 4.875C27.5768 4.875 34.1248 11.4229 34.1248 19.5C34.1248 27.5771 27.5768 34.125 19.4998 34.125Z" fill="white"/>
<path d="M21.8952 19.4365L25.4312 26H21.5717L19.6766 21.3547L17.8739 26H14.1299L17.6428 19.552L14.4534 13.728H18.2668L19.769 17.7031L21.2019 13.728H24.8766L21.8952 19.4365Z" fill="white"/>
</svg>
