<svg width="21" height="13" viewBox="0 0 21 13" fill="none" xmlns="http://www.w3.org/2000/svg">
<path fill-rule="evenodd" clip-rule="evenodd" d="M20.1824 3.25C18.4181 1.21875 14.8188 0 10.5137 0C6.27929 0 2.60944 1.21875 0.845081 3.25C0.139339 4.0625 -0.142958 5.01042 0.0687645 5.95833C0.209913 6.77083 0.774506 7.51562 1.48025 7.85417C1.90369 8.05729 2.39771 8.125 2.82116 8.125C3.03288 8.125 3.31518 8.125 3.5269 8.05729C3.38575 8.46354 3.31518 8.86979 3.2446 9.34375C3.10345 10.5625 3.31518 11.4427 3.95034 12.1198C4.65609 12.9323 5.78527 13 6.20872 13H6.42044H14.6776C15.5951 13 16.442 12.6615 16.936 12.0521C17.6417 11.2396 17.7829 10.0885 17.7123 9.34375C17.7036 9.29374 17.6949 9.2427 17.6861 9.19089L17.6861 9.19087C17.6233 8.82182 17.5538 8.41352 17.43 8.05729C17.6417 8.125 17.924 8.125 18.2063 8.125C18.6298 8.125 19.1238 8.05729 19.5472 7.85417C20.253 7.51562 20.8176 6.77083 20.9587 5.95833C21.0999 5.01042 20.8881 3.99479 20.1824 3.25ZM16.1597 11.375C15.8068 11.7812 15.3128 11.9844 14.6776 11.9844H6.34987L6.32971 11.9849C6.17034 11.9898 5.25975 12.0181 4.72666 11.4427C4.37379 11.0365 4.23264 10.3594 4.30322 9.47917C4.65609 6.77083 6.56159 5.14583 6.91446 4.875C7.9025 4.13021 9.24341 3.65625 10.5843 3.65625C11.9252 3.65625 13.125 4.0625 14.0425 4.875C15.3834 5.95833 16.3714 7.78646 16.6537 9.47917C16.7243 10.0208 16.6537 10.8333 16.1597 11.375ZM18.9826 6.97396C19.4767 6.77083 19.759 6.29688 19.9001 5.75521C20.0413 5.07812 19.8295 4.46875 19.3355 3.92708C17.7829 2.09896 14.4659 1.01562 10.5137 1.01562C6.56159 1.01562 3.2446 2.09896 1.6214 3.92708C1.12738 4.46875 0.915655 5.14583 1.0568 5.75521C1.19795 6.29688 1.55082 6.77083 1.97427 6.97396C2.68001 7.38021 3.59747 7.10938 3.95034 6.97396C4.72666 5.34896 5.92642 4.33333 6.20872 4.13021C7.40848 3.25 8.96111 2.70833 10.5137 2.70833C12.0664 2.70833 13.5484 3.18229 14.6776 4.13021C15.5951 4.875 16.3714 5.82292 16.8654 6.90625C17.1477 7.04167 18.2063 7.38021 18.9826 6.97396ZM10.5137 4.73958C8.96111 4.73958 7.6202 5.82292 7.6202 7.10938C7.6202 8.39583 8.89054 9.47917 10.5137 9.47917C12.0664 9.47917 13.4073 8.39583 13.4073 7.10938C13.4073 5.82292 12.0664 4.73958 10.5137 4.73958ZM8.67881 7.10938C8.67881 7.85417 9.52571 8.46354 10.5137 8.46354C11.5018 8.46354 12.3487 7.85417 12.3487 7.10938C12.3487 6.36458 11.5018 5.75521 10.5137 5.75521C9.45513 5.75521 8.67881 6.36458 8.67881 7.10938Z" fill="#262324"/>
</svg>
