<svg width="16" height="13" viewBox="0 0 16 13" fill="none" xmlns="http://www.w3.org/2000/svg">
<path d="M0.8 7.30538H13.2688L8.9776 11.6253C8.6652 11.9398 8.6652 12.4498 8.9774 12.7641C9.2898 13.0786 9.7966 13.0786 10.109 12.7641L15.7656 7.0694C15.8028 7.03196 15.836 6.99068 15.8652 6.94679C15.8786 6.92645 15.888 6.90451 15.8996 6.88337C15.9128 6.8584 15.928 6.83464 15.9386 6.80827C15.95 6.78108 15.9564 6.7529 15.9644 6.72471C15.971 6.70236 15.9796 6.68102 15.9842 6.65807C15.9946 6.60572 16 6.55297 16 6.50001C16 6.49941 15.9998 6.4988 15.9998 6.4982C15.9996 6.44605 15.9944 6.3937 15.9842 6.34236C15.9794 6.3182 15.9704 6.29585 15.9634 6.27209C15.9556 6.24532 15.9496 6.21814 15.9388 6.19216C15.9272 6.16418 15.9116 6.13881 15.8972 6.11243C15.8864 6.0927 15.8778 6.07257 15.8654 6.05364C15.8362 6.00914 15.8026 5.96767 15.7652 5.93002L10.1088 0.235896C9.7964 -0.0785984 9.2898 -0.0785984 8.9774 0.235695C8.665 0.550189 8.665 1.06019 8.9774 1.37488L13.2686 5.69465H0.8C0.3582 5.69465 0 6.05525 0 6.50001C0 6.94477 0.3582 7.30538 0.8 7.30538Z" fill="black"/>
</svg>
