<svg width="16" height="13" viewBox="0 0 16 13" fill="none" xmlns="http://www.w3.org/2000/svg">
<path d="M15.2 5.69462L2.7312 5.69462L7.0224 1.37465C7.3348 1.06016 7.3348 0.550163 7.0226 0.23587C6.7102 -0.0786238 6.2034 -0.0786238 5.891 0.23587L0.2344 5.9306C0.1972 5.96804 0.164 6.00932 0.1348 6.05321C0.1214 6.07355 0.112 6.09549 0.1004 6.11663C0.0872002 6.1416 0.0720005 6.16536 0.0614004 6.19173C0.0500002 6.21892 0.0436001 6.2471 0.0355997 6.27529C0.0289993 6.29764 0.0204 6.31898 0.0158005 6.34193C0.00540066 6.39428 0 6.44703 0 6.49999C0.00039959 6.55395 0.00560093 6.6063 0.0158005 6.65764C0.0206003 6.6818 0.0296001 6.70415 0.0366001 6.72791C0.0444002 6.75468 0.0503998 6.78186 0.0612001 6.80784C0.0727997 6.83582 0.0884008 6.86119 0.1028 6.88757C0.113601 6.9073 0.1222 6.92743 0.1346 6.94636C0.163799 6.99086 0.1974 7.03233 0.2348 7.06998L5.8912 12.7641C6.2036 13.0786 6.7102 13.0786 7.0226 12.7643C7.335 12.4498 7.335 11.9398 7.0226 11.6251L2.7314 7.30535L15.2 7.30535C15.6418 7.30535 16 6.94475 16 6.49999C16 6.05523 15.6418 5.69462 15.2 5.69462Z" fill="white"/>
</svg>
