<?xml version="1.0" encoding="UTF-8"?>
<svg width="125px" height="41px" viewBox="0 0 125 41" version="1.1" xmlns="http://www.w3.org/2000/svg" xmlns:xlink="http://www.w3.org/1999/xlink">
    <!-- Generator: Sketch 53.2 (72643) - https://sketchapp.com -->
    <title>icone_visa</title>
    <desc>Created with Sketch.</desc>
    <defs>
        <rect id="path-1" x="0" y="0" width="125" height="71.4285714"></rect>
    </defs>
    <g id="Page-1" stroke="none" stroke-width="1" fill="none" fill-rule="evenodd">
        <g id="Mobile" transform="translate(-160.000000, -58.000000)">
            <g id="icone_visa" transform="translate(160.000000, 42.000000)">
                <mask id="mask-2" fill="white">
                    <use xlink:href="#path-1"></use>
                </mask>
                <g id="Mask" fill-rule="nonzero"></g>
                <g mask="url(#mask-2)">
                    <g transform="translate(0.000000, 16.071429)">
                        <g id="形状_1_3_" transform="translate(10.822511, 0.000000)">
                            <g id="形状_1" fill="#005BAC">
                                <path d="M39.5909091,0.932088745 L33.2421537,39.9494048 L43.3996212,39.9494048 L49.7491883,0.932088745 L39.5909091,0.932088745 Z M24.6958874,0.932088745 L15.0113636,27.7678571 L13.8658009,21.9891775 L13.8666126,21.9910714 L13.6141775,20.6958874 C12.4420996,18.1699134 9.72754329,13.3690476 4.6017316,9.27191558 C3.08630952,8.06087662 1.55871212,7.02732684 0.0819805195,6.14448052 L8.88365801,39.9494048 L19.4669913,39.9494048 L35.6285173,0.932088745 L24.6958874,0.932088745 Z M64.3390152,11.7640693 C64.3390152,7.35281385 74.2316017,7.91964286 78.5784632,10.3149351 L80.027868,1.93506494 C80.027868,1.93506494 75.5543831,0.233766234 70.8915043,0.233766234 C65.8503788,0.233766234 53.8798701,2.43831169 53.8798701,13.1501623 C53.8798701,23.2313312 67.9296537,23.3566017 67.9296537,28.6493506 C67.9296537,33.9420996 55.3284632,32.9962121 51.1699134,29.6574675 L49.6585498,38.4163961 C49.6585498,38.4163961 54.1939935,40.6209416 61.1255411,40.6209416 C68.0562771,40.6209416 78.5151515,37.030303 78.5151515,27.2632576 C78.5151515,17.1190476 64.3390152,16.1742424 64.3390152,11.7640693 Z M105.789232,0.932088745 L97.6222944,0.932088745 C93.8511905,0.932088745 92.9329004,3.83982684 92.9329004,3.83982684 L77.784632,39.9494048 L88.3720238,39.9494048 L90.4899892,34.1542208 L103.403409,34.1542208 L104.594697,39.9494048 L113.921537,39.9494048 L105.789232,0.932088745 Z M93.4172078,26.1474567 L98.7548701,11.5462662 L101.757576,26.1474567 L93.4172078,26.1474567 Z" id="Shape"></path>
                            </g>
                        </g>
                        <g id="形状_1_2_" transform="translate(0.000000, 1.082251)">
                            <g id="形状_1_1_" fill="#F6AC1D">
                                <path d="M21.4101732,3.5232684 C21.4101732,3.5232684 20.9897186,0.00189393939 16.5010823,0.00189393939 L0.193452381,0.00189393939 L0.00243506494,0.663690476 C0.00243506494,0.663690476 7.84117965,2.2616342 15.3614719,8.24837662 C22.5481602,13.9702381 24.8925866,21.1028139 24.8925866,21.1028139 L21.4101732,3.5232684 Z" id="Path"></path>
                            </g>
                        </g>
                    </g>
                </g>
            </g>
        </g>
    </g>
</svg>