<svg width="48" height="48" viewBox="0 0 48 48" fill="none" xmlns="http://www.w3.org/2000/svg">
<path d="M8.82 45.1256H39.1809C41.3222 45.1256 43.2694 44.0372 44.3906 42.2128C45.5119 40.3894 45.6047 38.16 44.6391 36.2494L29.4581 6.23064C28.4109 4.16064 26.3203 2.87439 24 2.87439C21.6797 2.87439 19.5891 4.16064 18.5419 6.23064L3.36188 36.2503C2.39625 38.1609 2.48813 40.3903 3.61031 42.2138C4.73156 44.0372 6.67875 45.1256 8.82 45.1256ZM6.03938 37.6041L21.2194 7.58439C21.7613 6.51376 22.8 5.87439 24 5.87439C25.2 5.87439 26.2397 6.51376 26.7806 7.58439L41.9606 37.6041C42.4528 38.5772 42.4059 39.7134 41.8341 40.6425C41.2631 41.5716 40.2703 42.1266 39.18 42.1266H8.82C7.72969 42.1266 6.73688 41.5716 6.16594 40.6425C5.59406 39.7125 5.54719 38.5772 6.03938 37.6041Z" fill="#FA4566"/>
<path d="M26.5191 17.6L25.8691 28.275H22.1191L21.4691 17.6H26.5191ZM23.9941 30.425C24.7108 30.425 25.3024 30.675 25.7691 31.175C26.2524 31.675 26.4941 32.275 26.4941 32.975C26.4941 33.6583 26.2524 34.25 25.7691 34.75C25.3024 35.25 24.7108 35.5 23.9941 35.5C23.2774 35.5 22.6774 35.25 22.1941 34.75C21.7274 34.25 21.4941 33.6583 21.4941 32.975C21.4941 32.275 21.7274 31.675 22.1941 31.175C22.6774 30.675 23.2774 30.425 23.9941 30.425Z" fill="#FA4566"/>
</svg>
