<svg width="50" height="45" viewBox="0 0 50 45" fill="none" xmlns="http://www.w3.org/2000/svg">
<path d="M24.7547 19.118V16.5816C24.7547 15.4367 25.0315 14.8904 26.8087 14.8904H28.9823V10.6628H25.3177C20.7581 10.6628 19.3059 12.6877 19.3059 16.2755V19.118H16.2057V23.4395H19.3059V36.2161H24.7547V23.4395H28.5328L29.0387 19.118H24.7547Z" fill="#2C52FF"/>
<path fill-rule="evenodd" clip-rule="evenodd" d="M0.0469971 22.5C0.0469971 10.0996 10.0996 0.0469971 22.5 0.0469971C34.9005 0.0469971 44.9531 10.0996 44.9531 22.5C44.9531 34.9005 34.9005 44.9531 22.5 44.9531C10.0996 44.9531 0.0469971 34.9005 0.0469971 22.5ZM22.5 43.5439C28.1211 43.5439 33.4056 41.3549 37.3803 37.3803C41.3549 33.4056 43.5439 28.1211 43.5439 22.5C43.5439 16.879 41.3549 11.5944 37.3803 7.61977C33.4056 3.64512 28.1211 1.45618 22.5 1.45618C16.879 1.45618 11.5944 3.64512 7.61977 7.61977C3.64512 11.5944 1.45618 16.879 1.45618 22.5C1.45618 28.1211 3.64512 33.4056 7.61977 37.3803C11.5944 41.3549 16.879 43.5439 22.5 43.5439Z" fill="#2C52FF"/>
<g style="mix-blend-mode:multiply">
<path fill-rule="evenodd" clip-rule="evenodd" d="M28.5 44C40.3742 44 50 34.3741 50 22.5C50 10.6259 40.3742 1 28.5 1C16.6259 1 7.00003 10.6259 7.00003 22.5C7.00003 34.3741 16.6259 44 28.5 44Z" fill="#FA4566"/>
</g>
</svg>
