<svg width="16" height="18" viewBox="0 0 16 18" fill="none" xmlns="http://www.w3.org/2000/svg">
<path d="M5.85711 7.2143V13.6429C5.85711 13.747 5.82363 13.8326 5.75666 13.8996C5.6897 13.9665 5.60413 14 5.49996 14H4.78568C4.68151 14 4.59595 13.9665 4.52898 13.8996C4.46202 13.8326 4.42854 13.747 4.42854 13.6429V7.2143C4.42854 7.11014 4.46202 7.02457 4.52898 6.95761C4.59595 6.89064 4.68151 6.85716 4.78568 6.85716H5.49996C5.60413 6.85716 5.6897 6.89064 5.75666 6.95761C5.82363 7.02457 5.85711 7.11014 5.85711 7.2143ZM8.71425 7.2143V13.6429C8.71425 13.747 8.68077 13.8326 8.6138 13.8996C8.54684 13.9665 8.46127 14 8.35711 14H7.64282C7.53865 14 7.45309 13.9665 7.38612 13.8996C7.31916 13.8326 7.28568 13.747 7.28568 13.6429V7.2143C7.28568 7.11014 7.31916 7.02457 7.38612 6.95761C7.45309 6.89064 7.53865 6.85716 7.64282 6.85716H8.35711C8.46127 6.85716 8.54684 6.89064 8.6138 6.95761C8.68077 7.02457 8.71425 7.11014 8.71425 7.2143ZM11.5714 7.2143V13.6429C11.5714 13.747 11.5379 13.8326 11.4709 13.8996C11.404 13.9665 11.3184 14 11.2142 14H10.5C10.3958 14 10.3102 13.9665 10.2433 13.8996C10.1763 13.8326 10.1428 13.747 10.1428 13.6429V7.2143C10.1428 7.11014 10.1763 7.02457 10.2433 6.95761C10.3102 6.89064 10.3958 6.85716 10.5 6.85716H11.2142C11.3184 6.85716 11.404 6.89064 11.4709 6.95761C11.5379 7.02457 11.5714 7.11014 11.5714 7.2143ZM13 15.2947V4.7143H2.99996V15.2947C2.99996 15.4583 3.02601 15.609 3.07809 15.7467C3.13017 15.8843 3.18412 15.9848 3.23992 16.048C3.29572 16.1113 3.33479 16.1429 3.35711 16.1429H12.6428C12.6651 16.1429 12.7042 16.1113 12.76 16.048C12.8158 15.9848 12.8698 15.8843 12.9218 15.7467C12.9739 15.609 13 15.4583 13 15.2947ZM5.49996 3.28573H10.5L9.96425 1.97993C9.91217 1.91296 9.84892 1.87204 9.77452 1.85716H6.23657C6.16217 1.87204 6.09892 1.91296 6.04684 1.97993L5.49996 3.28573ZM15.8571 3.64287V4.35716C15.8571 4.46133 15.8236 4.54689 15.7567 4.61386C15.6897 4.68082 15.6041 4.7143 15.5 4.7143H14.4285V15.2947C14.4285 15.9122 14.2537 16.4461 13.904 16.8962C13.5543 17.3464 13.1339 17.5714 12.6428 17.5714H3.35711C2.86604 17.5714 2.44565 17.3538 2.09595 16.9185C1.74624 16.4833 1.57139 15.9569 1.57139 15.3393V4.7143H0.499965C0.395798 4.7143 0.310233 4.68082 0.243269 4.61386C0.176304 4.54689 0.142822 4.46133 0.142822 4.35716V3.64287C0.142822 3.53871 0.176304 3.45314 0.243269 3.38618C0.310233 3.31921 0.395798 3.28573 0.499965 3.28573H3.94863L4.72988 1.42189C4.84148 1.14659 5.04238 0.91222 5.33255 0.718767C5.62273 0.525315 5.91663 0.428589 6.21425 0.428589H9.78568C10.0833 0.428589 10.3772 0.525315 10.6674 0.718767C10.9576 0.91222 11.1584 1.14659 11.2701 1.42189L12.0513 3.28573H15.5C15.6041 3.28573 15.6897 3.31921 15.7567 3.38618C15.8236 3.45314 15.8571 3.53871 15.8571 3.64287Z" fill="#FA4566"/>
</svg>
