<svg width="26" height="26" viewBox="0 0 26 26" fill="none" xmlns="http://www.w3.org/2000/svg">
<g clip-path="url(#clip0)">
<path d="M7.04167 4.33334H18.9583V6.41334V14.625H1.625V8.66668" stroke="black" stroke-width="2" stroke-linecap="round" stroke-linejoin="round"/>
<path d="M20.0417 21.6667H8.125" stroke="black" stroke-width="2" stroke-linecap="round" stroke-linejoin="round"/>
<path d="M1.625 14.625V21.2767C1.625 21.7804 2.06917 21.6667 2.57292 21.6667H4.875" stroke="black" stroke-width="2" stroke-linecap="round" stroke-linejoin="round"/>
<path d="M18.9584 6.14792L24.9871 9.78792C25.1348 9.89515 25.2546 10.0362 25.3366 10.1992C25.4186 10.3622 25.4603 10.5425 25.4584 10.725V21.2767C25.4584 21.7858 25.0792 21.6667 24.5755 21.6667H23.2917" stroke="black" stroke-width="2" stroke-linecap="round" stroke-linejoin="round"/>
<path d="M7.3125 23.8333C8.65869 23.8333 9.75 22.742 9.75 21.3958C9.75 20.0496 8.65869 18.9583 7.3125 18.9583C5.96631 18.9583 4.875 20.0496 4.875 21.3958C4.875 22.742 5.96631 23.8333 7.3125 23.8333Z" stroke="black" stroke-width="2" stroke-linecap="round" stroke-linejoin="round"/>
<path d="M20.8541 23.8333C22.2003 23.8333 23.2916 22.742 23.2916 21.3958C23.2916 20.0496 22.2003 18.9583 20.8541 18.9583C19.5079 18.9583 18.4166 20.0496 18.4166 21.3958C18.4166 22.742 19.5079 23.8333 20.8541 23.8333Z" stroke="black" stroke-width="2" stroke-linecap="round" stroke-linejoin="round"/>
<path d="M18.9584 8.125V14.625H25.4584" stroke="black" stroke-width="2" stroke-linecap="round" stroke-linejoin="round"/>
<path d="M12.1441 10.4455C12.1441 10.9309 11.995 11.2974 11.6967 11.5451C11.4035 11.7878 11.0319 11.9293 10.582 11.9698V12.6523H10.1573V11.9849C9.85397 11.9698 9.57591 11.9167 9.32314 11.8257C9.07036 11.7296 8.87066 11.6083 8.72405 11.4617C8.5825 11.31 8.51172 11.1482 8.51172 10.9764C8.51172 10.85 8.54964 10.7438 8.62547 10.6579C8.70636 10.5719 8.82516 10.5289 8.98189 10.5289C9.1285 10.5289 9.23972 10.5694 9.31555 10.6503C9.39644 10.7312 9.43689 10.8348 9.43689 10.9612C9.43689 11.0219 9.42172 11.0977 9.39139 11.1887C9.37116 11.2595 9.36105 11.31 9.36105 11.3404C9.36105 11.4667 9.43941 11.5628 9.59614 11.6285C9.75286 11.6942 9.93991 11.7372 10.1573 11.7574V9.94503L9.87672 9.83128C9.48744 9.6695 9.18411 9.45716 8.96672 9.19428C8.74933 8.93139 8.64064 8.623 8.64064 8.26911C8.64064 7.87983 8.77208 7.55122 9.03497 7.28328C9.29786 7.01028 9.67197 6.85861 10.1573 6.82828V6.36569H10.582V6.82828C10.9712 6.86366 11.2872 6.96983 11.5299 7.14678C11.7776 7.31867 11.9015 7.52594 11.9015 7.76861C11.9015 7.90005 11.861 8.00875 11.7801 8.09469C11.7043 8.18064 11.5855 8.22361 11.4237 8.22361C11.267 8.22361 11.1532 8.18317 11.0825 8.10228C11.0117 8.01633 10.9763 7.90511 10.9763 7.76861C10.9763 7.69278 10.9889 7.62705 11.0142 7.57144C11.0395 7.51078 11.0521 7.46275 11.0521 7.42736C11.0521 7.33636 11.0117 7.258 10.9308 7.19228C10.855 7.1215 10.7387 7.07347 10.582 7.04819V8.76203L10.8929 8.89853C11.3479 9.10075 11.6689 9.32319 11.856 9.56586C12.0481 9.80347 12.1441 10.0967 12.1441 10.4455ZM9.36105 7.73828C9.36105 7.94555 9.4293 8.10986 9.5658 8.23119C9.70736 8.35253 9.90452 8.46628 10.1573 8.57244V7.04061C9.90958 7.06589 9.71494 7.13919 9.57339 7.26053C9.43183 7.38186 9.36105 7.54111 9.36105 7.73828ZM10.582 11.7574C10.8347 11.7322 11.0319 11.6614 11.1735 11.5451C11.3201 11.4238 11.3934 11.2595 11.3934 11.0522C11.3934 10.8399 11.3201 10.6604 11.1735 10.5138C11.0269 10.3672 10.8297 10.2382 10.582 10.127V11.7574Z" fill="black"/>
</g>
<defs>
<clipPath id="clip0">
<rect width="26" height="26" fill="white"/>
</clipPath>
</defs>
</svg>
