<svg width="33" height="33" viewBox="0 0 33 33" fill="none" xmlns="http://www.w3.org/2000/svg">
<g clip-path="url(#clip0)">
<path d="M8.9375 5.5H24.0625V8.14V18.5625H2.0625V11" stroke="white" stroke-width="2" stroke-linecap="round" stroke-linejoin="round"/>
<path d="M25.4375 27.5H10.3125" stroke="white" stroke-width="2" stroke-linecap="round" stroke-linejoin="round"/>
<path d="M2.0625 18.5625V27.005C2.0625 27.6444 2.62625 27.5 3.26562 27.5H6.1875" stroke="white" stroke-width="2" stroke-linecap="round" stroke-linejoin="round"/>
<path d="M24.0625 7.8031L31.7144 12.4231C31.9018 12.5592 32.0539 12.7382 32.1579 12.9451C32.262 13.152 32.315 13.3809 32.3125 13.6125V27.005C32.3125 27.6512 31.8312 27.5 31.1919 27.5H29.5625" stroke="white" stroke-width="2" stroke-linecap="round" stroke-linejoin="round"/>
<path d="M9.28125 30.25C10.9899 30.25 12.375 28.8649 12.375 27.1562C12.375 25.4476 10.9899 24.0625 9.28125 24.0625C7.57262 24.0625 6.1875 25.4476 6.1875 27.1562C6.1875 28.8649 7.57262 30.25 9.28125 30.25Z" stroke="white" stroke-width="2" stroke-linecap="round" stroke-linejoin="round"/>
<path d="M26.4688 30.25C28.1774 30.25 29.5625 28.8649 29.5625 27.1562C29.5625 25.4476 28.1774 24.0625 26.4688 24.0625C24.7601 24.0625 23.375 25.4476 23.375 27.1562C23.375 28.8649 24.7601 30.25 26.4688 30.25Z" stroke="white" stroke-width="2" stroke-linecap="round" stroke-linejoin="round"/>
<path d="M24.0625 10.3125V18.5625H32.3125" stroke="white" stroke-width="2" stroke-linecap="round" stroke-linejoin="round"/>
<path d="M15.4137 13.2577C15.4137 13.8737 15.2245 14.3389 14.8459 14.6533C14.4737 14.9613 14.0021 15.141 13.431 15.1923V16.0586H12.892V15.2116C12.507 15.1923 12.1541 15.125 11.8333 15.0095C11.5124 14.8876 11.259 14.7336 11.0729 14.5475C10.8932 14.355 10.8034 14.1496 10.8034 13.9315C10.8034 13.7711 10.8515 13.6363 10.9478 13.5272C11.0504 13.4181 11.2012 13.3636 11.4001 13.3636C11.5862 13.3636 11.7274 13.4149 11.8236 13.5176C11.9263 13.6203 11.9776 13.7518 11.9776 13.9122C11.9776 13.9892 11.9584 14.0855 11.9199 14.201C11.8942 14.2908 11.8814 14.355 11.8814 14.3935C11.8814 14.5539 11.9808 14.6758 12.1798 14.7592C12.3787 14.8426 12.6161 14.8972 12.892 14.9228V12.6225L12.5359 12.4781C12.0418 12.2728 11.6568 12.0033 11.3809 11.6696C11.105 11.3359 10.967 10.9445 10.967 10.4953C10.967 10.0013 11.1338 9.58418 11.4675 9.24409C11.8012 8.89759 12.276 8.70509 12.892 8.66659V8.07947H13.431V8.66659C13.9251 8.71151 14.3261 8.84626 14.6341 9.07084C14.9485 9.28901 15.1057 9.55209 15.1057 9.86009C15.1057 10.0269 15.0544 10.1649 14.9517 10.274C14.8555 10.3831 14.7047 10.4376 14.4994 10.4376C14.3005 10.4376 14.1561 10.3863 14.0662 10.2836C13.9764 10.1745 13.9315 10.0333 13.9315 9.86009C13.9315 9.76384 13.9475 9.68043 13.9796 9.60984C14.0117 9.53284 14.0277 9.47189 14.0277 9.42697C14.0277 9.31147 13.9764 9.21201 13.8737 9.12859C13.7775 9.03876 13.6299 8.9778 13.431 8.94572V11.121L13.8256 11.2942C14.4031 11.5509 14.8106 11.8332 15.048 12.1412C15.2918 12.4428 15.4137 12.815 15.4137 13.2577ZM11.8814 9.82159C11.8814 10.0847 11.968 10.2932 12.1413 10.4472C12.3209 10.6012 12.5712 10.7456 12.892 10.8803V8.93609C12.5776 8.96818 12.3305 9.06122 12.1509 9.21522C11.9712 9.36922 11.8814 9.57134 11.8814 9.82159ZM13.431 14.9228C13.7518 14.8908 14.0021 14.8009 14.1817 14.6533C14.3678 14.4993 14.4609 14.2908 14.4609 14.0277C14.4609 13.7582 14.3678 13.5304 14.1817 13.3443C13.9957 13.1583 13.7454 12.9946 13.431 12.8535V14.9228Z" fill="white"/>
</g>
<defs>
<clipPath id="clip0">
<rect width="33" height="33" fill="white"/>
</clipPath>
</defs>
</svg>
