<svg width="16" height="16" viewBox="0 0 16 16" fill="none" xmlns="http://www.w3.org/2000/svg">
<path fill-rule="evenodd" clip-rule="evenodd" d="M8 0C12.4115 0 16 3.58887 16 8C16 10.2557 15.0579 12.2924 13.5509 13.7482C13.5156 13.7941 13.4738 13.8313 13.4249 13.8627C11.9974 15.1846 10.0945 16 8 16C5.90552 16 4.00256 15.1846 2.57507 13.8627C2.52616 13.8313 2.48438 13.7941 2.4491 13.7482C0.942139 12.2924 0 10.2557 0 8C0 3.58887 3.58854 0 8 0ZM15 8C15 4.1403 11.86 1 8 1C4.13997 1 1 4.1403 1 8C1 9.63664 1.56885 11.1405 2.51351 12.3339C2.94718 10.9353 4.18526 9.8405 5.8656 9.33671C4.94987 8.67399 4.35091 7.6003 4.35091 6.38704C4.35091 4.3776 5.98763 2.74284 8 2.74284C10.0124 2.74284 11.6491 4.3776 11.6491 6.38704C11.6491 7.6003 11.0501 8.67399 10.1344 9.33671C11.8147 9.8405 13.0528 10.9353 13.4865 12.3339C14.4312 11.1405 15 9.63664 15 8ZM5.35091 6.38704C5.35091 4.92904 6.53906 3.74284 8 3.74284C9.46094 3.74284 10.6491 4.92904 10.6491 6.38704C10.6491 7.84505 9.46094 9.03125 8 9.03125C6.53906 9.03125 5.35091 7.84505 5.35091 6.38704ZM8 10.0312C5.44824 10.0312 3.50415 11.388 3.35384 13.2213C4.59127 14.3237 6.21619 15 8 15C9.78381 15 11.4087 14.3237 12.6462 13.2213C12.4958 11.388 10.5518 10.0312 8 10.0312Z" fill="#2C52FF"/>
</svg>
