<svg width="25" height="27" viewBox="0 0 25 27" fill="none" xmlns="http://www.w3.org/2000/svg">
<path d="M22.8814 2.05933H9.32203C8.15243 2.06089 7.20484 3.08429 7.20339 4.34746V5.36014C3.13307 5.92592 0 9.15255 0 13.0424C0 16.5821 2.65203 19.6981 6.35593 20.574V24.4831C6.35593 24.679 6.47159 24.8533 6.64331 24.9163C6.81525 24.9793 7.00518 24.9172 7.11566 24.7617L10.0199 20.6844C13.0166 20.181 15.3893 18.2814 16.4077 15.7877H17.2148L20.4182 20.6294C20.4975 20.7499 20.6257 20.8216 20.7627 20.822C20.8068 20.822 20.8504 20.8144 20.8924 20.8001C21.0677 20.7391 21.1864 20.5633 21.1864 20.3644V15.7881H22.8814C24.051 15.7866 24.9986 14.7632 25 13.5V4.34746C24.9986 3.08429 24.051 2.06089 22.8814 2.05933V2.05933ZM9.73045 19.8051C9.62038 19.8217 9.52066 19.8844 9.453 19.9796L7.20339 23.1377V20.1988C7.2036 19.9772 7.05691 19.7875 6.85518 19.7479C3.37411 19.0693 0.847458 16.2493 0.847458 13.0424C0.847458 9.25735 4.26915 6.17797 8.47458 6.17797C12.68 6.17797 16.1017 9.25735 16.1017 13.0424C16.1017 16.4082 13.4224 19.2527 9.73045 19.8051ZM24.1525 13.5C24.1525 14.2582 23.5834 14.8729 22.8814 14.8729H21.1864C20.7184 14.8729 20.339 15.2827 20.339 15.7881V18.9366L17.9013 15.2523C17.7416 15.0157 17.4873 14.8749 17.2161 14.8729H16.7077C16.8658 14.2776 16.9471 13.6616 16.9492 13.0424C16.9492 8.75257 13.1474 5.26272 8.47458 5.26272C8.3314 5.26272 8.19195 5.2759 8.05085 5.28238V4.34746C8.05085 3.58929 8.62003 2.97458 9.32203 2.97458H22.8814C23.5834 2.97458 24.1525 3.58929 24.1525 4.34746V13.5Z" fill="black"/>
<path d="M6.35591 10.7542C6.35591 9.99606 5.78673 9.38135 5.08472 9.38135C4.38272 9.38135 3.81354 9.99606 3.81354 10.7542C3.81354 11.5124 4.38272 12.1271 5.08472 12.1271C5.78673 12.1271 6.35591 11.5124 6.35591 10.7542ZM4.661 10.7542C4.661 10.5015 4.85072 10.2966 5.08472 10.2966C5.31873 10.2966 5.50845 10.5015 5.50845 10.7542C5.50845 11.007 5.31873 11.2119 5.08472 11.2119C4.85072 11.2119 4.661 11.007 4.661 10.7542Z" fill="black"/>
<path d="M11.4407 9.38135C10.7387 9.38135 10.1695 9.99606 10.1695 10.7542C10.1695 11.5124 10.7387 12.1271 11.4407 12.1271C12.1427 12.1271 12.7119 11.5124 12.7119 10.7542C12.7119 9.99606 12.1427 9.38135 11.4407 9.38135ZM11.4407 11.2119C11.2067 11.2119 11.017 11.007 11.017 10.7542C11.017 10.5015 11.2067 10.2966 11.4407 10.2966C11.6747 10.2966 11.8644 10.5015 11.8644 10.7542C11.8644 11.007 11.6747 11.2119 11.4407 11.2119Z" fill="black"/>
<path d="M8.05083 16.7033C6.41571 16.7033 5.08473 15.4718 5.08473 13.9575H4.23727C4.23727 15.9762 5.94791 17.6185 8.05083 17.6185C10.1538 17.6185 11.8644 15.9762 11.8644 13.9575H11.0169C11.0169 15.4718 9.68595 16.7033 8.05083 16.7033Z" fill="black"/>
<path d="M17.7966 7.55078C17.0946 7.55078 16.5254 8.16549 16.5254 8.92366C16.5254 9.68183 17.0946 10.2965 17.7966 10.2965C18.4986 10.2965 19.0678 9.68183 19.0678 8.92366C19.0678 8.16549 18.4986 7.55078 17.7966 7.55078ZM17.7966 9.38129C17.5626 9.38129 17.3729 9.17639 17.3729 8.92366C17.3729 8.67094 17.5626 8.46604 17.7966 8.46604C18.0306 8.46604 18.2203 8.67094 18.2203 8.92366C18.2203 9.17639 18.0306 9.38129 17.7966 9.38129Z" fill="black"/>
<path d="M21.1864 7.55078C20.4844 7.55078 19.9153 8.16549 19.9153 8.92366C19.9153 9.68183 20.4844 10.2965 21.1864 10.2965C21.8884 10.2965 22.4576 9.68183 22.4576 8.92366C22.4576 8.16549 21.8884 7.55078 21.1864 7.55078ZM21.1864 9.38129C20.9524 9.38129 20.7627 9.17639 20.7627 8.92366C20.7627 8.67094 20.9524 8.46604 21.1864 8.46604C21.4204 8.46604 21.6102 8.67094 21.6102 8.92366C21.6102 9.17639 21.4204 9.38129 21.1864 9.38129Z" fill="black"/>
</svg>
