<svg width="22" height="22" viewBox="0 0 22 22" fill="none" xmlns="http://www.w3.org/2000/svg">
<g style="mix-blend-mode:multiply">
<path fill-rule="evenodd" clip-rule="evenodd" d="M0 11C0 4.92475 4.925 0 11 0C17.075 0 22 4.92475 22 11C22 17.0753 17.075 22 11 22C4.925 22 0 17.0753 0 11ZM2 11C2 15.9705 6.0295 20 11 20C15.9705 20 20 15.9705 20 11C20 6.0295 15.9705 2 11 2C6.0295 2 2 6.0295 2 11Z" fill="#FA4566"/>
<path fill-rule="evenodd" clip-rule="evenodd" d="M12.474 10.9609L14.65 15H12.2749L11.1086 12.1413L9.9993 15H7.69531L9.8571 11.032L7.89442 7.448H10.2411L11.1655 9.8942L12.0473 7.448H14.3086L12.474 10.9609Z" fill="#FA4566"/>
</g>
</svg>
