<svg width="65" height="49" viewBox="0 0 65 49" fill="none" xmlns="http://www.w3.org/2000/svg">
<rect width="65" height="49" rx="5" fill="#FF4769"/>
<path fill-rule="evenodd" clip-rule="evenodd" d="M34.8527 21.1905H31.8773V16.619H27.4141V13.5714H31.8773V9H34.8527V13.5714H39.3159V16.619H34.8527V21.1905ZM22.9658 37.9524C22.9658 36.2686 24.2824 34.9048 25.9264 34.9048C27.5703 34.9048 28.9018 36.2686 28.9018 37.9524C28.9018 39.6362 27.5703 41 25.9264 41C24.2824 41 22.9658 39.6362 22.9658 37.9524ZM40.8036 34.9048C39.1597 34.9048 37.843 36.2686 37.843 37.9524C37.843 39.6362 39.1597 41 40.8036 41C42.4476 41 43.7791 39.6362 43.7791 37.9524C43.7791 36.2686 42.4476 34.9048 40.8036 34.9048ZM26.2313 29.7695C26.2016 29.8229 26.1867 29.8838 26.1867 29.9524C26.1867 30.1657 26.3504 30.3333 26.5586 30.3333H43.7791V33.381H25.9264C24.2824 33.381 22.9509 32.0171 22.9509 30.3333C22.9509 29.8 23.0848 29.3048 23.3154 28.8629L25.3313 25.1295L19.9755 13.5714H17V10.5238H21.8574L23.2633 13.5714L24.6767 16.619L28.0166 23.8267L28.21 24.2381H38.6464L42.7451 16.619L44.389 13.5714H44.3965L47 15.0343L41.2574 25.7162C40.7441 26.6533 39.7697 27.2857 38.6539 27.2857H27.5703L26.2313 29.7695Z" fill="black"/>
</svg>
