<svg width="50" height="45" viewBox="0 0 50 45" fill="none" xmlns="http://www.w3.org/2000/svg">
<path fill-rule="evenodd" clip-rule="evenodd" d="M0.0469971 22.5C0.0469971 10.0996 10.0996 0.0469971 22.5 0.0469971C34.9005 0.0469971 44.9531 10.0996 44.9531 22.5C44.9531 34.9005 34.9005 44.9531 22.5 44.9531C10.0996 44.9531 0.0469971 34.9005 0.0469971 22.5ZM22.5 43.5439C28.1211 43.5439 33.4056 41.3549 37.3803 37.3803C41.3549 33.4056 43.5439 28.1211 43.5439 22.5C43.5439 16.879 41.3549 11.5944 37.3803 7.61977C33.4056 3.64512 28.1211 1.45618 22.5 1.45618C16.879 1.45618 11.5944 3.64512 7.61977 7.61977C3.64512 11.5944 1.45618 16.879 1.45618 22.5C1.45618 28.1211 3.64512 33.4056 7.61977 37.3803C11.5944 41.3549 16.879 43.5439 22.5 43.5439Z" fill="#2C52FF"/>
<path fill-rule="evenodd" clip-rule="evenodd" d="M14.7367 11.8842H30.5203C32.0198 11.8842 33.2098 13.069 33.2098 14.5683V30.3523C33.2098 31.8514 32.0199 33.116 30.5203 33.116H14.7367C13.2376 33.116 11.9781 31.8515 11.9781 30.3523V14.5683C11.9781 13.069 13.2376 11.8842 14.7367 11.8842ZM27.4799 14.2328C26.9538 14.2328 26.5397 14.6321 26.5397 15.1579V17.4462C26.5397 17.972 26.9538 18.3664 27.4799 18.3664H29.88C30.4061 18.3664 30.8612 17.972 30.8612 17.4462V15.1579C30.8612 14.6321 30.4061 14.2328 29.88 14.2328H27.4799ZM30.8612 20.809H28.9773C29.1538 21.3727 29.2494 22.0047 29.2494 22.638C29.2494 26.17 26.294 29.0364 22.6488 29.0364C19.0034 29.0364 16.0485 26.1682 16.0485 22.6362C16.0485 22.003 16.1438 21.3727 16.3207 20.809H14.3267V29.7927C14.3267 30.2572 14.7504 30.6733 15.2146 30.6733H30.0019C30.4664 30.6733 30.8612 30.2572 30.8612 29.7927V20.809ZM22.6488 18.2819C20.2935 18.2819 18.3841 20.1319 18.3841 22.4142C18.3841 24.6966 20.2935 26.5466 22.6488 26.5466C25.0043 26.5466 26.9136 24.6966 26.9136 22.4142C26.9136 20.1319 25.0043 18.2819 22.6488 18.2819Z" fill="#2C52FF"/>
<g style="mix-blend-mode:multiply">
<path fill-rule="evenodd" clip-rule="evenodd" d="M28.5 44C40.3742 44 50 34.3741 50 22.5C50 10.6259 40.3742 1 28.5 1C16.6259 1 7.00003 10.6259 7.00003 22.5C7.00003 34.3741 16.6259 44 28.5 44Z" fill="#FA4566"/>
</g>
</svg>
