<svg width="42" height="44" viewBox="0 0 42 44" fill="none" xmlns="http://www.w3.org/2000/svg">
<path fill-rule="evenodd" clip-rule="evenodd" d="M0 22C0 9.84974 9.40202 0 21 0C32.598 0 42 9.84974 42 22C42 34.1503 32.598 44 21 44C9.40202 44 0 34.1503 0 22ZM21 4C11.5107 4 3.81818 12.0589 3.81818 22C3.81818 31.9411 11.5107 40 21 40C30.4893 40 38.1818 31.9411 38.1818 22C38.1818 12.0589 30.4893 4 21 4Z" fill="#2C52FF"/>
<path fill-rule="evenodd" clip-rule="evenodd" d="M28.174 16.5626C27.4573 15.8125 26.2953 15.8125 25.5788 16.5626L19.0913 23.3596L16.4962 20.6409C15.7795 19.8903 14.6181 19.8903 13.901 20.6409C13.1845 21.3916 13.1845 22.6089 13.901 23.3601L17.7931 27.437C18.5096 28.1877 19.6721 28.1877 20.3887 27.437L28.1735 19.2814C28.8906 18.5306 28.8914 17.3138 28.174 16.5626Z" fill="#2C52FF"/>
</svg>
