<svg width="27" height="27" viewBox="0 0 27 27" fill="none" xmlns="http://www.w3.org/2000/svg">
<path d="M13.5 1.125C6.66563 1.125 1.125 6.66534 1.125 13.5C1.125 20.3347 6.66563 25.875 13.5 25.875C20.3344 25.875 25.875 20.3347 25.875 13.5C25.875 6.66534 20.3344 1.125 13.5 1.125ZM13.5 23.625C7.90819 23.625 3.375 19.0918 3.375 13.5C3.375 7.90819 7.90819 3.375 13.5 3.375C19.0918 3.375 23.625 7.90819 23.625 13.5C23.625 19.0918 19.0918 23.625 13.5 23.625Z" fill="#2C52FF"/>
<path d="M18.0799 10.454C17.6405 10.015 16.9281 10.015 16.4888 10.454L12.5114 14.4317L10.9204 12.8407C10.481 12.4014 9.76893 12.4014 9.32933 12.8407C8.89002 13.28 8.89002 13.9924 9.32933 14.432L11.7155 16.8179C12.1548 17.2572 12.8675 17.2572 13.3068 16.8179L18.0796 12.0451C18.5192 11.6057 18.5197 10.8936 18.0799 10.454Z" fill="#2C52FF"/>
</svg>
