<svg width="19" height="19" viewBox="0 0 19 19" fill="none" xmlns="http://www.w3.org/2000/svg">
<path fill-rule="evenodd" clip-rule="evenodd" d="M5.92338 11.0339C5.90751 11.0622 5.89958 11.0946 5.89958 11.131C5.89958 11.2443 5.98686 11.3334 6.09794 11.3334H15.2822V12.9524H5.76072C4.88396 12.9524 4.17382 12.2279 4.17382 11.3334C4.17382 11.05 4.24523 10.787 4.36821 10.5522L5.44334 8.56886L2.58691 2.42862H1V0.80957H3.59063L4.34044 2.42862L5.09422 4.04767L6.87553 7.87671L6.97868 8.09528H12.5448L14.7307 4.04767L15.6075 2.42862H15.6115L17 3.20576L13.9373 8.88052C13.6635 9.37838 13.1438 9.71433 12.5487 9.71433H6.63749L5.92338 11.0339ZM5.76072 13.762C4.88396 13.762 4.18175 14.4865 4.18175 15.381C4.18175 16.2755 4.88396 17 5.76072 17C6.63749 17 7.34763 16.2755 7.34763 15.381C7.34763 14.4865 6.63749 13.762 5.76072 13.762ZM13.6953 13.762C12.8185 13.762 12.1163 14.4865 12.1163 15.381C12.1163 16.2755 12.8185 17 13.6953 17C14.572 17 15.2822 16.2755 15.2822 15.381C15.2822 14.4865 14.572 13.762 13.6953 13.762Z" fill="#2C52FF"/>
</svg>
