<svg width="30" height="25" viewBox="0 0 30 25" fill="none" xmlns="http://www.w3.org/2000/svg">
<path d="M11.1166 12.3517H28.4091" stroke="#2C52FF" stroke-width="2.5" stroke-linecap="round"/>
<path fill-rule="evenodd" clip-rule="evenodd" d="M2.47036 14.8222C3.8347 14.8222 4.94071 13.7162 4.94071 12.3518C4.94071 10.9875 3.8347 9.88147 2.47036 9.88147C1.10602 9.88147 0 10.9875 0 12.3518C0 13.7162 1.10602 14.8222 2.47036 14.8222Z" fill="#2C52FF"/>
<path d="M11.1166 2.47037H28.4091" stroke="#2C52FF" stroke-width="2.5" stroke-linecap="round"/>
<path fill-rule="evenodd" clip-rule="evenodd" d="M2.47036 4.94071C3.8347 4.94071 4.94071 3.8347 4.94071 2.47036C4.94071 1.10602 3.8347 0 2.47036 0C1.10602 0 0 1.10602 0 2.47036C0 3.8347 1.10602 4.94071 2.47036 4.94071Z" fill="#2C52FF"/>
<path d="M11.1166 22.2332H28.4091" stroke="#2C52FF" stroke-width="2.5" stroke-linecap="round"/>
<path fill-rule="evenodd" clip-rule="evenodd" d="M2.47036 24.7035C3.8347 24.7035 4.94071 23.5975 4.94071 22.2332C4.94071 20.8688 3.8347 19.7628 2.47036 19.7628C1.10602 19.7628 0 20.8688 0 22.2332C0 23.5975 1.10602 24.7035 2.47036 24.7035Z" fill="#2C52FF"/>
</svg>
