<svg width="16" height="19" viewBox="0 0 16 19" fill="none" xmlns="http://www.w3.org/2000/svg">
<path d="M8.54 0.0800018C10.1 0.0800018 11.4333 0.426669 12.54 1.12C13.66 1.8 14.5 2.73334 15.06 3.92C15.6333 5.09334 15.92 6.4 15.92 7.84C15.92 9.77334 15.62 11.2467 15.02 12.26C14.42 13.26 13.6267 13.76 12.64 13.76C12.0267 13.76 11.5333 13.5667 11.16 13.18C10.8 12.78 10.56 12.2733 10.44 11.66C10.1733 12.3 9.82 12.8067 9.38 13.18C8.94 13.54 8.41334 13.72 7.8 13.72C6.88 13.72 6.13334 13.34 5.56 12.58C5 11.8067 4.72 10.7333 4.72 9.36C4.72 7.70667 5.06667 6.45334 5.76 5.6C6.46667 4.74667 7.38 4.32 8.5 4.32C9.38 4.32 10.26 4.56667 11.14 5.06V10.2C11.14 11.9733 11.6333 12.86 12.62 12.86C13.2733 12.86 13.8 12.4733 14.2 11.7C14.6 10.9133 14.8 9.64 14.8 7.88C14.8 6.53334 14.5533 5.34667 14.06 4.32C13.58 3.29334 12.8667 2.49334 11.92 1.92C10.9867 1.33334 9.86 1.04 8.54 1.04C7.18 1.04 5.98 1.39334 4.94 2.1C3.9 2.80667 3.09333 3.78 2.52 5.02C1.96 6.24667 1.68 7.63334 1.68 9.18C1.68 10.8333 1.96 12.26 2.52 13.46C3.08 14.6467 3.87334 15.5533 4.9 16.18C5.92667 16.82 7.13334 17.14 8.52 17.14C9.66667 17.14 10.7933 16.92 11.9 16.48L12.22 17.38C11.58 17.62 10.98 17.8 10.42 17.92C9.87334 18.04 9.23333 18.1 8.5 18.1C6.95333 18.1 5.58 17.7467 4.38 17.04C3.18 16.3333 2.24 15.3067 1.56 13.96C0.893335 12.6133 0.560001 11.02 0.560001 9.18C0.560001 7.47334 0.893335 5.92667 1.56 4.54C2.22667 3.15334 3.16667 2.06667 4.38 1.28C5.59334 0.480002 6.98 0.0800018 8.54 0.0800018ZM7.9 12.82C8.42 12.82 8.87333 12.6333 9.26 12.26C9.64667 11.8733 9.93334 11.4067 10.12 10.86V5.56C9.57333 5.32 9.04667 5.2 8.54 5.2C7.68667 5.2 7.02 5.56 6.54 6.28C6.07333 6.98667 5.84 8.01334 5.84 9.36C5.84 10.5067 6.02 11.3733 6.38 11.96C6.74 12.5333 7.24667 12.82 7.9 12.82Z" fill="black"/>
</svg>
