<svg width="14" height="16" viewBox="0 0 14 16" fill="none" xmlns="http://www.w3.org/2000/svg">
<path fill-rule="evenodd" clip-rule="evenodd" d="M2.45001 4.33334V6.66664H1.40003C0.626533 6.66664 0 7.26331 0 7.99998V14.6667C0 15.4034 0.626533 16 1.40003 16H12.5999C13.3734 16 14 15.4034 14 14.6667V7.99998C14 7.26331 13.3734 6.66664 12.5999 6.66664H11.55V4.33334C11.55 1.94006 9.51284 0 7 0C4.48716 0 2.45001 1.94003 2.45001 4.33334ZM4 6V3.66671C4 2.19341 5.34245 1 6.99996 1C8.65746 1 10 2.19341 10 3.66671V6H4ZM5 9.71428C5 8.76716 5.89501 8 7.00003 8C8.10505 8 9 8.76716 9 9.71428C9 10.3186 8.63491 10.8501 8.08507 11.1544C8.08507 11.1544 8.28044 12.166 8.50013 13.3573C8.50013 13.7129 8.16514 14 7.75008 14H6.24998C5.83497 14 5.50003 13.7129 5.50003 13.3573L5.9151 11.1544C5.3652 10.8501 5 10.3186 5 9.71428Z" fill="#989898"/>
</svg>
