<svg width="50" height="45" viewBox="0 0 50 45" fill="none" xmlns="http://www.w3.org/2000/svg">
<path d="M38 14.7226C37.0075 15.1851 35.9393 15.4971 34.8184 15.6366C35.9628 14.9185 36.8403 13.7809 37.2542 12.424C36.1838 13.0898 34.9988 13.5731 33.7366 13.8338C32.7265 12.7056 31.2867 12 29.6935 12C26.6347 12 24.1545 14.5996 24.1545 17.8066C24.1545 18.2611 24.2033 18.704 24.2982 19.1297C19.6943 18.8872 15.6122 16.576 12.8801 13.0629C12.4032 13.92 12.1302 14.9174 12.1302 15.9825C12.1302 17.9968 13.108 19.7743 14.5944 20.8153C13.6868 20.7849 12.8323 20.5235 12.0852 20.0886C12.0847 20.1127 12.0847 20.1374 12.0847 20.162C12.0847 22.9748 13.9942 25.321 16.5285 25.8554C16.0637 25.9876 15.5743 26.0589 15.069 26.0589C14.7116 26.0589 14.3646 26.0226 14.0265 25.9543C14.7319 28.261 16.7773 29.9404 19.2009 29.9868C17.3051 31.5443 14.9172 32.4728 12.3215 32.4728C11.8748 32.4728 11.4335 32.4451 11 32.3912C13.4521 34.0394 16.3635 35 19.4914 35C29.6808 35 35.252 26.1525 35.252 18.4793C35.252 18.2276 35.2471 17.9767 35.2367 17.7274C36.3186 16.9103 37.2579 15.8872 38 14.7226Z" fill="#2C52FF"/>
<path fill-rule="evenodd" clip-rule="evenodd" d="M3.05176e-05 22.5C3.05176e-05 10.0736 10.0736 0 22.5 0C34.9264 0 45 10.0736 45 22.5C45 34.9264 34.9264 45 22.5 45C10.0736 45 3.05176e-05 34.9264 3.05176e-05 22.5ZM22.5 43.5879C28.1328 43.5879 33.4284 41.3944 37.4114 37.4114C41.3944 33.4284 43.5879 28.1328 43.5879 22.5C43.5879 16.8672 41.3944 11.5716 37.4114 7.58862C33.4284 3.60565 28.1328 1.41213 22.5 1.41213C16.8672 1.41213 11.5716 3.60565 7.58865 7.58862C3.60568 11.5716 1.41216 16.8672 1.41216 22.5C1.41216 28.1328 3.60568 33.4284 7.58865 37.4114C11.5716 41.3944 16.8672 43.5879 22.5 43.5879Z" fill="#2C52FF"/>
<g style="mix-blend-mode:multiply">
<path fill-rule="evenodd" clip-rule="evenodd" d="M28.5 44C40.3742 44 50 34.3741 50 22.5C50 10.6259 40.3742 1 28.5 1C16.6259 1 7.00003 10.6259 7.00003 22.5C7.00003 34.3741 16.6259 44 28.5 44Z" fill="#FA4566"/>
</g>
</svg>
