<svg width="33" height="33" viewBox="0 0 33 33" fill="none" xmlns="http://www.w3.org/2000/svg">
<g clip-path="url(#clip0)">
<path fill-rule="evenodd" clip-rule="evenodd" d="M7.9375 5.5C7.9375 4.94772 8.38522 4.5 8.9375 4.5H24.0625C24.6148 4.5 25.0625 4.94772 25.0625 5.5V18.5625C25.0625 19.1148 24.6148 19.5625 24.0625 19.5625H2.0625C1.51022 19.5625 1.0625 19.1148 1.0625 18.5625V11C1.0625 10.4477 1.51022 10 2.0625 10C2.61478 10 3.0625 10.4477 3.0625 11V17.5625H23.0625V6.5H8.9375C8.38522 6.5 7.9375 6.05228 7.9375 5.5Z" fill="#2C52FF"/>
<path fill-rule="evenodd" clip-rule="evenodd" d="M9.3125 27.5C9.3125 26.9477 9.76022 26.5 10.3125 26.5H25.4375C25.9898 26.5 26.4375 26.9477 26.4375 27.5C26.4375 28.0523 25.9898 28.5 25.4375 28.5H10.3125C9.76022 28.5 9.3125 28.0523 9.3125 27.5Z" fill="#2C52FF"/>
<path fill-rule="evenodd" clip-rule="evenodd" d="M2.0625 17.5625C2.61478 17.5625 3.0625 18.0102 3.0625 18.5625V26.5034C3.12557 26.5015 3.19424 26.5 3.26562 26.5H6.1875C6.73978 26.5 7.1875 26.9477 7.1875 27.5C7.1875 28.0523 6.73978 28.5 6.1875 28.5H3.26562C3.17699 28.5 3.10889 28.5026 3.02772 28.5058C2.97235 28.5079 2.91091 28.5103 2.83272 28.5123C2.68387 28.516 2.45734 28.5183 2.22965 28.4731C1.98973 28.4255 1.65058 28.3061 1.38836 27.9874C1.12809 27.6711 1.0625 27.303 1.0625 27.005V18.5625C1.0625 18.0102 1.51022 17.5625 2.0625 17.5625Z" fill="#2C52FF"/>
<path fill-rule="evenodd" clip-rule="evenodd" d="M23.2063 7.28626C23.4918 6.81347 24.1065 6.6616 24.5793 6.94706L32.2311 11.5671C32.2554 11.5817 32.279 11.5974 32.3019 11.614C32.6185 11.8439 32.8754 12.1463 33.0512 12.4959C33.2261 12.8436 33.3156 13.228 33.3124 13.6172V27.005C33.3124 27.2726 33.2655 27.6236 33.0393 27.9385C32.7951 28.2785 32.4584 28.4175 32.2017 28.4726C31.9717 28.5219 31.7438 28.5172 31.6064 28.5131C31.538 28.511 31.4824 28.5086 31.4321 28.5065C31.3493 28.5029 31.2805 28.5 31.1918 28.5H29.5624C29.0101 28.5 28.5624 28.0523 28.5624 27.5C28.5624 26.9477 29.0101 26.5 29.5624 26.5H31.1918C31.2333 26.5 31.2737 26.5005 31.3124 26.5013V13.6017C31.3132 13.5298 31.2968 13.4587 31.2644 13.3944C31.2367 13.3392 31.1979 13.2904 31.1507 13.251L23.5455 8.65919C23.0727 8.37373 22.9209 7.75905 23.2063 7.28626Z" fill="#2C52FF"/>
<path fill-rule="evenodd" clip-rule="evenodd" d="M9.28125 25.0625C8.1249 25.0625 7.1875 25.9999 7.1875 27.1562C7.1875 28.3126 8.1249 29.25 9.28125 29.25C10.4376 29.25 11.375 28.3126 11.375 27.1562C11.375 25.9999 10.4376 25.0625 9.28125 25.0625ZM5.1875 27.1562C5.1875 24.8953 7.02033 23.0625 9.28125 23.0625C11.5422 23.0625 13.375 24.8953 13.375 27.1562C13.375 29.4172 11.5422 31.25 9.28125 31.25C7.02033 31.25 5.1875 29.4172 5.1875 27.1562Z" fill="#2C52FF"/>
<path fill-rule="evenodd" clip-rule="evenodd" d="M26.4688 25.0625C25.3124 25.0625 24.375 25.9999 24.375 27.1562C24.375 28.3126 25.3124 29.25 26.4688 29.25C27.6251 29.25 28.5625 28.3126 28.5625 27.1562C28.5625 25.9999 27.6251 25.0625 26.4688 25.0625ZM22.375 27.1562C22.375 24.8953 24.2078 23.0625 26.4688 23.0625C28.7297 23.0625 30.5625 24.8953 30.5625 27.1562C30.5625 29.4172 28.7297 31.25 26.4688 31.25C24.2078 31.25 22.375 29.4172 22.375 27.1562Z" fill="#2C52FF"/>
<path fill-rule="evenodd" clip-rule="evenodd" d="M24.0625 9.3125C24.6148 9.3125 25.0625 9.76022 25.0625 10.3125V17.5625H32.3125C32.8648 17.5625 33.3125 18.0102 33.3125 18.5625C33.3125 19.1148 32.8648 19.5625 32.3125 19.5625H24.0625C23.5102 19.5625 23.0625 19.1148 23.0625 18.5625V10.3125C23.0625 9.76022 23.5102 9.3125 24.0625 9.3125Z" fill="#2C52FF"/>
<path d="M15.4138 13.2578C15.4138 13.8738 15.2245 14.339 14.846 14.6534C14.4738 14.9614 14.0022 15.1411 13.4311 15.1924V16.0587H12.8921V15.2117C12.5071 15.1924 12.1542 15.125 11.8333 15.0095C11.5125 14.8876 11.2591 14.7336 11.073 14.5475C10.8933 14.355 10.8035 14.1497 10.8035 13.9315C10.8035 13.7711 10.8516 13.6364 10.9478 13.5273C11.0505 13.4182 11.2013 13.3637 11.4002 13.3637C11.5863 13.3637 11.7275 13.415 11.8237 13.5177C11.9264 13.6203 11.9777 13.7519 11.9777 13.9123C11.9777 13.9893 11.9585 14.0855 11.92 14.201C11.8943 14.2909 11.8815 14.355 11.8815 14.3935C11.8815 14.5539 11.9809 14.6759 12.1798 14.7593C12.3788 14.8427 12.6162 14.8972 12.8921 14.9229V12.6225L12.536 12.4782C12.0419 12.2728 11.6569 12.0033 11.381 11.6697C11.1051 11.336 10.9671 10.9446 10.9671 10.4954C10.9671 10.0013 11.1339 9.58424 11.4676 9.24415C11.8013 8.89765 12.2761 8.70515 12.8921 8.66665V8.07953H13.4311V8.66665C13.9252 8.71157 14.3262 8.84632 14.6342 9.0709C14.9486 9.28907 15.1058 9.55215 15.1058 9.86015C15.1058 10.027 15.0545 10.1649 14.9518 10.274C14.8556 10.3831 14.7048 10.4377 14.4995 10.4377C14.3005 10.4377 14.1562 10.3863 14.0663 10.2837C13.9765 10.1746 13.9316 10.0334 13.9316 9.86015C13.9316 9.7639 13.9476 9.68049 13.9797 9.60991C14.0118 9.5329 14.0278 9.47195 14.0278 9.42703C14.0278 9.31153 13.9765 9.21207 13.8738 9.12865C13.7776 9.03882 13.63 8.97786 13.4311 8.94578V11.121L13.8257 11.2943C14.4032 11.5509 14.8107 11.8333 15.0481 12.1413C15.2919 12.4429 15.4138 12.815 15.4138 13.2578ZM11.8815 9.82165C11.8815 10.0847 11.9681 10.2933 12.1413 10.4473C12.321 10.6013 12.5713 10.7457 12.8921 10.8804V8.93615C12.5777 8.96824 12.3306 9.06128 12.151 9.21528C11.9713 9.36928 11.8815 9.5714 11.8815 9.82165ZM13.4311 14.9229C13.7519 14.8908 14.0022 14.801 14.1818 14.6534C14.3679 14.4994 14.461 14.2909 14.461 14.0278C14.461 13.7583 14.3679 13.5305 14.1818 13.3444C13.9958 13.1583 13.7455 12.9947 13.4311 12.8535V14.9229Z" fill="#2C52FF"/>
</g>
<defs>
<clipPath id="clip0">
<rect width="33" height="33" fill="white"/>
</clipPath>
</defs>
</svg>
