<?xml version="1.0" encoding="UTF-8"?>
<svg width="120px" height="42px" viewBox="0 0 120 42" version="1.1" xmlns="http://www.w3.org/2000/svg" xmlns:xlink="http://www.w3.org/1999/xlink">
    <!-- Generator: Sketch 53.2 (72643) - https://sketchapp.com -->
    <title>icone_amex</title>
    <desc>Created with Sketch.</desc>
    <defs>
        <rect id="path-1" x="0" y="0" width="120" height="68.5714286"></rect>
    </defs>
    <g id="Page-1" stroke="none" stroke-width="1" fill="none" fill-rule="evenodd">
        <g id="Mobile" transform="translate(-172.000000, -152.000000)">
            <g id="icone_amex" transform="translate(172.000000, 135.000000)">
                <mask id="mask-2" fill="white">
                    <use xlink:href="#path-1"></use>
                </mask>
                <g id="Mask" fill-rule="nonzero"></g>
                <g mask="url(#mask-2)">
                    <g transform="translate(0.000000, 17.142857)">
                        <g id="Group" stroke-width="1" fill="none">
                            <g fill="#0070D0">
                                <polygon id="Path" points="11.0625 10.3125 15.1875 10.3125 13.125 5.0625"></polygon>
                                <path d="M62.25,5.8125 C61.875,5.625 61.3125,5.625 60.75,5.625 L57,5.625 L57,8.625 L60.75,8.625 C61.3125,8.625 61.875,8.625 62.25,8.4375 C62.625,8.25 62.8125,7.6875 62.8125,7.125 C63,6.375 62.625,6 62.25,5.8125 Z" id="Path"></path>
                                <path d="M102.375,0.1875 L102.375,2.4375 L101.25,0.1875 L92.4375,0.1875 L92.4375,2.4375 L91.3125,0.1875 L79.3125,0.1875 C77.25,0.1875 75.5625,0.5625 74.0625,1.3125 L74.0625,0.1875 L65.625,0.1875 L65.625,1.3125 C64.6875,0.5625 63.5625,0.1875 62.0625,0.1875 L31.875,0.1875 L29.8125,4.875 L27.75,0.1875 L18.1875,0.1875 L18.1875,2.4375 L17.0625,0.1875 L9,0.1875 L5.25,9 L0.9375,18.75 L5.25,18.75 L10.5,18.75 L11.625,15.75 L14.25,15.75 L15.375,18.75 L26.25,18.75 L26.25,16.5 L27.1875,18.75 L32.625,18.75 L33.5625,16.5 L33.5625,18.75 L59.625,18.75 L59.625,13.875 L60,13.875 C60.375,13.875 60.375,13.875 60.375,14.4375 L60.375,18.5625 L73.875,18.5625 L73.875,17.4375 C75,18 76.6875,18.5625 78.9375,18.5625 L84.5625,18.5625 L85.6875,15.5625 L88.3125,15.5625 L89.4375,18.5625 L100.3125,18.5625 L100.3125,15.75 L102,18.5625 L110.8125,18.5625 L110.8125,0.1875 L102.375,0.1875 Z M39,15.9375 L35.8125,15.9375 L35.8125,5.625 L31.3125,15.9375 L28.5,15.9375 L24,5.625 L24,15.9375 L17.625,15.9375 L16.3125,13.125 L9.9375,13.125 L8.8125,16.125 L5.25,16.125 L10.875,2.8125 L15.5625,2.8125 L20.8125,15.375 L20.8125,2.8125 L25.875,2.8125 L30,11.8125 L33.75,2.8125 L39,2.8125 L39,15.9375 Z M51.75,5.625 L44.4375,5.625 L44.4375,8.0625 L51.5625,8.0625 L51.5625,10.6875 L44.4375,10.6875 L44.4375,13.3125 L51.75,13.3125 L51.75,16.125 L41.25,16.125 L41.25,2.8125 L51.75,2.8125 L51.75,5.625 Z M65.8125,11.0625 C66.1875,11.8125 66.375,12.375 66.375,13.5 L66.375,16.125 L63.1875,16.125 L63.1875,14.4375 C63.1875,13.6875 63.1875,12.5625 62.625,11.8125 C62.0625,11.25 61.5,11.25 60.375,11.25 L57,11.25 L57,16.125 L53.8125,16.125 L53.8125,2.8125 L60.9375,2.8125 C62.625,2.8125 63.75,2.8125 64.6875,3.375 C65.625,3.9375 66.1875,4.875 66.1875,6.375 C66.1875,8.4375 64.875,9.5625 63.9375,9.9375 C64.875,10.125 65.4375,10.6875 65.8125,11.0625 Z M71.4375,15.9375 L68.25,15.9375 L68.25,2.625 L71.4375,2.625 L71.4375,15.9375 Z M108.375,15.9375 L103.875,15.9375 L97.875,6 L97.875,15.9375 L91.5,15.9375 L90.375,13.125 L83.8125,13.125 L82.6875,16.125 L79.125,16.125 C77.625,16.125 75.75,15.75 74.625,14.625 C73.5,13.5 72.9375,12 72.9375,9.5625 C72.9375,7.6875 73.3125,5.8125 74.625,4.3125 C75.5625,3.1875 77.25,2.8125 79.3125,2.8125 L82.3125,2.8125 L82.3125,5.625 L79.3125,5.625 C78.1875,5.625 77.625,5.8125 76.875,6.375 C76.3125,6.9375 75.9375,8.0625 75.9375,9.375 C75.9375,10.875 76.125,11.8125 76.875,12.5625 C77.4375,13.125 78.1875,13.3125 79.125,13.3125 L80.4375,13.3125 L84.75,3 L89.4375,3 L94.6875,15.5625 L94.6875,3 L99.375,3 L104.8125,12.1875 L104.8125,3 L108,3 L108,15.9375 L108.375,15.9375 Z" id="Shape" fill-rule="nonzero"></path>
                                <polygon id="Path" points="84.9375 10.3125 89.25 10.3125 87.1875 5.0625"></polygon>
                            </g>
                            <g transform="translate(26.250000, 22.500000)" fill="#0070D0">
                                <polygon id="Path" points="26.8125 14.8125 26.8125 4.125 21.9375 9.375"></polygon>
                                <polygon id="Path" points="6.75 5.4375 6.75 7.875 13.6875 7.875 13.6875 10.5 6.75 10.5 6.75 13.3125 14.4375 13.3125 18 9.375 14.625 5.4375"></polygon>
                                <path d="M33.9375,5.4375 L30,5.4375 L30,8.8125 L34.125,8.8125 C35.25,8.8125 36,8.25 36,7.125 C35.8125,6 35.0625,5.4375 33.9375,5.4375 Z" id="Path"></path>
                                <path d="M91.875,8.625 L91.875,0.1875 L89.625,0.1875 L84,0.1875 C82.3125,0.1875 81,0.5625 80.0625,1.3125 L80.0625,0.1875 L71.4375,0.1875 C70.125,0.1875 68.4375,0.5625 67.6875,1.3125 L67.6875,0.1875 L52.5,0.1875 L52.5,1.3125 C51.375,0.375 49.3125,0.1875 48.375,0.1875 L38.25,0.1875 L38.25,1.3125 C37.3125,0.375 35.0625,0.1875 33.9375,0.1875 L22.6875,0.1875 L20.0625,3 L17.625,0.1875 L0.75,0.1875 L0.75,18.5625 L17.25,18.5625 L19.875,15.75 L22.3125,18.5625 L32.4375,18.5625 L32.4375,14.25 L33.75,14.25 C35.0625,14.25 36.75,14.25 38.0625,13.6875 L38.0625,18.75 L46.5,18.75 L46.5,13.875 L46.875,13.875 C47.4375,13.875 47.4375,13.875 47.4375,14.4375 L47.4375,18.75 L72.9375,18.75 C74.625,18.75 76.3125,18.375 77.25,17.625 L77.25,18.75 L85.3125,18.75 C87,18.75 88.6875,18.5625 89.8125,17.8125 C91.6875,16.6875 92.8125,14.625 92.8125,12.1875 C92.8125,10.875 92.4375,9.5625 91.875,8.625 Z M33.75,11.625 L30,11.625 L30,16.125 L24,16.125 L20.25,11.8125 L16.3125,16.125 L3.9375,16.125 L3.9375,2.8125 L16.5,2.8125 L20.25,7.125 L24.1875,2.8125 L34.125,2.8125 C36.5625,2.8125 39.375,3.5625 39.375,7.125 C39.1875,10.875 36.5625,11.625 33.75,11.625 Z M52.5,10.875 C52.875,11.4375 53.0625,12.1875 53.0625,13.3125 L53.0625,15.9375 L49.875,15.9375 L49.875,14.25 C49.875,13.5 49.875,12.1875 49.3125,11.625 C48.9375,11.0625 48.1875,11.0625 47.0625,11.0625 L43.6875,11.0625 L43.6875,15.9375 L40.5,15.9375 L40.5,2.625 L47.625,2.625 C49.125,2.625 50.4375,2.625 51.375,3.1875 C52.3125,3.75 53.0625,4.6875 53.0625,6.1875 C53.0625,8.25 51.75,9.375 50.8125,9.75 C51.75,10.125 52.3125,10.5 52.5,10.875 Z M65.4375,5.4375 L58.125,5.4375 L58.125,7.875 L65.25,7.875 L65.25,10.5 L58.125,10.5 L58.125,13.125 L65.4375,13.125 L65.4375,15.9375 L54.9375,15.9375 L54.9375,2.625 L65.4375,2.625 L65.4375,5.4375 Z M73.3125,15.9375 L67.3125,15.9375 L67.3125,13.125 L73.3125,13.125 C73.875,13.125 74.25,13.125 74.625,12.75 C74.8125,12.5625 75,12.1875 75,11.8125 C75,11.4375 74.8125,11.0625 74.625,10.875 C74.4375,10.6875 74.0625,10.5 73.5,10.5 C70.5,10.3125 66.9375,10.5 66.9375,6.375 C66.9375,4.5 68.0625,2.4375 71.4375,2.4375 L77.625,2.4375 L77.625,5.625 L71.8125,5.625 C71.25,5.625 70.875,5.625 70.5,5.8125 C70.125,6 70.125,6.375 70.125,6.75 C70.125,7.3125 70.5,7.5 70.875,7.6875 C71.25,7.875 71.625,7.875 72,7.875 L73.6875,7.875 C75.375,7.875 76.5,8.25 77.25,9 C77.8125,9.5625 78.1875,10.5 78.1875,11.8125 C78.1875,14.625 76.5,15.9375 73.3125,15.9375 Z M89.4375,14.625 C88.6875,15.375 87.375,15.9375 85.5,15.9375 L79.5,15.9375 L79.5,13.125 L85.5,13.125 C86.0625,13.125 86.4375,13.125 86.8125,12.75 C87,12.5625 87.1875,12.1875 87.1875,11.8125 C87.1875,11.4375 87,11.0625 86.8125,10.875 C86.625,10.6875 86.25,10.5 85.6875,10.5 C82.6875,10.3125 79.125,10.5 79.125,6.375 C79.125,4.5 80.25,2.4375 83.625,2.4375 L89.8125,2.4375 L89.8125,5.625 L84.1875,5.625 C83.625,5.625 83.25,5.625 82.875,5.8125 C82.5,6 82.5,6.375 82.5,6.75 C82.5,7.3125 82.6875,7.5 83.25,7.6875 C83.625,7.875 84,7.875 84.375,7.875 L86.0625,7.875 C87.75,7.875 88.875,8.25 89.625,9 C89.8125,9 89.8125,9.1875 89.8125,9.1875 C90.375,9.9375 90.5625,10.875 90.5625,11.8125 C90.5625,12.9375 90.1875,13.875 89.4375,14.625 Z" id="Shape" fill-rule="nonzero"></path>
                                <path d="M49.125,5.8125 C48.75,5.625 48.1875,5.625 47.625,5.625 L43.875,5.625 L43.875,8.625 L47.625,8.625 C48.1875,8.625 48.75,8.625 49.125,8.4375 C49.5,8.25 49.6875,7.6875 49.6875,7.125 C49.875,6.375 49.5,6 49.125,5.8125 Z" id="Path"></path>
                            </g>
                        </g>
                        <g id="Group" stroke-width="1" fill="none" transform="translate(46.875000, 3.750000)">
                            <g id="Path" transform="translate(9.375000, 0.000000)" fill="#0070D0">
                                <path d="M6,2.0625 C5.625,1.875 5.0625,1.875 4.5,1.875 L0.75,1.875 L0.75,4.875 L4.5,4.875 C5.0625,4.875 5.625,4.875 6,4.6875 C6.375,4.5 6.5625,3.9375 6.5625,3.375 C6.75,2.625 6.375,2.25 6,2.0625 Z"></path>
                                <polygon points="28.6875 6.5625 33 6.5625 30.9375 1.3125"></polygon>
                            </g>
                            <g id="Path" transform="translate(0.000000, 22.500000)" fill="#0070D0">
                                <polygon points="6.1875 11.0625 6.1875 0.375 1.3125 5.625"></polygon>
                                <path d="M13.3125,1.6875 L9.375,1.6875 L9.375,5.0625 L13.5,5.0625 C14.625,5.0625 15.375,4.5 15.375,3.375 C15.1875,2.25 14.4375,1.6875 13.3125,1.6875 Z"></path>
                                <path d="M28.5,2.0625 C28.125,1.875 27.5625,1.875 27,1.875 L23.25,1.875 L23.25,4.875 L27,4.875 C27.5625,4.875 28.125,4.875 28.5,4.6875 C28.875,4.5 29.0625,3.9375 29.0625,3.375 C29.25,2.625 28.875,2.25 28.5,2.0625 Z"></path>
                            </g>
                        </g>
                        <polygon id="Path" fill="#0070D0" points="58.875 38.0625 56.25 35.25 56.25 38.4375 50.0625 38.4375 46.3125 34.125 42.1875 38.4375 29.8125 38.4375 29.8125 25.3125 42.375 25.3125 46.3125 29.625 48.1875 27.375 43.5 22.6875 27 22.6875 27 41.0625 43.5 41.0625 46.3125 38.25 48.75 41.0625 58.875 41.0625"></polygon>
                        <g id="Group" stroke-width="1" fill="none">
                            <polygon id="Path" fill="#0070D0" points="39.375 18.5625 36.9375 15.9375 35.8125 15.9375 35.8125 14.8125 33 12 31.125 15.9375 28.5 15.9375 24 5.625 24 15.9375 17.625 15.9375 16.3125 13.125 9.9375 13.125 8.625 15.9375 5.25 15.9375 10.875 2.8125 15.5625 2.8125 20.8125 15.375 20.8125 2.8125 23.625 2.8125 21 0.1875 18.1875 0.1875 18.1875 2.4375 17.25 0.1875 9 0.1875 5.25 9 0.9375 18.5625 5.25 18.5625 10.6875 18.5625 11.8125 15.75 14.4375 15.75 15.75 18.5625 26.25 18.5625 26.25 16.3125 27.1875 18.5625 32.625 18.5625 33.5625 16.3125 33.5625 18.5625"></polygon>
                            <polygon id="Path" fill="#0070D0" points="30.75 9.9375 27.75 6.9375 30 11.8125"></polygon>
                        </g>
                        <g id="Group" stroke-width="1" fill="none" transform="translate(41.250000, 20.625000)">
                            <path d="M74.8125,19.5 C76.5,18.375 77.625,16.5 77.8125,14.4375 L75.1875,11.8125 C75.375,12.375 75.5625,12.9375 75.5625,13.6875 C75.5625,14.8125 75.1875,15.75 74.4375,16.5 C73.6875,17.25 72.375,17.8125 70.5,17.8125 L64.5,17.8125 L64.5,15 L70.5,15 C71.0625,15 71.4375,15 71.8125,14.625 C72,14.4375 72.1875,14.0625 72.1875,13.6875 C72.1875,13.3125 72,12.9375 71.8125,12.75 C71.625,12.5625 71.25,12.375 70.6875,12.375 C67.6875,12.1875 64.125,12.375 64.125,8.25 C64.125,6.375 65.25,4.6875 68.0625,4.3125 L66,2.25 C65.625,2.4375 65.4375,2.625 65.25,2.625 L65.25,1.5 L56.625,1.5 C55.3125,1.5 53.625,1.875 52.875,2.625 L52.875,1.5 L37.5,1.5 L37.5,2.625 C36.375,1.6875 34.3125,1.5 33.375,1.5 L23.25,1.5 L23.25,2.625 C22.3125,1.6875 20.0625,1.5 18.9375,1.5 L7.6875,1.5 L5.0625,4.3125 L2.625,1.5 L0.5625,1.5 L6.1875,7.125 L9,4.125 L18.9375,4.125 C21.375,4.125 24.1875,4.875 24.1875,8.4375 C24.1875,12.1875 21.5625,12.9375 18.75,12.9375 L15,12.9375 L15,15.75 L17.8125,18.5625 L17.8125,15.75 L18.75,15.75 C20.0625,15.75 21.75,15.75 23.0625,15.1875 L23.0625,20.25 L31.5,20.25 L31.5,15.375 L31.875,15.375 C32.4375,15.375 32.4375,15.375 32.4375,15.9375 L32.4375,20.25 L57.9375,20.25 C59.625,20.25 61.3125,19.875 62.25,19.125 L62.25,20.25 L70.3125,20.25 C71.8125,20.4375 73.5,20.25 74.8125,19.5 Z M37.5,12.75 C37.875,13.3125 38.0625,14.0625 38.0625,15.1875 L38.0625,17.8125 L34.875,17.8125 L34.875,16.125 C34.875,15.375 34.875,14.0625 34.3125,13.5 C33.9375,12.9375 33.1875,12.9375 32.0625,12.9375 L28.6875,12.9375 L28.6875,17.8125 L25.5,17.8125 L25.5,4.5 L32.625,4.5 C34.125,4.5 35.4375,4.5 36.375,5.0625 C37.3125,5.625 38.0625,6.5625 38.0625,8.0625 C38.0625,10.125 36.75,11.25 35.8125,11.625 C36.75,12 37.3125,12.375 37.5,12.75 Z M50.4375,7.3125 L43.125,7.3125 L43.125,9.75 L50.25,9.75 L50.25,12.375 L43.125,12.375 L43.125,15 L50.4375,15 L50.4375,17.8125 L39.9375,17.8125 L39.9375,4.5 L50.4375,4.5 L50.4375,7.3125 Z M58.3125,17.8125 L52.3125,17.8125 L52.3125,15 L58.3125,15 C58.875,15 59.25,15 59.625,14.625 C59.8125,14.4375 60,14.0625 60,13.6875 C60,13.3125 59.8125,12.9375 59.625,12.75 C59.4375,12.5625 59.0625,12.375 58.5,12.375 C55.5,12.1875 51.9375,12.375 51.9375,8.25 C51.9375,6.375 53.0625,4.3125 56.4375,4.3125 L62.625,4.3125 L62.625,7.5 L56.8125,7.5 C56.25,7.5 55.875,7.5 55.5,7.6875 C55.125,7.875 55.125,8.25 55.125,8.625 C55.125,9.1875 55.5,9.375 55.875,9.5625 C56.25,9.75 56.625,9.75 57,9.75 L58.6875,9.75 C60.375,9.75 61.5,10.125 62.25,10.875 C62.8125,11.4375 63.1875,12.375 63.1875,13.6875 C63.1875,16.5 61.5,17.8125 58.3125,17.8125 Z" id="Shape" fill="#0070D0" fill-rule="nonzero"></path>
                            <path d="M67.3125,8.625 C67.3125,9.1875 67.5,9.375 68.0625,9.5625 C68.4375,9.75 68.8125,9.75 69.1875,9.75 L70.875,9.75 C72,9.75 72.75,9.9375 73.5,10.3125 L70.6875,7.5 L69,7.5 C68.4375,7.5 68.0625,7.5 67.6875,7.6875 C67.5,7.875 67.3125,8.25 67.3125,8.625 Z" id="Path" fill="#0070D0"></path>
                        </g>
                        <g id="Group" stroke-width="1" fill="none" transform="translate(18.750000, 0.000000)">
                            <polygon id="Path" fill="#0070D0" points="83.25 18 83.625 18.5625 83.8125 18.5625"></polygon>
                            <polygon id="Path" fill="#0070D0" points="72.9375 7.6875 76.125 15.375 76.125 10.875"></polygon>
                            <path d="M40.875,13.875 L41.25,13.875 C41.625,13.875 41.625,13.875 41.625,14.4375 L41.625,18.5625 L55.125,18.5625 L55.125,17.4375 C56.25,18 57.9375,18.5625 60.1875,18.5625 L65.8125,18.5625 L66.9375,15.5625 L69.5625,15.5625 L70.6875,18.5625 L81.5625,18.5625 L81.5625,16.6875 L78.9375,14.0625 L78.9375,16.125 L72.5625,16.125 L71.625,13.125 L65.0625,13.125 L63.9375,16.125 L60.375,16.125 C58.875,16.125 57,15.75 55.875,14.625 C54.75,13.5 54.1875,12 54.1875,9.5625 C54.1875,7.6875 54.5625,5.8125 55.875,4.3125 C56.8125,3.1875 58.5,2.8125 60.5625,2.8125 L63.5625,2.8125 L63.5625,5.625 L60.5625,5.625 C59.4375,5.625 58.875,5.8125 58.125,6.375 C57.5625,6.9375 57.1875,8.0625 57.1875,9.375 C57.1875,10.875 57.375,11.8125 58.125,12.5625 C58.6875,13.125 59.4375,13.3125 60.375,13.3125 L61.6875,13.3125 L66,3 L67.875,3 L65.25,0.375 L60.375,0.375 C58.3125,0.375 56.625,0.75 55.125,1.5 L55.125,0.375 L46.875,0.375 L46.875,1.5 C45.9375,0.75 44.8125,0.375 43.3125,0.375 L13.125,0.375 L11.0625,5.0625 L9,0.375 L0.75,0.375 L3.375,1.125 L7.125,1.125 L10.3125,9.9375 L11.4375,11.0625 L14.8125,2.8125 L20.0625,2.8125 L20.0625,16.125 L16.875,16.125 L16.875,5.8125 L13.6875,13.3125 L19.125,18.75 L40.6875,18.75 L40.875,13.875 Z M49.5,2.8125 L52.6875,2.8125 L52.6875,16.125 L49.5,16.125 L49.5,2.8125 Z M33,5.625 L25.6875,5.625 L25.6875,8.0625 L32.8125,8.0625 L32.8125,10.6875 L25.6875,10.6875 L25.6875,13.3125 L33,13.3125 L33,16.125 L22.5,16.125 L22.5,2.8125 L33,2.8125 L33,5.625 Z M38.25,15.9375 L35.0625,15.9375 L35.0625,2.625 L42.1875,2.625 C43.875,2.625 45,2.625 45.9375,3.1875 C46.875,3.75 47.4375,4.6875 47.4375,6.1875 C47.4375,8.25 46.125,9.375 45.1875,9.75 C45.9375,9.9375 46.5,10.5 46.6875,10.875 C47.0625,11.625 47.25,12.1875 47.25,13.3125 L47.25,15.9375 L44.0625,15.9375 L44.0625,14.25 C44.0625,13.5 44.0625,12.375 43.5,11.625 C43.3125,11.25 42.75,11.25 41.625,11.25 L38.25,11.25 L38.25,15.9375 Z" id="Shape" fill="#0070D0" fill-rule="nonzero"></path>
                        </g>
                    </g>
                </g>
            </g>
        </g>
    </g>
</svg>