<svg width="44" height="16" viewBox="0 0 44 16" fill="none" xmlns="http://www.w3.org/2000/svg">
<path d="M5.872 3.112H2V6.776C2.50133 6.43467 3.04533 6.264 3.632 6.264C4.45333 6.264 5.10933 6.55733 5.6 7.144C6.09067 7.73067 6.336 8.54133 6.336 9.576C6.336 10.28 6.208 10.904 5.952 11.448C5.696 11.992 5.33333 12.4187 4.864 12.728C4.39467 13.0267 3.84533 13.176 3.216 13.176C2.65067 13.176 2.14933 13.0693 1.712 12.856C1.27467 12.632 0.864 12.312 0.48 11.896L1.056 11.384C1.36533 11.736 1.69067 11.9973 2.032 12.168C2.37333 12.328 2.768 12.408 3.216 12.408C3.888 12.408 4.42133 12.1573 4.816 11.656C5.21067 11.144 5.408 10.4453 5.408 9.56C5.408 8.68533 5.22667 8.04 4.864 7.624C4.512 7.208 4.032 7 3.424 7C3.11467 7 2.84267 7.04267 2.608 7.128C2.37333 7.20267 2.112 7.33067 1.824 7.512H1.136V2.36H6.016L5.872 3.112ZM12.8567 0.167999L13.6247 0.344L10.2647 14.584L9.49667 14.408L12.8567 0.167999ZM21.9272 3.112H18.0552V6.776C18.5565 6.43467 19.1005 6.264 19.6872 6.264C20.5085 6.264 21.1645 6.55733 21.6552 7.144C22.1459 7.73067 22.3912 8.54133 22.3912 9.576C22.3912 10.28 22.2632 10.904 22.0072 11.448C21.7512 11.992 21.3885 12.4187 20.9192 12.728C20.4499 13.0267 19.9005 13.176 19.2712 13.176C18.7059 13.176 18.2045 13.0693 17.7672 12.856C17.3299 12.632 16.9192 12.312 16.5352 11.896L17.1112 11.384C17.4205 11.736 17.7459 11.9973 18.0872 12.168C18.4285 12.328 18.8232 12.408 19.2712 12.408C19.9432 12.408 20.4765 12.1573 20.8712 11.656C21.2659 11.144 21.4632 10.4453 21.4632 9.56C21.4632 8.68533 21.2819 8.04 20.9192 7.624C20.5672 7.208 20.0872 7 19.4792 7C19.1699 7 18.8979 7.04267 18.6632 7.128C18.4285 7.20267 18.1672 7.33067 17.8792 7.512H17.1912V2.36H22.0712L21.9272 3.112Z" fill="black"/>
<path d="M43.1175 6.28185C43.0694 6.13464 42.9433 6.02949 42.79 6.00546L38.2235 5.35653L36.1686 1.22563C36.0995 1.08743 35.9583 1.00031 35.8051 1.00031C35.6518 1.00031 35.5106 1.08743 35.4415 1.22863L33.4136 5.37155L28.8471 6.05052C28.6939 6.07455 28.5677 6.1797 28.5196 6.32691C28.4716 6.47412 28.5136 6.63636 28.6248 6.74151L31.9385 9.95309L31.1724 14.5016C31.1454 14.6548 31.2085 14.808 31.3347 14.8982C31.4038 14.9492 31.4879 14.9763 31.572 14.9763C31.6381 14.9763 31.7012 14.9613 31.7613 14.9282L35.8381 12.7681L39.9269 14.9042C39.987 14.9342 40.0501 14.9492 40.1132 14.9492C40.3355 14.9492 40.5188 14.766 40.5188 14.5437C40.5188 14.5106 40.5158 14.4806 40.5068 14.4505L39.7166 9.92906L43.0093 6.69945C43.1265 6.59129 43.1656 6.42906 43.1175 6.28185Z" fill="#FF4769" stroke="#FF4769" stroke-width="0.3"/>
<g style="mix-blend-mode:multiply">
<path fill-rule="evenodd" clip-rule="evenodd" d="M40.29 6.00546C40.4433 6.02949 40.5694 6.13464 40.6175 6.28185C40.6656 6.42906 40.6265 6.59129 40.5093 6.69945L37.2166 9.92906L38.0068 14.4505C38.0158 14.4806 38.0188 14.5106 38.0188 14.5437C38.0188 14.766 37.8355 14.9492 37.6132 14.9492C37.5501 14.9492 37.487 14.9342 37.4269 14.9042L33.3381 12.7681L29.2613 14.9282C29.2012 14.9613 29.1381 14.9763 29.072 14.9763C28.9879 14.9763 28.9038 14.9492 28.8347 14.8982C28.7085 14.808 28.6454 14.6548 28.6724 14.5016L29.4385 9.95309L26.1248 6.74151C26.0136 6.63636 25.9716 6.47412 26.0196 6.32691C26.0677 6.1797 26.1939 6.07455 26.3471 6.05052L30.9136 5.37155L32.9415 1.22863C33.0106 1.08743 33.1518 1.00031 33.3051 1.00031C33.4583 1.00031 33.5995 1.08743 33.6686 1.22563L35.7235 5.35653L40.29 6.00546ZM36.3875 9.85996C36.3634 9.72777 36.4055 9.59258 36.5016 9.49945L39.3647 6.69644L35.399 6.13164C35.2669 6.11061 35.1527 6.02949 35.0926 5.90932L33.3081 2.32219L31.5475 5.91833C31.4905 6.0385 31.3763 6.11962 31.2441 6.14065L27.2814 6.72949L30.1536 9.51747C30.2497 9.61061 30.2917 9.74279 30.2707 9.87498L29.6068 13.8256L33.1458 11.9509C33.266 11.8909 33.4072 11.8879 33.5244 11.9509L37.0754 13.8046L36.3875 9.85996Z" fill="#2443CD"/>
<path d="M40.29 6.00546L40.3133 5.85725L40.3111 5.85695L40.29 6.00546ZM40.5093 6.69945L40.4076 6.58918L40.4043 6.59236L40.5093 6.69945ZM37.2166 9.92906L37.1116 9.82197L37.0553 9.8772L37.0689 9.95488L37.2166 9.92906ZM38.0068 14.4505L37.859 14.4763L37.8605 14.4851L37.8631 14.4936L38.0068 14.4505ZM37.4269 14.9042L37.3575 15.0371L37.3599 15.0383L37.4269 14.9042ZM33.3381 12.7681L33.4076 12.6352L33.3376 12.5986L33.2679 12.6356L33.3381 12.7681ZM29.2613 14.9282L29.191 14.7956L29.189 14.7968L29.2613 14.9282ZM28.8347 14.8982L28.9238 14.7775L28.9219 14.7761L28.8347 14.8982ZM28.6724 14.5016L28.8202 14.5277L28.8204 14.5265L28.6724 14.5016ZM29.4385 9.95309L29.5864 9.97801L29.5995 9.90026L29.5429 9.84538L29.4385 9.95309ZM26.1248 6.74151L26.2292 6.63379L26.2279 6.63254L26.1248 6.74151ZM26.3471 6.05052L26.3251 5.90215L26.3239 5.90233L26.3471 6.05052ZM30.9136 5.37155L30.9357 5.51992L31.0137 5.50832L31.0484 5.4375L30.9136 5.37155ZM32.9415 1.22863L33.0763 1.29458L33.0763 1.29456L32.9415 1.22863ZM33.6686 1.22563L33.8029 1.15882L33.8027 1.15855L33.6686 1.22563ZM35.7235 5.35653L35.5892 5.42334L35.6243 5.49394L35.7024 5.50504L35.7235 5.35653ZM36.5016 9.49945L36.606 9.60718L36.6066 9.60663L36.5016 9.49945ZM36.3875 9.85996L36.5352 9.83419L36.535 9.83313L36.3875 9.85996ZM39.3647 6.69644L39.4696 6.80363L39.687 6.59083L39.3859 6.54794L39.3647 6.69644ZM35.399 6.13164L35.3755 6.27979L35.3779 6.28014L35.399 6.13164ZM35.0926 5.90932L34.9583 5.97613L34.9584 5.9764L35.0926 5.90932ZM33.3081 2.32219L33.4424 2.25538L33.307 1.98326L33.1733 2.25624L33.3081 2.32219ZM31.5475 5.91833L31.4128 5.85237L31.4121 5.85397L31.5475 5.91833ZM31.2441 6.14065L31.2662 6.28903L31.2677 6.28879L31.2441 6.14065ZM27.2814 6.72949L27.2594 6.58112L26.9592 6.62573L27.177 6.83712L27.2814 6.72949ZM30.1536 9.51747L30.0491 9.6251L30.0492 9.62521L30.1536 9.51747ZM30.2707 9.87498L30.4187 9.89984L30.4189 9.89855L30.2707 9.87498ZM29.6068 13.8256L29.4588 13.8008L29.4085 14.1004L29.677 13.9582L29.6068 13.8256ZM33.1458 11.9509L33.0787 11.8167L33.0756 11.8184L33.1458 11.9509ZM33.5244 11.9509L33.4532 12.083L33.455 12.0839L33.5244 11.9509ZM37.0754 13.8046L37.006 13.9376L37.2754 14.0782L37.2232 13.7788L37.0754 13.8046ZM40.7601 6.23529C40.6941 6.0331 40.5208 5.88982 40.3133 5.85727L40.2668 6.15364C40.3657 6.16916 40.4448 6.23618 40.4749 6.32841L40.7601 6.23529ZM40.6111 6.80967C40.7724 6.66073 40.8259 6.43683 40.7601 6.23529L40.4749 6.32841C40.5052 6.42129 40.4806 6.52185 40.4076 6.58923L40.6111 6.80967ZM37.3217 10.0361L40.6144 6.80653L40.4043 6.59236L37.1116 9.82197L37.3217 10.0361ZM38.1545 14.4247L37.3644 9.90324L37.0689 9.95488L37.859 14.4763L38.1545 14.4247ZM38.1688 14.5437C38.1688 14.5013 38.165 14.4558 38.1504 14.4074L37.8631 14.4936C37.8666 14.5054 37.8688 14.5199 37.8688 14.5437H38.1688ZM37.6132 15.0992C37.9184 15.0992 38.1688 14.8488 38.1688 14.5437H37.8688C37.8688 14.6831 37.7527 14.7992 37.6132 14.7992V15.0992ZM37.3599 15.0383C37.4399 15.0784 37.5259 15.0992 37.6132 15.0992V14.7992C37.5743 14.7992 37.5341 14.7901 37.494 14.77L37.3599 15.0383ZM33.2686 12.9011L37.3575 15.0371L37.4964 14.7712L33.4076 12.6352L33.2686 12.9011ZM29.3315 15.0607L33.4083 12.9007L33.2679 12.6356L29.191 14.7957L29.3315 15.0607ZM29.072 15.1263C29.162 15.1263 29.2502 15.1055 29.3336 15.0596L29.189 14.7968C29.1522 14.817 29.1142 14.8263 29.072 14.8263V15.1263ZM28.7455 15.0188C28.8408 15.0892 28.9562 15.1263 29.072 15.1263V14.8263C29.0195 14.8263 28.9668 14.8093 28.9238 14.7775L28.7455 15.0188ZM28.5247 14.4755C28.4876 14.6859 28.5745 14.8966 28.7475 15.0202L28.9219 14.7761C28.8425 14.7194 28.8032 14.6237 28.8202 14.5277L28.5247 14.4755ZM29.2906 9.92818L28.5245 14.4767L28.8204 14.5265L29.5864 9.97801L29.2906 9.92818ZM26.0204 6.84922L29.3341 10.0608L29.5429 9.84538L26.2292 6.63379L26.0204 6.84922ZM25.8771 6.28035C25.8109 6.48293 25.8686 6.70566 26.0217 6.85048L26.2279 6.63254C26.1587 6.56706 26.1322 6.46532 26.1622 6.37348L25.8771 6.28035ZM26.3239 5.90233C26.1163 5.93489 25.9431 6.07817 25.8771 6.28035L26.1622 6.37348C26.1924 6.28124 26.2714 6.21422 26.3704 6.19871L26.3239 5.90233ZM30.8916 5.22318L26.3251 5.90215L26.3692 6.19889L30.9357 5.51992L30.8916 5.22318ZM32.8068 1.16269L30.7789 5.3056L31.0484 5.4375L33.0763 1.29458L32.8068 1.16269ZM33.3051 0.850305C33.0944 0.850305 32.901 0.970208 32.8068 1.1627L33.0763 1.29456C33.1203 1.20465 33.2093 1.15031 33.3051 1.15031V0.850305ZM33.8027 1.15855C33.7083 0.969684 33.5153 0.850305 33.3051 0.850305V1.15031C33.4013 1.15031 33.4906 1.20518 33.5344 1.29271L33.8027 1.15855ZM35.8578 5.28972L33.8029 1.15882L33.5343 1.29244L35.5892 5.42334L35.8578 5.28972ZM40.3111 5.85695L35.7446 5.20802L35.7024 5.50504L40.2689 6.15396L40.3111 5.85695ZM36.3973 9.39171C36.2643 9.52053 36.2071 9.70656 36.2399 9.88679L36.535 9.83313C36.5197 9.74898 36.5467 9.66463 36.606 9.60718L36.3973 9.39171ZM39.2598 6.58926L36.3967 9.39226L36.6066 9.60663L39.4696 6.80363L39.2598 6.58926ZM35.3779 6.28014L39.3436 6.84494L39.3859 6.54794L35.4202 5.98313L35.3779 6.28014ZM34.9584 5.9764C35.0409 6.14134 35.1972 6.25141 35.3755 6.27977L35.4226 5.9835C35.3365 5.9698 35.2645 5.91764 35.2268 5.84224L34.9584 5.9764ZM33.1738 2.38901L34.9583 5.97613L35.2269 5.84251L33.4424 2.25538L33.1738 2.38901ZM31.6823 5.98429L33.4428 2.38815L33.1733 2.25624L31.4128 5.85238L31.6823 5.98429ZM31.2677 6.28879C31.4455 6.2605 31.6034 6.15039 31.683 5.98269L31.4121 5.85397C31.3775 5.92662 31.3071 5.97874 31.2205 5.99251L31.2677 6.28879ZM27.3035 6.87786L31.2662 6.28902L31.2221 5.99228L27.2594 6.58112L27.3035 6.87786ZM30.258 9.40984L27.3859 6.62186L27.177 6.83712L30.0491 9.6251L30.258 9.40984ZM30.4189 9.89855C30.4473 9.71973 30.3904 9.53804 30.2579 9.40974L30.0492 9.62521C30.109 9.68317 30.1362 9.76586 30.1226 9.85142L30.4189 9.89855ZM29.7547 13.8505L30.4186 9.89984L30.1228 9.85012L29.4588 13.8008L29.7547 13.8505ZM33.0756 11.8184L29.5366 13.6931L29.677 13.9582L33.216 12.0835L33.0756 11.8184ZM33.5955 11.8189C33.4313 11.7305 33.2383 11.737 33.0787 11.8168L33.2129 12.0851C33.2937 12.0447 33.3831 12.0453 33.4533 12.083L33.5955 11.8189ZM37.1449 13.6716L33.5938 11.818L33.455 12.0839L37.006 13.9376L37.1449 13.6716ZM36.2397 9.88573L36.9277 13.8304L37.2232 13.7788L36.5352 9.83419L36.2397 9.88573Z" fill="#2443CD"/>
</g>
</svg>
