<svg width="50" height="45" viewBox="0 0 50 45" fill="none" xmlns="http://www.w3.org/2000/svg">
<path fill-rule="evenodd" clip-rule="evenodd" d="M0 23C0 10.8497 9.40202 1 21 1C32.598 1 42 10.8497 42 23C42 35.1503 32.598 45 21 45C9.40202 45 0 35.1503 0 23ZM21 5C11.5107 5 3.81818 13.0589 3.81818 23C3.81818 32.9411 11.5107 41 21 41C30.4893 41 38.1818 32.9411 38.1818 23C38.1818 13.0589 30.4893 5 21 5Z" fill="#2C52FF"/>
<g style="mix-blend-mode:multiply">
<path fill-rule="evenodd" clip-rule="evenodd" d="M28.453 43.953C40.3271 43.953 49.953 34.3271 49.953 22.453C49.953 10.5789 40.3271 0.953003 28.453 0.953003C16.5789 0.953003 6.953 10.5789 6.953 22.453C6.953 34.3271 16.5789 43.953 28.453 43.953Z" fill="#FA4566"/>
</g>
<g style="mix-blend-mode:multiply">
<path d="M21.1643 13.54C22.291 13.54 23.2443 13.7394 24.0243 14.138C24.8217 14.5367 25.4197 15.0654 25.8183 15.724C26.217 16.3827 26.4163 17.0934 26.4163 17.856C26.4163 18.532 26.3037 19.1127 26.0783 19.598C25.8703 20.0834 25.6103 20.482 25.2983 20.794C25.0037 21.106 24.5963 21.4614 24.0763 21.86C23.435 22.3627 22.9583 22.8134 22.6463 23.212C22.3517 23.5934 22.2043 24.096 22.2043 24.72V25.396H18.5903V24.59C18.5903 23.7927 18.6943 23.1254 18.9023 22.588C19.1277 22.0334 19.3877 21.6 19.6823 21.288C19.9943 20.9587 20.3843 20.612 20.8523 20.248C21.355 19.8667 21.719 19.5374 21.9443 19.26C22.1697 18.9654 22.2823 18.5927 22.2823 18.142C22.2823 17.674 22.1437 17.3187 21.8663 17.076C21.589 16.816 21.2077 16.686 20.7223 16.686C19.7863 16.686 18.885 17.1974 18.0183 18.22L15.5743 16.296C16.9957 14.4587 18.859 13.54 21.1643 13.54ZM20.4363 27.84C21.095 27.84 21.641 28.0654 22.0743 28.516C22.5077 28.9667 22.7243 29.504 22.7243 30.128C22.7243 30.7694 22.5077 31.3154 22.0743 31.766C21.641 32.2167 21.095 32.442 20.4363 32.442C19.7777 32.442 19.2317 32.2167 18.7983 31.766C18.3823 31.3154 18.1743 30.7694 18.1743 30.128C18.1743 29.504 18.391 28.9667 18.8243 28.516C19.2577 28.0654 19.795 27.84 20.4363 27.84Z" fill="#2C52FF"/>
</g>
</svg>
