<?xml version="1.0" encoding="UTF-8"?>
<svg width="180px" height="45px" viewBox="0 0 180 45" version="1.1" xmlns="http://www.w3.org/2000/svg" xmlns:xlink="http://www.w3.org/1999/xlink">
    <!-- Generator: Sketch 58 (84663) - https://sketch.com -->
    <title>logo_traces</title>
    <desc>Created with Sketch.</desc>
    <g id="Accueil" stroke="none" stroke-width="1" fill="none" fill-rule="evenodd">
        <g id="Traces---Accueil-(Bureau)" transform="translate(-220.000000, -63.000000)">
            <g id="navigation" transform="translate(220.000000, 20.000000)">
                <g id="logo_traces" transform="translate(0.000000, 43.000000)">
                    <path d="M12.3529412,45 C9.43203408,45 7.26167039,44.2286054 5.84178499,42.6857931 C4.42189959,41.1429807 3.71196755,38.4996686 3.71196755,34.7557773 L3.71196755,17.291229 L0,17.291229 L0,15.2547269 C1.66329432,15.0901602 3.30627992,14.411333 4.92900609,13.2182248 C6.55173225,12.0251166 7.97159635,10.5543242 9.18864097,8.80580357 C10.4056856,7.05728292 11.2576065,5.29850324 11.7444219,3.52941176 L13.3874239,3.52941176 L13.3874239,15.2547269 L18.9858012,15.2547269 L18.9858012,17.291229 L13.3874239,17.291229 L13.3874239,35.5580357 C13.3874239,37.5739772 13.6004035,39.0550548 14.0263692,40.001313 C14.4523348,40.9475713 15.2129817,41.4206933 16.3083164,41.4206933 C17.4847929,41.4206933 18.6815355,40.9064302 19.8985801,39.8778887 L21.1764706,41.7909664 C21.0547661,41.9143914 20.5983812,42.2743755 19.8073022,42.8709296 C19.0162232,43.4674837 17.9716089,43.9714615 16.673428,44.3828782 C15.3752471,44.7942948 13.9350992,45 12.3529412,45 Z M45.5064987,15 C47.1680373,15 48.5284015,15.4761711 49.5876323,16.4285276 C50.6468631,17.380884 51.1764706,18.6878217 51.1764706,20.3493798 C51.1764706,21.7272573 50.7922456,22.9024929 50.023784,23.8751075 C49.2553224,24.8477268 48.0611095,25.3340292 46.4411095,25.3340292 C45.1118787,25.3340292 44.0318948,24.989565 43.2011256,24.3006263 C42.3703563,23.6116876 41.9549779,22.6593454 41.9549779,21.4435712 C41.9549779,20.7141066 42.0899759,20.1568851 42.3599759,19.77189 C42.6299759,19.3868948 42.7649739,19.1538749 42.7649739,19.0728233 C42.7649739,18.8296684 42.5572847,18.7080928 42.1419,18.7080928 C41.4772846,18.7080928 40.8022947,19.2247891 40.1169101,20.2581972 C39.4315254,21.2916053 38.8603801,22.5276239 38.4034571,23.9662901 C37.946534,25.4049562 37.7180758,26.6916313 37.7180758,27.8263539 L37.7180758,39.0722093 C37.7180758,39.963777 37.8323049,40.6121802 38.0607664,41.0174383 C38.289228,41.4226964 38.7046064,41.7063728 39.3069141,41.868476 C39.9092218,42.0305792 40.8749766,42.1116296 42.2042074,42.1116296 L42.2042074,44.1176471 L23.8235294,44.1176471 L23.8235294,42.1116296 C25.0281448,42.1116296 25.9004395,42.0407105 26.4404395,41.8988702 C26.9804395,41.7570299 27.3438956,41.4834848 27.5308187,41.0782267 C27.7177418,40.6729686 27.8112019,40.0043028 27.8112019,39.0722093 L27.8112019,20.8356871 C27.8112019,20.0251709 27.6969729,19.4882121 27.4685113,19.2247943 C27.2400498,18.9613766 26.7519802,18.8296697 26.0042878,18.8296697 L23.8235294,18.8296697 L23.8235294,16.8236522 L34.1042476,15.2431536 L37.4065389,15.2431536 L37.4065389,21.0180523 L37.4688463,21.0180523 C39.4211541,17.0059974 42.1003448,15 45.5064987,15 Z M85.5882353,42.9959514 C84.384077,43.765186 83.1487953,44.2914966 81.8823529,44.5748988 C80.6159106,44.858301 79.2353016,45 77.7404844,45 C76.2456673,45 75.0103855,44.757085 74.0346021,44.2712551 C73.0588187,43.7854227 72.3010408,43.1781413 71.7612457,42.4493927 C69.3529291,44.1498061 66.4463838,45 63.0415225,45 C56.896163,45 53.8235294,42.7530589 53.8235294,38.2591093 C53.8235294,35.5870312 55.3494657,33.3502114 58.4013841,31.548583 C61.4533025,29.7469546 65.6989347,28.3603239 71.1384083,27.388664 L71.1384083,22.3481781 C71.1384083,20.5263067 70.8581343,19.200409 70.2975779,18.3704453 C69.7370214,17.5404817 68.70935,17.1255061 67.2145329,17.1255061 C66.3010335,17.1255061 65.5536361,17.2570837 64.9723183,17.5202429 C64.3910006,17.7834021 64.100346,18.178135 64.100346,18.7044534 C64.100346,18.9473684 64.1730097,19.1801608 64.3183391,19.402834 C64.4636685,19.6255072 64.5570932,19.7773275 64.5986159,19.8582996 C65.1799337,20.6275342 65.4705882,21.417 65.4705882,22.2267206 C65.4705882,23.3198435 65.0242259,24.2914937 64.1314879,25.1417004 C63.2387499,25.9919071 62.0657512,26.417004 60.6124567,26.417004 C59.1591623,26.417004 58.0069247,26.0121498 57.1557093,25.2024291 C56.304494,24.3927085 55.8788927,23.4615437 55.8788927,22.4089069 C55.8788927,21.2348119 56.3563966,20.0910987 57.3114187,18.9777328 C58.2664408,17.8643669 59.8338991,16.9230808 62.0138408,16.1538462 C64.1937825,15.3846115 66.9861421,15 70.3910035,15 C74.1280464,15 76.8477424,15.8501939 78.550173,17.5506073 C80.2526037,19.2510206 81.1038062,21.8016024 81.1038062,25.2024291 L81.1038062,38.5020243 C81.1038062,39.8380634 81.2076114,40.7287427 81.4152249,41.1740891 C81.6228384,41.6194354 81.9757761,41.8421053 82.4740484,41.8421053 C83.1799343,41.8421053 83.7404824,41.7307703 84.1557093,41.5080972 C84.5709363,41.285424 84.7993078,41.1538464 84.8408304,41.1133603 L85.5882353,42.9959514 Z M63.5294118,37.7046695 C63.5294118,39.4026768 63.8085715,40.6018764 64.3668993,41.3023044 C64.9252271,42.0027324 65.7826463,42.3529412 66.9391825,42.3529412 C68.0558381,42.3529412 69.2721769,41.8435466 70.5882353,40.8247423 L70.5882353,30 C68.1156407,30.8065535 66.3210425,31.8359549 65.2043868,33.0882353 C64.0877312,34.3405157 63.5294118,35.8793117 63.5294118,37.7046695 Z M103.693477,45 C99.0622684,45 95.4752028,43.7348305 92.9321729,41.2044534 C90.3891429,38.6740764 89.1176471,35.0607522 89.1176471,30.3643725 C89.1176471,25.4250765 90.502854,21.6295679 93.2733093,18.9777328 C96.0437647,16.3258977 99.7858908,15 104.4998,15 C108.014557,15 110.743621,15.6882522 112.687075,17.0647773 C114.630529,18.4413024 115.602241,20.2226611 115.602241,22.4089069 C115.602241,23.7044599 115.230096,24.757081 114.485794,25.5668016 C113.741493,26.3765223 112.583708,26.7813765 111.012405,26.7813765 C109.647852,26.7813765 108.562429,26.4676145 107.756102,25.840081 C106.949776,25.2125475 106.546619,24.291504 106.546619,23.0769231 C106.546619,22.3886605 106.712016,21.720651 107.042817,21.0728745 C107.290918,20.425098 107.414966,19.9190302 107.414966,19.5546559 C107.414966,18.7854213 107.156532,18.1680185 106.639656,17.7024291 C106.12278,17.2368398 105.326803,17.0040486 104.251701,17.0040486 C103.135249,17.0040486 102.235898,17.327932 101.553621,17.9757085 C100.871345,18.623485 100.354477,19.7671983 100.003001,21.4068826 C99.6515255,23.0465669 99.4757903,25.3441148 99.4757903,28.2995951 C99.4757903,31.6599358 99.7135497,34.2813671 100.189076,36.1639676 C100.664602,38.0465681 101.388217,39.3623444 102.359944,40.111336 C103.331671,40.8603276 104.665191,41.2348178 106.360544,41.2348178 C108.428048,41.2348178 110.03034,40.7692354 111.167467,39.8380567 C112.304594,38.9068779 113.327993,37.4696453 114.237695,35.5263158 L116.470588,36.5587045 C115.726287,38.2186318 114.940647,39.6153789 114.113645,40.7489879 C113.286644,41.8825968 112.025485,42.8744897 110.330132,43.7246964 C108.634779,44.574903 106.422583,45 103.693477,45 Z M150,30.1214575 L131.905123,30.1214575 C132.026566,34.2105468 132.60341,37.0850119 133.635674,38.7449393 C134.667937,40.4048666 136.317509,41.2348178 138.58444,41.2348178 C142.389646,41.2348178 145.162547,39.3320028 146.903226,35.5263158 L149.089184,36.5587045 C148.360528,38.1781457 147.530681,39.5850143 146.59962,40.7793522 C145.66856,41.9736902 144.322589,42.9757045 142.56167,43.7854251 C140.80075,44.5951457 138.564213,45 135.851992,45 C131.237169,45 127.735622,43.7449518 125.347249,41.2348178 C122.958875,38.7246838 121.764706,35.0000247 121.764706,30.0607287 C121.764706,25.0809468 122.989235,21.3259236 125.43833,18.7955466 C127.887425,16.2651695 131.459812,15 136.155598,15 C145.385245,15 150,19.9189791 150,29.757085 L150,30.1214575 Z M139.411765,28.2352941 C139.411765,24.0147651 139.128876,21.0479031 138.563089,19.3346191 C137.997303,17.6213351 136.966779,16.7647059 135.471486,16.7647059 C134.137847,16.7647059 133.137632,17.5795483 132.470813,19.2092575 C131.803993,20.8389667 131.470588,23.8476155 131.470588,28.2352941 L139.411765,28.2352941 Z M167.240506,30 C165.906174,30 164.81162,29.9089078 163.956813,29.7267206 C163.102006,29.5445335 162.236788,29.3117423 161.361132,29.0283401 C160.485476,28.7449379 159.818319,28.6032389 159.359643,28.6032389 C158.775872,28.6032389 158.254656,28.8259087 157.795979,29.2712551 L156.107223,29.2712551 L155.544304,19.4331984 L157.795979,19.4331984 C158.129562,22.1457626 159.099024,24.2510047 160.704393,25.7489879 C162.309762,27.2469711 164.363353,27.9959514 166.865227,27.9959514 C168.616539,27.9959514 170.086368,27.6315789 171.274758,26.902834 C172.463148,26.1740854 173.057334,25.0404935 173.057334,23.5020243 C173.057334,22.4493874 172.702907,21.5991935 171.994043,20.951417 C171.285179,20.3036405 170.117655,19.77733 168.491437,19.3724696 L163.7379,18.2186235 C160.819047,17.4898749 158.682062,16.4068898 157.32688,14.9696356 C155.971698,13.5323815 155.294118,11.7409014 155.294118,9.5951417 C155.294118,6.7206334 156.357398,4.40284281 158.483991,2.6417004 C160.610584,0.880557996 163.508545,-3.55271368e-15 167.17796,-3.55271368e-15 C168.345501,-3.55271368e-15 169.28369,0.0708494939 169.992554,0.212550607 C170.701418,0.354251721 171.514515,0.566800202 172.431869,0.850202429 C173.224129,1.13360466 173.82874,1.27530364 174.245719,1.27530364 C174.662698,1.27530364 174.975427,1.18421144 175.183917,1.00202429 C175.392406,0.819837146 175.559195,0.546560526 175.684289,0.182186235 L177.373045,0.182186235 L177.810871,9.048583 L175.746835,9.048583 C174.370805,4.31171721 171.702179,1.94331984 167.740879,1.94331984 C166.114661,1.94331984 164.801196,2.31781002 163.800447,3.06680162 C162.799702,3.81579322 162.29933,4.75707935 162.29933,5.89068826 C162.29933,7.0647832 162.789273,7.92509848 163.769173,8.47165992 C164.749074,9.01822136 166.093811,9.51416781 167.803425,9.95951417 L171.368578,10.8704453 C174.49592,11.680166 176.7163,12.7833938 178.029784,14.1801619 C179.343268,15.5769301 180,17.3886528 180,19.6153846 C180,22.7328091 178.895022,25.2429055 176.685034,27.145749 C174.475045,29.0485925 171.326901,30 167.240506,30 Z" id="logo" fill="#000000" fill-rule="nonzero"></path>
                    <rect id="Rectangle" fill="#2C52FF" x="155" y="39" width="24" height="6"></rect>
                </g>
            </g>
        </g>
    </g>
</svg>